<svg width="1017" height="1018" viewBox="0 0 1017 1018" fill="none" xmlns="http://www.w3.org/2000/svg">
<path fill-rule="evenodd" clip-rule="evenodd" d="M450.537 7.33414C575.806 -7.1253 701.957 25.7581 804.228 99.53C906.498 173.302 977.503 282.635 1003.3 406.068C1029.11 529.501 1007.84 658.122 943.686 766.683C879.53 875.244 777.114 955.906 656.542 992.836C535.97 1029.77 405.948 1020.3 291.998 966.29C178.047 912.281 88.3978 817.633 40.6457 700.923C-6.50378 585.685 -9.44466 457.156 32.2777 339.963C32.5151 339.987 32.7561 340 32.9999 340C36.8659 340 39.9999 336.866 39.9999 333C39.9999 329.134 36.8659 326 32.9999 326C29.1339 326 25.9999 329.134 25.9999 333C25.9999 335.561 27.3756 337.801 29.4285 339.022C-12.5174 456.893 -9.55152 586.159 37.8691 702.059C85.9046 819.462 176.086 914.672 290.713 969.001C405.339 1023.33 536.133 1032.85 657.421 995.705C778.708 958.555 881.732 877.414 946.269 768.209C1010.81 659.004 1032.2 529.62 1006.24 405.454C980.286 281.288 908.86 171.307 805.983 97.0969C703.105 22.8873 576.206 -10.1913 450.193 4.35393C324.666 18.843 209.049 79.5464 125.853 174.606C124.982 174.217 124.016 174 123 174C119.134 174 116 177.134 116 181C116 184.866 119.134 188 123 188C126.866 188 130 184.866 130 181C130 179.237 129.348 177.627 128.273 176.396C210.967 82.0041 325.833 21.7283 450.537 7.33414Z" fill="#AEB6C4"/>
</svg>
