<svg width="791" height="791" viewBox="0 0 791 791" fill="none" xmlns="http://www.w3.org/2000/svg">
<path fill-rule="evenodd" clip-rule="evenodd" d="M503.875 772.741C409.898 799.74 309.226 790.688 221.571 747.359C133.916 704.03 65.5905 629.544 29.9705 538.484C-5.64951 447.423 -5.99831 346.347 28.9924 255.042C63.983 163.738 131.793 88.7823 219.147 44.8494C306.501 0.916462 407.107 -8.8295 501.269 17.5196C594.866 43.7106 675.396 103.69 727.296 185.816C725.886 187.096 725 188.945 725 191C725 194.866 728.134 198 732 198C735.866 198 739 194.866 739 191C739 187.134 735.866 184 732 184C731.268 184 730.563 184.112 729.9 184.32C677.606 101.512 596.431 41.0332 502.078 14.6306C407.196 -11.9199 305.82 -2.09947 217.799 42.1693C129.778 86.438 61.4491 161.967 26.191 253.969C-9.0671 345.971 -8.71561 447.82 27.1767 539.577C63.0689 631.333 131.917 706.389 220.242 750.049C308.567 793.709 410.008 802.829 504.704 775.625C599.4 748.42 680.532 686.849 732.216 602.967C783.714 519.386 802.28 419.651 784.328 323.16C786.515 321.976 788 319.661 788 317C788 313.134 784.866 310 781 310C777.134 310 774 313.134 774 317C774 320.866 777.134 324 781 324C781.145 324 781.288 323.996 781.43 323.987C799.159 419.66 780.72 518.526 729.662 601.393C678.37 684.639 597.853 745.743 503.875 772.741Z" fill="#A1B2CC"/>
</svg>
