<svg width="153" height="50" viewBox="0 0 153 50" fill="none" xmlns="http://www.w3.org/2000/svg"><g id="авиастар 1"><g id="Слой 2"><g id="Слой 1"><path id="Vector" d="M43.455 18.047c-1.322.779-2.689 1.487-3.951 2.356-1.078.739-2.201.913-3.463.897-3.926-.05-7.851-.016-11.777-.022-1.089 0-1.957.37-2.655 1.27-2.038 2.632-4.12 5.229-6.203 7.825a1.07 1.07 0 01-.709.39c-4.08.022-8.163.014-12.245.01a1.133 1.133 0 01-.23-.09l3.71-1.46c2.218-.872 4.442-1.734 6.655-2.62a6.208 6.208 0 001.229-.676c.752-.527.67-1.351.549-2.09-.268-1.613-.616-3.213-.951-4.813-.335-1.6.361-2.943 1.898-3.348 3.483-.92 6.967-1.864 10.489-2.598 3.952-.821 7.942-1.473 11.93-2.102 2.546-.406 5.108-.64 7.665-.927 2.47-.279 4.94-.54 7.413-.784 1.988-.195 3.98-.35 5.97-.52.135.009.27.027.402.056-1.09.656-2.05 1.243-3.02 1.812a2211.676 2211.676 0 01-9.362 5.459c-.325.182-.69.281-1.062.289-2.565.023-5.133.089-7.693-.025-1.194-.054-1.786.5-2.331 1.509h7.695l.047.202z" fill="#000"/><path id="Vector_2" d="M44.185 9.09c-1.135.15-2.244.32-3.36.433-.202.02-.46-.135-.635-.284C37.2 6.755 33.76 5.3 29.925 4.947c-4.823-.442-9.232.77-13.13 3.7-4.22 3.175-6.71 7.433-7.464 12.675-.218 1.513-.1 3.082-.068 4.624.014.619-.092.993-.746 1.169-.654.176-1.282.476-1.933.723C4.932 20.89 7.752 10.36 17.016 4.898 27.063-1.021 38.7 2.424 44.186 9.09z" fill="#000"/><path id="Vector_3" d="M7.6 31.781c.98 0 1.895-.046 2.798.031.233.02.504.388.638.657 1.02 2.046 2.312 3.893 3.97 5.454 3.066 2.886 6.667 4.638 10.865 5.135 3.653.431 7.143-.127 10.44-1.728 3.847-1.87 6.798-4.722 8.694-8.607.343-.7.7-1.049 1.5-.96.68.073 1.374.014 2.17.014-1.2 3.307-3.082 6.018-5.521 8.378-3.781 3.665-8.363 5.752-13.5 6.049-11.455.663-19.472-6.908-22.053-14.423z" fill="#000"/><path id="Vector_4" d="M26.961 22.358l-4.785 6.045.05.09c.67-.31 1.332-.619 1.997-.932.745-.354 1.464-.783 2.237-1.054 1.556-.54 2.322-1.91 3.224-3.1.585-.773 1.175-1.172 2.157-1.064.791.087 1.6.018 2.538.018-.466.608-.856 1.132-1.261 1.644-1.665 2.103-3.337 4.198-4.998 6.302a1.147 1.147 0 01-1.022.486c-1.018-.035-2.038-.01-3.215-.01L26 28.068c-.658.293-1.142.494-1.608.721-1.164.564-2.314 1.161-3.49 1.7a3.3 3.3 0 01-1.214.279c-1.02.038-2.044.012-3.23.012.214-.295.34-.481.478-.657 1.946-2.448 3.886-4.901 5.852-7.33a1.24 1.24 0 01.818-.416c1.051-.048 2.116-.02 3.354-.02z" fill="#000"/><path id="Vector_5" d="M35.349 30.782l1.654-2.133-.041-.072c-.873.522-1.782.99-2.606 1.581-.72.514-1.466.676-2.32.634-.853-.042-1.722-.01-2.74-.01.902-1.144 1.706-2.174 2.525-3.191a.593.593 0 01.394-.213c1.15-.017 2.302-.009 3.542-.009l-.446.788c1.022-.62 1.947-1.127 2.813-1.722.67-.46 1.263-1.035 1.898-1.55.134-.104.289-.234.438-.236 1.13-.02 2.263-.011 3.596-.011l-3.603 4.567 8.85.83c-.474.54-.907.764-1.524.76-3.856-.025-7.712-.013-11.569-.013h-.861z" fill="#000"/><path id="Vector_6" d="M48.661 16.207c1.529 4.255 1.809 8.47.855 12.808l-2.924-.295c.134-.862.258-1.647.358-2.432.341-2.698.09-5.439-.738-8.027-.134-.412-.078-.604.284-.8.7-.384 1.383-.799 2.165-1.254z" fill="#000"/><path id="Vector_7" d="M68.917 15.31c.044.325.077.564.11.793 2.365.607 3.329 1.56 3.145 3.177-.173 1.52-.694 2.693-3.125 2.85l-.134.932c-.317 0-.644-.019-.966 0-.41.03-.654-.085-.6-.551.042-.378-.177-.424-.488-.449-1.707-.135-2.62-1.139-2.627-2.848-.007-1.804.896-2.827 2.63-3.017.17-.018.464-.21.46-.31-.028-.577.304-.61.726-.586.287.022.57.009.869.009zm.11 2.091v3.434c1.006 0 1.39-.405 1.441-1.436.067-1.348-.304-1.89-1.44-1.998zm-1.711.018c-1.072.092-1.533.777-1.42 1.966.108 1.14.458 1.5 1.42 1.42V17.42z" fill="#000"/><path id="Vector_8" d="M81.933 33.501H80.43v-4.93l-1.545 3.695c-.604 1.446-.61 1.449-2.267 1.181V25.88h1.45v5.085l1.512-3.598c.026-.062.035-.135.062-.193.616-1.454.616-1.454 2.294-1.321l-.004 7.648z" fill="#000"/><path id="Vector_9" d="M78.335 22.984a.975.975 0 01-.182.066c-1.29.108-1.29.108-1.289-1.188v-3.794c-.299.73-.57 1.4-.847 2.067-.276.668-.628 1.351-.845 2.049-.217.697-.585 1.008-1.308.885a6.534 6.534 0 00-.757-.04v-7.711c.389 0 .783-.04 1.162.021.134.02.326.287.324.44 0 1.256-.052 2.512-.084 3.767a.953.953 0 00.134.595l1.052-2.486c.234-.556.517-1.1.684-1.678.168-.578.502-.728 1.038-.676.283.03.573 0 .917 0l.001 7.683z" fill="#000"/><path id="Vector_10" d="M134.251 15.345h1.419v5.045c.276-.632.489-1.097.684-1.57.42-1.013.827-2.027 1.246-3.047.172-.415 1.533-.695 1.816-.364.085.102.092.294.092.444 0 2.227-.012 4.46.012 6.68 0 .702-.459.506-.821.526-.383.022-.754.073-.741-.54.032-1.455.011-2.912.011-4.333l-1.536 3.65a3.01 3.01 0 00-.203.495c-.126.59-.474.81-1.06.736a7.915 7.915 0 00-.919 0v-7.723z" fill="#000"/><path id="Vector_11" d="M89.937 18.328l-.947 2.245c-.2.474-.402.946-.597 1.426-.497 1.171-.5 1.185-1.752 1.046-.163-.02-.43-.264-.431-.406a470.9 470.9 0 01-.015-6.878c0-.716.559-.39.89-.442.333-.053.657-.031.65.49-.023 1.468-.009 2.937-.009 4.584l1.676-4.097c.409-1.001.409-1.001 1.491-.985.176 0 .351.021.58.036v7.658h-1.441v-4.644l-.095-.033z" fill="#000"/><path id="Vector_12" d="M74.673 29.426c.952.62 1.165 1.477.952 2.488-.205.967-.68 1.5-1.65 1.568-1.102.077-2.214.018-3.38.018v-7.672c1.34.06 2.727-.278 4.036.29 1.24.536 1.284 2.309.042 3.308zm-2.47 2.93h.862c.438-.009.861-.166.864-.64 0-.494-.048-1.099-.328-1.449-.184-.228-.817-.098-1.249-.102-.05 0-.134.169-.142.262-.013.616-.007 1.234-.007 1.93zm.035-3.475c.596.099 1.206.17 1.525-.365.175-.293.178-.897-.014-1.16-.34-.466-.944-.422-1.51-.31v1.835z" fill="#000"/><path id="Vector_13" d="M102.089 44.005v-7.567c1.19 0 2.382-.15 3.519.039 1.399.234 1.852 1.892.938 3.018a3.974 3.974 0 01-.462.405c.903.61 1.136 1.44.981 2.432-.134.858-.753 1.6-1.608 1.658-1.105.072-2.219.015-3.368.015zm1.575-3.401c0 .687-.006 1.266 0 1.845 0 .117.092.336.134.335.433-.012 1.028.096 1.257-.142.279-.29.364-.895.312-1.337-.029-.26-.457-.54-.763-.675-.238-.114-.559-.026-.945-.026h.005zm.038-1.216c.588.046 1.192.188 1.49-.379.161-.305.179-.968-.008-1.114-.363-.282-.918-.31-1.482-.467v1.96z" fill="#000"/><path id="Vector_14" d="M108.41 15.315c1.627 0 3.205-.008 4.784.016a.505.505 0 01.349.351c.021 2.425.016 4.849.016 7.227-.098.072-.134.115-.169.12-1.443.17-1.442.17-1.444-1.267 0-1.641-.004-3.283-.012-4.924a.877.877 0 00-.063-.187h-1.887v6.362h-1.574v-7.698z" fill="#000"/><path id="Vector_15" d="M86.342 40.773c-.217.176-.512.31-.64.54a10.83 10.83 0 00-.912 1.941c-.206.645-.558.851-1.179.773a8.503 8.503 0 00-.947 0c.557-1.132 1.063-2.162 1.592-3.243-.85-.518-1.287-1.284-1.276-2.279a2.126 2.126 0 01.618-1.513 2.09 2.09 0 011.504-.612c.847-.007 1.694.015 2.546-.007.42-.01.595.11.592.568-.018 2.18-.018 4.36 0 6.539 0 .405-.134.551-.536.54-1.36-.017-1.088.064-1.11-1.108-.014-.647 0-1.294 0-1.943l-.252-.196zm.217-3.169c-.702-.107-1.387-.154-1.73.466-.171.308-.111.929.097 1.231.375.54 1.016.503 1.633.357v-2.054z" fill="#000"/><path id="Vector_16" d="M120.778 19.204c0-.584-.035-1.17.008-1.757.121-1.621 1.641-2.567 3.457-2.188 1.165.244 1.804.825 1.895 2.09a25.02 25.02 0 01-.063 4.024c-.088 1.007-.834 1.63-1.836 1.735-.488.05-.979.05-1.466 0-1.16-.115-1.944-1.005-1.992-2.231-.022-.55-.003-1.112-.003-1.673zm3.691-.03c0-.584.012-1.167 0-1.75-.015-.54-.295-.875-.84-.946-.588-.067-1.064.118-1.087.779-.041 1.267-.022 2.539-.016 3.808 0 .627.402.873.956.882.577.011.959-.363.984-.96.026-.598-.002-1.207-.002-1.813h.005z" fill="#000"/><path id="Vector_17" d="M83.508 16.63h-1.607c0 .38.016.732 0 1.08-.075 1.318-.094 2.644-.268 3.948-.134 1.027-.72 1.465-1.608 1.486-1.038.028-1.11-.06-.963-1.16.974-.054 1.088-.17 1.113-1.204.039-1.592.097-3.184.09-4.776 0-.576.19-.72.729-.707 1.352.035 2.703.012 4.14.012v1.487c0 1.82-.03 3.64.014 5.46.015.652-.178.903-.818.81a6.652 6.652 0 00-.816 0l-.006-6.436z" fill="#000"/><path id="Vector_18" d="M102.789 16.635h-1.555c0 .303.008.565 0 .827-.037 1.188-.054 2.377-.126 3.564-.073 1.216-.661 1.996-1.512 2.104-1.047.135-1.205-.023-1.096-1.099.866-.127 1.004-.31 1.021-1.36.027-1.57.071-3.142.067-4.715 0-.496.142-.676.647-.656a83.56 83.56 0 003.679 0c.402 0 .547.127.544.54a495.558 495.558 0 000 6.679c0 .405-.134.585-.536.54a2.346 2.346 0 00-.535 0c-.483.06-.606-.16-.601-.621.023-1.642.008-3.284.008-4.924l-.005-.879z" fill="#000"/><path id="Vector_19" d="M146.219 22.943c-.069.039-.142.07-.218.095-1.44.148-1.442.148-1.442-1.283v-5.104h-1.555c0 .964.023 1.902-.008 2.838-.018.694-.08 1.385-.185 2.07-.153.946-.768 1.529-1.565 1.584-1.031.073-1.14-.055-.967-1.139.873-.047.979-.095 1.017-1.024.065-1.66.075-3.322.067-4.983 0-.519.134-.713.67-.697 1.205.036 2.411.012 3.609.012.296 0 .584-.027.583.425-.01 2.4-.006 4.804-.006 7.206z" fill="#000"/><path id="Vector_20" d="M100.955 40.285c0 .54.008 1.081 0 1.622-.02.994-.459 1.698-1.393 2.084-1.41.58-3.216.086-3.729-1.111a4.406 4.406 0 01-.288-1.631c-.013-1.052-.025-2.118.142-3.149.115-.562.432-1.06.89-1.4 1.054-.71 2.237-.668 3.361-.09.76.39.97 1.135 1.013 1.925.03.58.004 1.165.004 1.75zm-3.716-.104c0 .54-.011 1.081 0 1.615.016.705.37 1.128.947 1.157.639.032 1.06-.331 1.088-1.072.04-1.12.04-2.245 0-3.363-.027-.692-.47-1.094-1.037-1.081-.567.012-.95.414-.989 1.127-.032.54-.01 1.08-.01 1.617z" fill="#000"/><path id="Vector_21" d="M58.594 44.044V16.027c0-.158-.053-.353.02-.464.097-.148.29-.317.447-.32.156-.002.368.149.477.292.075.101.02.304.02.462V43.32c.004.87-.008.87-.964.725z" fill="#000"/><path id="Vector_22" d="M74.16 44.019v-6.412h-1.575c0 .698.027 1.388 0 2.073-.048 1.004-.066 2.019-.23 3.005-.195 1.164-1.114 1.736-2.219 1.396-.222-.069-.295-.634-.494-1.107 1.034.102 1.255-.375 1.256-1.08 0-1.505.026-3.01.03-4.514 0-1 0-1.002.951-1.002 1.072 0 2.144.026 3.207-.01.536-.02.737.135.73.708-.033 2.089-.03 4.18 0 6.27 0 .54-.159.738-.683.676-.292-.029-.582-.003-.972-.003z" fill="#000"/><path id="Vector_23" d="M92.894 44.016v-3.455h-1.95v3.297c-.114.079-.148.12-.187.125-1.463.158-1.463.158-1.463-1.32 0-1.821.024-3.65-.016-5.463-.013-.632.142-.926.804-.83.277.018.554.018.83 0v2.838c.606 0 1.117.037 1.608-.024.134-.015.326-.316.335-.495.038-.735.016-1.474.016-2.266h1.592c.033.105.056.212.067.322 0 2.247 0 4.496.012 6.743 0 .362-.102.54-.492.524-.344-.012-.699.004-1.156.004z" fill="#000"/><path id="Vector_24" d="M115.681 36.374V39.3l.128.057c.236-.377.474-.752.704-1.131.134-.23.268-.468.402-.704.698-1.272.844-1.34 2.435-1.052-.394.627-.717 1.262-1.154 1.806-.699.866-.922 1.654-.233 2.686.6.9.986 1.945 1.529 3.051-.6 0-1.083.029-1.557-.017-.146-.014-.322-.207-.402-.362-.413-.838-.804-1.69-1.206-2.552-.652.406-.642 1-.633 1.614.018 1.46-.053 1.512-1.486 1.269-.019 0-.035-.025-.134-.099v-1.808c0-1.621.037-3.243-.02-4.857-.027-.72.229-.923.876-.83.25.016.501.017.751.003z" fill="#000"/><path id="Vector_25" d="M69.95 33.527c-.497 0-.939.022-1.376-.015a.544.544 0 01-.36-.288 2.713 2.713 0 01-.169-.645c-.206-1.002-.205-.97-1.258-1.007-.536-.02-.726.175-.833.675-.303 1.444-.415 1.495-2.01 1.175.142-.579.268-1.158.43-1.729.503-1.812 1.03-3.616 1.514-5.432.095-.358.245-.45.593-.457 1.638-.03 1.654-.044 2.06 1.572.458 1.823.883 3.648 1.317 5.482.05.196.056.395.091.67zm-2.814-6.115l-.15-.012-.595 2.858h1.242l-.497-2.846z" fill="#000"/><path id="Vector_26" d="M106.283 33.53c-.493 0-.899.048-1.284-.02-.194-.034-.375-.261-.514-.44-.087-.112-.089-.296-.122-.448-.228-1.04-.229-1.012-1.255-1.049-.52-.019-.741.153-.865.666-.339 1.423-.361 1.418-2.021 1.229.201-.776.388-1.544.597-2.306.432-1.575.887-3.146 1.308-4.73.114-.43.289-.628.769-.63 1.531 0 1.538-.025 1.912 1.478.465 1.867.916 3.74 1.37 5.61.04.174.065.353.105.64zm-2.847-6.098l-.158-.012c-.199.92-.402 1.842-.611 2.838h1.236c-.158-.966-.313-1.897-.467-2.825z" fill="#000"/><path id="Vector_27" d="M120.253 23.026h-1.741a15.593 15.593 0 01-.329-1.527c-.049-.42-.247-.526-.619-.498-.267.02-.545-.04-.803.02a1.02 1.02 0 00-.461.364c-.077.093-.075.254-.107.385-.366 1.475-.366 1.475-2.033 1.217.236-.903.462-1.8.708-2.694.401-1.469.844-2.928 1.221-4.405.109-.424.258-.599.706-.582 1.966.07 1.502-.344 1.978 1.53.516 2.038.981 4.091 1.48 6.19zm-2.879-6.098l-.154-.02c-.194.946-.388 1.881-.589 2.85h1.232l-.489-2.83z" fill="#000"/><path id="Vector_28" d="M92.121 22.981l1.215-4.442c.243-.886.507-1.768.722-2.66.103-.425.304-.593.74-.575 1.876.073 1.474-.374 1.957 1.56.46 1.822.885 3.655 1.323 5.485.045.193.076.39.134.706-.536 0-1.008.022-1.474-.014-.126-.011-.28-.184-.344-.32-.065-.135-.054-.35-.084-.528-.203-1.238-.413-1.394-1.651-1.178a.717.717 0 00-.366.301 1.155 1.155 0 00-.106.387c-.378 1.54-.378 1.54-2.066 1.278zm3.208-6.146h-.125l-.582 2.923h1.22c-.184-1.019-.347-1.97-.513-2.923z" fill="#000"/><path id="Vector_29" d="M88.616 33.523c-.536 0-.99.028-1.445-.018-.134-.013-.29-.214-.378-.364-.074-.126-.062-.303-.097-.456-.274-1.196.03-1.08-1.34-1.11-.464-.01-.724.12-.75.606 0 .022-.021.04-.028.062-.416 1.456-.416 1.456-2.032 1.217.099-.406.186-.818.296-1.217.525-1.92 1.072-3.835 1.577-5.76.124-.468.292-.694.841-.675 1.486.049 1.509.011 1.864 1.44.509 2.05.98 4.113 1.492 6.275zm-2.882-6.09h-.141l-.591 2.81h1.23c-.175-.993-.335-1.902-.498-2.81z" fill="#000"/><path id="Vector_30" d="M111.536 41.278c.536.054 1.151-.056 1.499.199.349.255-.162 1.72-.658 2.119-.901.724-1.936.71-2.976.405-.903-.26-1.358-.958-1.376-1.858-.029-1.408-.078-2.838.099-4.224.169-1.335 1.508-1.945 3.171-1.646 1.235.222 1.893 1.16 1.742 2.56h-1.502c-.063-.27-.053-.579-.201-.764-.212-.26-.547-.595-.817-.585-.271.01-.759.386-.771.623a39.196 39.196 0 000 4.17c.014.238.488.596.779.627.243.026.616-.29.771-.551.172-.281.162-.679.24-1.075z" fill="#000"/><path id="Vector_31" d="M108.543 30.388v3.078h-1.599v-7.551c1.186 0 2.342-.088 3.484.025 1.072.107 1.787 1.265 1.664 2.402-.134 1.18-.986 2.027-2.093 2.044-.466.01-.928.002-1.456.002zm-.023-2.215c.159.34-.378 1.08.584 1.055.875-.023 1.284-.34 1.289-1.073 0-.771-.331-1.032-1.176-1.093-.948-.068-.653.592-.697 1.11z" fill="#000"/><path id="Vector_32" d="M92.639 28.445c-.022-.34 0-.572-.057-.783-.112-.423-.347-.704-.85-.689-.463.015-.838.181-.854.658-.047 1.368-.075 2.738 0 4.102.015.253.512.62.836.683.458.09.77-.288.866-.751a6.01 6.01 0 00.059-.834c.075-.047.114-.095.147-.09.48.055 1.072-.034 1.405.22.334.254-.186 1.71-.632 2.135-.815.774-3.225.854-3.93-.295-.238-.385-.443-.858-.46-1.298-.05-1.207-.105-2.433.05-3.622.231-1.769 1.552-2.54 3.295-2.088 1.08.28 1.727 1.081 1.742 2.08.006.44-.134.615-.576.577-.329-.027-.66-.005-1.041-.005z" fill="#000"/><path id="Vector_33" d="M76.996 36.469a.848.848 0 01.174-.07c1.443-.15 1.443-.15 1.44 1.282v1.46c.56.067 1.084.098 1.597.194 1.267.24 1.924 1.273 1.769 2.73-.134 1.248-.922 1.949-2.205 1.953h-2.775v-7.55zm1.648 6.369c.575-.026 1.15.203 1.504-.364a1.346 1.346 0 00-.046-1.567c-.363-.502-.897-.461-1.458-.335v2.266z" fill="#000"/><path id="Vector_34" d="M65.193 42.996c.962-.117 1.097-.347.772-1.216-.66-1.757-1.319-3.514-2.02-5.393.575 0 1.08-.044 1.57.024.16.023.341.312.41.515.36 1.035.684 2.08 1.085 3.319.317-.973.587-1.757.832-2.56.451-1.467.446-1.47 2.131-1.238-.104.32-.194.63-.305.933-.67 1.828-1.313 3.673-2.055 5.473-.204.493-.65 1.017-1.118 1.239-.946.446-1.448-.019-1.302-1.096z" fill="#000"/><path id="Vector_35" d="M96.872 27.073h-.971c-1.072 0-1.099-.03-.876-1.208h5.367v1.197h-1.86v1.825c0 1.304-.035 2.61.015 3.919.023.616-.181.81-.759.735a7.532 7.532 0 00-.916 0v-6.468z" fill="#000"/><path id="Vector_36" d="M131.319 18.513c.489 1.102-.346 1.352-.967 1.786.557.567 1.473.93.996 2.027-.535-.444-1.14-.811-1.528-1.335-.207-.279-.197-.972.012-1.253.366-.487.959-.806 1.487-1.225z" fill="#000"/><path id="Vector_37" d="M133.418 18.451c.124 1.055.124 1.055-.988 1.87.495.525 1.418.844.991 1.844-.678-.196-1.734-1.196-1.755-1.678-.055-1.21 1.104-1.277 1.752-2.036z" fill="#000"/><path id="Vector_38" d="M148.121 20.199c-.717-.413-1.34-.811-.909-1.777.546.428 1.166.774 1.571 1.291.194.248.134.947-.085 1.217-.38.485-.967.81-1.474 1.202-.49-1.009.338-1.35.897-1.933z" fill="#000"/><path id="Vector_39" d="M149.341 22.12c-.389-.986.242-1.402.902-1.892-.693-.405-1.317-.81-.897-1.777.489.388 1.082.691 1.407 1.176.212.315.206 1.01 0 1.33-.32.478-.904.766-1.412 1.163z" fill="#000"/><path id="Vector_40" d="M95.33 16.835l.512 2.924h-1.219l.581-2.922.125-.002z" fill="#fff"/></g></g></g></svg>