<svg width="101" height="50" viewBox="0 0 101 50" fill="none" xmlns="http://www.w3.org/2000/svg"><g id="Gazprom-Logo-rus"><g id="layer1"><g id="g2058" fill="#464646"><path id="path26" d="M31.589 31.881h6.28v2.067H34.88v14.524h-3.292v-16.59z"/><path id="path28" d="M41.591 42.244l.564-8.296h.19l.563 8.296h-1.317zm-3.646 6.228h3.224l.305-4.406h1.552l.306 4.406h3.222l-1.717-16.59h-5.175l-1.717 16.59z"/><path id="path30" d="M51.27 42.665v3.128c0 .422.323.544.512.544.31 0 .526-.258.526-.544v-3.862c0-.517-.094-1.088-1.322-1.088h-1.337v-1.822h1.39c.932 0 1.27-.218 1.27-1.238v-3.29a.532.532 0 00-.527-.545c-.189 0-.513.11-.513.544V37.2h-3.293v-2.353c0-1.156.135-2.965 2.443-2.965h2.726c2.308 0 2.457 1.809 2.457 2.965v2.652c0 1.808-1.255 2.298-2.24 2.257v.163c2.213-.054 2.24 1.66 2.24 2.244v3.345c0 1.17-.149 2.965-2.457 2.965H50.42c-2.308 0-2.443-1.795-2.443-2.965v-2.842h3.293z"/><path id="path32" d="M57.762 31.881h7.626v16.591h-3.293V33.948h-1.04v14.524h-3.293v-16.59z"/><path id="path34" d="M70.841 41.006v-7.058h.432c.351 0 .608.3.608.83v5.399c0 .53-.257.83-.608.83h-.432zm-3.293 7.466h3.293v-5.644h1.89c2.295 0 2.443-1.795 2.443-2.964v-5.018c0-1.156-.148-2.965-2.443-2.965h-5.183v16.591z"/><path id="path36" d="M81.667 45.793a.532.532 0 01-.527.544.507.507 0 01-.513-.544v-11.3c0-.436.324-.545.513-.545.31 0 .527.259.527.544v11.301zm-4.333-.286c0 1.17.148 2.965 2.443 2.965h2.74c2.295 0 2.443-1.795 2.443-2.965V34.846c0-1.156-.148-2.965-2.443-2.965h-2.74c-2.294 0-2.443 1.809-2.443 2.965v10.661z"/><path id="path38" d="M95.677 31.881h4.292v16.591h-3.293V38.069h-.122l-1.7 10.403H92.22l-1.687-10.403h-.121v10.403h-3.294v-16.59h4.279l2.146 11.667 2.133-11.668z"/><path id="path40" d="M27.321 9.198C26.313 4.752 23.786 1.134 23.438.55c-.55.83-2.566 4.025-3.59 7.56-1.12 3.958-1.284 7.466-.898 10.907.383 3.454 1.832 7.003 1.832 7.003.769 1.85 1.922 3.849 2.672 4.828 1.1-1.442 3.628-5.739 4.417-11.342.439-3.127.457-5.86-.55-10.308zm-3.883 20.535c-.495-.939-1.265-2.72-1.338-5.494-.019-2.666 1.044-4.964 1.354-5.44.277.476 1.192 2.475 1.302 5.209.074 2.665-.806 4.773-1.318 5.725zm3.59-12.987c-.037 1.7-.238 3.495-.495 4.569.092-1.85-.128-4.447-.55-6.487-.42-2.026-1.612-5.426-2.564-6.99-.879 1.496-1.961 4.434-2.528 6.977-.57 2.543-.586 5.63-.586 6.554-.151-.775-.529-3.563-.422-6.35.089-2.299.623-4.678.916-5.766 1.118-3.631 2.383-5.956 2.62-6.324.238.368 1.83 3.237 2.657 6.242.822 3.006.988 5.889.953 7.575z"/><path id="path42" d="M24.766 31.948H17.1v5.181c.007 0 .012-.013.019-.013a4.598 4.598 0 016.543 0c1.806 1.808 1.806 4.76 0 6.582-.009.013-.017.013-.025.027-.01 0-.019.013-.027.027a9.196 9.196 0 01-6.51 2.693 9.147 9.147 0 01-6.533-2.72c-3.18-3.196-3.557-8.16-1.132-11.777.326-.49.703-.952 1.132-1.387a9.147 9.147 0 016.533-2.72V15.385C8.013 15.385.647 22.796.647 31.948S8.013 48.525 17.1 48.525c4.738 0 9.006-2.026 12.008-5.249V31.948h-4.342z"/></g></g></g></svg>