<svg width="142" height="50" viewBox="0 0 142 50" fill="none" xmlns="http://www.w3.org/2000/svg"><g id="Росатом" clip-path="url(#clip0_369_16962)"><path id="Vector" d="M29.015 28.563a5.227 5.227 0 01-5.635 1.417 5.231 5.231 0 01-2.44-1.81 5.252 5.252 0 011.956-7.864 5.217 5.217 0 015.748.845 5.234 5.234 0 011.721 3.628 5.247 5.247 0 01-1.35 3.784z" fill="url(#paint0_radial_369_16962)"/><path id="Vector_2" d="M26.504 7.079c.432.433.842.875 1.205 1.316a20.625 20.625 0 013.09 5.003c1.24.232 2.502.32 3.762.264h.424a14.323 14.323 0 009.047-4.368l.317-.326a25.314 25.314 0 00-1.5-1.665A24.968 24.968 0 0010.22 4.98c7.648-3.733 12.956-1.162 16.285 2.099z" fill="url(#paint1_linear_369_16962)"/><path id="Vector_3" d="M8.8 32.528c.154-.596.331-1.17.524-1.704a20.812 20.812 0 012.781-5.181 16.278 16.278 0 00-1.653-3.392l-.123-.194-.116-.163a14.32 14.32 0 00-8.227-5.63l-.44-.132a27.404 27.404 0 00-.688 2.13 25.136 25.136 0 001.666 17.415A25.041 25.041 0 0015.14 47.762C8.073 42.96 7.633 37.043 8.8 32.528z" fill="url(#paint2_linear_369_16962)"/><path id="Vector_4" d="M39.706 35.215c-.594.163-1.181.295-1.745.395a20.582 20.582 0 01-5.864.17 16.27 16.27 0 00-2.1 3.099c0 .07-.07.131-.101.2-.032.061-.06.123-.085.187a14.354 14.354 0 00-.773 9.975c0 .147.085.294.132.441.726-.131 1.46-.27 2.186-.464a25.031 25.031 0 0014.185-10.15 25.143 25.143 0 004.138-16.972c-.618 8.542-5.508 11.872-9.973 13.12z" fill="url(#paint3_linear_369_16962)"/><path id="Vector_5" d="M10.182 4.98a23.71 23.71 0 00-8.258 10.246 14.92 14.92 0 016.917 3.532 14.975 14.975 0 014.215 6.536c.687-.441 2.804-2.122 4.225-6.738 1.723-5.584 4.983-9.704 9.224-11.5 0 .023-5.37-7.637-16.323-2.076z" fill="url(#paint4_linear_369_16962)"/><path id="Vector_6" d="M27.378 45.183a14.96 14.96 0 013.916-10.107l.039-.054c-.518-.55-2.318-1.898-6.953-.844-5.646 1.293-11.92 1.146-15.58-1.65 0 0-3.94 8.519 6.341 15.218A23.569 23.569 0 0028.104 49.8a14.325 14.325 0 01-.726-4.616z" fill="url(#paint5_linear_369_16962)"/><path id="Vector_7" d="M44.96 9.805a14.772 14.772 0 01-4.993 3.706 14.739 14.739 0 01-6.07 1.32 16.188 16.188 0 01-3.283-.348h-.054c-.216.774-.386 2.982 2.742 6.358 3.963 4.29 6.953 9.805 6.404 14.382 0 0 9.27-.828 9.973-13.12a23.75 23.75 0 00-4.72-12.298z" fill="url(#paint6_linear_369_16962)"/><path id="Vector_8" d="M61.213 31.397h-2.604V19.23h4.18c3.09 0 4.974 1.27 4.974 4.066s-1.977 4.299-5.19 4.299h-1.36v3.802zm-.054-6.103h1.413c1.545 0 2.495-.604 2.495-1.89 0-1.285-.872-1.874-2.495-1.874H61.16v3.764z" fill="#1A1A1A"/><path id="Vector_9" d="M69.656 25.317c0-4.089 2.48-6.296 5.825-6.296 3.747 0 5.917 2.385 5.917 6.296 0 4.33-2.518 6.29-5.848 6.29-3.514 0-5.894-2.177-5.894-6.29zm8.984 0c0-2.764-1.266-3.996-3.16-3.996-1.714 0-3.09 1.286-3.09 3.996 0 2.711 1.407 3.997 3.23 3.997s3.02-1.27 3.02-3.997z" fill="#1A1A1A"/><path id="Vector_10" d="M92.97 30.91a6.42 6.42 0 01-3.283.696c-3.708 0-6.18-2.137-6.18-6.134 0-4.19 2.44-6.45 6.411-6.45a7.661 7.661 0 013.09.572l-.571 2.192a7.396 7.396 0 00-2.117-.364c-2.394 0-4.024 1.2-4.024 3.872 0 2.572 1.544 3.873 4.009 3.873a6.112 6.112 0 002.147-.465l.518 2.207z" fill="#1A1A1A"/><path id="Vector_11" d="M102.487 28.152h-5.153l-1.174 3.245h-1.545L99.25 19.23h1.545l4.542 12.167h-1.63l-1.22-3.245zm-4.681-1.425h4.163l-2.024-5.723h-.07l-2.07 5.723z" fill="#1A1A1A"/><path id="Vector_12" d="M110.699 31.397h-1.545V20.694h-3.592V19.23h8.736v1.464h-3.599v10.703z" fill="#1A1A1A"/><path id="Vector_13" d="M115.936 25.318c0-3.873 2.24-6.258 5.407-6.258 3.608 0 5.547 2.571 5.547 6.258 0 4.135-2.318 6.257-5.493 6.257-3.329 0-5.461-2.4-5.461-6.257zm9.331 0c0-3.338-1.491-4.802-3.862-4.802-2.132 0-3.778 1.549-3.778 4.802 0 3.252 1.592 4.793 3.986 4.793 2.248 0 3.654-1.65 3.654-4.793z" fill="#1A1A1A"/><path id="Vector_14" d="M142 31.397h-1.545l-.772-9.503-3.09 9.503h-1.63l-3.044-9.472-.772 9.472h-1.545l1.035-12.167h1.908l3.275 10.463 3.229-10.463h1.908L142 31.397z" fill="#1A1A1A"/></g><defs><linearGradient id="paint1_linear_369_16962" x1="20.291" y1="9.545" x2="23.823" y2="-2.708" gradientUnits="userSpaceOnUse"><stop stop-color="#CACACA"/><stop offset="1" stop-color="#5A5A5A"/></linearGradient><linearGradient id="paint2_linear_369_16962" x1="4.477" y1="38.211" x2="18.619" y2="28.8" gradientUnits="userSpaceOnUse"><stop stop-color="#CACACA"/><stop offset="1" stop-color="#5A5A5A"/></linearGradient><linearGradient id="paint3_linear_369_16962" x1="34.788" y1="41.352" x2="48.124" y2="26.985" gradientUnits="userSpaceOnUse"><stop stop-color="#CACACA"/><stop offset="1" stop-color="#5A5A5A"/></linearGradient><linearGradient id="paint4_linear_369_16962" x1="9.178" y1="18.549" x2="19.093" y2="3.369" gradientUnits="userSpaceOnUse"><stop stop-color="#CACACA"/><stop offset="1" stop-color="#5A5A5A"/></linearGradient><linearGradient id="paint5_linear_369_16962" x1="27.872" y1="40.218" x2="10.15" y2="42.022" gradientUnits="userSpaceOnUse"><stop stop-color="#D7D7D7"/><stop offset="1" stop-color="#6A6A6A"/></linearGradient><linearGradient id="paint6_linear_369_16962" x1="36.129" y1="27.548" x2="48.434" y2="14.601" gradientUnits="userSpaceOnUse"><stop stop-color="#CACACA"/><stop offset="1" stop-color="#5A5A5A"/></linearGradient><radialGradient id="paint0_radial_369_16962" cx="0" cy="0" r="1" gradientUnits="userSpaceOnUse" gradientTransform="matrix(7.34465 0 0 7.36346 23.506 21.343)"><stop stop-color="#CECECE"/><stop offset="1" stop-color="#6F6F6F"/></radialGradient><clipPath id="clip0_369_16962"><path fill="#fff" d="M0 0h142v50H0z"/></clipPath></defs></svg>