<svg width="178" height="50" viewBox="0 0 178 50" fill="none" xmlns="http://www.w3.org/2000/svg"><g id="Sberbank_Logo_2020" clip-path="url(#clip0_369_16944)"><path id="Vector" d="M43.582 9.073A24.947 24.947 0 0146.498 14L24.336 30.64l-9.263-5.914v-7.114l9.262 5.914L43.582 9.073z" fill="#5F5F5F"/><path id="Vector_2" d="M5.62 24.224c0-.319.008-.636.024-.951l-5.613-.28A25.11 25.11 0 001.849 33.71a24.747 24.747 0 005.277 8.033l3.982-4.054a19.016 19.016 0 01-4.063-6.175 19.294 19.294 0 01-1.424-7.29z" fill="#5F5F5F"/><path id="Vector_3" d="M24.331 5.168c.313 0 .625.011.934.027l.281-5.72a25.766 25.766 0 00-1.215-.028 23.881 23.881 0 00-9.313 1.88 24.24 24.24 0 00-7.892 5.376l3.982 4.055a18.626 18.626 0 016.064-4.14 18.35 18.35 0 017.159-1.45z" fill="#5F5F5F"/><path id="Vector_4" d="M24.33 43.28c-.313 0-.624 0-.935-.026l-.281 5.717a23.865 23.865 0 0010.525-1.85 24.227 24.227 0 007.887-5.377l-3.974-4.053a18.636 18.636 0 01-6.063 4.137 18.356 18.356 0 01-7.158 1.452z" fill="#5F5F5F"/><path id="Vector_5" d="M34.877 8.493l4.73-3.551A23.947 23.947 0 0024.323-.556v5.723a18.378 18.378 0 0110.554 3.326z" fill="#5F5F5F"/><path id="Vector_6" d="M48.66 24.224a25.378 25.378 0 00-.382-4.441l-5.237 3.93v.51a19.307 19.307 0 01-1.608 7.73 18.994 18.994 0 01-4.556 6.394l3.778 4.252a24.7 24.7 0 005.92-8.321 25.105 25.105 0 002.085-10.054z" fill="#5F5F5F"/><path id="Vector_7" d="M24.33 43.28a18.387 18.387 0 01-7.588-1.638 18.688 18.688 0 01-6.28-4.64L6.29 40.849a24.289 24.289 0 008.17 6.03 23.89 23.89 0 009.87 2.125v-5.722z" fill="#5F5F5F"/><path id="Vector_8" d="M11.784 10.1L8.01 5.85a24.702 24.702 0 00-5.922 8.32A25.104 25.104 0 000 24.224h5.62a19.309 19.309 0 011.61-7.729 18.998 18.998 0 014.554-6.395z" fill="#5F5F5F"/><g id="Clip path group"><mask id="mask0_369_16944" style="mask-type:luminance" maskUnits="userSpaceOnUse" x="61" y="8" width="255" height="33"><g id="clip0"><path id="Vector_9" d="M315.666 8.064H61.761v32.759h253.905V8.064z" fill="#fff"/></g></mask><g mask="url(#mask0_369_16944)"><g id="Group" fill="#747474"><path id="Vector_10" d="M140.405 13.615l6.961-5.164h-23.298v31.034h23.298v-5.164h-16.65v-7.95h14.203v-5.164h-14.203v-7.592h9.689z"/><path id="Vector_11" d="M108.391 20.539h-8.089V13.61h12.91l6.957-5.18h-26.51v31.035h13.876c7.781 0 12.246-3.551 12.246-9.744 0-5.924-4.045-9.183-11.39-9.183zm-1.155 13.76h-6.934V25.7h6.934c4.208 0 6.181 1.441 6.181 4.3 0 2.858-2.099 4.3-6.181 4.3z"/><path id="Vector_12" d="M164.493 8.446h-12.682v31.035h6.647v-8.792h6.035c8.091 0 13.096-4.287 13.096-11.138 0-6.85-5.005-11.105-13.096-11.105zm-.141 17.075h-5.894V13.615h5.894c4.256 0 6.605 2.115 6.605 5.955s-2.349 5.95-6.605 5.95z"/><path id="Vector_13" d="M83.683 32.156a11.54 11.54 0 01-5.594 1.41c-5.844 0-10.083-4.202-10.083-9.987 0-5.786 4.24-9.996 10.083-9.996a9.833 9.833 0 015.89 1.837l4.65-3.449-.315-.225c-2.712-2.401-6.336-3.673-10.484-3.673-4.5 0-8.58 1.524-11.493 4.298a14.992 14.992 0 00-3.422 5.048 15.08 15.08 0 00-1.136 6.004 15.58 15.58 0 001.132 6.07 15.49 15.49 0 003.399 5.142c2.926 2.884 6.997 4.473 11.465 4.473 4.668 0 8.748-1.64 11.51-4.624l-4.161-3.123-1.441.795z"/></g></g></g></g><defs><clipPath id="clip0_369_16944"><path fill="#fff" d="M0 0h178v50H0z"/></clipPath></defs></svg>