<svg xmlns="http://www.w3.org/2000/svg" width="703" height="654" viewBox="0 0 703 654" fill="none">
    <path d="M217.595 0H548.924L703 299.499L666.949 361.806L512.443 65.7438H379.397L255.363 264.264L201.286 232.896L301.286 65.7438H177.681L217.595 0Z" fill="url(#paint0_linear_745_10544)"/>
    <path d="M388.839 82.502H490.984L146.78 641.539L113.733 577.084L246.78 357.079L121.888 280.163L34.3346 424.112L0 361.806L168.669 82.502H270.385L232.617 145.238H205.578L156.651 223.013L279.827 299.499L375.105 145.238H348.067L388.839 82.502Z" fill="url(#paint1_linear_745_10544)"/>
    <path d="M165.235 654L505.576 91.5256L656.219 379.423L606.863 459.347L551.928 426.69L580.683 379.423L505.576 229.029L284.977 591.264H451.07L481.113 539.7L424.89 504.035L457.937 448.604L570.812 518.216L487.551 654H165.235Z" fill="url(#paint2_linear_745_10544)"/>
    <path d="M148.926 317.117L201.286 350.633L91.4157 532.825L56.652 469.66L148.926 317.117Z" fill="url(#paint3_linear_745_10544)"/>
    <defs>
        <linearGradient id="paint0_linear_745_10544" x1="703" y1="284.422" x2="-0.0283884" y2="359.947" gradientUnits="userSpaceOnUse">
            <stop stop-color="#124190"/>
            <stop offset="1" stop-color="#70BEEC"/>
        </linearGradient>
        <linearGradient id="paint1_linear_745_10544" x1="703" y1="284.422" x2="-0.0283884" y2="359.947" gradientUnits="userSpaceOnUse">
            <stop stop-color="#124190"/>
            <stop offset="1" stop-color="#70BEEC"/>
        </linearGradient>
        <linearGradient id="paint2_linear_745_10544" x1="703" y1="284.422" x2="-0.0283884" y2="359.947" gradientUnits="userSpaceOnUse">
            <stop stop-color="#124190"/>
            <stop offset="1" stop-color="#70BEEC"/>
        </linearGradient>
        <linearGradient id="paint3_linear_745_10544" x1="703" y1="284.422" x2="-0.0283884" y2="359.947" gradientUnits="userSpaceOnUse">
            <stop stop-color="#124190"/>
            <stop offset="1" stop-color="#70BEEC"/>
        </linearGradient>
    </defs>
</svg>