<svg xmlns="http://www.w3.org/2000/svg">

    <symbol  id="stocks-close" viewBox="0 0 17 17" fill="none">
        <path d="M12.75 4.25L4.25 12.75" stroke="var(--main-color)" stroke-linecap="round" stroke-linejoin="round"/>
        <path d="M4.25 4.25L12.75 12.75" stroke="var(--main-color)" stroke-linecap="round" stroke-linejoin="round"/>
    </symbol>

    <symbol id="stocks-more" viewBox="0 0 17 18" fill="none">
        <path d="M6.375 13.25L10.625 9L6.375 4.75" stroke="var(--main-color)" stroke-linecap="round" stroke-linejoin="round"/>
    </symbol>

    <symbol id="catalog-icon" viewBox="0 0 20 20" fill="none">
        <path d="M6.66699 5H17.5003" stroke="var(--main-color)" stroke-linecap="round" stroke-linejoin="round"/>
        <path d="M6.66699 10H17.5003" stroke="var(--main-color)" stroke-linecap="round" stroke-linejoin="round"/>
        <path d="M6.66699 15H17.5003" stroke="var(--main-color)" stroke-linecap="round" stroke-linejoin="round"/>
        <path d="M2.5 5H2.50875" stroke="var(--main-color)" stroke-linecap="round" stroke-linejoin="round"/>
        <path d="M2.5 10H2.50875" stroke="var(--main-color)" stroke-linecap="round" stroke-linejoin="round"/>
        <path d="M2.5 15H2.50875" stroke="var(--main-color)" stroke-linecap="round" stroke-linejoin="round"/>
    </symbol>

    <symbol  id="info-1" viewBox="0 0 26 26" fill="none">
        <path d="M5.30773 3.8181L5.31098 4.41477C5.35125 9.99574 7.85273 15.5864 12.7964 20.3632L13.1265 20.6821L13.4566 20.3632C18.3704 15.5973 20.9202 10.0022 20.9643 4.41472L20.9691 3.81967L20.3866 3.94815C16.3108 4.84763 9.96356 4.8583 5.89019 3.94815L5.30773 3.81799V3.8181ZM7.02957 5.46686L7.6104 5.59701C10.7063 6.28865 15.5665 6.28068 18.6649 5.59701L19.2472 5.46843L19.2426 6.06349C19.2085 10.3757 17.2387 14.689 13.4582 18.3558L13.1298 18.6747L12.7997 18.3558C8.99597 14.6806 7.06389 10.3701 7.03277 6.06349L7.02957 5.46686ZM18.2729 6.63331C15.2048 7.20419 11.0729 7.2115 8.00238 6.63483C8.18469 10.3472 9.86941 14.0606 13.1281 17.3418C16.3702 14.0661 18.0856 10.3464 18.2729 6.63326L18.2729 6.63331ZM0.996094 13.5649L6.24566 22.012L7.15495 19.4062L12.0395 23.8829L6.79003 15.4359L5.88069 18.0415L0.996145 13.5649L0.996094 13.5649ZM24.8903 13.5649L20.0041 18.0416L19.0965 15.436L13.8454 23.8829L18.7299 19.4062L19.6392 22.012L24.8903 13.5647V13.5649Z" fill="#3DB7EF"/>
    </symbol>

    <symbol  id="info-2" viewBox="0 0 25 25" fill="none">
        <path d="M8.95729 17.5667C9.30601 17.6829 9.68171 17.691 10.0351 17.5899C10.3885 17.4887 10.703 17.2831 10.9375 17V22.4079L4.6875 20.0521V16.1438L8.95729 17.5667Z" fill="#3DB7EF"/>
        <path fill-rule="evenodd" clip-rule="evenodd" d="M18.2287 20.0521L11.9787 22.4078V17C12.2131 17.2831 12.5277 17.4887 12.8811 17.5898C13.2345 17.691 13.6102 17.6829 13.9589 17.5667L18.2287 16.1438V20.0521ZM16.3099 18.9839C16.441 18.9402 16.5494 18.8463 16.6112 18.7227C16.673 18.5992 16.6833 18.4561 16.6396 18.325C16.596 18.1939 16.502 18.0856 16.3785 18.0237C16.2549 17.9619 16.1118 17.9517 15.9807 17.9953L13.637 18.7766C13.5059 18.8202 13.3975 18.9142 13.3357 19.0377C13.2739 19.1613 13.2637 19.3044 13.3073 19.4354C13.351 19.5665 13.4449 19.6749 13.5685 19.7367C13.692 19.7986 13.8351 19.8088 13.9662 19.7651L16.3099 18.9839ZM11.6281 8.36201C11.5178 8.32383 11.3979 8.32383 11.2875 8.36201L4.51773 10.7058L4.50575 10.7094C4.41468 10.7432 4.33492 10.8018 4.27554 10.8787L2.19741 13.4766C2.14492 13.5421 2.10904 13.6193 2.09282 13.7017C2.07661 13.784 2.08053 13.8691 2.10426 13.9496C2.128 14.0301 2.17084 14.1037 2.22913 14.164C2.28743 14.2244 2.35946 14.2698 2.43908 14.2964L9.47033 16.6401C9.57681 16.6755 9.69188 16.6756 9.79839 16.6403C9.90491 16.605 9.99718 16.5363 10.0615 16.4443L11.4578 14.4495L12.8537 16.4443C12.918 16.5364 13.0103 16.6052 13.117 16.6405C13.2236 16.6758 13.3388 16.6756 13.4453 16.6401L20.4766 14.2964C20.5562 14.2699 20.6283 14.2245 20.6867 14.1642C20.745 14.1038 20.7879 14.0302 20.8117 13.9497C20.8355 13.8692 20.8395 13.7841 20.8233 13.7018C20.8071 13.6194 20.7712 13.5421 20.7188 13.4766L18.6406 10.8787C18.5785 10.7983 18.4941 10.738 18.3979 10.7052L11.6281 8.36201ZM11.4578 12.9907L16.6365 11.1979L11.4578 9.40524L6.27918 11.1979L11.4578 12.9907Z" fill="#3DB7EF"/>
        <path d="M4.29813 5.46718C4.64615 6.17986 5.47172 6.52021 6.22088 6.25984C5.5082 6.60786 5.16785 7.43343 5.42822 8.18259C5.0802 7.46991 4.25463 7.12957 3.50547 7.38993C4.21815 7.04191 4.5585 6.21634 4.29813 5.46718Z" fill="#3DB7EF"/>
        <path d="M19.7852 5.53449C19.361 6.43419 19.6759 7.50891 20.5185 8.03749C19.6188 7.61338 18.5441 7.92825 18.0155 8.77083C18.4396 7.87113 18.1247 6.79641 17.2822 6.26783C18.1819 6.69194 19.2566 6.37707 19.7852 5.53449Z" fill="#3DB7EF"/>
        <path d="M13.0775 2.49798C12.8593 3.69944 13.5731 4.8745 14.7398 5.23468C13.5384 5.0165 12.3633 5.73028 12.0031 6.89706C12.2213 5.6956 11.5075 4.52053 10.3408 4.16035C11.5422 4.37853 12.7173 3.66476 13.0775 2.49798Z" fill="#3DB7EF"/>
    </symbol>

    <symbol id="info-3" viewBox="0 0 26 26" fill="none">
        <path d="M3 22.9323C4.07174 22.8279 5.06564 22.5582 5.95727 22.148L5.67897 23L8.11957 20.7339L8.04402 20.7678C8.77708 20.0957 9.37447 19.2902 9.80749 18.3811C9.00849 18.925 8.04046 19.2483 6.87014 19.2657C6.88498 18.1502 7.23307 17.2421 7.80557 16.4851C7.74622 16.5103 7.68788 16.5367 7.62932 16.563L7.65582 16.5341L3.98181 17.9169L5.41674 18.0185C4.07704 19.2622 3.20847 20.9514 3.00004 22.9323L3 22.9323ZM4.33948 13.4234L8.71972 14.9643C9.03855 16.1955 10.0865 17.1553 11.4054 17.4099L11.3961 17.4175L13.0735 21.6963L16.2241 18.7124L15.8837 14.9781L15.8823 14.9631L15.7776 14.0384L11.7525 17.1426L11.1894 16.6094L15.8426 13.0194L16.4096 12.5828L16.4878 13.2703L16.6163 14.4035C17.3425 13.8205 18.0214 13.1867 18.6475 12.5074C16.2399 12.2015 14.3211 10.4124 13.9533 8.14578C13.2435 8.73688 12.5818 9.3778 11.9738 10.0631L13.0814 10.1747L13.8075 10.2488L13.3464 10.7859L9.61411 15.1174L9.05233 14.5854L12.2706 10.8474L11.3868 10.7582L7.4889 10.4408L4.33957 13.4234L4.33948 13.4234ZM14.6873 7.56364C14.7039 7.90941 14.7631 8.25217 14.8635 8.58498L15.5803 8.02785C15.4714 7.72195 15.3964 7.40617 15.3564 7.08558C15.1298 7.24069 14.9061 7.39934 14.6873 7.56364L14.6873 7.56364ZM15.1642 9.32155C15.3164 9.61433 15.5022 9.89037 15.7181 10.1447L16.4507 9.51228C16.2435 9.2738 16.0615 9.01658 15.9075 8.74435L15.1643 9.32155L15.1642 9.32155ZM16.1156 6.59113C16.1201 6.90228 16.1632 7.21184 16.244 7.51345L16.994 6.93123C16.9168 6.68597 16.865 6.43144 16.8377 6.16952C16.5935 6.30552 16.3524 6.44517 16.1156 6.59113L16.1156 6.59113ZM16.2652 10.688C16.5889 10.9592 16.9504 11.1868 17.3398 11.3643L17.9386 10.6692C17.6012 10.4973 17.287 10.2901 17.0019 10.0518L16.2652 10.688L16.2652 10.688ZM16.5316 8.26002C16.6692 8.52784 16.8397 8.77832 17.0351 9.00787L17.7929 8.3541C17.6063 8.13861 17.4434 7.9057 17.3066 7.65897L16.5316 8.26006L16.5316 8.26002ZM17.5889 9.54492C17.8512 9.75521 18.14 9.93391 18.4487 10.077L19.0715 9.3554C18.8153 9.22317 18.5738 9.0668 18.3507 8.88866L17.5889 9.54484L17.5889 9.54492ZM17.5981 5.76674L17.6075 5.76674C17.6075 7.61038 19.1756 9.09786 21.1212 9.10187C22.0171 7.50134 22.6506 5.78103 23 4C21.0782 4.33263 19.2628 4.93557 17.5982 5.76674L17.5981 5.76674ZM18.1215 11.6428C18.4939 11.7401 18.8775 11.7937 19.2637 11.8022C19.4284 11.6038 19.5888 11.4022 19.7446 11.1974C19.3808 11.16 19.0289 11.087 18.6926 10.979L18.1215 11.6428L18.1215 11.6428ZM19.2345 10.3516C19.5722 10.4336 19.9194 10.4753 20.268 10.4759C20.4132 10.2637 20.5537 10.0487 20.6893 9.8309C20.3973 9.80236 20.1092 9.74561 19.8294 9.66153L19.2345 10.3516L19.2345 10.3516Z" fill="#3DB7EF"/>
    </symbol>

    <symbol id="about-video-play" viewBox="0 0 239 240" fill="none">
        <g filter="url(#filter0_b_369_16931)">
            <circle cx="118" cy="120.001" r="48" fill="white" fill-opacity="0.2"/>
            <circle cx="118" cy="120.001" r="47.5" stroke="white" stroke-opacity="0.45"/>
        </g>
        <path d="M129.01 118.27C130.341 119.04 130.341 120.961 129.01 121.732L116.002 129.263C114.669 130.035 113 129.073 113 127.532L113 112.47C113 110.929 114.669 109.967 116.002 110.739L129.01 118.27Z" fill="white"/>
        <path d="M155.625 195.52C139.268 203.236 120.849 205.433 103.136 201.78C85.4233 198.128 69.3753 188.823 57.4055 175.266C45.4357 161.708 38.1911 144.631 36.7614 126.602C35.3316 108.574 39.7939 90.5679 49.4771 75.2933C59.1604 60.0187 73.5412 48.3008 90.4567 41.902C107.372 35.5032 125.908 34.7694 143.277 39.8109C160.645 44.8523 175.907 55.3966 186.768 69.8579C197.628 84.3191 203.5 101.916 203.5 120.001" stroke="white" stroke-opacity="0.3"/>
        <path d="M45.1931 26.5522C66.1983 9.75974 92.2721 0.577259 119.165 0.501449C146.057 0.42564 172.182 9.46097 193.282 26.1347C214.381 42.8084 229.211 66.1373 235.354 92.3189C241.497 118.5 238.59 145.991 227.108 170.309C215.626 194.627 196.246 214.339 172.126 226.232C148.006 238.125 120.57 241.497 94.2875 235.799C68.0055 230.102 44.4284 215.67 27.399 194.856C10.3697 174.043 0.892404 148.074 0.511912 121.185" stroke="white" stroke-opacity="0.15"/>
        <defs>
            <filter id="filter0_b_369_16931" x="53" y="55.001" width="130" height="130" filterUnits="userSpaceOnUse" color-interpolation-filters="sRGB">
                <feFlood flood-opacity="0" result="BackgroundImageFix"/>
                <feGaussianBlur in="BackgroundImageFix" stdDeviation="8.5"/>
                <feComposite in2="SourceAlpha" operator="in" result="effect1_backgroundBlur_369_16931"/>
                <feBlend mode="normal" in="SourceGraphic" in2="effect1_backgroundBlur_369_16931" result="shape"/>
            </filter>
        </defs>
    </symbol>

    <symbol id="blog-play" viewBox="0 0 72 72" fill="none">
        <g filter="url(#filter0_b_369_17233)">
            <circle cx="36" cy="36" r="36" fill="white" fill-opacity="0.2"/>
            <circle cx="36" cy="36" r="35.5" stroke="white" stroke-opacity="0.25"/>
        </g>
        <path d="M45.4505 35.1284C46.1302 35.5107 46.1302 36.4893 45.4505 36.8716L32.4903 44.1617C31.8237 44.5367 31 44.055 31 43.2902L31 28.7098C31 27.945 31.8237 27.4633 32.4903 27.8383L45.4505 35.1284Z" fill="white"/>
        <defs>
            <filter id="filter0_b_369_17233" x="-17" y="-17" width="106" height="106" filterUnits="userSpaceOnUse" color-interpolation-filters="sRGB">
                <feFlood flood-opacity="0" result="BackgroundImageFix"/>
                <feGaussianBlur in="BackgroundImageFix" stdDeviation="8.5"/>
                <feComposite in2="SourceAlpha" operator="in" result="effect1_backgroundBlur_369_17233"/>
                <feBlend mode="normal" in="SourceGraphic" in2="effect1_backgroundBlur_369_17233" result="shape"/>
            </filter>
        </defs>
    </symbol>

    <symbol id="blog-sale-email" viewBox="0 0 19 20" fill="none">
        <path d="M6.49478 3.75222L12.2803 9.99972L6.49478 16.2472C6.39121 16.3588 6.33322 16.5087 6.33322 16.6647C6.33322 16.8208 6.39121 16.9706 6.49478 17.0822C6.54509 17.1363 6.60514 17.1792 6.67141 17.2085C6.73768 17.2378 6.80884 17.2529 6.88072 17.2529C6.9526 17.2529 7.02376 17.2378 7.09003 17.2085C7.1563 17.1792 7.21635 17.1363 7.26666 17.0822L13.4227 10.436C13.5307 10.3193 13.5912 10.1627 13.5912 9.99972C13.5912 9.83673 13.5307 9.68019 13.4227 9.56347L7.26784 2.91722C7.2175 2.86279 7.1573 2.81953 7.09081 2.78999C7.02432 2.76045 6.95289 2.74523 6.88072 2.74523C6.80855 2.74523 6.73711 2.76045 6.67062 2.78999C6.60413 2.81953 6.54394 2.86279 6.49359 2.91722C6.39002 3.02884 6.33203 3.17869 6.33203 3.33472C6.33203 3.49076 6.39002 3.6406 6.49359 3.75222L6.49478 3.75222Z" fill="white"/>
    </symbol>

    <symbol id="mobile-burger" viewBox="0 0 28 28" fill="none">
        <rect x="2" y="6" width="24" height="2" rx="1" fill="#282828"/>
        <rect x="2" y="13" width="24" height="2" rx="1" fill="#282828"/>
        <rect x="2" y="20" width="24" height="2" rx="1" fill="#282828"/>
    </symbol>

    <symbol id="mail" viewBox="0 0 20 20" fill="none">
        <path d="M3.33366 3.33331H16.667C17.5837 3.33331 18.3337 4.08331 18.3337 4.99998V15C18.3337 15.9166 17.5837 16.6666 16.667 16.6666H3.33366C2.41699 16.6666 1.66699 15.9166 1.66699 15V4.99998C1.66699 4.08331 2.41699 3.33331 3.33366 3.33331Z" stroke="#282828" stroke-linecap="round" stroke-linejoin="round"/>
        <path d="M18.3337 5L10.0003 10.8333L1.66699 5" stroke="#282828" stroke-linecap="round" stroke-linejoin="round"/>
    </symbol>

    <symbol id="phone" viewBox="0 0 20 20" fill="none">
        <path d="M12.5415 4.16665C13.3555 4.32545 14.1035 4.72353 14.6899 5.30993C15.2763 5.89632 15.6744 6.64437 15.8332 7.45831M12.5415 0.833313C14.2326 1.02118 15.8095 1.77846 17.0134 2.98082C18.2173 4.18318 18.9765 5.75915 19.1665 7.44998M18.3332 14.1V16.6C18.3341 16.8321 18.2866 17.0618 18.1936 17.2744C18.1006 17.4871 17.9643 17.678 17.7933 17.8349C17.6222 17.9918 17.4203 18.1112 17.2005 18.1856C16.9806 18.2599 16.7477 18.2875 16.5165 18.2666C13.9522 17.988 11.489 17.1118 9.32486 15.7083C7.31139 14.4289 5.60431 12.7218 4.32486 10.7083C2.91651 8.53432 2.04007 6.05914 1.76653 3.48331C1.7457 3.25287 1.77309 3.02061 1.84695 2.80133C1.9208 2.58205 2.03951 2.38055 2.1955 2.20966C2.3515 2.03877 2.54137 1.90224 2.75302 1.80875C2.96468 1.71526 3.19348 1.66686 3.42486 1.66665H5.92486C6.32929 1.66267 6.72136 1.80588 7.028 2.06959C7.33464 2.3333 7.53493 2.69952 7.59153 3.09998C7.69705 3.90003 7.89274 4.68559 8.17486 5.44165C8.28698 5.73992 8.31125 6.06408 8.24479 6.37571C8.17832 6.68735 8.02392 6.97341 7.79986 7.19998L6.74153 8.25831C7.92783 10.3446 9.65524 12.072 11.7415 13.2583L12.7999 12.2C13.0264 11.9759 13.3125 11.8215 13.6241 11.7551C13.9358 11.6886 14.2599 11.7129 14.5582 11.825C15.3143 12.1071 16.0998 12.3028 16.8999 12.4083C17.3047 12.4654 17.6744 12.6693 17.9386 12.9812C18.2029 13.2931 18.3433 13.6913 18.3332 14.1Z" stroke="#282828" stroke-linecap="round" stroke-linejoin="round"/>
    </symbol>

    <symbol id="mobile-close" viewBox="0 0 28 28" fill="none">
        <path d="M21 7L7 21" stroke="#282828" stroke-width="2" stroke-linecap="round" stroke-linejoin="round"/>
        <path d="M7 7L21 21" stroke="#282828" stroke-width="2" stroke-linecap="round" stroke-linejoin="round"/>
    </symbol>

    <symbol id="help__circle"  viewBox="0 0 791 791" fill="none">
        <path d="M468.606 782.658C372.158 800.87 272.384 782.427 188.82 730.939C105.256 679.451 43.9185 598.627 16.817 504.29C-10.2846 409.952 -1.19865 308.896 42.2959 220.907C85.7904 132.917 160.561 64.3296 251.97 28.5735C343.378 -7.18265 444.841 -7.53281 536.494 27.5915C628.147 62.7159 703.39 130.785 747.491 218.473C791.591 306.16 801.375 407.151 774.925 501.673C748.475 596.195 687.697 677.441 604.49 729.505" stroke="#4990FF" stroke-opacity="0.24" stroke-width="3"/>
        <circle cx="475" cy="781" r="5.5" transform="rotate(-90 475 781)" stroke="#4990FF" stroke-opacity="0.24" stroke-width="3"/>
        <circle cx="599" cy="733" r="5.5" transform="rotate(-90 599 733)" stroke="#4990FF" stroke-opacity="0.24" stroke-width="3"/>
    </symbol>

    <symbol id="questions-arrow" viewBox="0 0 14 14" fill="none">
        <path d="M2.62665 4.78643L6.9999 9.04943L11.3732 4.78643C11.4513 4.71011 11.5562 4.66738 11.6654 4.66738C11.7746 4.66738 11.8795 4.71011 11.9577 4.78643C11.9955 4.82349 12.0255 4.86774 12.0461 4.91657C12.0666 4.9654 12.0771 5.01783 12.0771 5.0708C12.0771 5.12377 12.0666 5.1762 12.0461 5.22503C12.0255 5.27386 11.9955 5.31811 11.9577 5.35518L7.30528 9.89118C7.22358 9.97081 7.114 10.0154 6.9999 10.0154C6.88581 10.0154 6.77623 9.97081 6.69453 9.89118L2.04215 5.35605C2.00405 5.31895 1.97377 5.2746 1.95309 5.22561C1.93241 5.17662 1.92176 5.12398 1.92176 5.0708C1.92176 5.01762 1.93241 4.96499 1.95309 4.91599C1.97377 4.867 2.00405 4.82265 2.04215 4.78555C2.12029 4.70923 2.22518 4.6665 2.3344 4.6665C2.44363 4.6665 2.54852 4.70923 2.62665 4.78555L2.62665 4.78643Z" fill="var(--fill-main)"
        style="transition: fill .4s;" />
    </symbol>

    <symbol id="products-arrow" viewBox="0 0 14 14" fill="none">
        <path d="M2.62665 4.78643L6.9999 9.04943L11.3732 4.78643C11.4513 4.71011 11.5562 4.66738 11.6654 4.66738C11.7746 4.66738 11.8795 4.71011 11.9577 4.78643C11.9955 4.82349 12.0255 4.86774 12.0461 4.91657C12.0666 4.9654 12.0771 5.01783 12.0771 5.0708C12.0771 5.12377 12.0666 5.1762 12.0461 5.22503C12.0255 5.27386 11.9955 5.31811 11.9577 5.35518L7.30528 9.89118C7.22358 9.97081 7.114 10.0154 6.9999 10.0154C6.88581 10.0154 6.77623 9.97081 6.69453 9.89118L2.04215 5.35605C2.00405 5.31895 1.97377 5.2746 1.95309 5.22561C1.93241 5.17662 1.92176 5.12398 1.92176 5.0708C1.92176 5.01762 1.93241 4.96499 1.95309 4.91599C1.97377 4.867 2.00405 4.82265 2.04215 4.78555C2.12029 4.70923 2.22518 4.6665 2.3344 4.6665C2.44363 4.6665 2.54852 4.70923 2.62665 4.78555L2.62665 4.78643Z" fill="#282828"/>
    </symbol>

    <symbol id="products-notification" viewBox="0 0 24 24" fill="none">
        <path d="M12 22C17.5228 22 22 17.5228 22 12C22 6.47715 17.5228 2 12 2C6.47715 2 2 6.47715 2 12C2 17.5228 6.47715 22 12 22Z" stroke="#494949" stroke-opacity="0.5" stroke-linecap="round" stroke-linejoin="round"/>
        <path d="M12 16V12" stroke="#494949" stroke-opacity="0.5" stroke-linecap="round" stroke-linejoin="round"/>
        <path d="M12 8H12.01" stroke="#494949" stroke-opacity="0.5" stroke-linecap="round" stroke-linejoin="round"/>
    </symbol>

    <symbol id="products-sale" viewBox="0 0 18 18" fill="none">
        <path d="M9 16.5C13.1421 16.5 16.5 13.1421 16.5 9C16.5 4.85786 13.1421 1.5 9 1.5C4.85786 1.5 1.5 4.85786 1.5 9C1.5 13.1421 4.85786 16.5 9 16.5Z" stroke="white" stroke-linecap="round" stroke-linejoin="round"/>
        <path d="M9 12V9" stroke="white" stroke-linecap="round" stroke-linejoin="round"/>
        <path d="M9 6H9.00833" stroke="white" stroke-linecap="round" stroke-linejoin="round"/>
    </symbol>

    <symbol id="products-sale" fill="none" xmlns="http://www.w3.org/2000/svg">
        <g id="info">
            <path id="Vector" d="M9 16.5C13.1421 16.5 16.5 13.1421 16.5 9C16.5 4.85786 13.1421 1.5 9 1.5C4.85786 1.5 1.5 4.85786 1.5 9C1.5 13.1421 4.85786 16.5 9 16.5Z" stroke="white" stroke-linecap="round" stroke-linejoin="round"/>
            <path id="Vector_2" d="M9 12V9" stroke="white" stroke-linecap="round" stroke-linejoin="round"/>
            <path id="Vector_3" d="M9 6H9.00833" stroke="white" stroke-linecap="round" stroke-linejoin="round"/>
        </g>
    </symbol>

    <symbol id="product-single-sale" viewBox="0 0 24 24" fill="none">
        <path d="M12 22C17.5228 22 22 17.5228 22 12C22 6.47715 17.5228 2 12 2C6.47715 2 2 6.47715 2 12C2 17.5228 6.47715 22 12 22Z" stroke="#494949" stroke-opacity="0.5" stroke-width="1.5" stroke-linecap="round" stroke-linejoin="round"/>
        <path d="M12 8V12" stroke="#494949" stroke-opacity="0.5" stroke-width="1.5" stroke-linecap="round" stroke-linejoin="round"/>
        <path d="M12 16H12.01" stroke="#494949" stroke-opacity="0.5" stroke-width="1.5" stroke-linecap="round" stroke-linejoin="round"/>
    </symbol>

    <symbol id="catalog-common-mobile" viewBox="0 0 18 18" fill="none">
        <path d="M6 4.5H15.75" stroke="#008CCC" stroke-linecap="round" stroke-linejoin="round"/>
        <path d="M6 9H15.75" stroke="#008CCC" stroke-linecap="round" stroke-linejoin="round"/>
        <path d="M6 13.5H15.75" stroke="#008CCC" stroke-linecap="round" stroke-linejoin="round"/>
        <path d="M2.25 4.5H2.25875" stroke="#008CCC" stroke-linecap="round" stroke-linejoin="round"/>
        <path d="M2.25 9H2.25875" stroke="#008CCC" stroke-linecap="round" stroke-linejoin="round"/>
        <path d="M2.25 13.5H2.25875" stroke="#008CCC" stroke-linecap="round" stroke-linejoin="round"/>
    </symbol>


</svg>


