<svg width="300" height="206" viewBox="0 0 300 206" fill="none" xmlns="http://www.w3.org/2000/svg">
<g clip-path="url(#clip0_572_9023)">
<path d="M112.489 188.52C112.489 188.52 107.239 197.52 109.309 197.87C111.379 198.22 115.699 190.39 115.699 190.39L127.539 187.25L118.619 186.33L112.489 188.52Z" fill="white" stroke="#263238" stroke-linecap="round" stroke-linejoin="round"/>
<path opacity="0.3" d="M112.489 188.52C112.489 188.52 107.239 197.52 109.309 197.87C111.379 198.22 115.699 190.39 115.699 190.39L127.539 187.25L118.619 186.33L112.489 188.52Z" fill="black" stroke="#263238" stroke-linecap="round" stroke-linejoin="round"/>
<path d="M116.479 182.36C116.479 182.36 109.139 180.62 107.119 184.06C105.099 187.5 99.1194 197.7 101.379 198.87C103.639 200.04 105.539 196.27 105.539 196.27L116.479 182.36Z" fill="white" stroke="#263238" stroke-linecap="round" stroke-linejoin="round"/>
<path d="M146.499 192.821C141.685 194.484 136.555 195.025 131.499 194.401L123.149 197.171C123.149 197.171 115.809 200.791 112.389 198.971C108.969 197.151 121.089 193.131 121.089 193.131C121.089 193.131 129.239 189.601 126.809 188.751C124.379 187.901 115.179 188.071 113.369 189.451C111.559 190.831 106.829 199.811 103.369 199.301C99.9095 198.791 104.819 193.901 106.039 192.021C107.259 190.141 110.039 182.641 115.609 182.321C121.179 182.001 139.999 183.001 139.999 183.001L162.089 180.641L167.309 193.211L146.499 192.821Z" fill="white" stroke="#263238" stroke-linecap="round" stroke-linejoin="round"/>
<path d="M157.999 195.93C158.615 196.372 159.357 196.605 160.114 196.594C160.872 196.584 161.607 196.33 162.209 195.87C162.875 196.154 163.61 196.235 164.321 196.103C165.032 195.972 165.689 195.633 166.209 195.13C167.819 193.35 167.959 177.83 163.499 176.08C162.209 175.57 158.989 175.63 158.499 177.43C158.156 177.291 157.784 177.234 157.415 177.265C157.045 177.296 156.688 177.414 156.372 177.609C156.057 177.804 155.792 178.07 155.598 178.387C155.405 178.703 155.289 179.061 155.259 179.43C154.809 182.23 157.599 184.84 156.669 192.89C156.589 193.471 156.67 194.062 156.905 194.598C157.14 195.135 157.519 195.596 157.999 195.93Z" fill="#008CCC" stroke="#263238" stroke-linecap="round" stroke-linejoin="round"/>
<path opacity="0.3" d="M157.999 195.93C158.615 196.372 159.357 196.605 160.114 196.594C160.872 196.584 161.607 196.33 162.209 195.87C162.875 196.154 163.61 196.235 164.321 196.103C165.032 195.972 165.689 195.633 166.209 195.13C167.819 193.35 167.959 177.83 163.499 176.08C162.209 175.57 158.989 175.63 158.499 177.43C158.156 177.291 157.784 177.234 157.415 177.265C157.045 177.296 156.688 177.414 156.372 177.609C156.057 177.804 155.792 178.07 155.598 178.387C155.405 178.703 155.289 179.061 155.259 179.43C154.809 182.23 157.599 184.84 156.669 192.89C156.589 193.471 156.67 194.062 156.905 194.598C157.14 195.135 157.519 195.596 157.999 195.93Z" fill="black" stroke="#263238" stroke-linecap="round" stroke-linejoin="round"/>
<path d="M163.119 192.31C163.12 188.066 162.22 183.87 160.479 180" stroke="#263238" stroke-linecap="round" stroke-linejoin="round"/>
<path d="M268.259 186.67C267.519 192.36 266.679 198.52 265.719 205.21H179.879L180.289 194.15C175.159 195.39 165.189 194.63 165.189 194.63V178.28C171.249 174.85 172.189 175.81 172.189 175.81C172.189 175.81 172.499 135.91 176.129 125.95C177.514 122.2 179.986 118.948 183.229 116.61C184.093 115.967 184.998 115.383 185.939 114.86L186.069 114.78C187.069 114.25 188.279 113.69 189.659 113.11L189.999 113C203.439 107.51 232.769 101.14 260.099 112.82C262.009 113.64 277.609 121.09 278.939 131.82C279.699 138 275.519 168.49 268.259 186.67Z" fill="#008CCC"/>
<mask id="mask0_572_9023" style="mask-type:luminance" maskUnits="userSpaceOnUse" x="165" y="106" width="115" height="100">
<path d="M268.259 186.67C267.519 192.36 266.679 198.52 265.719 205.21H179.879L180.289 194.15C175.159 195.39 165.189 194.63 165.189 194.63V178.28C171.249 174.85 172.189 175.81 172.189 175.81C172.189 175.81 172.499 135.91 176.129 125.95C177.514 122.2 179.986 118.948 183.229 116.61C184.093 115.967 184.998 115.383 185.939 114.86L186.069 114.78C187.069 114.25 188.279 113.69 189.659 113.11L189.999 113C203.439 107.51 232.769 101.14 260.099 112.82C262.009 113.64 277.609 121.09 278.939 131.82C279.699 138 275.519 168.49 268.259 186.67Z" fill="white"/>
</mask>
<g mask="url(#mask0_572_9023)">
<path opacity="0.2" d="M254.66 137.48L246.1 177.21C244.77 176.21 240.94 176.09 236.1 176.55C237.152 175.394 238.025 174.086 238.69 172.67C251.6 144.67 254.43 138 254.66 137.48Z" fill="black"/>
<path opacity="0.2" d="M270.3 181.13C268.215 189.041 266.685 197.087 265.72 205.21H179.88L180.67 192.47C186.02 191.71 195.41 190.93 205.16 189.2C205.908 192.251 205.986 195.427 205.39 198.51C205.39 198.51 244.87 203.41 258.12 200.22C261.9 199.31 265.32 194.03 268.25 186.76C269 185 269.64 183.1 270.3 181.13Z" fill="black"/>
<path opacity="0.3" d="M173.17 176.56C173.17 176.56 171.25 174.85 165.17 178.28V194.63C165.17 194.63 175.17 194.28 179.1 192.15C182.48 194.24 181.88 155.97 182.48 135.36C177.58 136.71 177.18 146.03 176.43 154.8C175.796 162.114 174.707 169.382 173.17 176.56Z" fill="black"/>
</g>
<path d="M268.259 186.67C267.519 192.36 266.679 198.52 265.719 205.21H179.879L180.289 194.15C175.159 195.39 165.189 194.63 165.189 194.63V178.28C171.249 174.85 172.189 175.81 172.189 175.81C172.189 175.81 172.499 135.91 176.129 125.95C177.514 122.2 179.986 118.948 183.229 116.61C184.093 115.967 184.998 115.383 185.939 114.86L186.069 114.78C187.069 114.25 188.279 113.69 189.659 113.11L189.999 113C203.439 107.51 232.769 101.14 260.099 112.82C262.009 113.64 277.609 121.09 278.939 131.82C279.699 138 275.519 168.49 268.259 186.67Z" stroke="#263238" stroke-linecap="round" stroke-linejoin="round"/>
<path d="M278.939 131.811C278.939 132.051 278.999 132.331 279.009 132.641C279.449 140.321 275.269 169.301 268.249 186.761C265.319 194.031 261.899 199.311 258.119 200.221C244.869 203.411 205.389 198.511 205.389 198.511C206.42 193.092 205.366 187.485 202.439 182.811C202.439 182.811 241.199 173.331 246.099 177.211L254.679 137.441" stroke="#263238" stroke-linecap="round" stroke-linejoin="round"/>
<path d="M248.8 179.37C251.558 180.707 253.922 182.736 255.66 185.26" stroke="#263238" stroke-linecap="round" stroke-linejoin="round"/>
<path d="M150.05 180.8C150.05 180.8 146.44 180.04 144.97 181.69C143.5 183.34 137.2 192.8 139.33 194.6C141.46 196.4 145.79 186.51 145.79 186.51L150.05 180.8Z" fill="white" stroke="#263238" stroke-linecap="round" stroke-linejoin="round"/>
<path d="M157.31 180.63C157.31 180.63 149.31 178.91 147.49 181.36C145.67 183.81 135.57 196.48 141.86 196.89L151.92 185.61L157.31 180.63Z" fill="white" stroke="#263238" stroke-linecap="round" stroke-linejoin="round"/>
<path d="M175.46 194.11C175.46 194.11 167.21 195.91 163.86 196.57C160.51 197.23 154.29 201.57 150.61 199.84C146.93 198.11 162.61 191.74 162.61 191.74L168 189.57L175.46 194.11Z" fill="#BFBFBF" stroke="#263238" stroke-linecap="round" stroke-linejoin="round"/>
<path d="M182.14 144.75C182.253 141.624 182.37 138.494 182.49 135.36" stroke="#263238" stroke-linecap="round" stroke-linejoin="round"/>
<path d="M179.88 205.21C181.41 186.28 182 149 182 149" stroke="#263238" stroke-linecap="round" stroke-linejoin="round"/>
<path d="M205.389 183.89H176.939C176.939 183.89 154.859 177.27 151.179 182.42C147.499 187.57 139.659 195.42 141.859 196.89C144.059 198.36 153.389 187.7 153.389 187.7L161.479 187.77C161.479 187.77 154.619 190.77 153.149 192.23C151.679 193.69 148.489 197.87 150.149 198.61C151.809 199.35 157.259 193.95 157.259 193.95C157.259 193.95 165.359 191.95 167.319 192.95C173.609 196.169 180.884 196.884 187.679 194.95L209.389 197.65L205.389 183.89Z" fill="white" stroke="#263238" stroke-linecap="round" stroke-linejoin="round"/>
<path d="M251.71 151.21C250.925 146.656 250.895 142.004 251.62 137.44" stroke="#263238" stroke-linecap="round" stroke-linejoin="round"/>
<path d="M258.16 127.36C258.16 127.36 271.96 109.18 278.94 131.81" stroke="#263238" stroke-linecap="round" stroke-linejoin="round"/>
<path d="M199.55 181.65C200.036 181.067 200.697 180.655 201.435 180.475C202.173 180.295 202.949 180.356 203.65 180.65C204.223 180.208 204.915 179.946 205.637 179.896C206.36 179.846 207.081 180.011 207.71 180.37C209.71 181.69 213.71 196.69 209.82 199.49C208.69 200.3 205.57 201.05 204.61 199.44C204.309 199.661 203.961 199.808 203.593 199.869C203.225 199.93 202.848 199.904 202.493 199.792C202.137 199.68 201.813 199.485 201.546 199.224C201.28 198.964 201.079 198.643 200.96 198.29C199.84 195.68 201.88 192.47 198.96 184.89C198.753 184.348 198.698 183.759 198.802 183.188C198.906 182.617 199.165 182.085 199.55 181.65Z" fill="#008CCC"/>
<mask id="mask1_572_9023" style="mask-type:luminance" maskUnits="userSpaceOnUse" x="198" y="179" width="14" height="22">
<path d="M199.55 181.65C200.036 181.067 200.697 180.655 201.435 180.475C202.173 180.295 202.949 180.356 203.65 180.65C204.223 180.208 204.915 179.946 205.637 179.896C206.36 179.846 207.081 180.011 207.71 180.37C209.71 181.69 213.71 196.69 209.82 199.49C208.69 200.3 205.57 201.05 204.61 199.44C204.309 199.661 203.961 199.808 203.593 199.869C203.225 199.93 202.848 199.904 202.493 199.792C202.137 199.68 201.813 199.485 201.546 199.224C201.28 198.964 201.079 198.643 200.96 198.29C199.84 195.68 201.88 192.47 198.96 184.89C198.753 184.348 198.698 183.759 198.802 183.188C198.906 182.617 199.165 182.085 199.55 181.65Z" fill="white"/>
</mask>
<g mask="url(#mask1_572_9023)">
<path opacity="0.3" d="M199.55 181.65C200.036 181.067 200.697 180.655 201.435 180.475C202.173 180.295 202.949 180.356 203.65 180.65C204.223 180.208 204.915 179.946 205.637 179.896C206.36 179.846 207.081 180.011 207.71 180.37C209.71 181.69 213.71 196.69 209.82 199.49C208.69 200.3 205.57 201.05 204.61 199.44C204.309 199.661 203.961 199.808 203.593 199.869C203.225 199.93 202.848 199.904 202.493 199.792C202.137 199.68 201.813 199.485 201.546 199.224C201.28 198.964 201.079 198.643 200.96 198.29C199.84 195.68 201.88 192.47 198.96 184.89C198.753 184.348 198.698 183.759 198.802 183.188C198.906 182.617 199.165 182.085 199.55 181.65Z" fill="black"/>
</g>
<path d="M199.55 181.65C200.036 181.067 200.697 180.655 201.435 180.475C202.173 180.295 202.949 180.356 203.65 180.65C204.223 180.208 204.915 179.946 205.637 179.896C206.36 179.846 207.081 180.011 207.71 180.37C209.71 181.69 213.71 196.69 209.82 199.49C208.69 200.3 205.57 201.05 204.61 199.44C204.309 199.661 203.961 199.808 203.593 199.869C203.225 199.93 202.848 199.904 202.493 199.792C202.137 199.68 201.813 199.485 201.546 199.224C201.28 198.964 201.079 198.643 200.96 198.29C199.84 195.68 201.88 192.47 198.96 184.89C198.753 184.348 198.698 183.759 198.802 183.188C198.906 182.617 199.165 182.085 199.55 181.65Z" stroke="#263238" stroke-linecap="round" stroke-linejoin="round"/>
<path d="M205.87 189.44C206.223 191.759 206.25 194.115 205.95 196.44" stroke="#263238" stroke-linecap="round" stroke-linejoin="round"/>
<path d="M218.37 144.53C218.358 144.916 218.231 145.289 218.005 145.602C217.78 145.915 217.466 146.153 217.104 146.287C216.743 146.421 216.349 146.444 215.974 146.353C215.6 146.262 215.26 146.061 215 145.777C214.74 145.492 214.57 145.137 214.513 144.755C214.455 144.374 214.513 143.984 214.678 143.636C214.844 143.287 215.109 142.996 215.441 142.799C215.772 142.602 216.155 142.509 216.54 142.53C217.045 142.561 217.518 142.787 217.86 143.16C218.201 143.534 218.384 144.025 218.37 144.53Z" fill="white" stroke="#263238" stroke-linecap="round" stroke-linejoin="round"/>
<path d="M217 174.73C216.978 175.116 216.842 175.485 216.609 175.793C216.376 176.101 216.057 176.333 215.693 176.459C215.328 176.586 214.935 176.601 214.561 176.504C214.188 176.406 213.852 176.201 213.596 175.912C213.339 175.624 213.175 175.266 213.122 174.883C213.069 174.501 213.131 174.112 213.299 173.765C213.468 173.418 213.736 173.129 214.069 172.934C214.402 172.739 214.785 172.647 215.17 172.67C215.686 172.701 216.168 172.936 216.511 173.322C216.854 173.708 217.03 174.215 217 174.73Z" fill="white" stroke="#263238" stroke-linecap="round" stroke-linejoin="round"/>
<path d="M234.829 107.55L233.399 87.4004L212.549 92.2304L211.439 108.41C210.129 108.57 208.869 108.75 207.649 108.94L212.749 121.17L222.749 122.47L238.689 107.78C237.359 107.69 236.079 107.61 234.829 107.55Z" fill="white"/>
<mask id="mask2_572_9023" style="mask-type:luminance" maskUnits="userSpaceOnUse" x="207" y="87" width="32" height="36">
<path d="M234.829 107.55L233.399 87.4004L212.549 92.2304L211.439 108.41C210.129 108.57 208.869 108.75 207.649 108.94L212.749 121.17L222.749 122.47L238.689 107.78C237.359 107.69 236.079 107.61 234.829 107.55Z" fill="white"/>
</mask>
<g mask="url(#mask2_572_9023)">
<path d="M212.239 99.3604C212.379 113.69 229.129 109.3 233.759 94.9804L233.399 87.4004L212.549 92.2304L212.239 99.3604Z" fill="#263238"/>
</g>
<path d="M234.829 107.55L233.399 87.4004L212.549 92.2304L211.439 108.41C210.129 108.57 208.869 108.75 207.649 108.94L212.749 121.17L222.749 122.47L238.689 107.78C237.359 107.69 236.079 107.61 234.829 107.55Z" stroke="#263238" stroke-linecap="round" stroke-linejoin="round"/>
<path d="M199.47 70.3902C199.47 70.3902 191.85 57.2101 190.72 50.2601C187.24 28.7901 202.72 36.0302 202.72 36.0302C202.72 36.0302 213.72 26.2202 227.33 27.9402C240.94 29.6602 244.58 35.4702 253.76 39.0302C253.76 39.0302 246.87 74.0301 238.04 81.9001C229.21 89.7701 199.47 70.3902 199.47 70.3902Z" fill="#263238" stroke="#263238" stroke-linecap="round" stroke-linejoin="round"/>
<path d="M203.48 39.2203C203.48 39.2203 200.04 30.8803 208.75 24.5103" stroke="#263238" stroke-linecap="round" stroke-linejoin="round"/>
<path d="M218.46 34.2103C228.65 29.7103 233.19 37.2103 244.57 39.2103" stroke="white" stroke-miterlimit="10"/>
<path d="M210.59 39.2205C211.512 38.0544 212.628 37.0564 213.89 36.2705" stroke="white" stroke-miterlimit="10"/>
<path d="M221.05 42.4902C221.05 42.4902 225.46 38.2502 234.2 43.7602C236.844 45.4982 239.82 46.6695 242.94 47.2002" stroke="white" stroke-miterlimit="10"/>
<path d="M234.529 51.65C221.839 51.98 208.749 46.25 208.749 46.25C196.929 53.38 198.689 65 198.689 65C201.389 92.7 205.039 100.08 217.979 100.08C230.919 100.08 241.439 86.08 242.279 66.08C237.389 66.33 234.529 51.65 234.529 51.65Z" fill="white" stroke="#263238" stroke-linecap="round" stroke-linejoin="round"/>
<path d="M241.2 65.0003C241.49 64.5703 241.875 64.2136 242.327 63.9585C242.778 63.7033 243.282 63.5567 243.8 63.5303C246.1 63.5303 247.8 66.5303 246.98 70.2803C246.16 74.0303 245.12 77.0203 242.82 77.0203C242.293 77.0032 241.783 76.8255 241.36 76.511C240.936 76.1965 240.619 75.7601 240.45 75.2603" fill="white"/>
<path d="M241.2 65.0003C241.49 64.5703 241.875 64.2136 242.327 63.9585C242.778 63.7033 243.282 63.5567 243.8 63.5303C246.1 63.5303 247.8 66.5303 246.98 70.2803C246.16 74.0303 245.12 77.0203 242.82 77.0203C242.293 77.0032 241.783 76.8255 241.36 76.511C240.936 76.1965 240.619 75.7601 240.45 75.2603" stroke="#263238" stroke-linecap="round" stroke-linejoin="round"/>
<path d="M216 78.5703C216 78.5703 217.55 80.6902 214.58 82.2802C211.61 83.8702 209.24 83.8402 208.49 82.0202C207.74 80.2002 211 65.0002 211 65.0002" stroke="#263238" stroke-linecap="round" stroke-linejoin="round"/>
<path d="M210.519 67.4499C208.919 66.6399 202.519 63.8399 196.439 67.6599L196.829 73.5399C196.829 73.5399 199.069 74.7699 204.209 74.7699C205.891 74.8008 207.57 74.6262 209.209 74.2499" stroke="#263238" stroke-linecap="round" stroke-linejoin="round"/>
<path d="M215.83 67.6599L217.69 73.7899C217.69 73.7899 218.45 74.7899 223.6 74.7899C228.75 74.7899 230.44 73.5599 230.44 73.5599L230.29 67.6799C230.29 67.6799 222.82 63.2499 215.83 67.6599Z" stroke="#263238" stroke-linecap="round" stroke-linejoin="round"/>
<path d="M210.93 67.6602H215.83" stroke="#263238" stroke-linecap="round" stroke-linejoin="round"/>
<path d="M212 87.8405C214.677 88.6031 217.525 88.5158 220.15 87.5905C222.17 86.8278 223.93 85.5021 225.22 83.7705" stroke="#263238" stroke-linecap="round" stroke-linejoin="round"/>
<path d="M220.12 61.8602C226.55 59.2102 229.38 62.3902 229.38 62.3902" stroke="#263238" stroke-linecap="round" stroke-linejoin="round"/>
<path d="M203.149 61.6004C204.253 61.0722 205.483 60.8662 206.698 61.0059C207.913 61.1457 209.065 61.6255 210.019 62.3904" stroke="#263238" stroke-linecap="round" stroke-linejoin="round"/>
<path d="M196 55.0002C196.206 56.1801 196.542 57.3337 197 58.4402" stroke="white" stroke-miterlimit="10"/>
<path d="M203.72 41.8103C197.4 40.1103 194.9 43.9103 195.37 49.9003" stroke="white" stroke-miterlimit="10"/>
<path d="M210.41 107.47L218.11 121.33L236.6 106.74L242.28 107.54L230.28 128.69C230.171 128.881 230.024 129.047 229.849 129.18C229.674 129.312 229.473 129.407 229.26 129.459C229.047 129.512 228.825 129.52 228.608 129.484C228.392 129.448 228.185 129.369 228 129.25L217.77 122.8L209.77 127.68C209.535 127.823 209.268 127.905 208.993 127.917C208.719 127.929 208.445 127.872 208.199 127.75C207.952 127.629 207.741 127.446 207.584 127.221C207.426 126.995 207.329 126.734 207.3 126.46L205.3 108.46L210.41 107.47Z" fill="#008CCC"/>
<mask id="mask3_572_9023" style="mask-type:luminance" maskUnits="userSpaceOnUse" x="205" y="106" width="38" height="24">
<path d="M210.41 107.47L218.11 121.33L236.6 106.74L242.28 107.54L230.28 128.69C230.171 128.881 230.024 129.047 229.849 129.18C229.674 129.312 229.473 129.407 229.26 129.459C229.047 129.512 228.825 129.52 228.608 129.484C228.392 129.448 228.185 129.369 228 129.25L217.77 122.8L209.77 127.68C209.535 127.823 209.268 127.905 208.993 127.917C208.719 127.929 208.445 127.872 208.199 127.75C207.952 127.629 207.741 127.446 207.584 127.221C207.426 126.995 207.329 126.734 207.3 126.46L205.3 108.46L210.41 107.47Z" fill="white"/>
</mask>
<g mask="url(#mask3_572_9023)">
<path opacity="0.3" d="M209.73 107.38L218.11 121.33L236.92 106.48L242.59 107.38L230.32 128.69C230.211 128.881 230.064 129.047 229.889 129.18C229.714 129.312 229.513 129.407 229.3 129.459C229.087 129.512 228.865 129.52 228.648 129.484C228.432 129.448 228.225 129.369 228.04 129.25L217.81 122.8L209.81 127.68C209.575 127.823 209.308 127.905 209.033 127.917C208.759 127.929 208.485 127.872 208.239 127.75C207.992 127.628 207.781 127.446 207.624 127.221C207.466 126.995 207.369 126.734 207.34 126.46L205.34 108.46L209.73 107.38Z" fill="black"/>
</g>
<path d="M210.41 107.47L218.11 121.33L236.6 106.74L242.28 107.54L230.28 128.69C230.171 128.881 230.024 129.047 229.849 129.18C229.674 129.312 229.473 129.407 229.26 129.459C229.047 129.512 228.825 129.52 228.608 129.484C228.392 129.448 228.185 129.369 228 129.25L217.77 122.8L209.77 127.68C209.535 127.823 209.268 127.905 208.993 127.917C208.719 127.929 208.445 127.872 208.199 127.75C207.952 127.629 207.741 127.446 207.584 127.221C207.426 126.995 207.329 126.734 207.3 126.46L205.3 108.46L210.41 107.47Z" stroke="#263238" stroke-linecap="round" stroke-linejoin="round"/>
<path d="M95.7598 198.5H146V205.2H95.7598C95.2293 205.2 94.7206 204.99 94.3456 204.614C93.9705 204.239 93.7598 203.731 93.7598 203.2V200.44C93.7754 199.92 93.993 199.427 94.3663 199.065C94.7397 198.702 95.2396 198.5 95.7598 198.5Z" fill="#263238" stroke="#263238" stroke-linecap="round" stroke-linejoin="round"/>
<path d="M189.3 205.21H146V198.5L189.36 201.36C189.707 201.385 190.031 201.541 190.268 201.794C190.506 202.048 190.638 202.383 190.64 202.73V203.84C190.64 204.198 190.5 204.542 190.249 204.799C189.999 205.055 189.658 205.202 189.3 205.21Z" fill="#008CCC" stroke="#263238" stroke-linecap="round" stroke-linejoin="round"/>
<path d="M230.31 68.6402L241.2 65.0002L239.91 66.6302" stroke="#263238" stroke-linecap="round" stroke-linejoin="round"/>
<path d="M32.85 161.79C32.85 161.79 29.41 132.38 -1 144.23C-1 144.23 24.88 144.04 29.25 166.23L33.25 165.8L32.85 161.79Z" fill="#008CCC"/>
<path opacity="0.1" d="M32.85 161.79C32.85 161.79 29.41 132.38 -1 144.23C-1 144.23 24.88 144.04 29.25 166.23L33.25 165.8L32.85 161.79Z" fill="black"/>
<path d="M33.2702 161.29C33.2702 161.29 30.6302 129.93 24.9102 105.56C24.9102 105.56 42.4102 124.07 38.4102 158.92L33.2702 161.29Z" fill="#008CCC"/>
<path opacity="0.1" d="M33.2702 161.29C33.2702 161.29 30.6302 129.93 24.9102 105.56C24.9102 105.56 42.4102 124.07 38.4102 158.92L33.2702 161.29Z" fill="black"/>
<path d="M31.5705 182.05C31.5705 182.05 26.5205 138.85 9.73047 124.05C9.73047 124.05 39.7305 131.52 35.3105 177.4L31.5705 182.05Z" fill="#008CCC"/>
<path d="M36.8503 180.24C36.8503 180.24 44.2003 137.38 61.7603 123.47C61.7603 123.47 31.3803 129.31 33.3603 175.37L36.8503 180.24Z" fill="#008CCC"/>
<path d="M52.2598 166.22H16.7598V172.39H17.9398V194.16C17.9529 197.074 19.1161 199.864 21.1761 201.924C23.2362 203.984 26.0264 205.147 28.9398 205.16H39.9998C42.9171 205.16 45.715 204.001 47.7779 201.938C49.8408 199.875 50.9998 197.078 50.9998 194.16V172.39H52.1898L52.2598 166.22Z" fill="white" stroke="#263238" stroke-miterlimit="10"/>
<path d="M41.25 172.1H46H41.25Z" fill="white"/>
<path d="M41.25 172.1H46" stroke="#263238" stroke-miterlimit="10"/>
<path d="M22.75 172.1H36.45H22.75Z" fill="white"/>
<path d="M22.75 172.1H36.45" stroke="#263238" stroke-miterlimit="10"/>
<path d="M172.42 178.05L163.33 104C163.159 102.84 162.586 101.776 161.71 100.996C160.834 100.215 159.712 99.7673 158.54 99.7305H148.1L160.15 182.36H168.69C169.234 182.374 169.775 182.267 170.274 182.047C170.772 181.826 171.216 181.498 171.572 181.086C171.929 180.674 172.19 180.188 172.336 179.663C172.483 179.138 172.511 178.588 172.42 178.05Z" fill="#008CCC" stroke="#263238" stroke-linecap="round" stroke-linejoin="round"/>
<path d="M166.43 182.31H61.5696C60.4004 182.272 59.2817 181.824 58.4083 181.046C57.5349 180.267 56.9621 179.207 56.7896 178.05L47.6896 104C47.6043 103.465 47.6378 102.918 47.7878 102.397C47.9379 101.877 48.2007 101.395 48.5578 100.988C48.9148 100.58 49.3572 100.256 49.8535 100.039C50.3498 99.8215 50.888 99.7161 51.4296 99.7303H156.28C157.452 99.767 158.574 100.215 159.45 100.995C160.326 101.776 160.899 102.84 161.07 104L170.17 178.1C170.245 178.631 170.204 179.171 170.05 179.685C169.896 180.198 169.631 180.671 169.275 181.072C168.919 181.473 168.48 181.791 167.989 182.005C167.498 182.219 166.965 182.323 166.43 182.31Z" fill="#263238"/>
<mask id="mask4_572_9023" style="mask-type:luminance" maskUnits="userSpaceOnUse" x="47" y="99" width="124" height="84">
<path d="M166.43 182.31H61.5696C60.4004 182.272 59.2817 181.824 58.4083 181.046C57.5349 180.267 56.9621 179.207 56.7896 178.05L47.6896 104C47.6043 103.465 47.6378 102.918 47.7878 102.397C47.9379 101.877 48.2007 101.395 48.5578 100.988C48.9148 100.58 49.3572 100.256 49.8535 100.039C50.3498 99.8215 50.888 99.7161 51.4296 99.7303H156.28C157.452 99.767 158.574 100.215 159.45 100.995C160.326 101.776 160.899 102.84 161.07 104L170.17 178.1C170.245 178.631 170.204 179.171 170.05 179.685C169.896 180.198 169.631 180.671 169.275 181.072C168.919 181.473 168.48 181.791 167.989 182.005C167.498 182.219 166.965 182.323 166.43 182.31Z" fill="white"/>
</mask>
<g mask="url(#mask4_572_9023)">
<path opacity="0.1" d="M166.43 182.31H61.5696C60.4004 182.272 59.2817 181.824 58.4083 181.046C57.5349 180.267 56.9621 179.207 56.7896 178.05L47.6896 104C47.6043 103.465 47.6378 102.918 47.7878 102.397C47.9379 101.877 48.2007 101.395 48.5578 100.988C48.9148 100.58 49.3572 100.256 49.8535 100.039C50.3498 99.8215 50.888 99.7161 51.4296 99.7303H156.28C157.452 99.767 158.574 100.215 159.45 100.995C160.326 101.776 160.899 102.84 161.07 104L170.17 178.1C170.245 178.631 170.204 179.171 170.05 179.685C169.896 180.198 169.631 180.671 169.275 181.072C168.919 181.473 168.48 181.791 167.989 182.005C167.498 182.219 166.965 182.323 166.43 182.31Z" fill="white"/>
</g>
<path d="M166.43 182.31H61.5696C60.4004 182.272 59.2817 181.824 58.4083 181.046C57.5349 180.267 56.9621 179.207 56.7896 178.05L47.6896 104C47.6043 103.465 47.6378 102.918 47.7878 102.397C47.9379 101.877 48.2007 101.395 48.5578 100.988C48.9148 100.58 49.3572 100.256 49.8535 100.039C50.3498 99.8215 50.888 99.7161 51.4296 99.7303H156.28C157.452 99.767 158.574 100.215 159.45 100.995C160.326 101.776 160.899 102.84 161.07 104L170.17 178.1C170.245 178.631 170.204 179.171 170.05 179.685C169.896 180.198 169.631 180.671 169.275 181.072C168.919 181.473 168.48 181.791 167.989 182.005C167.498 182.219 166.965 182.323 166.43 182.31Z" stroke="#263238" stroke-linecap="round" stroke-linejoin="round"/>
<path d="M117.54 199.15L121.72 151.42C121.738 151.147 121.7 150.873 121.607 150.615C121.515 150.357 121.37 150.121 121.182 149.921C120.995 149.721 120.768 149.562 120.517 149.454C120.265 149.345 119.994 149.289 119.72 149.29H93.3003C92.8043 149.287 92.325 149.469 91.9554 149.8C91.5858 150.131 91.3523 150.587 91.3003 151.08L86.7403 203.08C86.721 203.354 86.7585 203.629 86.8504 203.888C86.9422 204.148 87.0865 204.385 87.2742 204.586C87.4618 204.786 87.6889 204.946 87.9411 205.056C88.1934 205.165 88.4654 205.221 88.7403 205.22H141.18C141.711 205.22 142.219 205.009 142.594 204.634C142.97 204.259 143.18 203.75 143.18 203.22C143.18 202.69 142.97 202.181 142.594 201.806C142.219 201.431 141.711 201.22 141.18 201.22H119.49C119.226 201.214 118.965 201.155 118.724 201.047C118.482 200.939 118.265 200.785 118.083 200.592C117.902 200.4 117.761 200.173 117.667 199.925C117.574 199.678 117.531 199.414 117.54 199.15Z" fill="#263238" stroke="#263238" stroke-linecap="round" stroke-linejoin="round"/>
<path d="M143.14 203.25C143.14 202.72 142.929 202.211 142.554 201.836C142.179 201.461 141.67 201.25 141.14 201.25H119.49C119.22 201.244 118.954 201.183 118.709 201.072C118.463 200.96 118.242 200.8 118.06 200.601C117.878 200.402 117.738 200.168 117.648 199.914C117.559 199.659 117.522 199.389 117.54 199.12L121.72 151.39C121.81 151.105 121.835 150.802 121.792 150.506C121.75 150.209 121.642 149.926 121.475 149.677C121.309 149.428 121.089 149.22 120.831 149.067C120.573 148.915 120.285 148.822 119.986 148.796C119.688 148.77 119.388 148.811 119.107 148.916C118.827 149.022 118.574 149.189 118.367 149.405C118.16 149.622 118.004 149.882 117.911 150.167C117.818 150.451 117.79 150.753 117.83 151.05L113.27 203.05C113.25 203.324 113.288 203.599 113.38 203.859C113.472 204.118 113.616 204.355 113.803 204.556C113.991 204.757 114.218 204.917 114.47 205.026C114.723 205.135 114.995 205.191 115.27 205.19H141.22C141.726 205.17 142.206 204.959 142.562 204.599C142.918 204.238 143.125 203.757 143.14 203.25Z" fill="#008CCC" stroke="#263238" stroke-linecap="round" stroke-linejoin="round"/>
<path d="M23 205H299" stroke="#263238" stroke-linecap="round" stroke-linejoin="round"/>
</g>
<defs>
<clipPath id="clip0_572_9023">
<rect width="300" height="206" fill="white"/>
</clipPath>
</defs>
</svg>
