<svg width="235" height="200" viewBox="0 0 235 200" fill="none" xmlns="http://www.w3.org/2000/svg">
<path d="M183.725 1.28882H39.0768C36.8383 1.28681 34.6241 1.75358 32.5756 2.6593C30.5271 3.56503 28.6895 4.88977 27.1802 6.54883C25.4777 8.14161 24.14 10.0863 23.2595 12.2485C22.3791 14.4108 21.9768 16.7391 22.0804 19.0726L25.1336 85.8663V264.999C25.1325 266.93 25.5106 268.843 26.2464 270.628C26.9822 272.412 28.0611 274.034 29.4216 275.4C30.7822 276.767 32.3976 277.85 34.1756 278.59C35.9536 279.329 37.8593 279.71 39.7839 279.71H181.321C185.376 279.536 189.22 277.842 192.091 274.962C194.962 272.082 196.652 268.225 196.828 264.155V85.0815L199.873 18.2878C199.977 16.0944 199.637 13.9025 198.873 11.8449C198.109 9.78733 196.936 7.90687 195.427 6.31749C193.917 4.72811 192.101 3.4629 190.09 2.59852C188.078 1.73413 185.913 1.28857 183.725 1.28882Z" fill="white" stroke="#263238" stroke-miterlimit="10"/>
<path d="M188.95 83.0441L191.745 20.709C191.806 19.3664 191.595 18.0254 191.125 16.767C190.654 15.5085 189.935 14.3588 189.01 13.3873C188.084 12.4157 186.972 11.6425 185.741 11.1143C184.51 10.5861 183.184 10.314 181.845 10.3142H40.9323C39.5935 10.3151 38.2687 10.5881 37.0378 11.1167C35.807 11.6453 34.6955 12.4186 33.7704 13.3899C32.8454 14.3612 32.1258 15.5104 31.6552 16.7683C31.1847 18.0262 30.9727 19.3667 31.0323 20.709L33.8359 83.0441H188.95Z" fill="#263238" stroke="#263238" stroke-miterlimit="10"/>
<path d="M182.793 26.4951H39.3594V75.1793H182.793V26.4951Z" fill="#7D7D7D"/>
<path d="M175.713 33.6001H46.4395V68.074H175.713V33.6001Z" fill="#BFBFBF"/>
<path d="M107.853 102.815H43.7529C41.4693 102.815 39.6182 104.673 39.6182 106.965V119.981C39.6182 122.273 41.4693 124.131 43.7529 124.131H107.853C110.137 124.131 111.988 122.273 111.988 119.981V106.965C111.988 104.673 110.137 102.815 107.853 102.815Z" fill="#7D7D7D" stroke="#263238" stroke-miterlimit="10"/>
<path d="M54.834 103.082V124.131" stroke="#263238" stroke-miterlimit="10"/>
<path d="M69.4258 103.082V124.131" stroke="#263238" stroke-miterlimit="10"/>
<path d="M84.0264 103.082V124.131" stroke="#263238" stroke-miterlimit="10"/>
<path d="M98.6182 103.082V124.131" stroke="#263238" stroke-miterlimit="10"/>
<path d="M152.294 114.529H134.233C132.11 114.529 130.39 116.256 130.39 118.386V127.404C130.39 129.534 132.11 131.261 134.233 131.261H152.294C154.417 131.261 156.138 129.534 156.138 127.404V118.386C156.138 116.256 154.417 114.529 152.294 114.529Z" fill="#BDBDBD" stroke="#263238" stroke-miterlimit="10"/>
<path d="M61.9634 137.623H43.9021C41.7794 137.623 40.0586 139.35 40.0586 141.48V153.462C40.0586 155.592 41.7794 157.319 43.9021 157.319H61.9634C64.0861 157.319 65.8069 155.592 65.8069 153.462V141.48C65.8069 139.35 64.0861 137.623 61.9634 137.623Z" fill="#BDBDBD" stroke="#263238" stroke-miterlimit="10"/>
<path d="M92.146 137.623H74.0847C71.962 137.623 70.2412 139.35 70.2412 141.48V153.462C70.2412 155.592 71.962 157.319 74.0847 157.319H92.146C94.2687 157.319 95.9895 155.592 95.9895 153.462V141.48C95.9895 139.35 94.2687 137.623 92.146 137.623Z" fill="#BDBDBD" stroke="#263238" stroke-miterlimit="10"/>
<path d="M104.267 137.623H122.32C123.341 137.623 124.321 138.03 125.043 138.755C125.766 139.48 126.172 140.463 126.172 141.489V153.462C126.172 154.485 125.767 155.467 125.046 156.192C124.326 156.917 123.348 157.325 122.328 157.327H104.275C103.256 157.327 102.278 156.921 101.557 156.197C100.837 155.474 100.432 154.493 100.432 153.47V141.48C100.432 140.459 100.835 139.479 101.554 138.756C102.273 138.033 103.249 137.625 104.267 137.623Z" fill="#BDBDBD" stroke="#263238" stroke-miterlimit="10"/>
<path d="M152.502 137.623H134.441C132.318 137.623 130.598 139.35 130.598 141.48V153.462C130.598 155.592 132.318 157.319 134.441 157.319H152.502C154.625 157.319 156.346 155.592 156.346 153.462V141.48C156.346 139.35 154.625 137.623 152.502 137.623Z" fill="#BDBDBD" stroke="#263238" stroke-miterlimit="10"/>
<path d="M182.685 137.623H164.624C162.501 137.623 160.78 139.35 160.78 141.48V153.462C160.78 155.592 162.501 157.319 164.624 157.319H182.685C184.808 157.319 186.529 155.592 186.529 153.462V141.48C186.529 139.35 184.808 137.623 182.685 137.623Z" fill="#BDBDBD" stroke="#263238" stroke-miterlimit="10"/>
<path d="M61.9634 164.098H43.9021C41.7794 164.098 40.0586 165.825 40.0586 167.956V179.937C40.0586 182.067 41.7794 183.794 43.9021 183.794H61.9634C64.0861 183.794 65.8069 182.067 65.8069 179.937V167.956C65.8069 165.825 64.0861 164.098 61.9634 164.098Z" fill="#BDBDBD" stroke="#263238" stroke-miterlimit="10"/>
<path d="M92.146 164.098H74.0847C71.962 164.098 70.2412 165.825 70.2412 167.956V179.937C70.2412 182.067 71.962 183.794 74.0847 183.794H92.146C94.2687 183.794 95.9895 182.067 95.9895 179.937V167.956C95.9895 165.825 94.2687 164.098 92.146 164.098Z" fill="#6B6B6B" stroke="#263238" stroke-miterlimit="10"/>
<path d="M104.267 164.098H122.32C123.341 164.098 124.321 164.506 125.043 165.231C125.766 165.956 126.172 166.939 126.172 167.964V179.962C126.172 180.986 125.767 181.968 125.046 182.692C124.326 183.417 123.348 183.825 122.328 183.828H104.275C103.256 183.828 102.278 183.421 101.557 182.698C100.837 181.974 100.432 180.993 100.432 179.97V167.956C100.432 166.934 100.835 165.954 101.554 165.231C102.273 164.508 103.249 164.101 104.267 164.098Z" fill="#6B6B6B" stroke="#263238" stroke-miterlimit="10"/>
<path d="M152.502 164.098H134.441C132.318 164.098 130.598 165.825 130.598 167.956V179.937C130.598 182.067 132.318 183.794 134.441 183.794H152.502C154.625 183.794 156.346 182.067 156.346 179.937V167.956C156.346 165.825 154.625 164.098 152.502 164.098Z" fill="#6B6B6B" stroke="#263238" stroke-miterlimit="10"/>
<path d="M182.685 164.098H164.624C162.501 164.098 160.78 165.825 160.78 167.956V179.937C160.78 182.067 162.501 183.794 164.624 183.794H182.685C184.808 183.794 186.529 182.067 186.529 179.937V167.956C186.529 165.825 184.808 164.098 182.685 164.098Z" fill="#BDBDBD" stroke="#263238" stroke-miterlimit="10"/>
<path d="M61.9634 190.574H43.9021C41.7794 190.574 40.0586 192.301 40.0586 194.431V206.412C40.0586 208.543 41.7794 210.27 43.9021 210.27H61.9634C64.0861 210.27 65.8069 208.543 65.8069 206.412V194.431C65.8069 192.301 64.0861 190.574 61.9634 190.574Z" fill="#BDBDBD" stroke="#263238" stroke-miterlimit="10"/>
<path d="M92.146 190.574H74.0847C71.962 190.574 70.2412 192.301 70.2412 194.431V206.412C70.2412 208.543 71.962 210.27 74.0847 210.27H92.146C94.2687 210.27 95.9895 208.543 95.9895 206.412V194.431C95.9895 192.301 94.2687 190.574 92.146 190.574Z" fill="#6B6B6B" stroke="#263238" stroke-miterlimit="10"/>
<path d="M104.267 190.574H122.32C123.341 190.574 124.321 190.981 125.043 191.706C125.766 192.431 126.172 193.414 126.172 194.439V206.412C126.172 207.436 125.767 208.418 125.046 209.143C124.326 209.867 123.348 210.276 122.328 210.278H104.275C103.256 210.278 102.278 209.871 101.557 209.148C100.837 208.425 100.432 207.444 100.432 206.421V194.439C100.431 193.933 100.529 193.431 100.721 192.963C100.913 192.494 101.195 192.068 101.552 191.709C101.908 191.35 102.331 191.065 102.797 190.871C103.263 190.676 103.762 190.575 104.267 190.574Z" fill="#6B6B6B" stroke="#263238" stroke-miterlimit="10"/>
<path d="M152.502 190.574H134.441C132.318 190.574 130.598 192.301 130.598 194.431V206.412C130.598 208.543 132.318 210.27 134.441 210.27H152.502C154.625 210.27 156.346 208.543 156.346 206.412V194.431C156.346 192.301 154.625 190.574 152.502 190.574Z" fill="#6B6B6B" stroke="#263238" stroke-miterlimit="10"/>
<path d="M182.685 190.574H164.624C162.501 190.574 160.78 192.301 160.78 194.431V206.412C160.78 208.543 162.501 210.27 164.624 210.27H182.685C184.808 210.27 186.529 208.543 186.529 206.412V194.431C186.529 192.301 184.808 190.574 182.685 190.574Z" fill="#BDBDBD" stroke="#263238" stroke-miterlimit="10"/>
<path d="M182.685 114.529H164.624C162.501 114.529 160.78 116.256 160.78 118.386V127.404C160.78 129.534 162.501 131.261 164.624 131.261H182.685C184.808 131.261 186.529 129.534 186.529 127.404V118.386C186.529 116.256 184.808 114.529 182.685 114.529Z" fill="#263238" stroke="#263238" stroke-linecap="round" stroke-linejoin="round"/>
<path d="M165.747 127.036C164.985 126.022 164.573 124.787 164.573 123.517C164.573 122.247 164.985 121.012 165.747 119.998C166.619 119.162 167.778 118.695 168.984 118.695C170.189 118.695 171.348 119.162 172.22 119.998C172.982 121.012 173.394 122.247 173.394 123.517C173.394 124.787 172.982 126.022 172.22 127.036C171.348 127.872 170.189 128.339 168.984 128.339C167.778 128.339 166.619 127.872 165.747 127.036ZM171.213 126.268C171.729 125.442 172.003 124.487 172.003 123.513C172.003 122.538 171.729 121.583 171.213 120.758C170.934 120.442 170.591 120.19 170.207 120.017C169.824 119.844 169.408 119.755 168.988 119.755C168.567 119.755 168.152 119.844 167.768 120.017C167.384 120.19 167.042 120.442 166.762 120.758C166.24 121.581 165.963 122.537 165.963 123.513C165.963 124.489 166.24 125.444 166.762 126.268C167.04 126.586 167.383 126.84 167.766 127.015C168.15 127.189 168.566 127.279 168.988 127.279C169.409 127.279 169.825 127.189 170.209 127.015C170.593 126.84 170.935 126.586 171.213 126.268Z" fill="white"/>
<path d="M175.522 128.038C175.463 127.985 175.417 127.919 175.386 127.845C175.356 127.771 175.343 127.692 175.347 127.612V119.672C175.339 119.56 175.353 119.448 175.388 119.342C175.424 119.236 175.481 119.138 175.555 119.054C175.623 118.981 175.706 118.923 175.797 118.885C175.889 118.846 175.988 118.827 176.088 118.829C176.255 118.83 176.418 118.876 176.562 118.963C176.733 119.053 176.879 119.185 176.986 119.347L181.736 126.293V119.413C181.732 119.334 181.745 119.254 181.776 119.181C181.806 119.107 181.852 119.041 181.911 118.988C182.029 118.881 182.184 118.824 182.344 118.829C182.5 118.827 182.651 118.883 182.768 118.988C182.83 119.039 182.879 119.104 182.911 119.178C182.942 119.252 182.956 119.333 182.951 119.413V127.362C182.956 127.475 182.938 127.589 182.898 127.695C182.858 127.801 182.797 127.898 182.718 127.98C182.643 128.056 182.554 128.116 182.455 128.156C182.356 128.196 182.25 128.216 182.144 128.213C181.99 128.209 181.839 128.169 181.703 128.097C181.558 128.021 181.432 127.913 181.337 127.779L176.57 120.833V127.629C176.573 127.709 176.559 127.789 176.527 127.863C176.495 127.937 176.447 128.002 176.387 128.055C176.268 128.148 176.122 128.199 175.971 128.199C175.82 128.199 175.674 128.148 175.555 128.055L175.522 128.038Z" fill="white"/>
<path d="M48.0703 152.844C47.9183 152.738 47.7999 152.59 47.7292 152.418L44.6844 145.563V152.693C44.6868 152.762 44.6721 152.83 44.6416 152.891C44.6111 152.952 44.5657 153.005 44.5097 153.044C44.3815 153.129 44.2306 153.173 44.0771 153.169C43.9263 153.171 43.7784 153.128 43.6528 153.044C43.5957 153.005 43.5492 152.953 43.5172 152.892C43.4853 152.831 43.469 152.763 43.4698 152.693V144.937C43.4708 144.816 43.4981 144.696 43.5498 144.587C43.6015 144.477 43.6764 144.38 43.7693 144.302C43.9527 144.152 44.1798 144.064 44.4168 144.054C44.6537 144.043 44.8877 144.11 45.0837 144.244C45.2913 144.39 45.453 144.593 45.5496 144.828L48.5113 151.433L51.4729 144.828C51.5666 144.591 51.7289 144.388 51.9388 144.244C52.1348 144.11 52.3688 144.043 52.6057 144.054C52.8427 144.064 53.0699 144.152 53.2533 144.302C53.3461 144.38 53.421 144.477 53.4727 144.587C53.5244 144.696 53.5518 144.816 53.5528 144.937V152.693C53.556 152.763 53.5407 152.832 53.5085 152.894C53.4764 152.955 53.4285 153.007 53.3697 153.044C53.2441 153.128 53.0962 153.171 52.9455 153.169C52.7943 153.174 52.6456 153.13 52.5212 153.044C52.4624 153.007 52.4145 152.955 52.3824 152.894C52.3502 152.832 52.3349 152.763 52.3381 152.693V145.563L49.2933 152.41C49.2227 152.581 49.1042 152.729 48.9522 152.835C48.8257 152.933 48.6707 152.986 48.5113 152.986C48.3518 152.986 48.1968 152.933 48.0703 152.835V152.844Z" fill="white"/>
<path d="M57.5037 152.744C56.8491 152.33 56.3309 151.732 56.0146 151.024C55.6723 150.26 55.5018 149.431 55.5154 148.594C55.5114 147.95 55.6126 147.31 55.8149 146.699C55.9956 146.14 56.2777 145.619 56.6468 145.162C57.0272 144.712 57.5053 144.355 58.0445 144.119C58.6321 143.862 59.2673 143.734 59.908 143.743C60.7323 143.737 61.544 143.947 62.2624 144.353C62.3498 144.391 62.4242 144.454 62.476 144.534C62.5278 144.614 62.5548 144.708 62.5536 144.803C62.5531 144.939 62.5027 145.07 62.4121 145.171C62.3675 145.219 62.3135 145.259 62.2535 145.286C62.1935 145.313 62.1286 145.328 62.0627 145.329C61.9874 145.325 61.9139 145.305 61.8464 145.271L61.6883 145.196L61.472 145.087L61.2058 144.987L60.8647 144.887L60.4571 144.829C60.2908 144.82 60.1242 144.82 59.9579 144.829C59.5643 144.825 59.173 144.89 58.8015 145.021C58.4901 145.146 58.2072 145.334 57.9696 145.572C57.7263 145.814 57.5265 146.096 57.3789 146.407C57.2129 146.733 57.0925 147.082 57.0212 147.442C56.877 148.217 56.877 149.013 57.0212 149.788C57.0913 150.146 57.2117 150.491 57.3789 150.815C57.5265 151.125 57.7263 151.408 57.9696 151.65C58.2259 151.884 58.5255 152.066 58.8514 152.184C59.2273 152.321 59.6246 152.389 60.0245 152.385C60.372 152.389 60.7177 152.335 61.0477 152.226C61.3743 152.108 61.6891 151.96 61.9878 151.783C62.0639 151.74 62.1499 151.717 62.2374 151.717C62.3028 151.717 62.3674 151.73 62.4275 151.756C62.4876 151.782 62.5418 151.819 62.5868 151.867C62.6771 151.961 62.7277 152.087 62.7283 152.218C62.7247 152.324 62.6927 152.427 62.6356 152.517C62.5785 152.606 62.4984 152.679 62.4038 152.727C61.6358 153.214 60.7417 153.464 59.8331 153.445C59.0044 153.449 58.1932 153.205 57.5037 152.744Z" fill="white"/>
<path d="M47.6042 174.31C47.2125 173.781 47.001 173.14 47.001 172.481C47.001 171.822 47.2125 171.181 47.6042 170.653C47.7974 170.412 48.044 170.221 48.3243 170.093C48.6045 169.965 48.9106 169.905 49.2181 169.918C49.5656 169.914 49.9096 169.988 50.2248 170.135C50.503 170.272 50.7431 170.475 50.9236 170.728C51.1025 170.982 51.2375 171.264 51.3229 171.563C51.4104 171.864 51.4552 172.176 51.456 172.489C51.4751 173.152 51.26 173.8 50.8487 174.318C50.6428 174.546 50.3918 174.728 50.1117 174.852C49.8316 174.977 49.5286 175.041 49.2223 175.041C48.9159 175.041 48.613 174.977 48.3329 174.852C48.0528 174.728 47.8017 174.546 47.5958 174.318L47.6042 174.31ZM49.9585 174.026C50.1535 173.849 50.2948 173.62 50.3662 173.366C50.446 173.075 50.4852 172.775 50.4827 172.473C50.4858 172.174 50.4466 171.876 50.3662 171.588C50.2988 171.332 50.1569 171.102 49.9585 170.928C49.7547 170.756 49.4969 170.662 49.2306 170.662C48.9643 170.662 48.7065 170.756 48.5026 170.928C48.3093 171.105 48.1707 171.334 48.1033 171.588C48.0229 171.876 47.9837 172.174 47.9869 172.473C47.9843 172.775 48.0235 173.075 48.1033 173.366C48.1747 173.618 48.3127 173.846 48.5026 174.026C48.7065 174.198 48.9643 174.292 49.2306 174.292C49.4969 174.292 49.7547 174.198 49.9585 174.026ZM49.3263 179.511C49.2869 179.479 49.2553 179.438 49.2337 179.392C49.2121 179.346 49.2011 179.295 49.2015 179.244C49.208 179.163 49.2367 179.085 49.2847 179.019L54.3761 169.943C54.411 169.87 54.4651 169.808 54.5326 169.764C54.6001 169.72 54.6783 169.695 54.7588 169.693C54.8078 169.691 54.8564 169.701 54.9011 169.721C54.9458 169.741 54.9853 169.772 55.0167 169.809C55.0529 169.844 55.0818 169.885 55.1018 169.931C55.1218 169.977 55.1325 170.026 55.1332 170.077C55.1234 170.174 55.0922 170.268 55.0416 170.352L49.9585 179.353C49.9351 179.412 49.8975 179.465 49.849 179.507C49.8004 179.549 49.7424 179.578 49.68 179.592C49.6175 179.606 49.5527 179.604 49.491 179.587C49.4293 179.57 49.3728 179.539 49.3263 179.494V179.511ZM53.8936 178.676C53.4815 178.152 53.2692 177.498 53.2946 176.831C53.2721 176.173 53.4879 175.53 53.9019 175.019C54.1015 174.773 54.3564 174.579 54.6457 174.451C54.9349 174.323 55.2503 174.266 55.5658 174.285C55.909 174.279 56.2486 174.356 56.5558 174.51C56.8383 174.636 57.0803 174.838 57.2546 175.094C57.4353 175.346 57.5679 175.629 57.6456 175.929C57.7385 176.229 57.7861 176.542 57.787 176.856C57.7922 177.299 57.7013 177.738 57.5208 178.142C57.3594 178.518 57.0938 178.84 56.7554 179.069C56.4041 179.305 55.9888 179.428 55.5658 179.419C55.2464 179.433 54.9283 179.371 54.6376 179.237C54.3469 179.104 54.0919 178.903 53.8936 178.651V178.676ZM56.248 178.384C56.4393 178.209 56.5777 177.983 56.6473 177.733C56.7276 177.439 56.7668 177.136 56.7637 176.831C56.7639 176.604 56.7416 176.377 56.6972 176.155C56.6556 175.956 56.5855 175.765 56.4892 175.587C56.4004 175.417 56.2684 175.273 56.1065 175.17C55.9296 175.067 55.7283 175.015 55.5242 175.019C55.2527 175.012 54.9884 175.107 54.7837 175.286C54.5938 175.466 54.4558 175.694 54.3844 175.946C54.2403 176.53 54.2403 177.14 54.3844 177.724C54.4558 177.976 54.5938 178.204 54.7837 178.384C54.9884 178.563 55.2527 178.659 55.5242 178.651C55.7942 178.653 56.0541 178.548 56.248 178.359V178.384Z" fill="white"/>
<path d="M81.8967 178.985C81.8306 178.934 81.7773 178.868 81.7412 178.793C81.7051 178.717 81.6871 178.634 81.6888 178.551C81.6954 178.453 81.7179 178.357 81.7553 178.267L84.9582 170.903H80.6488C80.5762 170.906 80.5038 170.893 80.4364 170.866C80.3691 170.838 80.3082 170.797 80.2578 170.744C80.1726 170.641 80.126 170.511 80.126 170.377C80.126 170.243 80.1726 170.113 80.2578 170.01C80.3068 169.955 80.3674 169.913 80.4351 169.885C80.5029 169.858 80.576 169.846 80.6488 169.851H85.6404C85.8346 169.842 86.0259 169.901 86.1812 170.018C86.2436 170.074 86.2924 170.144 86.3241 170.222C86.3558 170.3 86.3695 170.385 86.3642 170.469C86.3666 170.662 86.3268 170.853 86.2477 171.028L82.92 178.793C82.8774 178.907 82.7995 179.004 82.6976 179.07C82.5957 179.137 82.4754 179.168 82.3543 179.16C82.1855 179.16 82.0228 179.098 81.8967 178.985Z" fill="white"/>
<path d="M111.879 179.01C111.418 178.822 111.02 178.506 110.731 178.1C110.442 177.675 110.294 177.17 110.306 176.655C110.292 176.109 110.462 175.574 110.789 175.136C111.128 174.697 111.617 174.399 112.162 174.301C111.657 174.206 111.203 173.934 110.881 173.533C110.59 173.134 110.441 172.649 110.456 172.155C110.445 171.663 110.591 171.18 110.872 170.778C111.155 170.4 111.539 170.111 111.979 169.943C112.472 169.753 112.997 169.66 113.526 169.667C113.931 169.665 114.335 169.721 114.724 169.834C115.074 169.926 115.404 170.081 115.697 170.293C115.981 170.499 116.21 170.771 116.363 171.087C116.526 171.425 116.608 171.796 116.604 172.172C116.633 172.671 116.481 173.164 116.175 173.559C115.868 173.954 115.43 174.223 114.94 174.318C115.477 174.437 115.96 174.73 116.313 175.153C116.636 175.582 116.8 176.11 116.779 176.647C116.793 177.163 116.641 177.669 116.346 178.092C116.061 178.501 115.662 178.818 115.198 179.002C114.124 179.399 112.944 179.399 111.871 179.002L111.879 179.01ZM114.899 177.899C115.081 177.752 115.226 177.563 115.32 177.348C115.414 177.133 115.455 176.898 115.44 176.664C115.451 176.417 115.408 176.17 115.313 175.942C115.218 175.714 115.074 175.51 114.89 175.345C114.51 175.03 114.027 174.867 113.534 174.885C113.034 174.865 112.543 175.028 112.153 175.345C111.972 175.511 111.829 175.715 111.736 175.943C111.642 176.171 111.6 176.417 111.613 176.664C111.602 176.996 111.695 177.323 111.879 177.599C112.046 177.848 112.288 178.038 112.569 178.142C112.877 178.261 113.205 178.317 113.534 178.309C114.025 178.331 114.508 178.187 114.907 177.899H114.899ZM114.899 173.307C115.063 173.163 115.192 172.982 115.276 172.78C115.36 172.577 115.396 172.357 115.381 172.139C115.397 171.918 115.358 171.697 115.266 171.495C115.174 171.294 115.034 171.119 114.857 170.986C114.476 170.725 114.021 170.593 113.559 170.611C113.329 170.611 113.1 170.639 112.877 170.694C112.67 170.748 112.473 170.835 112.295 170.953C112.112 171.071 111.968 171.239 111.879 171.437C111.775 171.656 111.724 171.896 111.729 172.139C111.714 172.358 111.75 172.579 111.835 172.782C111.921 172.985 112.052 173.165 112.22 173.307C112.618 173.569 113.084 173.708 113.559 173.708C114.035 173.708 114.501 173.569 114.899 173.307Z" fill="white"/>
<path d="M140.373 178.818C140.296 178.783 140.231 178.724 140.188 178.651C140.145 178.578 140.125 178.494 140.131 178.409C140.132 178.261 140.182 178.117 140.273 178C140.309 177.943 140.358 177.896 140.416 177.863C140.474 177.83 140.539 177.811 140.605 177.808C140.663 177.811 140.72 177.825 140.772 177.85C141.289 178.106 141.859 178.24 142.436 178.242C142.703 178.245 142.968 178.211 143.226 178.142C143.44 178.084 143.642 177.991 143.825 177.866C143.998 177.744 144.147 177.591 144.266 177.415C144.389 177.233 144.489 177.037 144.565 176.831C144.646 176.594 144.707 176.351 144.749 176.105C144.749 175.837 144.823 175.562 144.84 175.27C144.857 174.977 144.84 174.694 144.84 174.36C144.697 174.759 144.417 175.093 144.05 175.303C143.606 175.58 143.092 175.722 142.569 175.712C142.173 175.727 141.779 175.661 141.41 175.517C141.041 175.374 140.705 175.156 140.422 174.877C140.148 174.594 139.933 174.258 139.79 173.889C139.647 173.52 139.579 173.127 139.591 172.731C139.574 172.323 139.638 171.915 139.781 171.532C139.924 171.149 140.142 170.799 140.422 170.502C140.727 170.215 141.088 169.992 141.481 169.849C141.874 169.705 142.292 169.644 142.71 169.667C143.178 169.662 143.643 169.741 144.083 169.901C144.45 170.04 144.784 170.253 145.065 170.527C145.33 170.804 145.545 171.126 145.697 171.479C145.863 171.846 145.981 172.234 146.046 172.631C146.115 173.059 146.148 173.492 146.146 173.925C146.146 174.309 146.146 174.66 146.105 174.994C146.083 175.35 146.036 175.705 145.963 176.054C145.901 176.398 145.809 176.736 145.689 177.065C145.57 177.378 145.413 177.675 145.223 177.95C145.034 178.229 144.801 178.474 144.532 178.676C144.245 178.884 143.924 179.042 143.584 179.144C142.492 179.448 141.327 179.335 140.314 178.826L140.373 178.818ZM144.216 174.234C144.55 173.814 144.731 173.293 144.731 172.757C144.731 172.22 144.55 171.699 144.216 171.279C144.041 171.081 143.823 170.926 143.58 170.825C143.336 170.724 143.073 170.679 142.81 170.694C142.544 170.676 142.277 170.716 142.028 170.813C141.779 170.909 141.555 171.06 141.371 171.254C141.021 171.667 140.843 172.199 140.872 172.74C140.85 173.269 141.008 173.791 141.321 174.218C141.484 174.417 141.692 174.574 141.928 174.675C142.164 174.777 142.421 174.821 142.677 174.802C142.959 174.823 143.242 174.784 143.508 174.686C143.773 174.588 144.015 174.434 144.216 174.234Z" fill="white"/>
<path d="M84.5591 204.884C84.494 204.833 84.4419 204.767 84.4072 204.691C84.3725 204.616 84.3561 204.533 84.3594 204.45V203.006H80.6407C80.5486 203.01 80.4568 202.993 80.3719 202.957C80.287 202.921 80.2112 202.866 80.1498 202.797C80.0322 202.667 79.9669 202.497 79.9668 202.321C79.9685 202.176 80.0118 202.034 80.0916 201.912L83.6523 196.293C83.7595 196.105 83.9146 195.948 84.1017 195.84C84.2887 195.731 84.5011 195.675 84.7171 195.675C84.9564 195.667 85.1904 195.747 85.3744 195.901C85.4663 195.988 85.5374 196.094 85.5821 196.213C85.6267 196.332 85.6439 196.459 85.6323 196.585V202.046H86.6223C86.6873 202.042 86.7522 202.054 86.8125 202.078C86.8729 202.103 86.9271 202.14 86.9717 202.188C87.0553 202.281 87.1 202.404 87.0965 202.53C87.0979 202.653 87.0534 202.772 86.9717 202.864C86.9271 202.911 86.8729 202.949 86.8125 202.973C86.7522 202.998 86.6873 203.009 86.6223 203.006H85.6239V204.45C85.6279 204.532 85.6135 204.613 85.5818 204.688C85.5502 204.763 85.502 204.83 85.4409 204.884C85.318 204.989 85.1613 205.045 85 205.043C84.8385 205.047 84.6812 204.99 84.5591 204.884ZM84.3594 202.046V197.036L81.2397 202.046H84.3594Z" fill="white"/>
<path d="M112.137 204.918C111.676 204.731 111.251 204.465 110.88 204.133C110.837 204.1 110.803 204.057 110.78 204.007C110.756 203.958 110.745 203.904 110.747 203.849C110.751 203.695 110.814 203.549 110.922 203.44C110.97 203.384 111.028 203.338 111.094 203.305C111.16 203.272 111.231 203.253 111.305 203.248C111.387 203.246 111.468 203.276 111.529 203.331C112.101 203.843 112.843 204.123 113.609 204.116C113.876 204.135 114.144 204.098 114.396 204.008C114.648 203.917 114.879 203.775 115.073 203.59C115.419 203.175 115.595 202.644 115.564 202.104C115.589 201.59 115.413 201.087 115.073 200.701C114.909 200.523 114.707 200.383 114.483 200.29C114.259 200.198 114.018 200.156 113.776 200.167C113.418 200.171 113.066 200.253 112.744 200.409C112.425 200.544 112.14 200.749 111.912 201.01C111.879 201.041 111.839 201.065 111.796 201.079C111.753 201.094 111.708 201.099 111.662 201.094C111.473 201.09 111.288 201.042 111.122 200.952C110.947 200.86 110.855 200.743 110.855 200.61V196.335C110.855 195.942 111.063 195.742 111.488 195.742H115.772C115.839 195.739 115.906 195.75 115.968 195.776C116.03 195.802 116.085 195.842 116.13 195.892C116.211 195.991 116.255 196.115 116.255 196.243C116.255 196.371 116.211 196.495 116.13 196.594C116.084 196.642 116.028 196.68 115.967 196.704C115.905 196.729 115.838 196.739 115.772 196.736H111.904V199.9L111.979 199.816C112.054 199.749 112.135 199.688 112.22 199.633C112.345 199.549 112.475 199.473 112.611 199.407C112.798 199.325 112.993 199.264 113.193 199.224C113.439 199.172 113.69 199.147 113.942 199.149C114.329 199.131 114.716 199.196 115.076 199.34C115.436 199.484 115.761 199.703 116.03 199.983C116.564 200.57 116.845 201.344 116.812 202.138C116.83 202.548 116.76 202.958 116.608 203.339C116.456 203.72 116.225 204.065 115.93 204.35C115.305 204.917 114.484 205.217 113.642 205.185C113.128 205.193 112.617 205.102 112.137 204.918Z" fill="white"/>
<path d="M141.721 204.943C141.351 204.81 141.016 204.596 140.739 204.316C140.479 204.04 140.268 203.721 140.115 203.373C139.95 203.003 139.833 202.613 139.766 202.212C139.697 201.785 139.664 201.352 139.666 200.918C139.666 200.543 139.666 200.184 139.666 199.858C139.691 199.502 139.739 199.148 139.808 198.798C139.874 198.452 139.966 198.111 140.082 197.779C140.206 197.467 140.365 197.17 140.556 196.894C140.95 196.31 141.541 195.889 142.22 195.708C142.628 195.587 143.051 195.528 143.476 195.533C144.175 195.539 144.864 195.705 145.49 196.017C145.568 196.053 145.633 196.113 145.676 196.188C145.72 196.262 145.739 196.349 145.731 196.435C145.732 196.583 145.682 196.728 145.59 196.844C145.554 196.9 145.505 196.947 145.447 196.979C145.389 197.011 145.323 197.028 145.257 197.028C145.199 197.028 145.141 197.013 145.09 196.986C144.571 196.735 144.003 196.601 143.426 196.593C143.16 196.59 142.894 196.624 142.636 196.694C142.42 196.756 142.215 196.852 142.029 196.977C141.857 197.098 141.71 197.251 141.596 197.428C141.473 197.611 141.369 197.807 141.288 198.013C141.207 198.246 141.145 198.487 141.105 198.731C141.064 199.006 141.031 199.282 141.014 199.566C140.997 199.85 141.014 200.133 141.014 200.476C141.147 200.077 141.423 199.741 141.788 199.532C142.23 199.252 142.745 199.11 143.268 199.123C143.665 199.106 144.062 199.171 144.433 199.315C144.803 199.459 145.141 199.678 145.423 199.958C145.699 200.241 145.914 200.577 146.057 200.946C146.2 201.315 146.267 201.708 146.255 202.104C146.274 202.521 146.204 202.937 146.051 203.326C145.898 203.714 145.665 204.065 145.368 204.357C145.07 204.649 144.714 204.874 144.324 205.018C143.933 205.162 143.517 205.222 143.102 205.193C142.63 205.199 142.161 205.114 141.721 204.943ZM141.646 200.609C141.463 200.814 141.321 201.052 141.23 201.312C141.138 201.571 141.099 201.846 141.114 202.121C141.096 202.647 141.274 203.162 141.613 203.565C141.791 203.76 142.011 203.913 142.255 204.013C142.5 204.113 142.764 204.156 143.027 204.141C143.291 204.157 143.555 204.117 143.802 204.022C144.049 203.927 144.273 203.779 144.458 203.59C144.814 203.177 144.996 202.641 144.966 202.096C144.989 201.564 144.828 201.042 144.508 200.618C144.341 200.424 144.132 200.271 143.897 200.171C143.662 200.071 143.407 200.027 143.152 200.042C142.875 200.025 142.598 200.067 142.339 200.165C142.08 200.263 141.844 200.414 141.646 200.609Z" fill="white"/>
<path d="M172.726 144.519C172.585 144.385 172.472 144.223 172.395 144.044C172.318 143.864 172.278 143.671 172.278 143.476C172.278 143.28 172.318 143.087 172.395 142.908C172.472 142.728 172.585 142.566 172.726 142.432C173.048 142.15 173.46 141.995 173.887 141.995C174.314 141.995 174.726 142.15 175.047 142.432C175.19 142.565 175.304 142.727 175.381 142.906C175.459 143.086 175.498 143.28 175.497 143.476C175.498 143.673 175.459 143.868 175.382 144.049C175.304 144.23 175.191 144.393 175.047 144.528C174.728 144.813 174.315 144.97 173.887 144.97C173.459 144.97 173.046 144.813 172.726 144.528V144.519Z" fill="white"/>
<path d="M172.728 153.244C172.584 153.108 172.47 152.943 172.393 152.761C172.316 152.579 172.277 152.382 172.278 152.184C172.278 151.991 172.318 151.8 172.395 151.623C172.472 151.446 172.586 151.287 172.728 151.157C172.881 151.006 173.063 150.889 173.264 150.813C173.464 150.737 173.678 150.703 173.892 150.715C174.104 150.706 174.315 150.74 174.514 150.815C174.713 150.889 174.894 151.003 175.049 151.149C175.191 151.28 175.305 151.44 175.382 151.619C175.46 151.797 175.499 151.99 175.498 152.184C175.5 152.382 175.461 152.579 175.383 152.761C175.306 152.943 175.192 153.108 175.049 153.244C174.729 153.53 174.316 153.687 173.888 153.687C173.46 153.687 173.047 153.53 172.728 153.244Z" fill="white"/>
<path d="M173.143 175.37L170.539 178.876C170.482 178.965 170.405 179.039 170.313 179.092C170.222 179.144 170.12 179.173 170.014 179.177C169.865 179.176 169.721 179.116 169.615 179.01C169.561 178.96 169.517 178.9 169.487 178.832C169.457 178.765 169.441 178.692 169.44 178.618C169.441 178.486 169.488 178.358 169.574 178.259L172.469 174.451L169.74 170.719C169.676 170.639 169.643 170.538 169.648 170.435C169.65 170.352 169.669 170.27 169.703 170.194C169.737 170.118 169.787 170.049 169.848 169.993C169.973 169.872 170.14 169.803 170.314 169.801C170.415 169.802 170.515 169.828 170.604 169.878C170.692 169.928 170.767 169.999 170.821 170.085L173.317 173.483L175.813 170.093C175.874 170.003 175.956 169.928 176.051 169.876C176.147 169.824 176.253 169.795 176.362 169.792C176.504 169.792 176.641 169.846 176.745 169.943C176.793 169.989 176.833 170.045 176.86 170.106C176.887 170.168 176.901 170.234 176.903 170.302C176.901 170.423 176.86 170.54 176.786 170.636L173.974 174.418L176.761 178.242C176.838 178.336 176.879 178.454 176.878 178.576C176.878 178.656 176.859 178.734 176.822 178.805C176.786 178.876 176.734 178.938 176.67 178.985C176.542 179.099 176.376 179.162 176.204 179.16C176.108 179.163 176.013 179.141 175.928 179.095C175.844 179.05 175.772 178.983 175.722 178.901L173.143 175.37Z" fill="white"/>
<path d="M48.2202 203.949C48.1581 203.884 48.1098 203.806 48.0783 203.722C48.0469 203.637 48.0329 203.547 48.0371 203.456V200.3H44.7677C44.5841 200.305 44.4056 200.239 44.2685 200.117C44.1992 200.061 44.1437 199.989 44.1062 199.908C44.0687 199.827 44.0502 199.739 44.0522 199.649C44.0488 199.561 44.065 199.474 44.0995 199.393C44.1341 199.312 44.1861 199.24 44.2519 199.182C44.3961 199.06 44.5793 198.995 44.7677 198.998H48.0371V195.825C48.0318 195.641 48.0973 195.461 48.2202 195.324C48.2833 195.258 48.3597 195.206 48.4443 195.172C48.5289 195.137 48.6198 195.121 48.711 195.124C48.7997 195.122 48.8879 195.138 48.9697 195.173C49.0514 195.207 49.1249 195.259 49.1852 195.324C49.2495 195.39 49.2996 195.469 49.3325 195.555C49.3654 195.641 49.3804 195.733 49.3766 195.825V198.998H52.6544C52.8392 199.001 53.0177 199.066 53.1619 199.182C53.2301 199.238 53.2844 199.31 53.3204 199.391C53.3565 199.472 53.3734 199.56 53.3698 199.649C53.3716 199.738 53.3539 199.825 53.3179 199.906C53.282 199.987 53.2287 200.059 53.1619 200.117C53.0222 200.241 52.8407 200.306 52.6544 200.3H49.3766V203.456C49.3791 203.546 49.3634 203.635 49.3305 203.718C49.2976 203.802 49.2482 203.877 49.1852 203.941C49.1268 204.009 49.0538 204.063 48.9718 204.099C48.8897 204.135 48.8006 204.152 48.711 204.149C48.6198 204.153 48.5289 204.136 48.4443 204.102C48.3597 204.067 48.2833 204.015 48.2202 203.949Z" fill="white"/>
<path d="M51.3145 207.514C51.2541 207.571 51.1789 207.608 51.0979 207.623C51.0168 207.638 50.9332 207.629 50.857 207.598C50.7405 207.531 50.6906 207.381 50.7072 207.164C50.7335 206.867 50.8305 206.58 50.9901 206.329L57.6455 194.732C57.7759 194.475 57.9638 194.252 58.1946 194.08C58.386 193.955 58.5357 193.93 58.6522 193.997C58.7687 194.064 58.8186 194.214 58.8103 194.431C58.7761 194.728 58.6766 195.013 58.5191 195.266L51.8636 206.863C51.7311 207.118 51.5435 207.341 51.3145 207.514Z" fill="white"/>
<path d="M168.567 148.235C168.507 148.198 168.457 148.145 168.423 148.083C168.388 148.021 168.37 147.951 168.37 147.88C168.37 147.809 168.388 147.739 168.423 147.677C168.457 147.615 168.507 147.563 168.567 147.525C168.731 147.416 168.927 147.363 169.124 147.375H178.084C178.284 147.363 178.482 147.416 178.65 147.525C178.709 147.565 178.757 147.619 178.792 147.681C178.827 147.743 178.846 147.813 178.85 147.884C178.847 147.955 178.828 148.023 178.793 148.084C178.758 148.145 178.709 148.197 178.65 148.235C178.482 148.345 178.284 148.397 178.084 148.385H169.124C168.927 148.397 168.731 148.345 168.567 148.235Z" fill="white"/>
<path d="M78.5683 152.844C78.4211 152.734 78.3061 152.587 78.2355 152.418L75.1906 145.563V152.693C75.1938 152.763 75.1786 152.832 75.1464 152.894C75.1142 152.955 75.0663 153.007 75.0076 153.044C74.8831 153.13 74.7344 153.174 74.5833 153.169C74.4325 153.171 74.2847 153.128 74.159 153.044C74.1003 153.007 74.0524 152.955 74.0202 152.894C73.9881 152.832 73.9728 152.763 73.976 152.693V144.937C73.977 144.816 74.0043 144.696 74.0561 144.587C74.1078 144.477 74.1827 144.38 74.2755 144.302C74.4677 144.137 74.7131 144.048 74.966 144.052C75.1861 144.05 75.4014 144.117 75.5816 144.244C75.7917 144.39 75.9561 144.592 76.0558 144.828L79.0175 151.433L81.9792 144.828C82.0727 144.594 82.2316 144.391 82.4368 144.244C82.6175 144.118 82.8324 144.051 83.0524 144.052C83.3078 144.048 83.5561 144.137 83.7512 144.302C83.8456 144.379 83.922 144.476 83.9752 144.585C84.0284 144.695 84.057 144.815 84.059 144.937V152.693C84.0598 152.762 84.0435 152.831 84.0116 152.892C83.9796 152.953 83.933 153.005 83.876 153.044C83.7504 153.128 83.6025 153.171 83.4517 153.169C83.2982 153.172 83.1473 153.129 83.0191 153.044C82.9631 153.005 82.9177 152.952 82.8872 152.891C82.8567 152.83 82.8419 152.762 82.8444 152.693V145.563L79.7995 152.409C79.7259 152.579 79.6081 152.727 79.4584 152.835C79.3308 152.931 79.1766 152.983 79.0175 152.986C78.8568 152.986 78.6999 152.936 78.5683 152.844Z" fill="white"/>
<path d="M86.6218 153.069C86.5575 153.01 86.5071 152.938 86.474 152.857C86.4409 152.776 86.426 152.689 86.4304 152.602V144.519C86.4284 144.434 86.4443 144.349 86.4773 144.269C86.5102 144.19 86.5595 144.119 86.6218 144.06C86.683 143.999 86.7557 143.951 86.8357 143.918C86.9156 143.885 87.0012 143.868 87.0877 143.868H89.9246C90.2527 143.865 90.5807 143.885 90.9062 143.927C91.2122 143.964 91.5134 144.034 91.8047 144.135C92.0779 144.229 92.3337 144.367 92.5618 144.545C92.7738 144.735 92.9439 144.969 93.061 145.229C93.1928 145.543 93.258 145.882 93.2523 146.223C93.2652 146.729 93.0869 147.221 92.7531 147.6C92.3627 148.014 91.8433 148.282 91.2806 148.36C91.769 148.453 92.2097 148.714 92.527 149.098C92.8443 149.482 93.0184 149.965 93.0194 150.464L93.2523 152.518C93.2523 152.518 93.2523 152.568 93.2523 152.61C93.2539 152.69 93.2384 152.769 93.2068 152.843C93.1752 152.916 93.1283 152.982 93.0693 153.036C92.9483 153.145 92.791 153.204 92.6283 153.203C92.4569 153.205 92.2897 153.149 92.1541 153.044C92.0848 152.994 92.0278 152.929 91.9874 152.854C91.9471 152.779 91.9244 152.695 91.9212 152.61L91.7132 150.781C91.6857 150.469 91.6357 150.159 91.5635 149.855C91.5065 149.648 91.4042 149.457 91.264 149.295C91.1259 149.145 90.9462 149.041 90.7482 148.995C90.4747 148.937 90.1955 148.912 89.9162 148.92H87.7283V152.568C87.7345 152.656 87.7205 152.743 87.6873 152.824C87.6541 152.906 87.6026 152.978 87.5369 153.036C87.406 153.145 87.241 153.204 87.071 153.203C86.9105 153.211 86.7521 153.164 86.6218 153.069ZM89.65 147.943C89.9079 147.943 90.1326 147.943 90.3322 147.943C90.5411 147.917 90.7472 147.873 90.9478 147.809C91.1361 147.756 91.3116 147.665 91.4636 147.542C91.6099 147.416 91.7264 147.259 91.8047 147.083C91.895 146.863 91.9403 146.627 91.9378 146.39C91.9399 146.194 91.909 145.999 91.8463 145.814C91.7944 145.661 91.7058 145.523 91.5884 145.413C91.4787 145.316 91.3588 145.232 91.2307 145.162C91.0883 145.096 90.937 145.051 90.7815 145.029L90.3072 144.97H87.7449V147.984L89.65 147.943Z" fill="white"/>
<path d="M109.084 152.844C108.934 152.735 108.816 152.588 108.743 152.418L105.706 145.563V152.693C105.707 152.763 105.691 152.831 105.659 152.892C105.627 152.953 105.58 153.005 105.523 153.044C105.398 153.129 105.25 153.172 105.099 153.169C104.948 153.174 104.799 153.13 104.675 153.044C104.616 153.007 104.568 152.955 104.536 152.894C104.504 152.832 104.488 152.763 104.492 152.693V144.937C104.492 144.816 104.518 144.697 104.568 144.588C104.618 144.478 104.691 144.381 104.783 144.302C104.966 144.152 105.193 144.064 105.43 144.054C105.667 144.043 105.901 144.11 106.097 144.244C106.305 144.39 106.467 144.593 106.563 144.828L109.525 151.433L112.495 144.828C112.586 144.592 112.745 144.389 112.952 144.244C113.148 144.11 113.382 144.043 113.619 144.054C113.856 144.064 114.083 144.152 114.267 144.302C114.36 144.38 114.435 144.477 114.486 144.587C114.538 144.696 114.565 144.816 114.566 144.937V152.693C114.57 152.763 114.554 152.832 114.522 152.894C114.49 152.955 114.442 153.007 114.383 153.044C114.259 153.123 114.115 153.164 113.967 153.164C113.82 153.164 113.676 153.123 113.551 153.044C113.493 153.007 113.445 152.955 113.413 152.894C113.38 152.832 113.365 152.763 113.368 152.693V145.563L110.307 152.41C110.233 152.58 110.115 152.727 109.966 152.835C109.835 152.931 109.678 152.983 109.517 152.986C109.361 152.984 109.21 152.934 109.084 152.844Z" fill="white"/>
<path d="M116.155 150.105C116.106 150.068 116.067 150.02 116.041 149.965C116.015 149.91 116.003 149.849 116.005 149.788C116.003 149.724 116.015 149.661 116.041 149.603C116.067 149.545 116.106 149.494 116.155 149.454C116.205 149.407 116.264 149.372 116.329 149.349C116.393 149.326 116.461 149.316 116.529 149.32H119.433C119.573 149.313 119.71 149.361 119.815 149.454C119.862 149.496 119.899 149.547 119.923 149.605C119.948 149.663 119.959 149.725 119.957 149.788C119.96 149.849 119.947 149.91 119.921 149.965C119.895 150.02 119.856 150.068 119.807 150.105C119.703 150.193 119.569 150.238 119.433 150.23H116.571C116.497 150.238 116.422 150.231 116.351 150.209C116.279 150.188 116.213 150.152 116.155 150.105Z" fill="white"/>
<path d="M139.583 152.844C139.431 152.738 139.313 152.59 139.242 152.418L136.197 145.563V152.693C136.2 152.762 136.185 152.83 136.154 152.891C136.124 152.952 136.078 153.005 136.022 153.044C135.894 153.129 135.743 153.173 135.59 153.169C135.439 153.171 135.291 153.128 135.165 153.044C135.108 153.005 135.062 152.953 135.03 152.892C134.998 152.831 134.982 152.763 134.982 152.693V144.937C134.983 144.816 135.011 144.696 135.062 144.587C135.114 144.477 135.189 144.38 135.282 144.302C135.465 144.152 135.693 144.064 135.929 144.054C136.166 144.043 136.4 144.11 136.596 144.244C136.804 144.39 136.966 144.593 137.062 144.828L140.024 151.433L142.986 144.828C143.079 144.591 143.242 144.388 143.452 144.244C143.648 144.11 143.881 144.043 144.118 144.054C144.355 144.064 144.583 144.152 144.766 144.302C144.859 144.38 144.934 144.477 144.985 144.587C145.037 144.696 145.064 144.816 145.065 144.937V152.693C145.069 152.763 145.053 152.832 145.021 152.894C144.989 152.955 144.941 153.007 144.882 153.044C144.757 153.128 144.609 153.171 144.458 153.169C144.307 153.174 144.158 153.13 144.034 153.044C143.975 153.007 143.927 152.955 143.895 152.894C143.863 152.832 143.848 152.763 143.851 152.693V145.563L140.806 152.41C140.735 152.579 140.62 152.726 140.473 152.835C140.341 152.928 140.185 152.98 140.024 152.986C139.866 152.986 139.712 152.936 139.583 152.844Z" fill="white"/>
<path d="M150.257 153.069C150.212 153.023 150.177 152.968 150.154 152.907C150.131 152.847 150.121 152.783 150.123 152.718V150.447H147.777C147.643 150.452 147.512 150.404 147.411 150.314C147.364 150.272 147.326 150.221 147.3 150.163C147.274 150.106 147.261 150.043 147.262 149.98C147.257 149.916 147.268 149.851 147.292 149.792C147.317 149.733 147.355 149.68 147.403 149.638C147.509 149.552 147.642 149.508 147.777 149.512H150.123V147.225C150.119 147.092 150.167 146.963 150.257 146.866C150.302 146.819 150.357 146.783 150.417 146.758C150.477 146.734 150.541 146.722 150.606 146.724C150.671 146.721 150.736 146.732 150.796 146.756C150.857 146.781 150.911 146.818 150.955 146.866C151.045 146.963 151.093 147.092 151.089 147.225V149.512H153.443C153.576 149.509 153.706 149.553 153.809 149.638C153.858 149.679 153.897 149.732 153.923 149.791C153.949 149.851 153.961 149.915 153.959 149.98C153.96 150.043 153.947 150.106 153.921 150.163C153.895 150.221 153.857 150.272 153.809 150.314C153.76 150.359 153.702 150.394 153.639 150.417C153.576 150.44 153.51 150.45 153.443 150.447H151.089V152.718C151.091 152.848 151.043 152.974 150.955 153.069C150.91 153.115 150.855 153.152 150.795 153.176C150.735 153.201 150.671 153.213 150.606 153.211C150.541 153.214 150.476 153.203 150.416 153.179C150.355 153.154 150.301 153.117 150.257 153.069Z" fill="white"/>
<path d="M138.95 122.369L142.686 127.379L146.845 119.864H151.005" stroke="white" stroke-miterlimit="10"/>
<path d="M152.344 142.023C152.344 142.023 151.87 183.552 153.118 196.535C154.366 209.518 156.82 230.416 158.875 243.399C160.93 256.382 159.707 263.487 159.707 263.487C159.707 263.487 158.368 263.07 158.467 264.848C158.567 266.626 159.041 270.175 159.041 270.175C161.562 271.42 164.209 272.388 166.936 273.064C170.077 273.684 173.269 274.008 176.47 274.032C176.47 274.032 176.737 266.793 176.803 263.103C176.87 259.413 176.803 256.682 176.803 256.682L177.535 215.563C177.535 215.563 184.008 260.381 184.365 262.978C184.723 265.574 183.209 267.344 183.442 269.123C183.675 270.901 184.424 274.725 184.424 274.725C184.424 274.725 188.375 271.861 192.668 273.105C195.729 274.08 198.684 275.364 201.487 276.938C201.487 276.938 202.169 276.103 203.051 272.028C203.933 267.954 203.051 265.199 202.959 262.193C202.868 259.187 201.378 215.329 201.661 214.235C201.944 213.141 203.758 172.706 203.758 172.706C203.758 172.706 205.255 156.592 204.947 151.257C204.692 147.589 204.217 143.939 203.525 140.328C203.525 140.328 178.866 141.38 166.745 141.363C154.624 141.346 152.078 140.929 152.078 140.929L152.344 142.023Z" fill="#008CCC" stroke="#263238" stroke-linecap="round" stroke-linejoin="round"/>
<path d="M203.5 140.328C203.5 140.328 178.842 141.38 166.721 141.363C154.599 141.346 152.054 140.929 152.054 140.929L152.303 142.023C152.303 142.023 152.303 143.275 152.303 145.421C154.641 146.122 160.548 147.241 174.058 146.974C190.264 146.657 201.038 144.619 204.149 143.951C203.792 141.806 203.5 140.328 203.5 140.328Z" fill="#263238" stroke="#263238" stroke-linecap="round" stroke-linejoin="round"/>
<path d="M171.987 147.65L165.24 147.642L165.307 143.86L172.054 143.876L171.987 147.65Z" fill="white" stroke="#263238" stroke-linecap="round" stroke-linejoin="round"/>
<path d="M169.716 168.632L174.516 172.247C174.516 172.247 175.88 201.352 177.511 215.563" stroke="#263238" stroke-linecap="round" stroke-linejoin="round"/>
<path d="M166.146 165.952L167.735 167.146" stroke="#263238" stroke-linecap="round" stroke-linejoin="round"/>
<path d="M200.771 185.614C200.089 197.562 199.282 210.662 198.791 215.321C198.001 222.835 199.689 234.833 200.413 244.342" stroke="#263238" stroke-linecap="round" stroke-linejoin="round"/>
<path d="M202.02 162.871C202.02 162.871 201.52 172.397 200.896 183.46" stroke="#263238" stroke-linecap="round" stroke-linejoin="round"/>
<path d="M186.005 147.542C186.005 147.542 186.005 153.829 186.046 159.974" stroke="#263238" stroke-linecap="round" stroke-linejoin="round"/>
<path d="M187.485 147.542L189.241 154.789" stroke="#263238" stroke-linecap="round" stroke-linejoin="round"/>
<path d="M156.238 147.625L154.591 156.918" stroke="#263238" stroke-linecap="round" stroke-linejoin="round"/>
<path d="M157.852 147.767L157.494 152.551" stroke="#263238" stroke-linecap="round" stroke-linejoin="round"/>
<path d="M167.544 148.235C167.544 148.235 166.771 161.209 167.428 162.169C168.156 163.093 168.951 163.961 169.807 164.766" stroke="#263238" stroke-linecap="round" stroke-linejoin="round"/>
<path d="M198.816 159.214C199.632 160.031 200.536 160.754 201.512 161.368" stroke="#263238" stroke-linecap="round" stroke-linejoin="round"/>
<path d="M194.108 146.189C193.918 150.351 195.147 154.454 197.594 157.819" stroke="#263238" stroke-linecap="round" stroke-linejoin="round"/>
<path d="M163.575 73.092C163.575 73.092 147.111 80.1136 146.895 81.1406C146.679 82.1675 146.146 123.029 146.146 123.029C146.146 123.029 136.28 122.803 135.19 127.704C134.1 132.605 136.646 136.295 140.838 138.141C145.031 139.986 150.323 137.13 150.323 137.13C150.323 137.13 149.058 140.403 149.84 141.631C150.622 142.858 152.827 143.467 153.434 143.467C154.041 143.467 170.538 144.11 181.828 143.927C193.117 143.743 198.766 142.524 200.621 140.487C202.476 138.45 200.788 130.877 200.788 130.877H208.441C208.441 130.877 208.134 136.805 215.363 138.04C222.593 139.276 226.96 131.72 223.574 118.236C220.188 104.752 207.917 81.4245 205.946 78.9948C203.974 76.5652 188.525 70.3701 188.525 70.3701L163.575 73.092Z" fill="white" stroke="#263238" stroke-linecap="round" stroke-linejoin="round"/>
<path d="M206.203 124.899C206.203 124.899 214.148 117.117 219.106 118.77" stroke="#263238" stroke-linecap="round" stroke-linejoin="round"/>
<path d="M207.469 122.027C207.469 122.027 211.728 116.842 214.956 116.441" stroke="#263238" stroke-linecap="round" stroke-linejoin="round"/>
<path d="M150.322 137.155L150.555 124.398" stroke="#263238" stroke-linecap="round" stroke-linejoin="round"/>
<path d="M167.144 77.1497L169.69 82.5182L164.781 135.177L169.016 142.549L173.924 133.983L171.928 83.0526L175.081 76.6321L170.954 70.9963L167.144 77.1497Z" fill="#263238" stroke="#263238" stroke-linecap="round" stroke-linejoin="round"/>
<path d="M185.93 45.8902L185.572 66.0702L171.604 74.361L165.489 68.0824L165.606 61.762C165.606 61.762 167.378 64.3836 172.885 62.3882C178.393 60.3927 180.231 58.8648 180.764 54.8739C181.296 50.883 181.055 38.3926 181.055 38.3926H186.521L185.93 45.8902Z" fill="white" stroke="#263238" stroke-linecap="round" stroke-linejoin="round"/>
<path d="M182.461 53.6297L185.788 53.6381L185.93 45.89L186.521 38.3423L182.128 38.334L182.461 53.6297Z" fill="#263238" stroke="#263238" stroke-linecap="round" stroke-linejoin="round"/>
<path d="M187.735 39.2859L187.594 46.8002C187.403 47.195 187.124 47.5397 186.777 47.8065C186.43 48.0733 186.026 48.2548 185.597 48.3364C184.591 48.3208 183.626 47.9345 182.885 47.251L183.026 39.2441L187.735 39.2859Z" fill="white" stroke="#263238" stroke-linecap="round" stroke-linejoin="round"/>
<path d="M171.412 66.5877C169.939 66.5816 168.483 66.2803 167.128 65.7015C165.773 65.1227 164.547 64.2781 163.521 63.2172C162.496 62.1564 161.692 60.9007 161.157 59.5239C160.622 58.147 160.366 56.6768 160.405 55.1994L160.713 37.9917H183.175L182.867 55.1994C182.828 58.2263 181.605 61.1165 179.462 63.2468C177.319 65.3772 174.428 66.577 171.412 66.5877Z" fill="white" stroke="#263238" stroke-linecap="round" stroke-linejoin="round"/>
<path d="M170.747 66.5878H172.078C174.903 66.5685 177.609 65.4404 179.616 63.4447C181.623 61.4491 182.773 58.7443 182.818 55.9091L183.126 38.0251H175.88V39.5614C175.874 40.0946 175.989 40.6222 176.217 41.104C176.445 41.5858 176.779 42.0091 177.194 42.3417C178.692 43.7277 180.181 45.2723 180.181 45.2723C180.181 45.2723 180.505 52.511 179.241 55.2913C177.976 58.0716 175.273 56.6689 175.273 56.6689C175.273 56.6689 171.679 52.319 167.145 52.4943C165.842 52.5285 164.564 52.8499 163.399 53.4357C162.234 54.0216 161.213 54.8575 160.406 55.8841C160.369 57.2723 160.609 58.6539 161.112 59.9478C161.615 61.2417 162.37 62.4218 163.333 63.4188C164.296 64.4158 165.448 65.2097 166.721 65.7539C167.995 66.2981 169.363 66.5816 170.747 66.5878Z" fill="#263238" stroke="#263238" stroke-linecap="round" stroke-linejoin="round"/>
<path d="M166.071 44.1619L165.306 52.9452L170.039 51.5593" stroke="#263238" stroke-linecap="round" stroke-linejoin="round"/>
<path d="M163.741 55.5586C163.741 55.5586 165.505 58.6395 171.936 55.8759" stroke="white" stroke-linecap="round" stroke-linejoin="round"/>
<path d="M169.3 41.8574C169.3 41.8574 172.669 40.3212 174.749 42.9428" stroke="#263238" stroke-linecap="round" stroke-linejoin="round"/>
<path d="M165.498 42.3167C165.498 42.3167 162.644 40.4631 161.995 42.6172" stroke="#263238" stroke-linecap="round" stroke-linejoin="round"/>
<path d="M166.337 20.5419C166.337 20.5419 162.178 22.2869 160.921 25.4262C159.665 28.5655 159.258 39.3777 159.258 39.3777C159.258 39.3777 151.487 40.939 152.694 41.1144C153.9 41.2897 192.252 41.1812 192.252 41.1812C191.087 39.0855 190.388 39.4278 190.081 37.6828C189.773 35.9379 189.573 27.2129 187.918 23.723C186.262 20.233 173.816 15.8497 166.337 20.5419Z" fill="#008CCC" stroke="#263238" stroke-linecap="round" stroke-linejoin="round"/>
<path d="M172.261 20.208C171.516 20.494 170.8 20.8519 170.123 21.2767C169.243 21.8777 168.544 22.7094 168.102 23.6813C168.102 23.6813 173.517 23.8232 173.468 26.5033C173.418 29.1834 173.243 38.9687 173.243 38.9687" stroke="#263238" stroke-linecap="round" stroke-linejoin="round"/>
<path d="M165.365 66.4959L171.945 72.5156L185.914 63.7573L188.526 70.3866L177.553 81.4576L171.604 74.3608L165.282 79.8963L163.576 73.1168L165.365 66.4959Z" fill="white" stroke="#263238" stroke-linecap="round" stroke-linejoin="round"/>
<path d="M155.164 109.92C155.164 109.92 159.466 117.986 162.369 121.275C165.272 124.565 166.612 124.69 166.612 124.69L158.783 125.909L152.785 107.182L155.164 109.92Z" stroke="#263238" stroke-linecap="round" stroke-linejoin="round"/>
<path d="M118.077 90.1827L139.034 131.069L162.644 128.514L146.138 87.6362L118.077 90.1827Z" fill="#263238" stroke="#263238" stroke-linecap="round" stroke-linejoin="round"/>
<path d="M129.824 120.933C129.824 120.933 128.16 121.676 128.218 122.845C128.277 124.014 128.376 124.573 129.316 124.364C130.257 124.156 135.024 121.292 135.972 120.449C136.92 119.605 137.636 118.779 136.421 118.779C135.207 118.779 131.87 119.848 129.824 120.933Z" fill="white" stroke="#263238" stroke-linecap="round" stroke-linejoin="round"/>
<path d="M129.583 124.356C129.583 124.356 129.799 127.161 130.415 127.428C131.031 127.696 137.27 123.822 138.327 123.028C139.383 122.235 139.658 121.526 138.884 121.083C138.11 120.641 132.927 123.02 132.486 123.195L129.583 124.356Z" fill="white" stroke="#263238" stroke-linecap="round" stroke-linejoin="round"/>
<path d="M130.406 127.428C130.944 128.207 131.573 128.919 132.278 129.549C132.885 129.908 138.875 125.85 139.591 125.057C140.306 124.264 140.315 123.204 139.799 123.028C139.31 122.934 138.807 122.934 138.318 123.028C138.318 123.028 131.987 126.635 130.406 127.428Z" fill="white" stroke="#263238" stroke-linecap="round" stroke-linejoin="round"/>
<path d="M132.278 129.549C132.79 130.082 133.404 130.505 134.084 130.793C134.916 131.06 138.468 129.382 139.707 127.971C140.947 126.56 138.959 126.026 138.959 126.026C138.959 126.026 133.418 129.115 132.278 129.549Z" fill="white" stroke="#263238" stroke-linecap="round" stroke-linejoin="round"/>
<path d="M129.832 93.0298C130.015 93.265 130.101 93.5619 130.072 93.8589C130.042 94.1558 129.9 94.43 129.674 94.6244C129.548 94.6985 129.408 94.7464 129.263 94.7654C129.118 94.7845 128.971 94.7743 128.83 94.7354C128.689 94.6965 128.557 94.6297 128.442 94.539C128.327 94.4483 128.231 94.3354 128.16 94.207C127.975 93.9726 127.888 93.6751 127.918 93.3775C127.947 93.08 128.091 92.8055 128.318 92.6123C128.445 92.5394 128.585 92.4924 128.729 92.4739C128.874 92.4555 129.021 92.466 129.162 92.5048C129.303 92.5436 129.434 92.6099 129.549 92.7C129.664 92.7901 129.761 92.9022 129.832 93.0298Z" fill="white"/>
<path d="M139.192 91.7689C139.375 92.0042 139.46 92.3011 139.431 92.5981C139.402 92.895 139.259 93.1692 139.034 93.3636C138.907 93.4365 138.767 93.4835 138.623 93.502C138.478 93.5205 138.331 93.51 138.19 93.4712C138.049 93.4324 137.918 93.366 137.803 93.2759C137.687 93.1858 137.591 93.0737 137.52 92.9462C137.335 92.7118 137.248 92.4143 137.277 92.1167C137.307 91.8192 137.45 91.5447 137.678 91.3515C137.804 91.2775 137.944 91.2295 138.089 91.2105C138.234 91.1914 138.381 91.2017 138.522 91.2405C138.663 91.2794 138.795 91.3462 138.91 91.4369C139.025 91.5277 139.121 91.6406 139.192 91.7689Z" fill="white"/>
<path d="M199.656 91.1428C198.691 94.5576 197.585 98.8074 197.477 100.703C197.285 104.117 206.204 124.915 206.204 124.915L208.442 130.935" fill="white"/>
<path d="M199.656 91.1428C198.691 94.5576 197.585 98.8074 197.477 100.703C197.285 104.117 206.204 124.915 206.204 124.915L208.442 130.935" stroke="#263238" stroke-linecap="round" stroke-linejoin="round"/>
<path d="M201.104 86.2251C201.104 86.2251 200.771 87.2854 200.313 88.8467L201.104 86.2251Z" fill="white"/>
<path d="M201.104 86.2251C201.104 86.2251 200.771 87.2854 200.313 88.8467" stroke="#263238" stroke-linecap="round" stroke-linejoin="round"/>
<path d="M209.166 125.04C209.166 125.04 212.535 124.498 213.983 126.71C215.43 128.923 215.089 132.446 213.708 134.358C212.327 136.27 209.79 134.901 209.79 134.901C210.452 131.616 210.237 128.215 209.166 125.04Z" fill="white" stroke="#263238" stroke-linecap="round" stroke-linejoin="round"/>
<path d="M186.604 106.146C186.604 106.146 185.589 102.732 190.764 100.552C195.938 98.3733 199.532 99.609 199.615 102.748C198.549 104.595 197.039 106.145 195.223 107.257C192.353 108.885 187.652 108.2 186.604 106.146Z" fill="white" stroke="#263238" stroke-linecap="round" stroke-linejoin="round"/>
<path d="M213.525 144.444L218.467 154.421L215.339 156.191L213.525 144.444Z" fill="white" stroke="#263238" stroke-linecap="round" stroke-linejoin="round"/>
<path d="M182.602 104.368L203.666 161.093C204.467 161.985 205.465 162.676 206.581 163.111C207.696 163.546 208.898 163.713 210.089 163.597C212.535 163.447 214.706 161.71 216.128 160.258C216.671 159.7 217.051 159.003 217.227 158.243C217.403 157.484 217.369 156.691 217.127 155.949L199.598 102.748C199.598 102.748 189.224 110.388 182.602 104.368Z" fill="white" stroke="#263238" stroke-linecap="round" stroke-linejoin="round"/>
<path d="M210.097 125.308C210.097 125.308 205.821 123.396 204.482 123.387C203.142 123.379 196.054 127.612 194.548 128.698C193.043 129.783 193.176 130.367 193.716 130.476C194.257 130.584 194.923 130.751 194.923 130.751C194.923 130.751 193.134 132.663 193.658 133.482C194.182 134.3 195.805 134.166 195.805 134.166C195.805 134.166 194.565 135.669 195.904 136.078C196.914 136.359 197.947 136.543 198.991 136.629C198.991 136.629 196.678 137.857 198.55 138.541C200.422 139.226 206.928 136.78 209.365 135.828C211.803 134.876 211.861 132.83 211.861 129.683C211.861 126.535 210.097 125.308 210.097 125.308Z" fill="white" stroke="#263238" stroke-linecap="round" stroke-linejoin="round"/>
<path d="M194.923 130.752C194.923 130.752 201.578 127.412 202.984 127.12C203.703 126.956 204.436 126.858 205.172 126.827" stroke="#263238" stroke-miterlimit="10"/>
<path d="M195.805 134.166C195.805 134.166 201.295 131.812 203.342 131.419C205.389 131.027 205.979 130.927 205.979 130.927" stroke="#263238" stroke-miterlimit="10"/>
<path d="M198.991 136.629C198.991 136.629 204.382 135.711 206.695 134.233" stroke="#263238" stroke-miterlimit="10"/>
<path d="M-58.1348 200H292.109" stroke="#263238" stroke-miterlimit="10"/>
</svg>
