<svg width="150" height="182" viewBox="0 0 150 182" fill="none" xmlns="http://www.w3.org/2000/svg">
<path d="M128.744 181.361H28.6014C28.1622 181.37 27.7261 181.285 27.3228 181.112C26.9196 180.938 26.5588 180.681 26.2649 180.356C25.9711 180.031 25.7512 179.647 25.6202 179.23C25.4893 178.813 25.4504 178.373 25.5061 177.94L42.6907 8.45064C42.7984 7.52102 43.2413 6.66169 43.9373 6.03174C44.6333 5.40179 45.5353 5.04388 46.4764 5.02427H146.619C147.059 5.01565 147.495 5.10129 147.898 5.27535C148.301 5.44942 148.662 5.70782 148.956 6.03297C149.25 6.35812 149.469 6.74238 149.6 7.15958C149.731 7.57678 149.77 8.01713 149.714 8.45064L132.53 177.94C132.422 178.869 131.979 179.728 131.283 180.357C130.587 180.986 129.685 181.342 128.744 181.361Z" fill="url(#paint0_linear_572_9139)"/>
<path d="M113.75 17.8654H76.744C76.3917 17.8724 76.042 17.8039 75.7187 17.6645C75.3954 17.5251 75.1061 17.3181 74.8705 17.0575C74.635 16.7969 74.4587 16.4889 74.3537 16.1545C74.2486 15.8201 74.2173 15.4671 74.2619 15.1196L75.2916 4.92924C75.3129 4.79701 75.3786 4.67585 75.4781 4.58556C75.5775 4.49527 75.7049 4.44118 75.8392 4.43215H117.381C117.444 4.43157 117.507 4.44453 117.564 4.47014C117.622 4.49575 117.674 4.53341 117.715 4.58057C117.757 4.62773 117.788 4.68328 117.807 4.74344C117.825 4.8036 117.83 4.86697 117.821 4.92924L116.792 15.1196C116.704 15.8654 116.348 16.5545 115.788 17.0593C115.229 17.5641 114.505 17.8504 113.75 17.8654Z" fill="#263238"/>
<path d="M97.0835 -0.224803C96.3289 -0.207014 95.6061 0.0812421 95.0482 0.586881C94.4904 1.09252 94.1351 1.7815 94.0478 2.52694L93.6133 6.79362H99.149L99.5776 2.52694C99.6232 2.17794 99.5923 1.82325 99.487 1.48725C99.3817 1.15124 99.2045 0.841889 98.9675 0.580436C98.7306 0.318984 98.4395 0.111634 98.1143 -0.0273657C97.789 -0.166366 97.4374 -0.233721 97.0835 -0.224803ZM96.6669 3.87026C96.5238 3.87409 96.3817 3.84699 96.2502 3.79083C96.1187 3.73467 96.0011 3.65079 95.9054 3.545C95.8097 3.4392 95.7383 3.31401 95.6961 3.17808C95.6539 3.04215 95.6419 2.89873 95.6609 2.75773C95.6955 2.45522 95.8396 2.17556 96.0663 1.97087C96.293 1.76618 96.5869 1.65043 96.893 1.6452C97.0355 1.64334 97.1767 1.67178 97.3073 1.7286C97.4378 1.78542 97.5546 1.86931 97.6498 1.97466C97.7451 2.08 97.8166 2.20436 97.8595 2.33941C97.9025 2.47447 97.916 2.61709 97.899 2.75773C97.8632 3.05974 97.7187 3.3387 97.4923 3.54316C97.2658 3.74761 96.9727 3.86379 96.6669 3.87026Z" fill="#263238"/>
<path d="M114.047 7.38525L113.303 14.7942H98.3213C98.3461 14.4564 98.2999 14.1172 98.1856 13.7981C98.0713 13.4791 97.8913 13.1872 97.6572 12.9411C97.4232 12.695 97.1401 12.5001 96.826 12.3688C96.5119 12.2376 96.1738 12.1728 95.8332 12.1786C95.1004 12.194 94.3961 12.464 93.8426 12.9418C93.2892 13.4196 92.9215 14.075 92.8034 14.7942H77.8213L78.5713 7.38525H114.047Z" stroke="white" stroke-width="16.2667" stroke-linecap="round" stroke-linejoin="round"/>
<path d="M111.249 7.42688C111.251 7.26383 111.296 7.10406 111.378 6.96306C111.46 6.82206 111.578 6.70461 111.719 6.62207H80.7671C80.6256 6.70461 80.508 6.82206 80.4256 6.96306C80.3433 7.10406 80.2989 7.26383 80.2968 7.42688C80.2314 8.06599 80.6004 8.23169 80.6004 8.23169H111.553C111.553 8.23169 111.184 8.06599 111.249 7.42688Z" fill="url(#paint1_linear_572_9139)"/>
<path d="M129.077 176.188H29.8096L46.637 10.2021H145.905L129.077 176.188Z" fill="white"/>
<path d="M138.023 27.7185H51.0232C50.9443 27.7185 50.8686 27.6873 50.8128 27.6318C50.7569 27.5763 50.7256 27.5011 50.7256 27.4226C50.7256 27.3441 50.7569 27.2689 50.8128 27.2134C50.8686 27.1579 50.9443 27.1267 51.0232 27.1267H138.023C138.102 27.1267 138.178 27.1579 138.234 27.2134C138.289 27.2689 138.321 27.3441 138.321 27.4226C138.321 27.5011 138.289 27.5763 138.234 27.6318C138.178 27.6873 138.102 27.7185 138.023 27.7185Z" fill="#263238"/>
<path d="M62.3568 19.8657C62.2034 21.1417 61.5911 22.3196 60.6328 23.182C59.6745 24.0444 58.4349 24.5333 57.1425 24.5585C56.539 24.575 55.9392 24.4609 55.3844 24.2242C54.8296 23.9874 54.3332 23.6336 53.9296 23.1873C53.5259 22.741 53.2247 22.2128 53.0466 21.6392C52.8686 21.0657 52.818 20.4606 52.8985 19.8657C53.0515 18.5927 53.6612 17.4173 54.6158 16.5552C55.5703 15.6932 56.8057 15.2024 58.0949 15.173C58.6999 15.1539 59.3018 15.266 59.8587 15.5016C60.4157 15.7372 60.9143 16.0906 61.32 16.5373C61.7256 16.9839 62.0285 17.513 62.2075 18.0878C62.3866 18.6627 62.4375 19.2694 62.3568 19.8657Z" fill="url(#paint2_linear_572_9139)"/>
<path d="M54.9518 19.1617C54.9518 19.1617 52.4161 22.4816 53.1661 23.4994C53.9161 24.5173 60.9577 18.8185 62.6482 16.8657C64.3387 14.9128 62.3565 15.6821 62.3565 15.6821C62.3565 15.6821 63.1006 15.7235 62.7018 16.3271C61.8863 17.558 55.2018 21.9431 54.5232 21.7123C53.8446 21.4815 54.9518 19.1617 54.9518 19.1617Z" fill="#263238"/>
<path d="M137.881 18.2919H128.953C128.795 18.2919 128.643 18.2296 128.532 18.1186C128.42 18.0076 128.357 17.8571 128.357 17.7002C128.357 17.5432 128.42 17.3927 128.532 17.2817C128.643 17.1707 128.795 17.1084 128.953 17.1084H137.881C138.039 17.1084 138.19 17.1707 138.302 17.2817C138.414 17.3927 138.476 17.5432 138.476 17.7002C138.476 17.8571 138.414 18.0076 138.302 18.1186C138.19 18.2296 138.039 18.2919 137.881 18.2919Z" fill="#263238"/>
<path d="M137.601 21.0493H131.834C131.676 21.0493 131.524 20.9869 131.413 20.8759C131.301 20.765 131.238 20.6144 131.238 20.4575C131.238 20.3005 131.301 20.15 131.413 20.039C131.524 19.9281 131.676 19.8657 131.834 19.8657H137.601C137.759 19.8657 137.911 19.9281 138.022 20.039C138.134 20.15 138.197 20.3005 138.197 20.4575C138.197 20.6144 138.134 20.765 138.022 20.8759C137.911 20.9869 137.759 21.0493 137.601 21.0493Z" fill="#263238"/>
<path d="M137.321 23.8071H122.25C122.092 23.8071 121.94 23.7447 121.829 23.6337C121.717 23.5228 121.654 23.3723 121.654 23.2153C121.654 23.0584 121.717 22.9078 121.829 22.7969C121.94 22.6859 122.092 22.6235 122.25 22.6235H137.321C137.479 22.6235 137.63 22.6859 137.742 22.7969C137.853 22.9078 137.916 23.0584 137.916 23.2153C137.916 23.3723 137.853 23.5228 137.742 23.6337C137.63 23.7447 137.479 23.8071 137.321 23.8071Z" fill="#263238"/>
<path d="M73.5301 34.82C73.6062 34.1051 73.9505 33.4449 74.4944 32.9711C75.0383 32.4973 75.7418 32.2447 76.4646 32.2636C76.8235 32.2435 77.182 32.3082 77.511 32.4521C77.84 32.5961 78.13 32.8154 78.3575 33.0921L77.7027 33.6838C77.55 33.4935 77.3549 33.341 77.1328 33.2383C76.9108 33.1356 76.6678 33.0856 76.423 33.0921C75.9294 33.0802 75.4503 33.2583 75.0854 33.589C74.7206 33.9197 74.4982 34.3777 74.4646 34.8674C74.423 35.0943 74.4343 35.3276 74.4976 35.5495C74.5609 35.7714 74.6745 35.976 74.8297 36.1474C74.9849 36.3188 75.1775 36.4526 75.3929 36.5385C75.6082 36.6243 75.8404 36.66 76.0718 36.6427C76.332 36.6423 76.5896 36.5897 76.8289 36.488C77.0682 36.3863 77.2845 36.2376 77.4646 36.0509L78.0063 36.6427C77.7374 36.914 77.4154 37.1276 77.0601 37.2701C76.7048 37.4126 76.3238 37.481 75.9408 37.4712C75.5942 37.4997 75.2457 37.4484 74.9223 37.3213C74.5989 37.1942 74.3094 36.9946 74.0762 36.7381C73.843 36.4817 73.6724 36.1752 73.5777 35.8425C73.483 35.5099 73.4667 35.16 73.5301 34.82Z" fill="black"/>
<path d="M78.6128 34.8201C78.692 34.0989 79.043 33.4343 79.5952 32.96C80.1474 32.4857 80.8597 32.2369 81.589 32.2636C81.9273 32.2365 82.2675 32.2853 82.5844 32.4063C82.9013 32.5273 83.1868 32.7176 83.4199 32.9629C83.6529 33.2083 83.8276 33.5025 83.9311 33.8239C84.0345 34.1454 84.0641 34.4858 84.0175 34.8201C83.9386 35.5355 83.5916 36.1951 83.0456 36.6677C82.4996 37.1403 81.7947 37.3913 81.0711 37.3706C80.7312 37.4011 80.3887 37.3552 80.0691 37.2362C79.7495 37.1172 79.461 36.9282 79.2248 36.6832C78.9887 36.4383 78.8111 36.1436 78.7051 35.821C78.5992 35.4985 78.5676 35.1564 78.6128 34.8201ZM83.0592 34.8201C83.1012 34.5956 83.0912 34.3646 83.03 34.1445C82.9688 33.9245 82.858 33.7212 82.7059 33.55C82.5539 33.3789 82.3646 33.2445 82.1525 33.1569C81.9404 33.0694 81.7111 33.031 81.4818 33.0448C80.9927 33.0405 80.5204 33.2218 80.161 33.5516C79.8015 33.8814 79.5821 34.335 79.5473 34.8201C79.5065 35.0444 79.5173 35.275 79.579 35.4945C79.6406 35.7141 79.7515 35.9169 79.9033 36.0877C80.0551 36.2585 80.2438 36.393 80.4554 36.4809C80.6669 36.5688 80.8957 36.608 81.1247 36.5954C81.6138 36.5996 82.0861 36.4184 82.4455 36.0886C82.8049 35.7587 83.0244 35.3051 83.0592 34.8201Z" fill="black"/>
<path d="M89.6788 32.3344L89.1729 37.2994H88.411L85.9943 33.9381L85.655 37.2816H84.7324L85.2384 32.3167H86.0003L88.4169 35.6779L88.7562 32.3167L89.6788 32.3344Z" fill="black"/>
<path d="M91.9576 33.1393H90.2969L90.3802 32.3582H94.6421L94.5647 33.1393H92.91L92.4814 37.3231H91.5528L91.9576 33.1393Z" fill="black"/>
<path d="M98.0892 37.2817L97.2142 35.826C97.1509 35.8317 97.0871 35.8317 97.0238 35.826H95.8928L95.744 37.2699H94.8154L95.3214 32.3049H97.3809C98.6904 32.3049 99.4404 32.9736 99.3273 34.0802C99.3035 34.4334 99.174 34.7714 98.9555 35.0508C98.737 35.3302 98.4395 35.5383 98.1011 35.6484L99.0892 37.2817H98.0892ZM97.2559 33.0979H96.1726L95.9702 35.0744H97.0535C97.869 35.0744 98.3273 34.7075 98.3928 34.0802C98.4583 33.453 98.0714 33.1393 97.2559 33.1393V33.0979Z" fill="black"/>
<path d="M103.398 36.1514H100.898L100.303 37.2994H99.3447L102.095 32.3345H102.976L104.761 37.2817H103.791L103.398 36.1514ZM103.166 35.4294L102.44 33.2576L101.285 35.4294H103.166Z" fill="black"/>
<path d="M105.214 34.8198C105.29 34.1049 105.634 33.4447 106.178 32.9709C106.722 32.4971 107.425 32.2445 108.148 32.2633C108.507 32.2433 108.866 32.3079 109.195 32.4519C109.524 32.5959 109.814 32.8151 110.041 33.0918L109.386 33.6836C109.234 33.4941 109.04 33.3421 108.819 33.2394C108.598 33.1368 108.356 33.0863 108.113 33.0918C107.618 33.0799 107.138 33.2577 106.773 33.5883C106.407 33.9189 106.183 34.3769 106.148 34.8671C106.107 35.094 106.118 35.3274 106.181 35.5493C106.244 35.7712 106.358 35.9757 106.513 36.1472C106.668 36.3186 106.861 36.4524 107.076 36.5382C107.292 36.6241 107.524 36.6597 107.755 36.6424C108.016 36.6424 108.273 36.5899 108.513 36.4882C108.752 36.3865 108.968 36.2377 109.148 36.0507L109.69 36.6424C109.421 36.9138 109.099 37.1273 108.744 37.2698C108.388 37.4124 108.007 37.4808 107.624 37.4709C107.278 37.4995 106.929 37.4482 106.606 37.321C106.283 37.1939 105.993 36.9944 105.76 36.7379C105.527 36.4814 105.356 36.1749 105.261 35.8423C105.167 35.5096 105.15 35.1597 105.214 34.8198Z" fill="black"/>
<path d="M111.905 33.1393H110.238L110.316 32.3582H114.554L114.476 33.1393H112.822L112.393 37.3231H111.47L111.905 33.1393Z" fill="black"/>
<path d="M70.6361 44.288H50.398C50.2401 44.288 50.0887 44.2257 49.9771 44.1147C49.8654 44.0037 49.8027 43.8532 49.8027 43.6963C49.8027 43.5393 49.8654 43.3888 49.9771 43.2778C50.0887 43.1668 50.2401 43.1045 50.398 43.1045H70.6361C70.7939 43.1045 70.9453 43.1668 71.057 43.2778C71.1686 43.3888 71.2313 43.5393 71.2313 43.6963C71.2313 43.8532 71.1686 44.0037 71.057 44.1147C70.9453 44.2257 70.7939 44.288 70.6361 44.288Z" fill="#263238"/>
<path d="M60.2026 47.4838H50.0835C49.9257 47.4838 49.7742 47.4215 49.6626 47.3105C49.551 47.1995 49.4883 47.049 49.4883 46.8921C49.4883 46.7351 49.551 46.5846 49.6626 46.4736C49.7742 46.3626 49.9257 46.3003 50.0835 46.3003H60.2026C60.3604 46.3003 60.5118 46.3626 60.6235 46.4736C60.7351 46.5846 60.7978 46.7351 60.7978 46.8921C60.7978 47.049 60.7351 47.1995 60.6235 47.3105C60.5118 47.4215 60.3604 47.4838 60.2026 47.4838Z" fill="#263238"/>
<path d="M132.685 64.1896H48.4048C48.2469 64.1896 48.0955 64.1273 47.9839 64.0163C47.8723 63.9053 47.8096 63.7548 47.8096 63.5979C47.8096 63.4409 47.8723 63.2904 47.9839 63.1794C48.0955 63.0685 48.2469 63.0061 48.4048 63.0061H132.685C132.842 63.0061 132.994 63.0685 133.105 63.1794C133.217 63.2904 133.28 63.4409 133.28 63.5979C133.28 63.7548 133.217 63.9053 133.105 64.0163C132.994 64.1273 132.842 64.1896 132.685 64.1896Z" fill="#263238"/>
<path d="M132.316 67.8349H48.0298C47.8719 67.8349 47.7205 67.7726 47.6089 67.6616C47.4973 67.5506 47.4346 67.4001 47.4346 67.2431C47.4346 67.0862 47.4973 66.9357 47.6089 66.8247C47.7205 66.7137 47.8719 66.6514 48.0298 66.6514H132.316C132.473 66.6514 132.625 66.7137 132.736 66.8247C132.848 66.9357 132.911 67.0862 132.911 67.2431C132.911 67.4001 132.848 67.5506 132.736 67.6616C132.625 67.7726 132.473 67.8349 132.316 67.8349Z" fill="#263238"/>
<path d="M131.946 71.4863H47.6607C47.5028 71.4863 47.3514 71.4239 47.2398 71.313C47.1281 71.202 47.0654 71.0515 47.0654 70.8945C47.0654 70.7376 47.1281 70.587 47.2398 70.4761C47.3514 70.3651 47.5028 70.3027 47.6607 70.3027H131.946C132.104 70.3027 132.256 70.3651 132.367 70.4761C132.479 70.587 132.542 70.7376 132.542 70.8945C132.542 71.0515 132.479 71.202 132.367 71.313C132.256 71.4239 132.104 71.4863 131.946 71.4863Z" fill="#263238"/>
<path d="M131.577 75.1552H47.2915C47.1337 75.1552 46.9822 75.0929 46.8706 74.9819C46.759 74.8709 46.6963 74.7204 46.6963 74.5635C46.6963 74.4065 46.759 74.256 46.8706 74.145C46.9822 74.034 47.1337 73.9717 47.2915 73.9717H131.577C131.735 73.9717 131.887 74.034 131.998 74.145C132.11 74.256 132.172 74.4065 132.172 74.5635C132.172 74.7204 132.11 74.8709 131.998 74.9819C131.887 75.0929 131.735 75.1552 131.577 75.1552Z" fill="#263238"/>
<path d="M131.202 78.7768H46.9224C46.7645 78.7768 46.6131 78.7145 46.5015 78.6035C46.3899 78.4925 46.3271 78.342 46.3271 78.185C46.3271 78.0281 46.3899 77.8776 46.5015 77.7666C46.6131 77.6556 46.7645 77.5933 46.9224 77.5933H131.202C131.36 77.5933 131.511 77.6556 131.623 77.7666C131.735 77.8776 131.797 78.0281 131.797 78.185C131.797 78.342 131.735 78.4925 131.623 78.6035C131.511 78.7145 131.36 78.7768 131.202 78.7768Z" fill="#263238"/>
<path d="M130.833 82.4221H46.5532C46.3954 82.4221 46.244 82.3597 46.1324 82.2487C46.0207 82.1378 45.958 81.9872 45.958 81.8303C45.958 81.6733 46.0207 81.5228 46.1324 81.4119C46.244 81.3009 46.3954 81.2385 46.5532 81.2385H130.833C130.991 81.2385 131.142 81.3009 131.254 81.4119C131.366 81.5228 131.428 81.6733 131.428 81.8303C131.428 81.9872 131.366 82.1378 131.254 82.2487C131.142 82.3597 130.991 82.4221 130.833 82.4221Z" fill="#263238"/>
<path d="M130.464 86.0734H46.1841C46.0262 86.0734 45.8748 86.0111 45.7632 85.9001C45.6516 85.7891 45.5889 85.6386 45.5889 85.4817C45.5889 85.3247 45.6516 85.1742 45.7632 85.0632C45.8748 84.9522 46.0262 84.8899 46.1841 84.8899H130.464C130.622 84.8899 130.773 84.9522 130.885 85.0632C130.996 85.1742 131.059 85.3247 131.059 85.4817C131.059 85.6386 130.996 85.7891 130.885 85.9001C130.773 86.0111 130.622 86.0734 130.464 86.0734Z" fill="#263238"/>
<path d="M130.095 89.7187H45.8335C45.6757 89.7187 45.5243 89.6564 45.4126 89.5454C45.301 89.4344 45.2383 89.2839 45.2383 89.1269C45.2383 88.97 45.301 88.8195 45.4126 88.7085C45.5243 88.5975 45.6757 88.5352 45.8335 88.5352H130.095C130.253 88.5352 130.405 88.5975 130.516 88.7085C130.628 88.8195 130.691 88.97 130.691 89.1269C130.691 89.2839 130.628 89.4344 130.516 89.5454C130.405 89.6564 130.253 89.7187 130.095 89.7187Z" fill="#263238"/>
<path d="M88.0599 93.364H45.4468C45.2889 93.364 45.1375 93.3016 45.0259 93.1906C44.9143 93.0797 44.8516 92.9291 44.8516 92.7722C44.8516 92.6152 44.9143 92.4647 45.0259 92.3537C45.1375 92.2428 45.2889 92.1804 45.4468 92.1804H88.0599C88.2178 92.1804 88.3691 92.2428 88.4808 92.3537C88.5924 92.4647 88.6551 92.6152 88.6551 92.7722C88.6551 92.9291 88.5924 93.0797 88.4808 93.1906C88.3691 93.3016 88.2178 93.364 88.0599 93.364Z" fill="#263238"/>
<path d="M135.327 44.288H120.792C120.634 44.288 120.482 44.2257 120.371 44.1147C120.259 44.0037 120.196 43.8532 120.196 43.6963C120.196 43.5393 120.259 43.3888 120.371 43.2778C120.482 43.1668 120.634 43.1045 120.792 43.1045H135.327C135.485 43.1045 135.637 43.1668 135.748 43.2778C135.86 43.3888 135.922 43.5393 135.922 43.6963C135.922 43.8532 135.86 44.0037 135.748 44.1147C135.637 44.2257 135.485 44.288 135.327 44.288Z" fill="#263238"/>
<path d="M129.262 98.311H53.9527C53.7948 98.311 53.6434 98.2486 53.5318 98.1377C53.4201 98.0267 53.3574 97.8762 53.3574 97.7192C53.3574 97.5623 53.4201 97.4117 53.5318 97.3008C53.6434 97.1898 53.7948 97.1274 53.9527 97.1274H129.262C129.42 97.1274 129.571 97.1898 129.683 97.3008C129.795 97.4117 129.857 97.5623 129.857 97.7192C129.857 97.8762 129.795 98.0267 129.683 98.1377C129.571 98.2486 129.42 98.311 129.262 98.311Z" fill="#263238"/>
<path d="M128.857 101.956H44.5708C44.413 101.956 44.2615 101.894 44.1499 101.783C44.0383 101.672 43.9756 101.522 43.9756 101.365C43.9756 101.208 44.0383 101.057 44.1499 100.946C44.2615 100.835 44.413 100.773 44.5708 100.773H128.857C129.014 100.773 129.166 100.835 129.277 100.946C129.389 101.057 129.452 101.208 129.452 101.365C129.452 101.522 129.389 101.672 129.277 101.783C129.166 101.894 129.014 101.956 128.857 101.956Z" fill="#263238"/>
<path d="M128.487 105.602H44.2017C44.0438 105.602 43.8924 105.54 43.7808 105.429C43.6691 105.318 43.6064 105.167 43.6064 105.01C43.6064 104.853 43.6691 104.703 43.7808 104.592C43.8924 104.481 44.0438 104.418 44.2017 104.418H128.487C128.645 104.418 128.797 104.481 128.908 104.592C129.02 104.703 129.083 104.853 129.083 105.01C129.083 105.167 129.02 105.318 128.908 105.429C128.797 105.54 128.645 105.602 128.487 105.602Z" fill="#263238"/>
<path d="M128.113 109.253H43.8335C43.6757 109.253 43.5242 109.191 43.4126 109.08C43.301 108.969 43.2383 108.818 43.2383 108.661C43.2383 108.504 43.301 108.354 43.4126 108.243C43.5242 108.132 43.6757 108.07 43.8335 108.07H128.113C128.271 108.07 128.423 108.132 128.534 108.243C128.646 108.354 128.709 108.504 128.709 108.661C128.709 108.818 128.646 108.969 128.534 109.08C128.423 109.191 128.271 109.253 128.113 109.253Z" fill="#263238"/>
<path d="M127.743 112.898H43.4517C43.2938 112.898 43.1424 112.836 43.0308 112.725C42.9192 112.614 42.8564 112.464 42.8564 112.307C42.8564 112.15 42.9192 111.999 43.0308 111.888C43.1424 111.777 43.2938 111.715 43.4517 111.715H127.743C127.901 111.715 128.053 111.777 128.164 111.888C128.276 111.999 128.339 112.15 128.339 112.307C128.339 112.464 128.276 112.614 128.164 112.725C128.053 112.836 127.901 112.898 127.743 112.898Z" fill="#263238"/>
<path d="M73.8095 116.544H43.0952C42.9374 116.544 42.786 116.481 42.6743 116.37C42.5627 116.259 42.5 116.109 42.5 115.952C42.5 115.795 42.5627 115.644 42.6743 115.533C42.786 115.422 42.9374 115.36 43.0952 115.36H73.8095C73.9674 115.36 74.1188 115.422 74.2304 115.533C74.342 115.644 74.4048 115.795 74.4048 115.952C74.4048 116.109 74.342 116.259 74.2304 116.37C74.1188 116.481 73.9674 116.544 73.8095 116.544Z" fill="#263238"/>
<g opacity="0.2">
<path d="M129.077 176.188H29.8096L46.637 10.2021H145.905L129.077 176.188Z" fill="black"/>
</g>
<path d="M113.011 171.176H13.7432C31.9694 117.786 42.9813 63.5917 45.4456 10.2139H144.713C142.261 63.5917 131.237 117.763 113.011 171.176Z" fill="white"/>
<path d="M136.97 27.1271H49.9638C49.8863 27.1272 49.8116 27.0978 49.7552 27.045C49.6988 26.9922 49.6648 26.9199 49.6602 26.843C49.6594 26.8047 49.6664 26.7666 49.6808 26.7311C49.6951 26.6955 49.7166 26.6633 49.7439 26.6362C49.7711 26.6091 49.8036 26.5878 49.8393 26.5735C49.8751 26.5592 49.9134 26.5522 49.9519 26.553H136.952C137.031 26.5529 137.107 26.5829 137.165 26.6368C137.222 26.6907 137.257 26.7645 137.261 26.843C137.261 26.8808 137.254 26.9182 137.239 26.9531C137.224 26.9879 137.203 27.0195 137.176 27.046C137.148 27.0724 137.116 27.0932 137.081 27.1072C137.046 27.1211 137.008 27.1278 136.97 27.1271Z" fill="#263238"/>
<path d="M61.0352 19.5284C60.9192 20.7715 60.3391 21.9263 59.4092 22.7653C58.4793 23.6043 57.2671 24.0667 56.0114 24.0614C55.4144 24.0799 54.82 23.9742 54.2665 23.7509C53.713 23.5277 53.2125 23.1919 52.7972 22.7651C52.3819 22.3383 52.0609 21.8299 51.8549 21.2725C51.6488 20.7151 51.5622 20.121 51.6007 19.5284C51.7096 18.2889 52.2826 17.1352 53.2064 16.2957C54.1301 15.4562 55.3373 14.9922 56.5888 14.9954C57.1873 14.9773 57.7831 15.083 58.3384 15.3059C58.8936 15.5288 59.3962 15.8639 59.8143 16.2901C60.2324 16.7164 60.5568 17.2243 60.7669 17.7817C60.9771 18.3392 61.0685 18.934 61.0352 19.5284Z" fill="url(#paint3_linear_572_9139)"/>
<path d="M53.6064 18.8541C53.6064 18.8541 51.2255 22.0674 51.9934 23.0497C52.7612 24.0321 59.6243 18.5227 61.2136 16.6349C62.8029 14.7472 60.8624 15.5046 60.8684 15.5046C60.8743 15.5046 61.6124 15.5461 61.2434 16.0964C60.4934 17.28 53.9814 21.5289 53.285 21.304C52.5886 21.0791 53.6064 18.8541 53.6064 18.8541Z" fill="#263238"/>
<path d="M136.5 18.0136H127.572C127.491 18.0176 127.41 18.0053 127.335 17.9774C127.259 17.9494 127.19 17.9065 127.131 17.8511C127.073 17.7958 127.026 17.7291 126.995 17.6554C126.963 17.5816 126.946 17.5021 126.947 17.4218C126.941 17.3428 126.953 17.2635 126.981 17.1893C127.009 17.1152 127.053 17.0478 127.109 16.9918C127.166 16.9358 127.233 16.8923 127.308 16.8645C127.383 16.8366 127.462 16.8248 127.542 16.8301H136.47C136.628 16.8301 136.78 16.8924 136.891 17.0034C137.003 17.1144 137.066 17.2649 137.066 17.4218C137.071 17.4983 137.059 17.575 137.033 17.647C137.007 17.7191 136.966 17.785 136.913 17.8405C136.86 17.8961 136.796 17.9401 136.725 17.9699C136.654 17.9997 136.577 18.0146 136.5 18.0136Z" fill="#263238"/>
<path d="M136.31 20.6765H130.542C130.384 20.6765 130.233 20.6141 130.121 20.5031C130.009 20.3922 129.947 20.2416 129.947 20.0847C129.941 20.0056 129.953 19.9263 129.981 19.8522C130.009 19.778 130.053 19.7107 130.109 19.6546C130.166 19.5986 130.233 19.5552 130.308 19.5273C130.383 19.4994 130.462 19.4877 130.542 19.4929H136.31C136.467 19.4929 136.619 19.5553 136.731 19.6662C136.842 19.7772 136.905 19.9277 136.905 20.0847C136.91 20.1638 136.898 20.243 136.87 20.3172C136.842 20.3914 136.799 20.4587 136.742 20.5147C136.686 20.5708 136.618 20.6142 136.543 20.6421C136.469 20.67 136.389 20.6817 136.31 20.6765Z" fill="#263238"/>
<path d="M136.148 23.3457H121.077C120.919 23.3457 120.767 23.2833 120.656 23.1723C120.544 23.0613 120.481 22.9108 120.481 22.7539C120.481 22.5969 120.544 22.4464 120.656 22.3354C120.767 22.2245 120.919 22.1621 121.077 22.1621H136.142C136.3 22.1621 136.451 22.2245 136.563 22.3354C136.675 22.4464 136.737 22.5969 136.737 22.7539C136.737 22.9098 136.676 23.0594 136.565 23.1703C136.455 23.2811 136.305 23.3441 136.148 23.3457Z" fill="#263238"/>
<path d="M72.6185 34.0033C72.6936 33.3025 73.0346 32.6564 73.5721 32.1968C74.1096 31.7372 74.8031 31.4987 75.5114 31.5297C75.8697 31.5092 76.2281 31.5711 76.5584 31.7107C76.8888 31.8503 77.1823 32.0638 77.4161 32.3345L76.7733 32.8731C76.6175 32.6846 76.421 32.5336 76.1984 32.4311C75.9758 32.3287 75.7328 32.2774 75.4876 32.2813C75.0083 32.2627 74.5401 32.428 74.18 32.7431C73.8199 33.0581 73.5954 33.4987 73.553 33.9738C73.5248 34.1966 73.547 34.4228 73.6179 34.6361C73.6888 34.8493 73.8067 35.0441 73.963 35.2063C74.1192 35.3684 74.3099 35.4939 74.5212 35.5734C74.7324 35.653 74.9589 35.6847 75.184 35.6662C75.4432 35.6647 75.6995 35.6115 75.9377 35.5099C76.1759 35.4082 76.3912 35.2602 76.5709 35.0744L77.1185 35.6248C76.8481 35.8908 76.5261 36.0994 76.172 36.2378C75.8179 36.3761 75.4392 36.4414 75.059 36.4296C73.5292 36.4769 72.4876 35.4413 72.6185 34.0033Z" fill="black"/>
<path d="M77.7025 34.0032C77.7805 33.3003 78.1248 32.6533 78.6655 32.1938C79.2062 31.7343 79.9027 31.4968 80.6132 31.5296C82.1609 31.5296 83.2144 32.5711 83.0835 34.0032C83.0028 34.7061 82.6568 35.3523 82.1155 35.8115C81.5741 36.2706 80.8777 36.5084 80.1668 36.4768C78.6192 36.4768 77.5775 35.4235 77.7025 34.0032ZM82.149 34.0032C82.1767 33.7825 82.1549 33.5585 82.0853 33.3471C82.0158 33.1357 81.9001 32.9423 81.7465 32.7805C81.5929 32.6188 81.4053 32.4928 81.197 32.4116C80.9888 32.3304 80.765 32.296 80.5418 32.3108C80.0676 32.2999 79.6069 32.4687 79.2532 32.783C78.8995 33.0972 78.6792 33.5335 78.637 34.0032C78.6084 34.2236 78.6292 34.4475 78.6981 34.6589C78.7669 34.8704 78.882 35.064 79.0352 35.2258C79.1883 35.3877 79.3756 35.5138 79.5836 35.595C79.7917 35.6763 80.0152 35.7106 80.2382 35.6957C80.7121 35.7052 81.172 35.5359 81.5254 35.2219C81.8788 34.9079 82.0995 34.4724 82.143 34.0032H82.149Z" fill="black"/>
<path d="M88.7256 31.595C88.5867 33.1967 88.4419 34.8024 88.2911 36.412H87.5292C86.7117 35.3231 85.8923 34.2362 85.0708 33.1513C84.9756 34.2343 84.8744 35.3231 84.7732 36.412H83.8506C84.0053 34.8024 84.1502 33.1967 84.2851 31.595H85.047L87.4994 34.8556C87.5946 33.7668 87.6958 32.6838 87.7851 31.595H88.7256Z" fill="black"/>
<path d="M91.0171 32.3524H89.3623C89.3623 32.098 89.404 31.8494 89.4278 31.595H93.6659C93.6659 31.8494 93.6242 32.098 93.6004 32.3524H91.9456C91.8266 33.7017 91.7075 35.0568 91.5766 36.412H90.648C90.779 35.0568 90.898 33.7313 91.0171 32.3524Z" fill="black"/>
<path d="M97.2083 36.4118L96.3154 34.9975H94.994C94.9523 35.465 94.9107 35.9384 94.863 36.4059H93.9404C94.0912 34.7963 94.2341 33.1906 94.369 31.5889H96.4285C97.738 31.5889 98.5 32.2339 98.4047 33.305C98.3811 33.6468 98.255 33.9738 98.0429 34.2438C97.8307 34.5137 97.5421 34.7144 97.2142 34.8199C97.5535 35.3466 97.8869 35.8733 98.2202 36.4059L97.2083 36.4118ZM96.3154 32.3523H95.238C95.1845 32.9914 95.1249 33.6305 95.0714 34.2696H96.1547C96.9702 34.2696 97.4226 33.9145 97.4761 33.3109C97.5297 32.7073 97.1309 32.3523 96.3154 32.3523Z" fill="black"/>
<path d="M102.506 35.2935H99.9998L99.4045 36.412H98.4521C99.3529 34.8024 100.246 33.1967 101.131 31.595H102.047C102.662 33.1967 103.27 34.8024 103.869 36.412H102.899L102.506 35.2935ZM102.262 34.5953C102.012 33.891 101.762 33.1928 101.506 32.4885C101.131 33.1928 100.762 33.891 100.381 34.5953H102.262Z" fill="black"/>
<path d="M104.303 34.0032C104.378 33.3023 104.719 32.6563 105.257 32.1967C105.794 31.7371 106.488 31.4985 107.196 31.5296C107.555 31.5117 107.913 31.5748 108.244 31.7142C108.575 31.8535 108.87 32.0656 109.107 32.3344L108.458 32.8729C108.302 32.6845 108.106 32.5334 107.883 32.431C107.66 32.3285 107.417 32.2773 107.172 32.2811C106.693 32.2626 106.225 32.4279 105.865 32.7429C105.504 33.058 105.28 33.4986 105.238 33.9736C105.209 34.1964 105.231 34.4227 105.302 34.6359C105.373 34.8491 105.491 35.0439 105.647 35.2061C105.804 35.3683 105.994 35.4937 106.206 35.5733C106.417 35.6529 106.643 35.6846 106.868 35.6661C107.128 35.6645 107.384 35.6114 107.622 35.5097C107.86 35.4081 108.076 35.26 108.255 35.0743L108.803 35.6246C108.533 35.8907 108.211 36.0993 107.857 36.2376C107.502 36.376 107.124 36.4413 106.743 36.4295C105.214 36.4768 104.166 35.4412 104.303 34.0032Z" fill="black"/>
<path d="M110.952 32.3524H109.297C109.297 32.098 109.339 31.8494 109.362 31.595H113.6C113.6 31.8494 113.559 32.098 113.535 32.3524H111.904C111.789 33.7017 111.666 35.0549 111.535 36.412H110.612C110.714 35.0568 110.839 33.7313 110.952 32.3524Z" fill="black"/>
<path d="M69.7857 43.1995H49.5476C49.4598 43.2214 49.3682 43.223 49.2796 43.2044C49.1911 43.1858 49.108 43.1474 49.0367 43.092C48.9653 43.0367 48.9076 42.9659 48.8679 42.885C48.8283 42.8042 48.8076 42.7154 48.8076 42.6255C48.8076 42.5355 48.8283 42.4467 48.8679 42.3659C48.9076 42.285 48.9653 42.2143 49.0367 42.1589C49.108 42.1036 49.1911 42.0651 49.2796 42.0465C49.3682 42.0279 49.4598 42.0296 49.5476 42.0514H69.7857C69.8734 42.0296 69.9651 42.0279 70.0536 42.0465C70.1421 42.0651 70.2252 42.1036 70.2966 42.1589C70.3679 42.2143 70.4256 42.285 70.4653 42.3659C70.505 42.4467 70.5256 42.5355 70.5256 42.6255C70.5256 42.7154 70.505 42.8042 70.4653 42.885C70.4256 42.9659 70.3679 43.0367 70.2966 43.092C70.2252 43.1474 70.1421 43.1858 70.0536 43.2044C69.9651 43.223 69.8734 43.2214 69.7857 43.1995Z" fill="#263238"/>
<path d="M59.3334 46.2827H49.2144C49.0565 46.2827 48.9051 46.2203 48.7935 46.1093C48.6819 45.9984 48.6191 45.8478 48.6191 45.6909C48.6191 45.5339 48.6819 45.3834 48.7935 45.2724C48.9051 45.1615 49.0565 45.0991 49.2144 45.0991H59.3334C59.4913 45.0991 59.6427 45.1615 59.7543 45.2724C59.866 45.3834 59.9287 45.5339 59.9287 45.6909C59.9287 45.8478 59.866 45.9984 59.7543 46.1093C59.6427 46.2203 59.4913 46.2827 59.3334 46.2827Z" fill="#263238"/>
<path d="M131.446 62.497H47.1665C47.0087 62.497 46.8573 62.4347 46.7456 62.3237C46.634 62.2127 46.5713 62.0622 46.5713 61.9052C46.5713 61.7483 46.634 61.5978 46.7456 61.4868C46.8573 61.3758 47.0087 61.3135 47.1665 61.3135H131.488C131.646 61.3135 131.797 61.3758 131.909 61.4868C132.021 61.5978 132.083 61.7483 132.083 61.9052C132.083 61.9866 132.067 62.0671 132.034 62.1417C132.002 62.2163 131.954 62.2835 131.894 62.339C131.835 62.3946 131.764 62.4373 131.687 62.4644C131.61 62.4916 131.528 62.5027 131.446 62.497Z" fill="#263238"/>
<path d="M130.952 66.0419H46.6546C46.5748 66.0482 46.4946 66.0371 46.4196 66.0096C46.3445 65.9821 46.2763 65.9387 46.2198 65.8824C46.1632 65.8262 46.1195 65.7584 46.0918 65.6838C46.0641 65.6092 46.0531 65.5295 46.0593 65.4502C46.0593 65.2932 46.122 65.1427 46.2337 65.0317C46.3453 64.9207 46.4967 64.8584 46.6546 64.8584H130.982C131.061 64.8532 131.141 64.8649 131.216 64.8928C131.29 64.9207 131.358 64.9641 131.415 65.0201C131.471 65.0761 131.515 65.1435 131.543 65.2177C131.571 65.2918 131.582 65.3711 131.577 65.4502C131.577 65.5304 131.561 65.6099 131.529 65.6837C131.497 65.7575 131.451 65.8241 131.392 65.8794C131.334 65.9348 131.265 65.9777 131.189 66.0057C131.113 66.0336 131.033 66.0459 130.952 66.0419Z" fill="#263238"/>
<path d="M130.399 69.5808H46.1135C46.0338 69.587 45.9536 69.576 45.8785 69.5484C45.8035 69.5209 45.7353 69.4775 45.6787 69.4213C45.6222 69.365 45.5785 69.2972 45.5508 69.2226C45.5231 69.148 45.512 69.0683 45.5183 68.989C45.5182 68.9087 45.5345 68.8293 45.5663 68.7555C45.598 68.6817 45.6446 68.6151 45.703 68.5597C45.7615 68.5044 45.8307 68.4614 45.9064 68.4335C45.9821 68.4055 46.0627 68.3932 46.1433 68.3972H130.453C130.532 68.392 130.612 68.4037 130.687 68.4316C130.761 68.4595 130.829 68.5029 130.885 68.5589C130.942 68.615 130.985 68.6823 131.013 68.7565C131.042 68.8306 131.053 68.9099 131.048 68.989C131.048 69.0714 131.031 69.153 130.998 69.2285C130.965 69.304 130.916 69.3717 130.855 69.4274C130.794 69.4832 130.722 69.5256 130.644 69.552C130.565 69.5784 130.482 69.5882 130.399 69.5808Z" fill="#263238"/>
<path d="M129.839 73.1253H45.5528C45.4757 73.1273 45.3991 73.113 45.3279 73.0835C45.2567 73.054 45.1926 73.0098 45.1398 72.9539C45.087 72.8981 45.0466 72.8317 45.0214 72.7593C44.9961 72.6869 44.9866 72.6099 44.9933 72.5335C45.0024 72.3744 45.072 72.2247 45.1881 72.1148C45.3042 72.0049 45.458 71.943 45.6183 71.9418H129.898C129.976 71.939 130.053 71.9526 130.125 71.9817C130.197 72.0109 130.262 72.0549 130.315 72.1109C130.369 72.1668 130.409 72.2334 130.435 72.3063C130.461 72.3792 130.47 72.4566 130.464 72.5335C130.464 72.6138 130.447 72.6933 130.416 72.767C130.384 72.8408 130.337 72.9074 130.279 72.9628C130.22 73.0182 130.151 73.0611 130.075 73.089C130 73.117 129.919 73.1293 129.839 73.1253Z" fill="#263238"/>
<path d="M129.255 76.6701H44.9753C44.8979 76.673 44.8208 76.6594 44.7492 76.6302C44.6776 76.601 44.6131 76.5568 44.5601 76.5008C44.5071 76.4447 44.4667 76.378 44.4418 76.3051C44.417 76.2322 44.4081 76.1549 44.4158 76.0783C44.4235 75.9176 44.4935 75.7662 44.6112 75.6559C44.7289 75.5455 44.885 75.4848 45.0467 75.4865H129.326C129.404 75.4845 129.48 75.4988 129.551 75.5283C129.623 75.5579 129.687 75.602 129.74 75.6579C129.792 75.7137 129.833 75.7801 129.858 75.8525C129.883 75.925 129.893 76.0019 129.886 76.0783C129.876 76.2379 129.805 76.3877 129.688 76.4975C129.571 76.6072 129.416 76.6689 129.255 76.6701Z" fill="#263238"/>
<path d="M128.648 80.2147H44.3685C44.2913 80.2177 44.2144 80.2042 44.1431 80.1749C44.0717 80.1457 44.0075 80.1014 43.955 80.0452C43.9024 79.989 43.8627 79.9222 43.8385 79.8493C43.8143 79.7764 43.8062 79.6992 43.8149 79.6229C43.824 79.4628 43.8945 79.3122 44.0119 79.2021C44.1292 79.0921 44.2845 79.0309 44.4459 79.0311H128.726C128.803 79.0282 128.88 79.0418 128.952 79.071C129.023 79.1002 129.088 79.1444 129.141 79.2004C129.194 79.2565 129.234 79.3232 129.259 79.3961C129.284 79.469 129.293 79.5463 129.285 79.6229C129.275 79.7836 129.203 79.9342 129.084 80.0441C128.966 80.154 128.81 80.215 128.648 80.2147Z" fill="#263238"/>
<path d="M128.023 83.7653H43.7375C43.6608 83.7675 43.5846 83.7532 43.514 83.7236C43.4433 83.694 43.3799 83.6496 43.328 83.5935C43.2761 83.5374 43.2369 83.4709 43.213 83.3984C43.1892 83.326 43.1813 83.2493 43.1899 83.1735C43.2018 83.0134 43.274 82.8636 43.392 82.7539C43.51 82.6442 43.6652 82.5828 43.8268 82.5817H128.107C128.183 82.5797 128.26 82.5939 128.331 82.6235C128.402 82.6531 128.465 82.6973 128.518 82.7533C128.57 82.8093 128.61 82.8757 128.634 82.9482C128.659 83.0206 128.668 83.0974 128.66 83.1735C128.648 83.3337 128.576 83.4835 128.458 83.5931C128.34 83.7028 128.185 83.7642 128.023 83.7653Z" fill="#263238"/>
<path d="M127.381 87.3102H43.0889C43.0119 87.3134 42.9352 87.2999 42.8641 87.2706C42.793 87.2413 42.7291 87.1969 42.677 87.1406C42.6249 87.0843 42.5857 87.0173 42.5623 86.9444C42.5388 86.8715 42.5316 86.7944 42.5412 86.7185C42.5546 86.5578 42.628 86.4079 42.747 86.2984C42.866 86.1889 43.0219 86.1276 43.1841 86.1267H127.464C127.54 86.1245 127.617 86.1387 127.687 86.1684C127.758 86.198 127.821 86.2424 127.873 86.2985C127.925 86.3546 127.964 86.4211 127.988 86.4935C128.012 86.566 128.02 86.6427 128.011 86.7185C127.998 86.8771 127.927 87.0253 127.81 87.1346C127.694 87.2438 127.541 87.3064 127.381 87.3102Z" fill="#263238"/>
<path d="M85.0291 90.8549H42.416C42.3391 90.8581 42.2624 90.8445 42.1913 90.8153C42.1201 90.786 42.0563 90.7416 42.0042 90.6853C41.952 90.6289 41.9129 90.562 41.8894 90.4891C41.866 90.4162 41.8588 90.3391 41.8684 90.2631C41.8832 90.102 41.9578 89.952 42.0778 89.8426C42.1977 89.7332 42.3544 89.6722 42.5172 89.6714H85.1184C85.195 89.6692 85.2712 89.6834 85.3419 89.713C85.4125 89.7427 85.476 89.787 85.5279 89.8431C85.5798 89.8992 85.619 89.9658 85.6428 90.0382C85.6666 90.1107 85.6746 90.1874 85.666 90.2631C85.6502 90.4218 85.5768 90.5694 85.4596 90.6783C85.3425 90.7871 85.1894 90.8499 85.0291 90.8549Z" fill="#263238"/>
<path d="M134.476 43.1995H119.94C119.852 43.2214 119.761 43.223 119.672 43.2044C119.584 43.1858 119.501 43.1474 119.429 43.092C119.358 43.0367 119.3 42.9659 119.261 42.885C119.221 42.8042 119.2 42.7154 119.2 42.6255C119.2 42.5355 119.221 42.4467 119.261 42.3659C119.3 42.285 119.358 42.2143 119.429 42.1589C119.501 42.1036 119.584 42.0651 119.672 42.0465C119.761 42.0279 119.852 42.0296 119.94 42.0514H134.476C134.564 42.0296 134.655 42.0279 134.744 42.0465C134.832 42.0651 134.915 42.1036 134.987 42.1589C135.058 42.2143 135.116 42.285 135.155 42.3659C135.195 42.4467 135.216 42.5355 135.216 42.6255C135.216 42.7154 135.195 42.8042 135.155 42.885C135.116 42.9659 135.058 43.0367 134.987 43.092C134.915 43.1474 134.832 43.1858 134.744 43.2044C134.655 43.223 134.564 43.2214 134.476 43.1995Z" fill="#263238"/>
<path d="M125.786 95.6601H50.4763C50.3996 95.6634 50.3231 95.65 50.2522 95.6206C50.1813 95.5913 50.1178 95.5468 50.0661 95.4903C50.0144 95.4339 49.9758 95.3668 49.9531 95.2939C49.9304 95.221 49.9241 95.144 49.9346 95.0683C49.9495 94.9062 50.025 94.7554 50.1463 94.6458C50.2675 94.5363 50.4256 94.4759 50.5894 94.4766H125.893C125.97 94.4732 126.046 94.4867 126.117 94.5161C126.188 94.5454 126.252 94.5899 126.303 94.6463C126.355 94.7028 126.393 94.7699 126.416 94.8428C126.439 94.9157 126.445 94.9927 126.435 95.0683C126.42 95.2295 126.345 95.3794 126.225 95.4888C126.105 95.5983 125.949 95.6593 125.786 95.6601Z" fill="#263238"/>
<path d="M125 99.2046H40.738C40.6612 99.2092 40.5843 99.1965 40.5131 99.1675C40.4419 99.1385 40.3782 99.0939 40.3267 99.037C40.2752 98.9802 40.2373 98.9125 40.2158 98.8391C40.1942 98.7656 40.1896 98.6883 40.2023 98.6128C40.2185 98.4511 40.2944 98.3012 40.4153 98.1919C40.5362 98.0826 40.6936 98.0217 40.8571 98.021H125.137C125.213 98.0176 125.29 98.031 125.36 98.0604C125.431 98.0897 125.494 98.1343 125.545 98.1909C125.597 98.2475 125.635 98.3147 125.657 98.3877C125.679 98.4606 125.684 98.5375 125.673 98.6128C125.656 98.7776 125.578 98.9301 125.453 99.0398C125.328 99.1495 125.166 99.2084 125 99.2046Z" fill="#263238"/>
<path d="M124.268 102.755H39.9879C39.9114 102.759 39.835 102.745 39.7644 102.716C39.6937 102.687 39.6305 102.642 39.5792 102.585C39.528 102.529 39.49 102.462 39.468 102.389C39.4461 102.316 39.4407 102.239 39.4522 102.164C39.4722 102.002 39.5501 101.854 39.6714 101.745C39.7928 101.636 39.9496 101.575 40.1129 101.572H124.405C124.481 101.568 124.557 101.582 124.628 101.611C124.699 101.641 124.762 101.685 124.813 101.742C124.864 101.798 124.902 101.866 124.924 101.938C124.946 102.011 124.952 102.088 124.94 102.164C124.92 102.327 124.84 102.477 124.717 102.586C124.593 102.695 124.433 102.755 124.268 102.755Z" fill="#263238"/>
<path d="M123.494 106.3H39.2144C39.1381 106.304 39.0619 106.29 38.9914 106.261C38.921 106.231 38.858 106.187 38.8072 106.13C38.7564 106.073 38.7191 106.006 38.6979 105.933C38.6766 105.86 38.6721 105.783 38.6847 105.708C38.7047 105.547 38.7825 105.398 38.9039 105.29C39.0253 105.181 39.182 105.119 39.3454 105.116H123.631C123.707 105.113 123.783 105.126 123.854 105.155C123.924 105.185 123.986 105.23 124.037 105.286C124.087 105.343 124.124 105.411 124.144 105.484C124.165 105.557 124.168 105.634 124.155 105.708C124.135 105.869 124.057 106.018 123.936 106.127C123.814 106.235 123.658 106.297 123.494 106.3Z" fill="#263238"/>
<path d="M122.696 109.839H38.4166C38.3405 109.843 38.2644 109.83 38.1942 109.8C38.1239 109.771 38.0613 109.726 38.0109 109.669C37.9605 109.612 37.9237 109.545 37.9033 109.472C37.8828 109.398 37.8793 109.322 37.8928 109.247C37.9142 109.086 37.9933 108.937 38.1156 108.828C38.238 108.72 38.3955 108.658 38.5595 108.655H122.839C122.915 108.652 122.991 108.665 123.062 108.694C123.132 108.724 123.195 108.769 123.245 108.825C123.295 108.882 123.332 108.95 123.353 109.023C123.373 109.096 123.377 109.173 123.363 109.247C123.345 109.41 123.267 109.561 123.144 109.671C123.021 109.78 122.862 109.84 122.696 109.839Z" fill="#263238"/>
<path d="M68.3088 113.383H37.5945C37.5186 113.388 37.4426 113.374 37.3726 113.345C37.3025 113.315 37.2401 113.27 37.1902 113.213C37.1402 113.156 37.104 113.089 37.0844 113.016C37.0647 112.943 37.0621 112.866 37.0767 112.792C37.0992 112.631 37.1786 112.483 37.3007 112.374C37.4228 112.266 37.5797 112.204 37.7434 112.2H68.4517C68.5277 112.196 68.6036 112.209 68.6737 112.239C68.7437 112.268 68.8061 112.313 68.8561 112.37C68.906 112.427 68.9422 112.495 68.9619 112.568C68.9815 112.641 68.9841 112.717 68.9695 112.792C68.9483 112.952 68.8701 113.1 68.749 113.209C68.6279 113.317 68.4718 113.379 68.3088 113.383Z" fill="#263238"/>
<g opacity="0.1">
<path d="M113.011 171.176H13.7432C31.9694 117.786 42.9813 63.5917 45.4456 10.2139H144.713C142.261 63.5917 131.237 117.763 113.011 171.176Z" fill="black"/>
</g>
<path d="M99.5354 160.719H0.267578C23.1604 110.798 38.3152 60.1181 45.4462 10.2021H144.714C137.583 60.124 122.428 110.798 99.5354 160.719Z" fill="white"/>
<path d="M136.083 26.0379H49.0828C49.0459 26.0405 49.0089 26.0352 48.9742 26.0225C48.9395 26.0098 48.9079 25.99 48.8815 25.9642C48.855 25.9385 48.8344 25.9075 48.8209 25.8733C48.8073 25.8391 48.8013 25.8024 48.803 25.7657C48.8119 25.6909 48.8486 25.6221 48.9059 25.5729C48.9631 25.5236 49.0369 25.4974 49.1126 25.4994H136.119C136.155 25.4969 136.191 25.502 136.226 25.5143C136.26 25.5267 136.291 25.546 136.318 25.5711C136.344 25.5962 136.365 25.6264 136.379 25.6599C136.392 25.6934 136.399 25.7295 136.398 25.7657C136.389 25.842 136.352 25.9123 136.294 25.9627C136.235 26.0131 136.16 26.0399 136.083 26.0379Z" fill="#263238"/>
<path d="M60.8148 18.9366C60.4398 21.3037 57.9993 23.1737 55.3922 23.1737C52.785 23.1737 50.9993 21.2741 51.3803 18.9366C51.7612 16.5991 54.1541 14.6936 56.7374 14.6936C59.3208 14.6936 61.1958 16.5695 60.8148 18.9366Z" fill="url(#paint4_linear_572_9139)"/>
<path d="M53.4403 18.2918C53.4403 18.2918 50.7617 21.298 51.4641 22.2152C52.1665 23.1325 59.5236 17.9782 61.2439 16.2206C62.9641 14.463 60.9998 15.1613 60.9998 15.1613C60.9998 15.1613 61.7438 15.1968 61.3212 15.7531C60.47 16.8656 53.5831 20.8305 52.9105 20.6175C52.2379 20.4044 53.4462 18.2918 53.4403 18.2918Z" fill="#263238"/>
<path d="M136.411 17.5045H127.482C127.407 17.512 127.331 17.5037 127.26 17.4804C127.188 17.457 127.122 17.4191 127.066 17.3689C127.01 17.3188 126.965 17.2576 126.934 17.1893C126.903 17.1209 126.887 17.0469 126.887 16.9719C126.902 16.8255 126.971 16.6897 127.081 16.5913C127.191 16.4928 127.334 16.4386 127.482 16.4394H136.411C136.486 16.43 136.562 16.4369 136.635 16.4595C136.707 16.4821 136.774 16.52 136.83 16.5705C136.887 16.621 136.932 16.683 136.962 16.7523C136.992 16.8215 137.007 16.8965 137.006 16.9719C136.991 17.1184 136.922 17.2542 136.812 17.3526C136.702 17.4511 136.559 17.5053 136.411 17.5045Z" fill="#263238"/>
<path d="M136.012 19.996H130.244C130.169 20.0044 130.092 19.9968 130.02 19.9738C129.948 19.9508 129.882 19.9129 129.826 19.8626C129.77 19.8123 129.725 19.7507 129.694 19.6819C129.664 19.6131 129.648 19.5386 129.648 19.4634C129.663 19.3169 129.732 19.1812 129.843 19.0827C129.953 18.9842 130.096 18.9301 130.244 18.9308H136.012C136.087 18.9215 136.163 18.9283 136.236 18.951C136.308 18.9736 136.375 19.0114 136.432 19.062C136.488 19.1125 136.533 19.1745 136.563 19.2437C136.593 19.313 136.608 19.3879 136.607 19.4634C136.592 19.6099 136.523 19.7456 136.413 19.8441C136.303 19.9426 136.16 19.9967 136.012 19.996Z" fill="#263238"/>
<path d="M135.595 22.4877H120.524C120.449 22.497 120.372 22.4902 120.3 22.4675C120.227 22.4449 120.161 22.4071 120.104 22.3565C120.048 22.306 120.003 22.244 119.973 22.1748C119.942 22.1055 119.927 22.0306 119.929 21.9551C119.944 21.8034 120.017 21.6633 120.134 21.5641C120.25 21.4649 120.401 21.4141 120.554 21.4225H135.655C135.73 21.4132 135.807 21.42 135.879 21.4427C135.952 21.4653 136.018 21.5031 136.075 21.5537C136.131 21.6042 136.176 21.6662 136.207 21.7354C136.237 21.8047 136.252 21.8796 136.25 21.9551C136.243 22.033 136.22 22.1086 136.183 22.1776C136.146 22.2466 136.095 22.3076 136.035 22.3572C135.974 22.4067 135.904 22.4437 135.828 22.4661C135.753 22.4885 135.674 22.4959 135.595 22.4877Z" fill="#263238"/>
<path d="M41.5949 152.369H11.1307C11.0623 152.377 10.9931 152.367 10.9298 152.341C10.8665 152.314 10.8112 152.271 10.7692 152.217C10.7273 152.163 10.7002 152.099 10.6905 152.031C10.6808 151.964 10.6889 151.895 10.714 151.831C10.7749 151.677 10.8804 151.544 11.017 151.449C11.1536 151.355 11.3153 151.302 11.4818 151.298H41.9461C42.0142 151.289 42.0834 151.298 42.147 151.324C42.2105 151.35 42.2662 151.392 42.3083 151.446C42.3505 151.5 42.3777 151.563 42.3872 151.631C42.3968 151.699 42.3884 151.768 42.3628 151.831C42.3021 151.986 42.1969 152.119 42.0604 152.215C41.9238 152.311 41.762 152.365 41.5949 152.369Z" fill="#263238"/>
<path d="M96.2976 152.37H61.1785C61.1102 152.377 61.041 152.367 60.9777 152.341C60.9143 152.314 60.859 152.272 60.8171 152.217C60.7751 152.163 60.748 152.099 60.7383 152.031C60.7287 151.964 60.7368 151.895 60.7618 151.831C60.8228 151.677 60.9282 151.544 61.0648 151.449C61.2014 151.355 61.3632 151.302 61.5297 151.298H96.6785C96.7466 151.29 96.8157 151.299 96.8792 151.325C96.9426 151.351 96.9983 151.393 97.0408 151.446C97.0833 151.5 97.1112 151.563 97.1217 151.631C97.1323 151.698 97.1252 151.767 97.1011 151.831C97.0361 151.99 96.925 152.126 96.7819 152.222C96.6387 152.318 96.4701 152.369 96.2976 152.37Z" fill="#263238"/>
<path d="M47.0713 121.379H30.9166C30.8471 121.386 30.7767 121.377 30.7118 121.351C30.6468 121.325 30.5894 121.284 30.5445 121.23C30.4997 121.177 30.4689 121.113 30.4549 121.045C30.4408 120.977 30.4441 120.907 30.4642 120.84C30.5154 120.685 30.6143 120.551 30.7468 120.455C30.8792 120.36 31.0386 120.308 31.2023 120.307H47.3511C47.42 120.3 47.4896 120.309 47.5539 120.335C47.6182 120.361 47.6752 120.401 47.7199 120.454C47.7646 120.507 47.7956 120.569 47.8101 120.637C47.8247 120.704 47.8224 120.774 47.8035 120.84C47.7536 120.995 47.6561 121.13 47.5247 121.227C47.3933 121.323 47.2347 121.376 47.0713 121.379Z" fill="#263238"/>
<path d="M103.119 121.378H79.5894C79.5199 121.386 79.4496 121.377 79.3846 121.351C79.3197 121.325 79.2622 121.284 79.2174 121.23C79.1726 121.177 79.1417 121.113 79.1277 121.045C79.1137 120.977 79.1169 120.906 79.1371 120.84C79.1883 120.685 79.2872 120.551 79.4196 120.455C79.5521 120.359 79.7115 120.308 79.8752 120.307H103.399C103.468 120.3 103.537 120.309 103.602 120.335C103.666 120.36 103.723 120.401 103.768 120.454C103.812 120.506 103.843 120.569 103.858 120.636C103.873 120.704 103.87 120.774 103.851 120.84C103.802 120.995 103.705 121.131 103.573 121.227C103.442 121.324 103.283 121.377 103.119 121.378Z" fill="#263238"/>
<path d="M77.4458 146.097C76.9469 146.121 76.4503 146.015 76.0053 145.789C75.2494 145.357 75.0648 144.606 75.4755 143.653C75.5345 143.511 75.6021 143.372 75.6779 143.239C73.3878 144.139 70.9846 144.725 68.5351 144.978C67.0708 145.067 66.7136 144.499 66.6779 144.002C66.6065 143.12 67.4755 141.712 68.8625 140.09C65.6482 141.517 63.291 142.392 63.2434 142.41C63.0708 142.475 62.916 142.41 62.8863 142.28C62.8819 142.201 62.905 142.122 62.9515 142.058C62.998 141.993 63.0653 141.946 63.1422 141.925C63.1958 141.925 65.9993 140.866 69.6541 139.197C73.3684 135.173 79.547 130.231 82.7493 128.545C85.0529 127.332 86.3922 127 86.7374 127.563C87.2732 128.444 84.6422 131.113 80.3029 134.001C77.0174 136.126 73.5705 137.994 69.9934 139.587C68.3208 141.416 67.2196 142.984 67.2851 143.836C67.2851 144.008 67.3446 144.54 68.6541 144.428C71.233 144.153 73.7588 143.512 76.1541 142.523C78.0113 140.031 82.3267 137.084 84.3029 136.605C85.0648 136.415 85.3684 136.605 85.4934 136.812C85.6184 137.019 85.6541 137.333 85.2375 137.865C84.1839 139.22 80.5291 141.357 76.5053 142.937C76.3345 143.181 76.1871 143.44 76.0648 143.712C75.7494 144.464 75.8744 144.99 76.4577 145.328C77.791 146.091 81.2196 145.002 84.6244 143.44C84.6559 143.256 84.7119 143.077 84.791 142.907C85.7434 140.747 90.3982 137.416 92.8744 137.581C93.3684 137.611 93.4696 137.83 93.4696 138.007C93.5232 138.788 91.4279 140.238 89.6601 141.321C88.2232 142.184 86.7431 142.974 85.2255 143.688C85.3089 143.984 85.6005 144.168 86.1005 144.28C89.7851 144.872 98.3982 139.516 98.4755 139.463C98.5316 139.412 98.6048 139.384 98.6809 139.384C98.757 139.384 98.8302 139.412 98.8863 139.463C98.9153 139.532 98.9166 139.61 98.8901 139.68C98.8636 139.751 98.8111 139.808 98.7434 139.842C98.3863 140.073 89.7791 145.434 85.8386 144.783C85.5831 144.775 85.3351 144.694 85.1242 144.551C84.9132 144.407 84.748 144.206 84.6482 143.972C82.0113 145.15 79.2791 146.097 77.4458 146.097ZM92.5351 138.084C90.3565 138.084 86.1541 141.126 85.3446 142.96L85.2791 143.114C86.7613 142.404 88.1958 141.617 89.4101 140.877C91.9577 139.321 92.8803 138.374 92.8625 138.143C92.8625 138.143 92.8089 138.096 92.6601 138.09L92.5351 138.084ZM84.6779 137.06C84.5534 137.065 84.4297 137.083 84.3089 137.114C82.6065 137.54 78.9994 139.978 77.1005 142.156C80.672 140.676 83.8267 138.824 84.7374 137.646C84.916 137.416 84.9755 137.244 84.9101 137.143C84.8446 137.043 84.7851 137.06 84.6779 137.06ZM85.9458 127.823C85.5827 127.823 84.7256 128.042 82.9696 128.977C79.8982 130.598 74.5232 134.936 70.916 138.617C74.0678 137.163 77.1094 135.484 80.0172 133.593C84.5886 130.533 86.422 128.267 86.1839 127.882C86.1482 127.852 86.0767 127.823 85.9458 127.823Z" fill="#263238"/>
<path d="M67.4933 41.0397H47.2552C47.1827 41.0439 47.1101 41.0329 47.0422 41.0075C46.9742 40.982 46.9124 40.9426 46.8607 40.8918C46.8091 40.841 46.7687 40.78 46.7424 40.7127C46.716 40.6454 46.7042 40.5733 46.7076 40.5012C46.7333 40.3497 46.8131 40.2125 46.9322 40.1147C47.0514 40.0169 47.202 39.965 47.3564 39.9686H67.5945C67.667 39.9625 67.7399 39.972 67.8083 39.9964C67.8767 40.0209 67.939 40.0597 67.991 40.1102C68.0429 40.1608 68.0834 40.2219 68.1094 40.2893C68.1355 40.3568 68.1467 40.429 68.1422 40.5012C68.1177 40.6537 68.0385 40.7923 67.9193 40.8913C67.8 40.9903 67.6487 41.043 67.4933 41.0397Z" fill="#263238"/>
<path d="M56.7793 43.9392H46.6602C46.5877 43.9445 46.5149 43.9342 46.4468 43.909C46.3786 43.8838 46.3168 43.8443 46.2654 43.7932C46.214 43.7421 46.1742 43.6806 46.1489 43.6129C46.1236 43.5452 46.1132 43.4728 46.1185 43.4007C46.1454 43.2482 46.2261 43.1102 46.3461 43.0115C46.4661 42.9128 46.6176 42.8599 46.7733 42.8622H56.8923C56.9648 42.8569 57.0377 42.8672 57.1058 42.8924C57.1739 42.9176 57.2358 42.9571 57.2872 43.0082C57.3386 43.0593 57.3783 43.1208 57.4037 43.1885C57.429 43.2563 57.4393 43.3286 57.434 43.4007C57.4083 43.5538 57.3279 43.6924 57.2077 43.7914C57.0874 43.8903 56.9353 43.9428 56.7793 43.9392Z" fill="#263238"/>
<path d="M127.47 59.1005H43.19C43.1182 59.1062 43.046 59.0961 42.9787 59.0708C42.9113 59.0454 42.8504 59.0056 42.8003 58.9542C42.7503 58.9027 42.7123 58.8408 42.6891 58.773C42.6659 58.7052 42.6581 58.6332 42.6662 58.562C42.6969 58.4096 42.7805 58.2728 42.9023 58.1754C43.0242 58.0781 43.1766 58.0264 43.3329 58.0294H127.613C127.684 58.0228 127.756 58.0321 127.824 58.0567C127.891 58.0813 127.952 58.1205 128.002 58.1716C128.052 58.2226 128.091 58.2842 128.114 58.3517C128.137 58.4193 128.145 58.4911 128.136 58.562C128.107 58.7155 128.024 58.8537 127.902 58.9523C127.78 59.0508 127.627 59.1033 127.47 59.1005Z" fill="#263238"/>
<path d="M126.648 62.4143H42.3687C42.2969 62.42 42.2248 62.4098 42.1574 62.3845C42.09 62.3592 42.0291 62.3193 41.979 62.2679C41.929 62.2164 41.891 62.1545 41.8678 62.0867C41.8446 62.0189 41.8368 61.9469 41.8449 61.8757C41.8767 61.7223 41.9612 61.5846 42.0839 61.4864C42.2067 61.3881 42.36 61.3354 42.5175 61.3372H126.785C126.857 61.3326 126.929 61.3435 126.996 61.3692C127.062 61.3948 127.123 61.4347 127.173 61.4859C127.223 61.5372 127.261 61.5986 127.284 61.6659C127.308 61.7332 127.316 61.8048 127.309 61.8757C127.277 62.0267 127.194 62.1622 127.074 62.2601C126.954 62.3579 126.804 62.4123 126.648 62.4143Z" fill="#263238"/>
<path d="M125.803 65.7281H41.5176C41.4463 65.7341 41.3744 65.7241 41.3075 65.6987C41.2406 65.6733 41.1803 65.6333 41.1311 65.5815C41.0819 65.5298 41.0451 65.4676 41.0234 65.3998C41.0017 65.3319 40.9956 65.2601 41.0057 65.1895C41.0375 65.0361 41.122 64.8984 41.2448 64.8002C41.3675 64.7019 41.5208 64.6492 41.6784 64.651H125.958C126.03 64.6452 126.102 64.6553 126.169 64.6806C126.236 64.706 126.297 64.7459 126.346 64.7975C126.396 64.8491 126.433 64.9111 126.456 64.9789C126.478 65.0468 126.485 65.1187 126.476 65.1895C126.443 65.3425 126.358 65.4795 126.236 65.5776C126.113 65.6756 125.961 65.7288 125.803 65.7281Z" fill="#263238"/>
<path d="M124.934 69.0421H40.6486C40.5774 69.0471 40.5061 69.0363 40.4397 69.0105C40.3733 68.9847 40.3135 68.9447 40.2645 68.8932C40.2156 68.8417 40.1787 68.78 40.1566 68.7127C40.1345 68.6453 40.1277 68.5739 40.1366 68.5036C40.1707 68.3502 40.2566 68.213 40.3801 68.115C40.5036 68.017 40.6572 67.9641 40.8152 67.9651H125.095C125.166 67.959 125.238 67.9691 125.305 67.9944C125.372 68.0198 125.432 68.0599 125.482 68.1116C125.531 68.1634 125.568 68.2255 125.589 68.2934C125.611 68.3612 125.617 68.4331 125.607 68.5036C125.575 68.657 125.491 68.7947 125.368 68.893C125.245 68.9912 125.092 69.044 124.934 69.0421Z" fill="#263238"/>
<path d="M124.042 72.3562H39.7558C39.6847 72.3625 39.613 72.3525 39.5463 72.3271C39.4795 72.3017 39.4195 72.2615 39.3707 72.2096C39.322 72.1577 39.2857 72.0954 39.2648 72.0275C39.2438 71.9596 39.2388 71.8878 39.2499 71.8177C39.2839 71.6643 39.3699 71.5271 39.4934 71.4291C39.6169 71.3311 39.7704 71.2782 39.9285 71.2792H124.214C124.285 71.2729 124.357 71.2828 124.424 71.3082C124.49 71.3336 124.55 71.3738 124.599 71.4257C124.648 71.4776 124.684 71.5399 124.705 71.6078C124.726 71.6757 124.731 71.7475 124.72 71.8177C124.686 71.9711 124.6 72.1082 124.477 72.2062C124.353 72.3042 124.2 72.3572 124.042 72.3562Z" fill="#263238"/>
<path d="M123.125 75.6701H38.8449C38.7735 75.6776 38.7012 75.6685 38.6339 75.6435C38.5666 75.6186 38.5061 75.5784 38.457 75.5262C38.408 75.474 38.3718 75.4112 38.3513 75.3427C38.3308 75.2743 38.3266 75.202 38.339 75.1316C38.3742 74.9778 38.4613 74.8405 38.5858 74.7425C38.7103 74.6446 38.8647 74.5919 39.0235 74.5931H123.303C123.374 74.5869 123.446 74.5968 123.513 74.6222C123.58 74.6476 123.64 74.6878 123.688 74.7397C123.737 74.7916 123.773 74.8539 123.794 74.9218C123.815 74.9897 123.82 75.0615 123.809 75.1316C123.774 75.2855 123.687 75.4228 123.562 75.5208C123.438 75.6187 123.283 75.6714 123.125 75.6701Z" fill="#263238"/>
<path d="M122.184 78.9839H37.9043C37.8339 78.9902 37.763 78.9804 37.6969 78.9554C37.6309 78.9303 37.5715 78.8905 37.5233 78.8392C37.4751 78.7878 37.4393 78.7261 37.4187 78.6589C37.398 78.5917 37.3931 78.5207 37.4043 78.4513C37.4395 78.2975 37.5266 78.1602 37.6511 78.0622C37.7756 77.9643 37.93 77.9116 38.0888 77.9128H122.374C122.445 77.9063 122.517 77.9162 122.584 77.9416C122.65 77.967 122.71 78.0073 122.758 78.0594C122.807 78.1115 122.842 78.1739 122.862 78.2419C122.883 78.3098 122.887 78.3815 122.874 78.4513C122.836 78.6041 122.747 78.7396 122.622 78.8361C122.497 78.9327 122.342 78.9847 122.184 78.9839Z" fill="#263238"/>
<path d="M121.226 82.3036H36.9402C36.8697 82.3091 36.7989 82.2985 36.7331 82.2727C36.6673 82.2469 36.6084 82.2064 36.5607 82.1545C36.513 82.1025 36.478 82.0404 36.4581 81.9729C36.4383 81.9055 36.4342 81.8344 36.4462 81.7651C36.4846 81.6117 36.5734 81.4755 36.6984 81.378C36.8235 81.2804 36.9777 81.2271 37.1367 81.2266H121.428C121.499 81.2201 121.571 81.2299 121.637 81.2553C121.704 81.2807 121.764 81.321 121.812 81.3731C121.86 81.4252 121.896 81.4876 121.916 81.5556C121.936 81.6236 121.941 81.6952 121.928 81.7651C121.889 81.9204 121.799 82.0581 121.671 82.1558C121.544 82.2536 121.387 82.3057 121.226 82.3036Z" fill="#263238"/>
<path d="M78.571 85.6175H35.952C35.8814 85.6231 35.8106 85.6125 35.7448 85.5867C35.6791 85.5608 35.6201 85.5204 35.5724 85.4684C35.5248 85.4165 35.4897 85.3544 35.4698 85.2869C35.45 85.2194 35.4459 85.1483 35.4579 85.079C35.4984 84.9257 35.5886 84.7899 35.7144 84.6926C35.8403 84.5952 35.9949 84.5418 36.1543 84.5405H78.7674C78.8384 84.534 78.91 84.5439 78.9765 84.5693C79.043 84.5947 79.1028 84.635 79.1511 84.6871C79.1995 84.7392 79.2351 84.8016 79.2553 84.8696C79.2755 84.9375 79.2796 85.0092 79.2674 85.079C79.2269 85.2324 79.1368 85.3682 79.0109 85.4655C78.885 85.5628 78.7305 85.6162 78.571 85.6175Z" fill="#263238"/>
<path d="M132.184 41.0395H117.655C117.582 41.0437 117.51 41.0327 117.442 41.0072C117.374 40.9817 117.312 40.9423 117.26 40.8915C117.208 40.8408 117.168 40.7797 117.142 40.7124C117.115 40.6452 117.104 40.5731 117.107 40.501C117.133 40.3495 117.212 40.2123 117.332 40.1145C117.451 40.0167 117.601 39.9648 117.756 39.9684H132.292C132.364 39.9632 132.436 39.9733 132.503 39.9982C132.571 40.023 132.633 40.062 132.684 40.1124C132.735 40.1628 132.775 40.2236 132.801 40.2906C132.827 40.3577 132.838 40.4294 132.833 40.501C132.809 40.6535 132.73 40.7921 132.61 40.8911C132.491 40.9901 132.34 41.0428 132.184 41.0395Z" fill="#263238"/>
<path d="M118.91 90.1149H43.601C43.5303 90.1219 43.459 90.1123 43.3928 90.0869C43.3266 90.0615 43.2673 90.0209 43.2198 89.9685C43.1723 89.916 43.1379 89.8532 43.1193 89.7851C43.1007 89.717 43.0985 89.6455 43.1129 89.5764C43.1515 89.4221 43.2412 89.2851 43.3675 89.1875C43.4937 89.0898 43.6493 89.0371 43.8093 89.0379H119.119C119.189 89.0309 119.261 89.0404 119.327 89.0659C119.393 89.0913 119.452 89.1319 119.5 89.1843C119.547 89.2367 119.582 89.2996 119.601 89.3677C119.619 89.4358 119.621 89.5073 119.607 89.5764C119.567 89.7302 119.477 89.8666 119.351 89.9641C119.225 90.0616 119.07 90.1146 118.91 90.1149Z" fill="#263238"/>
<path d="M117.857 93.4288H33.5531C33.4825 93.4358 33.4112 93.4263 33.345 93.4008C33.2788 93.3754 33.2195 93.3348 33.172 93.2824C33.1245 93.2299 33.09 93.1671 33.0714 93.099C33.0529 93.0309 33.0507 92.9594 33.065 92.8903C33.1067 92.7365 33.198 92.6005 33.3248 92.5033C33.4517 92.406 33.6072 92.3528 33.7674 92.3518H118.053C118.124 92.3444 118.195 92.3539 118.261 92.3793C118.327 92.4048 118.386 92.4455 118.433 92.4981C118.48 92.5507 118.514 92.6137 118.532 92.6819C118.55 92.7501 118.551 92.8216 118.535 92.8903C118.495 93.0403 118.407 93.1735 118.285 93.2703C118.163 93.3672 118.013 93.4228 117.857 93.4288Z" fill="#263238"/>
<path d="M116.773 96.743H32.4875C32.4173 96.749 32.3467 96.7387 32.2813 96.7128C32.2158 96.687 32.1574 96.6463 32.1106 96.594C32.0637 96.5417 32.0299 96.4792 32.0116 96.4116C31.9933 96.344 31.9912 96.2731 32.0053 96.2045C32.049 96.0507 32.1417 95.9151 32.2694 95.8181C32.3971 95.721 32.5529 95.6676 32.7137 95.666H116.999C117.07 95.6586 117.141 95.6681 117.207 95.6935C117.273 95.719 117.332 95.7597 117.379 95.8123C117.426 95.8649 117.46 95.9279 117.478 95.9961C117.496 96.0643 117.497 96.1358 117.482 96.2045C117.438 96.3583 117.345 96.4939 117.217 96.5909C117.09 96.688 116.934 96.7414 116.773 96.743Z" fill="#263238"/>
<path d="M115.69 100.057H31.4046C31.3343 100.065 31.2631 100.055 31.1972 100.03C31.1312 100.004 31.0724 99.9636 31.0257 99.9107C30.979 99.8579 30.9457 99.7947 30.9288 99.7264C30.9119 99.6581 30.9118 99.5867 30.9284 99.5184C30.9733 99.3641 31.067 99.2284 31.1957 99.1313C31.3244 99.0343 31.4812 98.9812 31.6427 98.9799H115.922C115.992 98.9735 116.063 98.9837 116.128 99.0096C116.194 99.0355 116.252 99.0763 116.298 99.1288C116.345 99.1813 116.378 99.2439 116.395 99.3116C116.413 99.3793 116.414 99.4502 116.399 99.5184C116.356 99.6726 116.263 99.8088 116.136 99.906C116.008 100.003 115.851 100.056 115.69 100.057Z" fill="#263238"/>
<path d="M114.583 103.371H30.3031C30.2327 103.378 30.1616 103.369 30.0956 103.344C30.0296 103.318 29.9708 103.277 29.9241 103.225C29.8774 103.172 29.8442 103.108 29.8272 103.04C29.8103 102.972 29.8102 102.901 29.8269 102.832C29.8719 102.679 29.9659 102.544 30.0947 102.447C30.2235 102.351 30.3802 102.3 30.5411 102.3H114.827C114.896 102.292 114.967 102.301 115.032 102.326C115.097 102.351 115.156 102.392 115.202 102.444C115.248 102.496 115.281 102.559 115.297 102.626C115.314 102.694 115.314 102.765 115.297 102.832C115.253 102.987 115.16 103.123 115.031 103.22C114.902 103.318 114.745 103.37 114.583 103.371Z" fill="#263238"/>
<path d="M59.8803 106.685H29.166C29.0958 106.693 29.0247 106.684 28.9589 106.658C28.893 106.633 28.8344 106.592 28.788 106.539C28.7417 106.486 28.7091 106.422 28.693 106.354C28.677 106.286 28.6779 106.214 28.6958 106.146C28.7437 105.993 28.8392 105.859 28.9687 105.763C29.0981 105.668 29.2547 105.615 29.416 105.614H60.1184C60.188 105.606 60.2584 105.615 60.3236 105.64C60.3889 105.665 60.4471 105.706 60.4933 105.758C60.5395 105.81 60.5723 105.873 60.5889 105.941C60.6055 106.008 60.6054 106.079 60.5887 106.146C60.5449 106.3 60.4523 106.436 60.3246 106.533C60.1969 106.63 60.0411 106.683 59.8803 106.685Z" fill="#263238"/>
<g opacity="0.2">
<path d="M56.6847 133.249C56.9883 132.989 57.7502 132.403 58.2026 132.066C58.405 131.918 58.6609 131.9 58.7978 132.03C59.0538 132.344 59.3097 132.652 59.5597 132.965C59.5597 132.965 58.7145 133.906 58.4407 134.226C55.7026 137.451 54.0657 140.552 54.274 141.144C57.0716 140.86 75.3514 131.965 83.5359 126.74C81.7205 122.964 77.399 120.609 71.5121 120.875C63.1312 121.254 54.1312 127.071 50.2681 134.457C49.0139 136.714 48.3584 139.251 48.3633 141.83C50.8981 138.75 53.6811 135.88 56.6847 133.249Z" fill="black"/>
<path d="M51.25 148.44C53.256 150.292 56.2381 151.399 59.9881 151.399C69.3512 151.399 79.9702 144.582 83.3929 136.143C84.2676 134.111 84.6077 131.892 84.381 129.693C75.994 135.628 59.7083 145.369 51.25 148.44Z" fill="black"/>
<path d="M57.4462 133.841C57.476 133.841 45.1367 144.659 46.7795 147.955C48.5236 151.257 79.5712 132.729 87.2557 126.361C95.0474 120 87.2557 122.544 87.2557 122.544C87.2557 122.544 89.8986 122.681 87.9402 124.645C84.0176 128.657 55.7557 142.949 53.4878 142.179C51.22 141.41 57.4641 133.841 57.4462 133.841Z" fill="black"/>
</g>
<path d="M19.6843 147.203C15.3093 147.203 14.4343 145.511 14.476 144.061C14.6248 139.753 23.0772 132.38 31.8867 128.894C36.726 126.983 40.5831 126.864 41.72 128.592C42.6486 130.012 41.5058 132.374 38.5534 135.06C32.72 140.386 27.8986 141.57 25.7677 140.386C25.4678 140.236 25.2132 140.009 25.0296 139.729C24.4939 139.978 23.9046 140.238 23.2439 140.499C23.0772 140.57 22.9165 140.499 22.8748 140.392C22.8666 140.313 22.8858 140.234 22.9291 140.167C22.9723 140.1 23.0372 140.05 23.1129 140.025C23.7399 139.765 24.3054 139.516 24.8093 139.28C24.7542 138.981 24.7617 138.675 24.8314 138.379C24.901 138.084 25.0313 137.806 25.2141 137.563C25.585 137.021 26.08 136.575 26.6585 136.26C27.2369 135.945 27.8823 135.771 28.5415 135.753C29.101 135.753 29.4284 136.031 29.4105 136.421C29.3748 137.191 28.0415 138.238 25.607 139.439C25.7492 139.638 25.9369 139.8 26.1546 139.913C27.601 140.694 31.7915 140.505 38.1367 134.711C40.851 132.243 41.9343 130.125 41.1129 128.912C40.1248 127.403 36.4462 127.58 31.9641 129.35C23.3986 132.735 15.1843 139.806 15.0415 143.901C14.982 145.795 16.8272 146.742 20.3629 146.629C24.8986 146.481 29.6903 144.647 33.72 142.487C34.9939 140.067 38.7022 136.918 42.6486 135.031C43.4343 134.652 43.8867 134.563 44.095 134.753C44.3034 134.942 44.226 135.149 43.9998 135.498C43.1784 136.753 39.2796 139.996 34.2141 142.741C34.1486 142.883 34.0891 143.02 34.0415 143.156C33.8955 143.435 33.8455 143.754 33.8993 144.064C33.953 144.374 34.1075 144.658 34.3391 144.872C36.0177 146.257 42.1188 142.126 44.3034 140.416C44.3634 140.366 44.4393 140.338 44.5177 140.338C44.596 140.338 44.6719 140.366 44.7319 140.416C44.8272 140.51 44.7855 140.682 44.6427 140.789C44.3153 141.055 36.22 147.298 33.851 145.322C33.2558 144.836 33.1308 144.091 33.4522 143.168C29.3629 145.298 24.6189 147.05 20.232 147.186L19.6843 147.203ZM43.595 135.226C43.3378 135.292 43.0899 135.389 42.8569 135.516C39.4581 137.149 36.1427 139.842 34.6843 142.025C37.2167 140.608 39.6083 138.956 41.8272 137.09C42.5131 136.567 43.1101 135.938 43.595 135.226ZM28.3093 136.315C27.8019 136.348 27.3087 136.496 26.8673 136.748C26.426 136.999 26.0479 137.347 25.7617 137.765C25.4916 138.124 25.376 138.575 25.4403 139.019C28.0236 137.747 28.8093 136.907 28.8212 136.569C28.8212 136.362 28.5177 136.321 28.3808 136.315H28.3093Z" fill="url(#paint5_linear_572_9139)"/>
<defs>
<linearGradient id="paint0_linear_572_9139" x1="146.621" y1="5.02369" x2="16.0391" y2="12.3177" gradientUnits="userSpaceOnUse">
<stop offset="0.0677083" stop-color="#007DB7"/>
<stop offset="1" stop-color="#00A4EF"/>
</linearGradient>
<linearGradient id="paint1_linear_572_9139" x1="110.931" y1="6.62207" x2="101.174" y2="21.7244" gradientUnits="userSpaceOnUse">
<stop offset="0.0677083" stop-color="#007DB7"/>
<stop offset="1" stop-color="#00A4EF"/>
</linearGradient>
<linearGradient id="paint2_linear_572_9139" x1="62.1548" y1="15.1709" x2="52.1704" y2="15.9745" gradientUnits="userSpaceOnUse">
<stop offset="0.0677083" stop-color="#007DB7"/>
<stop offset="1" stop-color="#00A4EF"/>
</linearGradient>
<linearGradient id="paint3_linear_572_9139" x1="60.8047" y1="14.9934" x2="50.9102" y2="15.8106" gradientUnits="userSpaceOnUse">
<stop offset="0.0677083" stop-color="#007DB7"/>
<stop offset="1" stop-color="#00A4EF"/>
</linearGradient>
<linearGradient id="paint4_linear_572_9139" x1="60.6247" y1="14.6936" x2="50.6525" y2="15.5824" gradientUnits="userSpaceOnUse">
<stop offset="0.0677083" stop-color="#007DB7"/>
<stop offset="1" stop-color="#00A4EF"/>
</linearGradient>
<linearGradient id="paint5_linear_572_9139" x1="44.0226" y1="127.374" x2="12.5343" y2="131.189" gradientUnits="userSpaceOnUse">
<stop offset="0.0677083" stop-color="#007DB7"/>
<stop offset="1" stop-color="#00A4EF"/>
</linearGradient>
</defs>
</svg>
