<svg width="295" height="179" viewBox="0 0 295 179" fill="none" xmlns="http://www.w3.org/2000/svg">
<path d="M97.8551 136.446H127.995V168.696H97.8551V136.446Z" fill="white" stroke="#B2B2B2" stroke-linecap="round" stroke-linejoin="round"/>
<path d="M122.886 136.446H125.625V148.177H122.886V136.446Z" fill="#B2B2B2" stroke="#B2B2B2" stroke-miterlimit="10"/>
<path d="M67.7398 136.446H97.8799V168.696H67.7398V136.446Z" fill="white" stroke="#B2B2B2" stroke-linecap="round" stroke-linejoin="round"/>
<path d="M92.7719 136.446H95.5107V148.177H92.7719V136.446Z" fill="#B2B2B2" stroke="#B2B2B2" stroke-miterlimit="10"/>
<path d="M97.8551 103.986H127.995V136.236H97.8551V103.986Z" fill="white" stroke="#B2B2B2" stroke-linecap="round" stroke-linejoin="round"/>
<path d="M122.886 103.986H125.625V115.718H122.886V103.986Z" fill="#B2B2B2" stroke="#B2B2B2" stroke-miterlimit="10"/>
<path d="M67.7398 103.986H97.8799V136.236H67.7398V103.986Z" fill="white" stroke="#B2B2B2" stroke-linecap="round" stroke-linejoin="round"/>
<path d="M92.7719 103.986H95.5107V115.718H92.7719V103.986Z" fill="#B2B2B2" stroke="#B2B2B2" stroke-miterlimit="10"/>
<path d="M64.6185 172.697H129.147V174.236H64.6185V172.697Z" fill="white" stroke="#B2B2B2" stroke-linecap="round" stroke-linejoin="round"/>
<path d="M64.6185 167.11H129.147V168.65H64.6185V167.11Z" fill="white" stroke="#B2B2B2" stroke-linecap="round" stroke-linejoin="round"/>
<path d="M122.987 168.696H127.995V172.605H122.987V168.696Z" fill="white" stroke="#B2B2B2" stroke-linecap="round" stroke-linejoin="round"/>
<path d="M95.2079 168.696H100.216V172.605H95.2079V168.696Z" fill="white" stroke="#B2B2B2" stroke-linecap="round" stroke-linejoin="round"/>
<path d="M67.4296 168.696H72.4375V172.605H67.4296V168.696Z" fill="white" stroke="#B2B2B2" stroke-linecap="round" stroke-linejoin="round"/>
<path d="M163.705 136.446H193.845V168.696H163.705V136.446Z" fill="white" stroke="#B2B2B2" stroke-linecap="round" stroke-linejoin="round"/>
<path d="M188.736 136.446H191.475V148.177H188.736V136.446Z" fill="#B2B2B2" stroke="#B2B2B2" stroke-miterlimit="10"/>
<path d="M133.589 136.446H163.729V168.696H133.589V136.446Z" fill="white" stroke="#B2B2B2" stroke-linecap="round" stroke-linejoin="round"/>
<path d="M158.621 136.446H161.36V148.177H158.621V136.446Z" fill="#B2B2B2" stroke="#B2B2B2" stroke-miterlimit="10"/>
<path d="M163.705 103.986H193.845V136.236H163.705V103.986Z" fill="white" stroke="#B2B2B2" stroke-linecap="round" stroke-linejoin="round"/>
<path d="M188.736 103.986H191.475V115.718H188.736V103.986Z" fill="#B2B2B2" stroke="#B2B2B2" stroke-miterlimit="10"/>
<path d="M133.589 103.986H163.729V136.236H133.589V103.986Z" fill="white" stroke="#B2B2B2" stroke-linecap="round" stroke-linejoin="round"/>
<path d="M158.621 103.986H161.36V115.718H158.621V103.986Z" fill="#B2B2B2" stroke="#B2B2B2" stroke-miterlimit="10"/>
<path d="M130.47 172.697H194.999V174.236H130.47V172.697Z" fill="white" stroke="#B2B2B2" stroke-linecap="round" stroke-linejoin="round"/>
<path d="M130.47 167.11H194.999V168.65H130.47V167.11Z" fill="white" stroke="#B2B2B2" stroke-linecap="round" stroke-linejoin="round"/>
<path d="M188.837 168.696H193.845V172.605H188.837V168.696Z" fill="white" stroke="#B2B2B2" stroke-linecap="round" stroke-linejoin="round"/>
<path d="M161.058 168.696H166.066V172.605H161.058V168.696Z" fill="white" stroke="#B2B2B2" stroke-linecap="round" stroke-linejoin="round"/>
<path d="M133.279 168.696H138.287V172.605H133.279V168.696Z" fill="white" stroke="#B2B2B2" stroke-linecap="round" stroke-linejoin="round"/>
<path d="M229.555 136.446H259.695V168.696H229.555V136.446Z" fill="white" stroke="#B2B2B2" stroke-linecap="round" stroke-linejoin="round"/>
<path d="M254.586 136.446H257.325V148.177H254.586V136.446Z" fill="#B2B2B2" stroke="#B2B2B2" stroke-miterlimit="10"/>
<path d="M199.44 136.446H229.58V168.696H199.44V136.446Z" fill="white" stroke="#B2B2B2" stroke-linecap="round" stroke-linejoin="round"/>
<path d="M224.472 136.446H227.211V148.177H224.472V136.446Z" fill="#B2B2B2" stroke="#B2B2B2" stroke-miterlimit="10"/>
<path d="M229.555 103.986H259.695V136.236H229.555V103.986Z" fill="white" stroke="#B2B2B2" stroke-linecap="round" stroke-linejoin="round"/>
<path d="M254.586 103.986H257.325V115.718H254.586V103.986Z" fill="#B2B2B2" stroke="#B2B2B2" stroke-miterlimit="10"/>
<path d="M199.44 103.986H229.58V136.236H199.44V103.986Z" fill="white" stroke="#B2B2B2" stroke-linecap="round" stroke-linejoin="round"/>
<path d="M224.472 103.986H227.211V115.718H224.472V103.986Z" fill="#B2B2B2" stroke="#B2B2B2" stroke-miterlimit="10"/>
<path d="M229.555 72.1101H259.695V104.36H229.555V72.1101Z" fill="white" stroke="#B2B2B2" stroke-linecap="round" stroke-linejoin="round"/>
<path d="M254.586 72.1101H257.325V83.8415H254.586V72.1101Z" fill="#B2B2B2" stroke="#B2B2B2" stroke-miterlimit="10"/>
<path d="M199.44 72.1101H229.58V104.36H199.44V72.1101Z" fill="white" stroke="#B2B2B2" stroke-linecap="round" stroke-linejoin="round"/>
<path d="M224.472 72.1101H227.211V83.8415H224.472V72.1101Z" fill="#B2B2B2" stroke="#B2B2B2" stroke-miterlimit="10"/>
<path d="M196.32 172.697H260.849V174.236H196.32V172.697Z" fill="white" stroke="#B2B2B2" stroke-linecap="round" stroke-linejoin="round"/>
<path d="M196.32 167.11H260.849V168.65H196.32V167.11Z" fill="white" stroke="#B2B2B2" stroke-linecap="round" stroke-linejoin="round"/>
<path d="M254.687 168.696H259.695V172.605H254.687V168.696Z" fill="white" stroke="#B2B2B2" stroke-linecap="round" stroke-linejoin="round"/>
<path d="M226.909 168.696H231.917V172.605H226.909V168.696Z" fill="white" stroke="#B2B2B2" stroke-linecap="round" stroke-linejoin="round"/>
<path d="M199.13 168.696H204.138V172.605H199.13V168.696Z" fill="white" stroke="#B2B2B2" stroke-linecap="round" stroke-linejoin="round"/>
<path d="M201.797 45.5852H210.399V169.174H201.797V45.5852Z" fill="#263238" stroke="#263238" stroke-linecap="round" stroke-linejoin="round"/>
<path d="M197.623 71.636H203.017C204.294 71.636 205.519 72.1433 206.422 73.0463C207.325 73.9493 207.832 75.174 207.832 76.451V80.1084C207.837 80.4728 207.747 80.8322 207.57 81.1511C207.394 81.47 207.138 81.7375 206.826 81.9272C206.515 82.1169 206.16 82.2222 205.796 82.2327C205.431 82.2433 205.071 82.1588 204.749 81.9875L195.522 77.2228V72.2148L197.623 71.636Z" fill="#424242" stroke="#263238" stroke-linecap="round" stroke-linejoin="round"/>
<path d="M197.623 139.843H203.017C204.294 139.843 205.519 140.35 206.422 141.253C207.325 142.156 207.832 143.381 207.832 144.658V148.315C207.837 148.68 207.747 149.039 207.57 149.358C207.394 149.677 207.138 149.945 206.826 150.134C206.515 150.324 206.16 150.429 205.796 150.44C205.431 150.45 205.071 150.366 204.749 150.194L195.522 145.43V140.401L197.623 139.843Z" fill="#424242" stroke="#263238" stroke-linecap="round" stroke-linejoin="round"/>
<path d="M209.761 42.3555H213.611V69.7063H209.761V42.3555Z" fill="#424242" stroke="#263238" stroke-linecap="round" stroke-linejoin="round"/>
<path d="M141.533 121.975H171.271V135.603H141.533V121.975Z" fill="#263238" stroke="#263238" stroke-linecap="round" stroke-linejoin="round"/>
<path d="M196.06 145.715L183.229 79.3996C182.502 75.6373 180.529 72.2296 177.627 69.7268C174.725 67.2239 171.065 65.7717 167.237 65.6046L138.019 64.3464C136.591 64.2853 135.195 64.7797 134.123 65.726C133.052 66.6722 132.389 67.9967 132.273 69.4214L127.24 132.168" stroke="#263238" stroke-width="11" stroke-miterlimit="10"/>
<path d="M173.112 147.267L203.814 142.771V157.438L171.158 149.419L173.112 147.267Z" fill="#263238" stroke="#263238" stroke-miterlimit="10"/>
<path d="M175.322 113.969L179.613 111.494L181.849 112.58L185.485 109.854L186.919 112.199L185.485 113.763L186.919 114.417L186.139 116.095C186.139 116.095 189.398 118.31 190.178 124.307L193.567 124.177V136.068L189.26 134.101L187.695 133.841C187.695 133.841 179.349 125.239 177.394 121.065C175.44 116.892 175.322 113.969 175.322 113.969Z" fill="#263238" stroke="#263238" stroke-miterlimit="10"/>
<path d="M166.41 102.858L167.668 103.412L176.711 102.573C176.711 102.573 179.077 101.184 180.465 101.734C181.31 102.076 182.07 102.598 182.692 103.265C182.692 103.265 182.692 105.907 181.996 106.046C181.3 106.184 180.05 105.769 180.05 105.769L179.354 105.073C179.354 105.073 170.453 107.438 169.199 107.715C167.945 107.992 164.334 106.457 164.334 106.457L166.41 102.858Z" fill="white" stroke="#263238" stroke-linecap="round" stroke-linejoin="round"/>
<path d="M180.453 101.742C181.297 102.085 182.058 102.607 182.68 103.273C182.68 103.273 182.68 105.916 181.983 106.054C181.287 106.193 180.037 105.777 180.037 105.777L179.341 105.081L176.728 105.773C176.413 105.435 176.225 104.997 176.195 104.536C176.245 103.88 176.356 103.229 176.527 102.594H176.699C176.699 102.594 179.068 101.189 180.453 101.742Z" fill="#008CCC" stroke="#263238" stroke-linecap="round" stroke-linejoin="round"/>
<path d="M179.274 102.556L180.091 102.695C180.091 102.695 181.32 104.062 181.32 104.536C181.32 105.01 180.57 105.287 180.297 105.153C179.995 104.954 179.714 104.724 179.458 104.469C179.121 104.708 178.714 104.829 178.3 104.813C177.824 104.804 177.357 104.686 176.933 104.469" stroke="#263238" stroke-miterlimit="10"/>
<path d="M159.732 96.0422L167.383 102.162L164.325 106.473L159.732 103.135V96.0422Z" fill="white" stroke="#263238" stroke-linecap="round" stroke-linejoin="round"/>
<path d="M167.383 102.162L164.74 107.723L163.071 106.054L165.437 100.492L167.383 102.162Z" fill="white" stroke="#263238" stroke-linecap="round" stroke-linejoin="round"/>
<path d="M159.593 91.6086L161.539 100.509C161.539 100.509 160.7 107.878 160.7 109.271C160.7 110.663 161.397 113.721 161.397 113.721L161.678 114.694C161.678 114.694 161.678 119.979 159.451 120.537C157.223 121.094 155 121.648 152.22 121.648C149.439 121.648 147.212 120.39 146.1 118.452C144.989 116.514 144.985 112.328 144.985 110.802C144.985 109.275 147.35 97.3087 147.77 94.251C148.189 91.1934 152.22 88.8236 153.054 88.5468C153.889 88.27 159.593 91.6086 159.593 91.6086Z" fill="white" stroke="#263238" stroke-linecap="round" stroke-linejoin="round"/>
<path d="M163.222 78.7283L163.994 80.4353C163.994 80.4353 166.062 81.9495 165.584 82.3479C165.31 82.5707 165.052 82.8117 164.812 83.0693C164.812 83.0693 165.596 86.4793 165.311 86.7813C165.003 87.0615 164.618 87.2423 164.205 87.2999C163.793 87.3575 163.373 87.2893 163 87.1042C162.751 87.0192 162.484 86.9988 162.225 87.045C161.966 87.0912 161.723 87.2026 161.519 87.3685L159.485 91.2272L153.227 87.4524L154.066 84.2605L152.514 81.9117L163.222 78.7283Z" fill="white" stroke="#263238" stroke-linecap="round" stroke-linejoin="round"/>
<path d="M154.075 84.2561L152.523 81.9074L161.109 79.4453C161.319 79.8186 161.688 80.5694 161.373 80.7707C161.05 81.0035 160.767 81.2868 160.534 81.6096C160.534 81.6096 160.639 82.4107 160.073 82.3184C159.507 82.2261 158.638 81.0811 157.741 81.748C156.843 82.4149 156.814 83.1656 157.468 83.757C157.86 84.1112 158.272 84.4431 158.701 84.7511C158.701 84.7511 155.212 87.3935 154.088 87.2005L153.433 87.0873L154.075 84.2561Z" fill="#263238" stroke="#263238" stroke-linecap="round" stroke-linejoin="round"/>
<path d="M164.175 78.0906L166.465 78.4303C166.465 78.4303 161.117 80.5275 159.574 80.5065C158.03 80.4855 152.024 83.6145 152.024 83.6145C152.024 83.6145 149.474 79.8396 151.391 76.4842C153.307 73.1288 156.638 72.248 159.133 73.1288C161.629 74.0096 162.925 74.8862 164.175 78.0906Z" fill="white" stroke="#263238" stroke-linecap="round" stroke-linejoin="round"/>
<path d="M153.474 86.0264L160.986 90.6149L160.705 92.9805L152.363 88.1151L153.474 86.0264Z" fill="white" stroke="#263238" stroke-linecap="round" stroke-linejoin="round"/>
<path d="M184.063 137.62C184.063 137.62 188.496 140.099 189.28 140.359C190.065 140.619 195.152 141.923 195.014 142.838C194.875 143.752 194.494 144.008 192.409 144.516C190.325 145.023 181.588 145.95 180.414 145.82C179.239 145.69 180.544 138.648 180.544 138.648L184.063 137.62Z" fill="#263238" stroke="#263238" stroke-linecap="round" stroke-linejoin="round"/>
<path d="M192.411 144.532C190.314 145.052 181.59 145.967 180.415 145.837C179.996 145.791 179.895 144.86 179.937 143.689C186.958 144.688 192.272 143.379 194.848 142.49C194.901 142.53 194.945 142.583 194.974 142.643C195.003 142.704 195.017 142.771 195.015 142.838C194.885 143.748 194.495 144.008 192.411 144.532Z" fill="white" stroke="#263238" stroke-linecap="round" stroke-linejoin="round"/>
<path d="M150.823 117.156C150.823 117.156 156.427 114.677 156.964 114.287C157.5 113.897 173.653 115.198 175.087 116.242C176.521 117.286 187.473 136.45 187.473 136.45L180.43 141.013L169.462 124.324C169.462 124.324 165.293 124.194 164.249 123.804C163.205 123.414 157.077 122.37 157.077 122.37C157.077 122.37 150.429 123.28 148.604 122.5C146.78 121.72 148.864 118.457 148.864 118.457" fill="#008CCC"/>
<path d="M150.823 117.156C150.823 117.156 156.427 114.677 156.964 114.287C157.5 113.897 173.653 115.198 175.087 116.242C176.521 117.286 187.473 136.45 187.473 136.45L180.43 141.013L169.462 124.324C169.462 124.324 165.293 124.194 164.249 123.804C163.205 123.414 157.077 122.37 157.077 122.37C157.077 122.37 150.429 123.28 148.604 122.5C146.78 121.72 148.864 118.457 148.864 118.457" stroke="#263238" stroke-linecap="round" stroke-linejoin="round"/>
<path d="M169.723 123.934L173.112 119.891L169.333 122.63" stroke="#263238" stroke-miterlimit="10"/>
<path d="M166.418 126.027H141.29V118.645C141.29 118.645 142.364 117.337 144.625 118.167C146.885 118.998 148.555 121.98 148.555 121.98C148.555 121.98 165.109 119.123 166.418 126.027Z" fill="#263238" stroke="#263238" stroke-linecap="round" stroke-linejoin="round"/>
<path d="M141.529 121.502H138.195L132.478 105.425L135.099 104.712L141.529 121.502Z" fill="#263238" stroke="#263238" stroke-linecap="round" stroke-linejoin="round"/>
<path d="M135.1 104.712L139.743 117.337L143.736 115.701C144.169 115.524 144.562 115.259 144.888 114.922C145.214 114.586 145.467 114.185 145.63 113.746C145.793 113.307 145.863 112.838 145.836 112.371C145.809 111.903 145.685 111.446 145.472 111.028C144.063 108.273 141.81 104.552 139.269 102.925C134.982 100.186 134.735 102.808 135.1 104.712Z" fill="#263238" stroke="#263238" stroke-linecap="round" stroke-linejoin="round"/>
<path d="M174.286 132.214L175.071 148.836L189.428 151.352C186.749 153.128 184.782 155.793 183.873 158.876C182.965 161.959 183.173 165.264 184.462 168.209H124.781C124.064 168.209 123.376 167.924 122.868 167.417C122.361 166.909 122.076 166.221 122.076 165.504V129.546C122.075 128.934 122.304 128.343 122.718 127.892C123.132 127.44 123.701 127.161 124.312 127.109C132.251 126.422 159.376 124.744 174.286 132.214Z" fill="#008CCC" stroke="#263238" stroke-linecap="round" stroke-linejoin="round"/>
<path d="M189.263 171.275C184.538 167.017 184.159 159.734 188.417 155.009C192.675 150.283 199.957 149.904 204.683 154.162C209.408 158.42 209.788 165.702 205.53 170.428C201.272 175.154 193.989 175.533 189.263 171.275Z" fill="#263238" stroke="#263238" stroke-linecap="round" stroke-linejoin="round"/>
<path d="M193.38 166.715C191.182 164.728 191.012 161.335 192.999 159.138C194.986 156.94 198.378 156.77 200.576 158.757C202.773 160.744 202.944 164.136 200.957 166.334C198.97 168.531 195.577 168.702 193.38 166.715Z" fill="white" stroke="#263238" stroke-linecap="round" stroke-linejoin="round"/>
<path d="M124.215 172.449C121.832 170.066 121.832 166.202 124.215 163.819C126.599 161.436 130.463 161.436 132.846 163.819C135.229 166.202 135.229 170.066 132.846 172.449C130.463 174.833 126.599 174.833 124.215 172.449Z" fill="#263238" stroke="#263238" stroke-linecap="round" stroke-linejoin="round"/>
<path d="M125.691 168.134C125.691 167.571 125.858 167.021 126.171 166.553C126.484 166.086 126.928 165.721 127.448 165.506C127.968 165.291 128.54 165.235 129.092 165.345C129.643 165.455 130.15 165.726 130.547 166.124C130.945 166.523 131.216 167.03 131.325 167.582C131.434 168.133 131.377 168.705 131.161 169.225C130.945 169.744 130.58 170.188 130.112 170.5C129.644 170.812 129.094 170.978 128.531 170.977C128.158 170.977 127.788 170.904 127.443 170.761C127.099 170.618 126.785 170.408 126.522 170.144C126.258 169.88 126.049 169.567 125.906 169.222C125.764 168.877 125.691 168.507 125.691 168.134Z" fill="white" stroke="#263238" stroke-linecap="round" stroke-linejoin="round"/>
<path d="M204.716 152.4C202.527 150.756 199.871 149.851 197.133 149.816C194.395 149.781 191.717 150.618 189.486 152.206C187.255 153.794 185.588 156.051 184.724 158.649C183.861 161.248 183.847 164.054 184.684 166.661H183.846C183.016 163.901 183.08 160.95 184.027 158.228C184.973 155.506 186.755 153.152 189.118 151.502C191.481 149.853 194.304 148.991 197.186 149.04C200.067 149.089 202.86 150.046 205.165 151.775L204.716 152.4Z" fill="#008CCC" stroke="#263238" stroke-linecap="round" stroke-linejoin="round"/>
<path d="M175.07 148.836C175.07 148.836 143.529 144.163 141.143 143.802C138.756 143.442 131.722 140.913 129.084 126.845" stroke="#263238" stroke-linecap="round" stroke-linejoin="round"/>
<path d="M247.422 33.4595H277.562V65.7093H247.422V33.4595Z" fill="#008CCC" stroke="#263238" stroke-linecap="round" stroke-linejoin="round"/>
<path d="M272.454 33.4595H275.193V45.1909H272.454V33.4595Z" fill="#263238"/>
<path d="M217.306 33.4595H247.446V65.7093H217.306V33.4595Z" fill="#008CCC" stroke="#263238" stroke-linecap="round" stroke-linejoin="round"/>
<path d="M242.338 33.4595H245.077V45.1909H242.338V33.4595Z" fill="#263238"/>
<path d="M247.422 1H277.562V33.2498H247.422V1Z" fill="#008CCC" stroke="#263238" stroke-linecap="round" stroke-linejoin="round"/>
<path d="M272.454 1H275.193V12.7314H272.454V1Z" fill="#263238"/>
<path d="M217.306 1H247.446V33.2498H217.306V1Z" fill="#008CCC" stroke="#263238" stroke-linecap="round" stroke-linejoin="round"/>
<path d="M242.338 1H245.077V12.7314H242.338V1Z" fill="#263238"/>
<path d="M214.191 69.7107H278.72V71.25H214.191V69.7107Z" fill="white" stroke="#263238" stroke-linecap="round" stroke-linejoin="round"/>
<path d="M214.191 64.1243H278.72V65.6636H214.191V64.1243Z" fill="white" stroke="#263238" stroke-linecap="round" stroke-linejoin="round"/>
<path d="M272.555 65.7095H277.562V69.6185H272.555V65.7095Z" fill="white" stroke="#263238" stroke-linecap="round" stroke-linejoin="round"/>
<path d="M244.775 65.7095H249.783V69.6185H244.775V65.7095Z" fill="white" stroke="#263238" stroke-linecap="round" stroke-linejoin="round"/>
<path d="M217.001 65.7095H222.009V69.6185H217.001V65.7095Z" fill="white" stroke="#263238" stroke-linecap="round" stroke-linejoin="round"/>
<path d="M162.656 106.888C162.656 106.888 170.025 109.405 171.137 109.824C171.431 109.908 171.705 110.05 171.944 110.241C172.183 110.431 172.382 110.668 172.529 110.936C172.529 110.936 173.502 113.301 172.668 113.717C171.833 114.132 169.732 113.855 169.732 113.855C169.732 113.855 168.473 114.136 168.201 113.578C167.982 112.949 167.841 112.296 167.781 111.632C167.781 111.632 161.381 111.213 159.993 111.074C159.067 110.943 158.196 110.559 157.476 109.963L162.656 106.888Z" fill="white" stroke="#263238" stroke-linecap="round" stroke-linejoin="round"/>
<path d="M168.217 113.566C167.996 112.941 167.855 112.289 167.797 111.629C168.608 111.554 169.374 111.222 169.982 110.681C170.486 110.236 170.515 109.842 170.402 109.544C170.737 109.661 171.002 109.754 171.148 109.812C171.443 109.896 171.717 110.038 171.956 110.229C172.195 110.419 172.394 110.656 172.541 110.924C172.541 110.924 173.514 113.289 172.679 113.705C171.845 114.12 169.743 113.843 169.743 113.843C169.743 113.843 168.493 114.124 168.217 113.566Z" fill="#008CCC" stroke="#263238" stroke-linecap="round" stroke-linejoin="round"/>
<path d="M156.546 92.0283C156.546 92.0283 158.072 93.8361 158.492 95.3837C158.911 96.9314 160.023 102.476 160.023 102.476L161.134 104.573L162.665 106.935C162.486 107.602 162.134 108.21 161.645 108.698C161.156 109.187 160.548 109.537 159.88 109.716C157.519 110.412 156.944 110.693 156.403 110.135C155.862 109.577 153.467 105.404 152.926 103.458C152.385 101.512 150.145 96.0884 150.145 96.0884" fill="white"/>
<path d="M156.546 92.0283C156.546 92.0283 158.072 93.8361 158.492 95.3837C158.911 96.9314 160.023 102.476 160.023 102.476L161.134 104.573L162.665 106.935C162.486 107.602 162.134 108.21 161.645 108.698C161.156 109.187 160.548 109.537 159.88 109.716C157.519 110.412 156.944 110.693 156.403 110.135C155.862 109.577 153.467 105.404 152.926 103.458C152.385 101.512 150.145 96.0884 150.145 96.0884" stroke="#263238" stroke-linecap="round" stroke-linejoin="round"/>
<path d="M161.125 104.527L164.325 106.473C164.026 107.474 163.555 108.415 162.933 109.254C161.96 110.512 160.416 111.062 159.997 111.062H158.046L155.823 109.803C155.823 109.803 158.881 109.384 159.854 107.287C160.827 105.19 161.125 104.527 161.125 104.527Z" fill="white" stroke="#263238" stroke-linecap="round" stroke-linejoin="round"/>
<path d="M180.675 107.505L179.11 111.678L174.941 113.633L173.507 111.158L180.675 107.505Z" fill="#263238" stroke="#263238" stroke-miterlimit="10"/>
<path d="M169.052 114.208C169.178 114.207 169.303 114.177 169.416 114.12L183.606 106.608C183.778 106.505 183.905 106.339 183.959 106.145C184.013 105.951 183.991 105.744 183.897 105.567C183.803 105.389 183.644 105.254 183.453 105.19C183.262 105.126 183.054 105.138 182.872 105.224L168.687 112.735C168.531 112.816 168.408 112.947 168.336 113.107C168.264 113.266 168.247 113.445 168.289 113.615C168.332 113.785 168.43 113.936 168.568 114.043C168.706 114.151 168.876 114.209 169.052 114.208Z" fill="#263238"/>
<path d="M279.438 174.236H1.0005" stroke="#263238" stroke-linecap="round" stroke-linejoin="round"/>
<path d="M294.117 174.236H282.373" stroke="#263238" stroke-linecap="round" stroke-linejoin="round"/>
</svg>
