<svg xmlns="http://www.w3.org/2000/svg"><symbol id="stocks-close" viewBox="0 0 17 17" fill="none"><path d="M12.75 4.25l-8.5 8.5m0-8.5l8.5 8.5" stroke="var(--main-color)" stroke-linecap="round" stroke-linejoin="round"/></symbol><symbol id="stocks-more" viewBox="0 0 17 18" fill="none"><path d="M6.375 13.25L10.625 9l-4.25-4.25" stroke="var(--main-color)" stroke-linecap="round" stroke-linejoin="round"/></symbol><symbol id="catalog-icon" viewBox="0 0 20 20" fill="none"><path d="M6.667 5H17.5M6.667 10H17.5M6.667 15H17.5M2.5 5h.009M2.5 10h.009M2.5 15h.009" stroke="var(--main-color)" stroke-linecap="round" stroke-linejoin="round"/></symbol><symbol id="info-1" viewBox="0 0 26 26" fill="none"><path d="M5.308 3.818l.003.597c.04 5.58 2.542 11.171 7.485 15.948l.33.32.33-.32c4.914-4.766 7.464-10.36 7.508-15.948l.005-.595-.582.128c-4.076.9-10.423.91-14.497 0l-.582-.13zM7.03 5.467l.58.13c3.096.692 7.956.684 11.055 0l.582-.129-.004.595c-.034 4.313-2.004 8.626-5.785 12.293l-.328.319-.33-.32C8.996 14.682 7.064 10.37 7.033 6.064l-.003-.596zm11.243 1.166c-3.068.571-7.2.579-10.27.002.182 3.712 1.866 7.426 5.125 10.707 3.242-3.276 4.958-6.996 5.145-10.709zM.996 13.565l5.25 8.447.909-2.606 4.885 4.477-5.25-8.447-.91 2.605-4.884-4.476zm23.894 0l-4.886 4.477-.908-2.606-5.25 8.447 4.884-4.477.91 2.606 5.25-8.447z" fill="#3DB7EF"/></symbol><symbol id="info-2" viewBox="0 0 25 25" fill="none"><path d="M8.957 17.567a1.823 1.823 0 001.98-.567v5.408l-6.25-2.356v-3.908l4.27 1.423z" fill="#3DB7EF"/><path fill-rule="evenodd" clip-rule="evenodd" d="M18.229 20.052l-6.25 2.356V17a1.822 1.822 0 001.98.567l4.27-1.423v3.908zm-1.92-1.068a.521.521 0 00-.328-.989l-2.344.782a.52.52 0 10.33.988l2.343-.781zM11.63 8.362a.52.52 0 00-.341 0l-6.77 2.344-.012.003a.519.519 0 00-.23.17l-2.079 2.598a.52.52 0 00.242.82l7.03 2.343a.52.52 0 00.591-.196l1.397-1.994 1.396 1.994a.52.52 0 00.591.196l7.032-2.344a.522.522 0 00.242-.82L18.64 10.88a.518.518 0 00-.243-.174l-6.77-2.343zm-.171 4.629l5.179-1.793-5.18-1.793-5.178 1.793 5.179 1.793z" fill="#3DB7EF"/><path d="M4.298 5.467a1.567 1.567 0 001.923.793 1.567 1.567 0 00-.793 1.923 1.567 1.567 0 00-1.923-.793 1.567 1.567 0 00.793-1.923zm15.487.067c-.424.9-.11 1.975.733 2.503a1.965 1.965 0 00-2.503.734c.425-.9.11-1.975-.733-2.503.9.424 1.975.11 2.503-.734zm-6.707-3.036a2.413 2.413 0 001.662 2.737 2.413 2.413 0 00-2.737 1.662 2.413 2.413 0 00-1.662-2.737 2.413 2.413 0 002.737-1.662z" fill="#3DB7EF"/></symbol><symbol id="info-3" viewBox="0 0 26 26" fill="none"><path d="M3 22.932a9.19 9.19 0 002.957-.784L5.68 23l2.44-2.266-.075.034a7.753 7.753 0 001.763-2.387c-.799.544-1.767.867-2.937.885.015-1.116.363-2.024.936-2.78-.06.024-.118.05-.177.077l.027-.029-3.674 1.383 1.435.101C4.077 19.262 3.208 20.951 3 22.932zm1.34-9.509l4.38 1.541c.319 1.231 1.366 2.191 2.685 2.446l-.009.008 1.677 4.278 3.151-2.984-.34-3.734-.002-.015-.104-.925-4.026 3.105-.563-.534 4.654-3.59.567-.436.078.687.128 1.133a18.581 18.581 0 002.032-1.896c-2.408-.306-4.327-2.095-4.695-4.361a18.305 18.305 0 00-1.98 1.917l1.108.112.726.074-.46.537-3.733 4.331-.562-.532 3.219-3.738-.884-.089-3.898-.317-3.15 2.982zm10.347-5.86c.017.346.076.69.177 1.022l.716-.557a4.453 4.453 0 01-.224-.942c-.226.155-.45.313-.669.478zm.477 1.759c.152.292.338.568.554.823l.733-.633a4.699 4.699 0 01-.543-.768l-.744.578zm.952-2.73c.004.31.047.62.128.921l.75-.582a3.868 3.868 0 01-.156-.761 18.9 18.9 0 00-.722.421zm.15 4.096a4.68 4.68 0 001.074.676l.599-.695a4.997 4.997 0 01-.937-.617l-.737.636zm.266-2.428c.137.268.308.518.503.748l.758-.654a4.097 4.097 0 01-.486-.695l-.775.601zm1.057 1.285c.262.21.551.389.86.532l.622-.722a4.359 4.359 0 01-.72-.466l-.762.656zm.01-3.778h.009c0 1.843 1.568 3.33 3.513 3.335A17.23 17.23 0 0023 4a19.543 19.543 0 00-5.402 1.767zm.523 5.876c.372.097.756.15 1.142.16.164-.2.325-.4.48-.606a5.164 5.164 0 01-1.051-.218l-.572.664zm1.113-1.291c.337.082.684.123 1.033.124.145-.212.286-.427.421-.645a4.514 4.514 0 01-.86-.17l-.595.69z" fill="#3DB7EF"/></symbol><symbol id="about-video-play" viewBox="0 0 239 240" fill="none"><g filter="url(#filter0_b_369_16931)"><circle cx="118" cy="120.001" r="48" fill="#fff" fill-opacity=".2"/><circle cx="118" cy="120.001" r="47.5" stroke="#fff" stroke-opacity=".45"/></g><path d="M129.01 118.27c1.331.77 1.331 2.691 0 3.462l-13.008 7.531c-1.333.772-3.002-.19-3.002-1.731V112.47c0-1.541 1.669-2.503 3.002-1.731l13.008 7.531z" fill="#fff"/><path d="M155.625 195.52a83.497 83.497 0 01-98.22-20.254A83.502 83.502 0 0190.458 41.902 83.501 83.501 0 01203.5 120.001" stroke="#fff" stroke-opacity=".3"/><path d="M45.193 26.552A119 119 0 11.512 121.185" stroke="#fff" stroke-opacity=".15"/><defs><filter id="filter0_b_369_16931" x="53" y="55.001" width="130" height="130" filterUnits="userSpaceOnUse" color-interpolation-filters="sRGB"><feFlood flood-opacity="0" result="BackgroundImageFix"/><feGaussianBlur in="BackgroundImageFix" stdDeviation="8.5"/><feComposite in2="SourceAlpha" operator="in" result="effect1_backgroundBlur_369_16931"/><feBlend in="SourceGraphic" in2="effect1_backgroundBlur_369_16931" result="shape"/></filter></defs></symbol><symbol id="blog-play" viewBox="0 0 72 72" fill="none"><g filter="url(#filter0_b_369_17233)"><circle cx="36" cy="36" r="36" fill="#fff" fill-opacity=".2"/><circle cx="36" cy="36" r="35.5" stroke="#fff" stroke-opacity=".25"/></g><path d="M45.45 35.128a1 1 0 010 1.744l-12.96 7.29A1 1 0 0131 43.29V28.71a1 1 0 011.49-.872l12.96 7.29z" fill="#fff"/><defs><filter id="filter0_b_369_17233" x="-17" y="-17" width="106" height="106" filterUnits="userSpaceOnUse" color-interpolation-filters="sRGB"><feFlood flood-opacity="0" result="BackgroundImageFix"/><feGaussianBlur in="BackgroundImageFix" stdDeviation="8.5"/><feComposite in2="SourceAlpha" operator="in" result="effect1_backgroundBlur_369_17233"/><feBlend in="SourceGraphic" in2="effect1_backgroundBlur_369_17233" result="shape"/></filter></defs></symbol><symbol id="blog-sale-email" viewBox="0 0 19 20" fill="none"><path d="M6.495 3.752L12.28 10l-5.785 6.247a.614.614 0 00-.162.418.61.61 0 00.162.417.54.54 0 00.386.17.517.517 0 00.386-.17l6.156-6.646A.643.643 0 0013.59 10c0-.163-.06-.32-.168-.437L7.268 2.917a.54.54 0 00-.387-.172.517.517 0 00-.387.172.614.614 0 00-.162.418.61.61 0 00.162.417z" fill="#fff"/></symbol><symbol id="mobile-burger" viewBox="0 0 28 28" fill="none"><rect x="2" y="6" width="24" height="2" rx="1" fill="#282828"/><rect x="2" y="13" width="24" height="2" rx="1" fill="#282828"/><rect x="2" y="20" width="24" height="2" rx="1" fill="#282828"/></symbol><symbol id="mail" viewBox="0 0 20 20" fill="none"><path d="M3.334 3.333h13.333c.917 0 1.667.75 1.667 1.667v10c0 .917-.75 1.667-1.667 1.667H3.334c-.917 0-1.667-.75-1.667-1.667V5c0-.917.75-1.667 1.667-1.667z" stroke="#282828" stroke-linecap="round" stroke-linejoin="round"/><path d="M18.334 5L10 10.833 1.667 5" stroke="#282828" stroke-linecap="round" stroke-linejoin="round"/></symbol><symbol id="phone" viewBox="0 0 20 20" fill="none"><path d="M12.541 4.167a4.166 4.166 0 013.292 3.291M12.541.833a7.5 7.5 0 016.625 6.617m-.833 6.65v2.5a1.667 1.667 0 01-1.816 1.667 16.49 16.49 0 01-7.192-2.559 16.25 16.25 0 01-5-5 16.492 16.492 0 01-2.558-7.225 1.666 1.666 0 011.658-1.816h2.5A1.667 1.667 0 017.592 3.1c.105.8.3 1.586.583 2.342A1.667 1.667 0 017.8 7.2L6.742 8.258a13.333 13.333 0 005 5L12.8 12.2a1.665 1.665 0 011.758-.375 10.7 10.7 0 002.342.583 1.666 1.666 0 011.433 1.692z" stroke="#282828" stroke-linecap="round" stroke-linejoin="round"/></symbol><symbol id="mobile-close" viewBox="0 0 28 28" fill="none"><path d="M21 7L7 21M7 7l14 14" stroke="#282828" stroke-width="2" stroke-linecap="round" stroke-linejoin="round"/></symbol><symbol id="help__circle" viewBox="0 0 791 791" fill="none"><path d="M468.606 782.658a394 394 0 11135.884-53.153" stroke="#4990FF" stroke-opacity=".24" stroke-width="3"/><circle cx="475" cy="781" r="5.5" transform="rotate(-90 475 781)" stroke="#4990FF" stroke-opacity=".24" stroke-width="3"/><circle cx="599" cy="733" r="5.5" transform="rotate(-90 599 733)" stroke="#4990FF" stroke-opacity=".24" stroke-width="3"/></symbol><symbol id="questions-arrow" viewBox="0 0 14 14" fill="none"><path d="M2.627 4.786L7 9.05l4.373-4.263a.418.418 0 01.673.13.398.398 0 01-.088.44L7.305 9.89a.438.438 0 01-.61 0L2.042 5.356a.398.398 0 010-.57.418.418 0 01.585 0z" fill="var(--fill-main)" style="transition:fill .4s"/></symbol><symbol id="products-arrow" viewBox="0 0 14 14" fill="none"><path d="M2.627 4.786L7 9.05l4.373-4.263a.418.418 0 01.673.13.398.398 0 01-.088.44L7.305 9.89a.438.438 0 01-.61 0L2.042 5.356a.398.398 0 010-.57.418.418 0 01.585 0z" fill="#282828"/></symbol><symbol id="products-notification" viewBox="0 0 24 24" fill="none"><path d="M12 22c5.523 0 10-4.477 10-10S17.523 2 12 2 2 6.477 2 12s4.477 10 10 10zm0-6v-4m0-4h.01" stroke="#494949" stroke-opacity=".5" stroke-linecap="round" stroke-linejoin="round"/></symbol><symbol id="products-sale" viewBox="0 0 18 18" fill="none"><path d="M9 16.5a7.5 7.5 0 100-15 7.5 7.5 0 000 15zM9 12V9m0-3h.008" stroke="#fff" stroke-linecap="round" stroke-linejoin="round"/></symbol><symbol id="products-sale" fill="none" xmlns="http://www.w3.org/2000/svg"><g id="info" stroke="#fff" stroke-linecap="round" stroke-linejoin="round"><path id="Vector" d="M9 16.5a7.5 7.5 0 100-15 7.5 7.5 0 000 15z"/><path id="Vector_2" d="M9 12V9"/><path id="Vector_3" d="M9 6h.008"/></g></symbol><symbol id="product-single-sale" viewBox="0 0 24 24" fill="none"><path d="M12 22c5.523 0 10-4.477 10-10S17.523 2 12 2 2 6.477 2 12s4.477 10 10 10zm0-14v4m0 4h.01" stroke="#494949" stroke-opacity=".5" stroke-width="1.5" stroke-linecap="round" stroke-linejoin="round"/></symbol><symbol id="catalog-common-mobile" viewBox="0 0 18 18" fill="none"><path d="M6 4.5h9.75M6 9h9.75M6 13.5h9.75m-13.5-9h.009M2.25 9h.009m-.009 4.5h.009" stroke="#008CCC" stroke-linecap="round" stroke-linejoin="round"/></symbol></svg>