<svg xmlns="http://www.w3.org/2000/svg" width="703" height="654" viewBox="0 0 703 654" fill="none"><path d="M217.595 0h331.329L703 299.499l-36.051 62.307L512.443 65.744H379.397l-124.034 198.52-54.077-31.368 100-167.152H177.681L217.595 0z" fill="url(#paint0_linear_745_10544)"/><path d="M388.839 82.502h102.145L146.78 641.539l-33.047-64.455L246.78 357.079l-124.892-76.916-87.553 143.949L0 361.806 168.669 82.502h101.716l-37.768 62.736h-27.039l-48.927 77.775 123.176 76.486 95.278-154.261h-27.038l40.772-62.736z" fill="url(#paint1_linear_745_10544)"/><path d="M165.235 654L505.576 91.526l150.643 287.897-49.356 79.924-54.935-32.657 28.755-47.267-75.107-150.394-220.599 362.235H451.07l30.043-51.564-56.223-35.665 33.047-55.431 112.875 69.612L487.551 654H165.235z" fill="url(#paint2_linear_745_10544)"/><path d="M148.926 317.117l52.36 33.516-109.87 182.192-34.764-63.165 92.274-152.543z" fill="url(#paint3_linear_745_10544)"/><defs><linearGradient id="paint0_linear_745_10544" x1="703" y1="284.422" x2="-.028" y2="359.947" gradientUnits="userSpaceOnUse"><stop stop-color="#124190"/><stop offset="1" stop-color="#70BEEC"/></linearGradient><linearGradient id="paint1_linear_745_10544" x1="703" y1="284.422" x2="-.028" y2="359.947" gradientUnits="userSpaceOnUse"><stop stop-color="#124190"/><stop offset="1" stop-color="#70BEEC"/></linearGradient><linearGradient id="paint2_linear_745_10544" x1="703" y1="284.422" x2="-.028" y2="359.947" gradientUnits="userSpaceOnUse"><stop stop-color="#124190"/><stop offset="1" stop-color="#70BEEC"/></linearGradient><linearGradient id="paint3_linear_745_10544" x1="703" y1="284.422" x2="-.028" y2="359.947" gradientUnits="userSpaceOnUse"><stop stop-color="#124190"/><stop offset="1" stop-color="#70BEEC"/></linearGradient></defs></svg>