<svg width="300" height="206" viewBox="0 0 300 206" fill="none" xmlns="http://www.w3.org/2000/svg"><g clip-path="url(#clip0_572_9023)"><path d="M112.489 188.52s-5.25 9-3.18 9.35c2.07.35 6.39-7.48 6.39-7.48l11.84-3.14-8.92-.92-6.13 2.19z" fill="#fff" stroke="#263238" stroke-linecap="round" stroke-linejoin="round"/><path opacity=".3" d="M112.489 188.52s-5.25 9-3.18 9.35c2.07.35 6.39-7.48 6.39-7.48l11.84-3.14-8.92-.92-6.13 2.19z" fill="#000" stroke="#263238" stroke-linecap="round" stroke-linejoin="round"/><path d="M116.479 182.36s-7.34-1.74-9.36 1.7c-2.02 3.44-8 13.64-5.74 14.81s4.16-2.6 4.16-2.6l10.94-13.91z" fill="#fff" stroke="#263238" stroke-linecap="round" stroke-linejoin="round"/><path d="M146.499 192.821a33.405 33.405 0 01-15 1.58l-8.35 2.77s-7.34 3.62-10.76 1.8 8.7-5.84 8.7-5.84 8.15-3.53 5.72-4.38c-2.43-.85-11.63-.68-13.44.7-1.81 1.38-6.54 10.36-10 9.85-3.46-.51 1.45-5.4 2.67-7.28s4-9.38 9.57-9.7c5.57-.32 24.39.68 24.39.68l22.09-2.36 5.22 12.57-20.81-.39z" fill="#fff" stroke="#263238" stroke-linecap="round" stroke-linejoin="round"/><path d="M157.999 195.93a3.542 3.542 0 004.21-.06 3.675 3.675 0 004-.74c1.61-1.78 1.75-17.3-2.71-19.05-1.29-.51-4.51-.45-5 1.35a2.363 2.363 0 00-2.901.957 2.371 2.371 0 00-.339 1.043c-.45 2.8 2.34 5.41 1.41 13.46a3.174 3.174 0 001.33 3.04z" fill="#008CCC" stroke="#263238" stroke-linecap="round" stroke-linejoin="round"/><path opacity=".3" d="M157.999 195.93a3.542 3.542 0 004.21-.06 3.675 3.675 0 004-.74c1.61-1.78 1.75-17.3-2.71-19.05-1.29-.51-4.51-.45-5 1.35a2.363 2.363 0 00-2.901.957 2.371 2.371 0 00-.339 1.043c-.45 2.8 2.34 5.41 1.41 13.46a3.174 3.174 0 001.33 3.04z" fill="#000" stroke="#263238" stroke-linecap="round" stroke-linejoin="round"/><path d="M163.119 192.31a29.989 29.989 0 00-2.64-12.31" stroke="#263238" stroke-linecap="round" stroke-linejoin="round"/><path d="M268.259 186.67c-.74 5.69-1.58 11.85-2.54 18.54h-85.84l.41-11.06c-5.13 1.24-15.1.48-15.1.48v-16.35c6.06-3.43 7-2.47 7-2.47s.31-39.9 3.94-49.86a20.099 20.099 0 017.1-9.34 24.356 24.356 0 012.71-1.75l.13-.08c1-.53 2.21-1.09 3.59-1.67l.34-.11c13.44-5.49 42.77-11.86 70.1-.18 1.91.82 17.51 8.27 18.84 19 .76 6.18-3.42 36.67-10.68 54.85z" fill="#008CCC"/><mask id="mask0_572_9023" style="mask-type:luminance" maskUnits="userSpaceOnUse" x="165" y="106" width="115" height="100"><path d="M268.259 186.67c-.74 5.69-1.58 11.85-2.54 18.54h-85.84l.41-11.06c-5.13 1.24-15.1.48-15.1.48v-16.35c6.06-3.43 7-2.47 7-2.47s.31-39.9 3.94-49.86a20.099 20.099 0 017.1-9.34 24.356 24.356 0 012.71-1.75l.13-.08c1-.53 2.21-1.09 3.59-1.67l.34-.11c13.44-5.49 42.77-11.86 70.1-.18 1.91.82 17.51 8.27 18.84 19 .76 6.18-3.42 36.67-10.68 54.85z" fill="#fff"/></mask><g mask="url(#mask0_572_9023)" fill="#000"><path opacity=".2" d="M254.66 137.48l-8.56 39.73c-1.33-1-5.16-1.12-10-.66a15.647 15.647 0 002.59-3.88c12.91-28 15.74-34.67 15.97-35.19zm15.64 43.65a175.91 175.91 0 00-4.58 24.08h-85.84l.79-12.74c5.35-.76 14.74-1.54 24.49-3.27.748 3.051.826 6.227.23 9.31 0 0 39.48 4.9 52.73 1.71 3.78-.91 7.2-6.19 10.13-13.46.75-1.76 1.39-3.66 2.05-5.63z"/><path opacity=".3" d="M173.17 176.56s-1.92-1.71-8 1.72v16.35s10-.35 13.93-2.48c3.38 2.09 2.78-36.18 3.38-56.79-4.9 1.35-5.3 10.67-6.05 19.44a176.888 176.888 0 01-3.26 21.76z"/></g><path d="M268.259 186.67c-.74 5.69-1.58 11.85-2.54 18.54h-85.84l.41-11.06c-5.13 1.24-15.1.48-15.1.48v-16.35c6.06-3.43 7-2.47 7-2.47s.31-39.9 3.94-49.86a20.099 20.099 0 017.1-9.34 24.356 24.356 0 012.71-1.75l.13-.08c1-.53 2.21-1.09 3.59-1.67l.34-.11c13.44-5.49 42.77-11.86 70.1-.18 1.91.82 17.51 8.27 18.84 19 .76 6.18-3.42 36.67-10.68 54.85z" stroke="#263238" stroke-linecap="round" stroke-linejoin="round"/><path d="M278.939 131.811c0 .24.06.52.07.83.44 7.68-3.74 36.66-10.76 54.12-2.93 7.27-6.35 12.55-10.13 13.46-13.25 3.19-52.73-1.71-52.73-1.71a21.876 21.876 0 00-2.95-15.7s38.76-9.48 43.66-5.6l8.58-39.77M248.8 179.37a17.705 17.705 0 016.86 5.89" stroke="#263238" stroke-linecap="round" stroke-linejoin="round"/><path d="M150.05 180.8s-3.61-.76-5.08.89c-1.47 1.65-7.77 11.11-5.64 12.91 2.13 1.8 6.46-8.09 6.46-8.09l4.26-5.71z" fill="#fff" stroke="#263238" stroke-linecap="round" stroke-linejoin="round"/><path d="M157.31 180.63s-8-1.72-9.82.73c-1.82 2.45-11.92 15.12-5.63 15.53l10.06-11.28 5.39-4.98z" fill="#fff" stroke="#263238" stroke-linecap="round" stroke-linejoin="round"/><path d="M175.46 194.11s-8.25 1.8-11.6 2.46c-3.35.66-9.57 5-13.25 3.27-3.68-1.73 12-8.1 12-8.1l5.39-2.17 7.46 4.54z" fill="#BFBFBF" stroke="#263238" stroke-linecap="round" stroke-linejoin="round"/><path d="M182.14 144.75c.113-3.126.23-6.256.35-9.39m-2.61 69.85C181.41 186.28 182 149 182 149" stroke="#263238" stroke-linecap="round" stroke-linejoin="round"/><path d="M205.389 183.89h-28.45s-22.08-6.62-25.76-1.47c-3.68 5.15-11.52 13-9.32 14.47 2.2 1.47 11.53-9.19 11.53-9.19l8.09.07s-6.86 3-8.33 4.46c-1.47 1.46-4.66 5.64-3 6.38 1.66.74 7.11-4.66 7.11-4.66s8.1-2 10.06-1a27.915 27.915 0 0020.36 2l21.71 2.7-4-13.76z" fill="#fff" stroke="#263238" stroke-linecap="round" stroke-linejoin="round"/><path d="M251.71 151.21a42.141 42.141 0 01-.09-13.77m6.54-10.08s13.8-18.18 20.78 4.45" stroke="#263238" stroke-linecap="round" stroke-linejoin="round"/><path d="M199.55 181.65a3.55 3.55 0 014.1-1 3.669 3.669 0 014.06-.28c2 1.32 6 16.32 2.11 19.12-1.13.81-4.25 1.56-5.21-.05a2.374 2.374 0 01-3.064-.216 2.362 2.362 0 01-.586-.934c-1.12-2.61.92-5.82-2-13.4a3.177 3.177 0 01.59-3.24z" fill="#008CCC"/><mask id="mask1_572_9023" style="mask-type:luminance" maskUnits="userSpaceOnUse" x="198" y="179" width="14" height="22"><path d="M199.55 181.65a3.55 3.55 0 014.1-1 3.669 3.669 0 014.06-.28c2 1.32 6 16.32 2.11 19.12-1.13.81-4.25 1.56-5.21-.05a2.374 2.374 0 01-3.064-.216 2.362 2.362 0 01-.586-.934c-1.12-2.61.92-5.82-2-13.4a3.177 3.177 0 01.59-3.24z" fill="#fff"/></mask><g mask="url(#mask1_572_9023)"><path opacity=".3" d="M199.55 181.65a3.55 3.55 0 014.1-1 3.669 3.669 0 014.06-.28c2 1.32 6 16.32 2.11 19.12-1.13.81-4.25 1.56-5.21-.05a2.374 2.374 0 01-3.064-.216 2.362 2.362 0 01-.586-.934c-1.12-2.61.92-5.82-2-13.4a3.177 3.177 0 01.59-3.24z" fill="#000"/></g><path d="M199.55 181.65a3.55 3.55 0 014.1-1 3.669 3.669 0 014.06-.28c2 1.32 6 16.32 2.11 19.12-1.13.81-4.25 1.56-5.21-.05a2.374 2.374 0 01-3.064-.216 2.362 2.362 0 01-.586-.934c-1.12-2.61.92-5.82-2-13.4a3.177 3.177 0 01.59-3.24zm6.32 7.79c.353 2.319.38 4.675.08 7" stroke="#263238" stroke-linecap="round" stroke-linejoin="round"/><path d="M218.37 144.53a1.933 1.933 0 01-1.266 1.757 1.937 1.937 0 01-2.591-1.532 1.934 1.934 0 01.928-1.956c.331-.197.714-.29 1.099-.269a1.953 1.953 0 011.83 2zm-1.37 30.2a1.943 1.943 0 01-1.307 1.729A1.95 1.95 0 11217 174.73z" fill="#fff" stroke="#263238" stroke-linecap="round" stroke-linejoin="round"/><path d="M234.829 107.55l-1.43-20.15-20.85 4.83-1.11 16.18c-1.31.16-2.57.34-3.79.53l5.1 12.23 10 1.3 15.94-14.69c-1.33-.09-2.61-.17-3.86-.23z" fill="#fff"/><mask id="mask2_572_9023" style="mask-type:luminance" maskUnits="userSpaceOnUse" x="207" y="87" width="32" height="36"><path d="M234.829 107.55l-1.43-20.15-20.85 4.83-1.11 16.18c-1.31.16-2.57.34-3.79.53l5.1 12.23 10 1.3 15.94-14.69c-1.33-.09-2.61-.17-3.86-.23z" fill="#fff"/></mask><g mask="url(#mask2_572_9023)"><path d="M212.239 99.36c.14 14.33 16.89 9.94 21.52-4.38l-.36-7.58-20.85 4.83-.31 7.13z" fill="#263238"/></g><path d="M234.829 107.55l-1.43-20.15-20.85 4.83-1.11 16.18c-1.31.16-2.57.34-3.79.53l5.1 12.23 10 1.3 15.94-14.69c-1.33-.09-2.61-.17-3.86-.23z" stroke="#263238" stroke-linecap="round" stroke-linejoin="round"/><path d="M199.47 70.39s-7.62-13.18-8.75-20.13c-3.48-21.47 12-14.23 12-14.23s11-9.81 24.61-8.09c13.61 1.72 17.25 7.53 26.43 11.09 0 0-6.89 35-15.72 42.87-8.83 7.87-38.57-11.51-38.57-11.51z" fill="#263238" stroke="#263238" stroke-linecap="round" stroke-linejoin="round"/><path d="M203.48 39.22s-3.44-8.34 5.27-14.71" stroke="#263238" stroke-linecap="round" stroke-linejoin="round"/><path d="M218.46 34.21c10.19-4.5 14.73 3 26.11 5m-33.98.01a12.9 12.9 0 013.3-2.95m7.16 6.22s4.41-4.24 13.15 1.27a22.903 22.903 0 008.74 3.44" stroke="#fff" stroke-miterlimit="10"/><path d="M234.529 51.65c-12.69.33-25.78-5.4-25.78-5.4-11.82 7.13-10.06 18.75-10.06 18.75 2.7 27.7 6.35 35.08 19.29 35.08s23.46-14 24.3-34c-4.89.25-7.75-14.43-7.75-14.43z" fill="#fff" stroke="#263238" stroke-linecap="round" stroke-linejoin="round"/><path d="M241.2 65a3.338 3.338 0 012.6-1.47c2.3 0 4 3 3.18 6.75-.82 3.75-1.86 6.74-4.16 6.74a2.589 2.589 0 01-2.37-1.76" fill="#fff"/><path d="M241.2 65a3.338 3.338 0 012.6-1.47c2.3 0 4 3 3.18 6.75-.82 3.75-1.86 6.74-4.16 6.74a2.589 2.589 0 01-2.37-1.76M216 78.57s1.55 2.12-1.42 3.71c-2.97 1.59-5.34 1.56-6.09-.26S211 65 211 65" stroke="#263238" stroke-linecap="round" stroke-linejoin="round"/><path d="M210.519 67.45c-1.6-.81-8-3.61-14.08.21l.39 5.88s2.24 1.23 7.38 1.23c1.682.03 3.361-.144 5-.52m6.621-6.59l1.86 6.13s.76 1 5.91 1 6.84-1.23 6.84-1.23l-.15-5.88s-7.47-4.43-14.46-.02zm-4.9 0h4.9M212 87.84a13.44 13.44 0 008.15-.25 11.3 11.3 0 005.07-3.82m-5.1-21.91c6.43-2.65 9.26.53 9.26.53m-26.231-.79a6.502 6.502 0 016.87.79" stroke="#263238" stroke-linecap="round" stroke-linejoin="round"/><path d="M196 55c.206 1.18.542 2.334 1 3.44m6.72-16.63c-6.32-1.7-8.82 2.1-8.35 8.09" stroke="#fff" stroke-miterlimit="10"/><path d="M210.41 107.47l7.7 13.86 18.49-14.59 5.68.8-12 21.15a1.615 1.615 0 01-1.672.794 1.613 1.613 0 01-.608-.234l-10.23-6.45-8 4.88a1.632 1.632 0 01-2.47-1.22l-2-18 5.11-.99z" fill="#008CCC"/><mask id="mask3_572_9023" style="mask-type:luminance" maskUnits="userSpaceOnUse" x="205" y="106" width="38" height="24"><path d="M210.41 107.47l7.7 13.86 18.49-14.59 5.68.8-12 21.15a1.615 1.615 0 01-1.672.794 1.613 1.613 0 01-.608-.234l-10.23-6.45-8 4.88a1.632 1.632 0 01-2.47-1.22l-2-18 5.11-.99z" fill="#fff"/></mask><g mask="url(#mask3_572_9023)"><path opacity=".3" d="M209.73 107.38l8.38 13.95 18.81-14.85 5.67.9-12.27 21.31a1.615 1.615 0 01-1.672.794 1.613 1.613 0 01-.608-.234l-10.23-6.45-8 4.88a1.632 1.632 0 01-2.47-1.22l-2-18 4.39-1.08z" fill="#000"/></g><path d="M210.41 107.47l7.7 13.86 18.49-14.59 5.68.8-12 21.15a1.615 1.615 0 01-1.672.794 1.613 1.613 0 01-.608-.234l-10.23-6.45-8 4.88a1.632 1.632 0 01-2.47-1.22l-2-18 5.11-.99z" stroke="#263238" stroke-linecap="round" stroke-linejoin="round"/><path d="M95.76 198.5H146v6.7H95.76a1.998 1.998 0 01-2-2v-2.76a1.998 1.998 0 012-1.94z" fill="#263238" stroke="#263238" stroke-linecap="round" stroke-linejoin="round"/><path d="M189.3 205.21H146v-6.71l43.36 2.86a1.381 1.381 0 011.28 1.37v1.11a1.372 1.372 0 01-1.34 1.37z" fill="#008CCC" stroke="#263238" stroke-linecap="round" stroke-linejoin="round"/><path d="M230.31 68.64L241.2 65l-1.29 1.63" stroke="#263238" stroke-linecap="round" stroke-linejoin="round"/><path d="M32.85 161.79S29.41 132.38-1 144.23c0 0 25.88-.19 30.25 22l4-.43-.4-4.01z" fill="#008CCC"/><path opacity=".1" d="M32.85 161.79S29.41 132.38-1 144.23c0 0 25.88-.19 30.25 22l4-.43-.4-4.01z" fill="#000"/><path d="M33.27 161.29s-2.64-31.36-8.36-55.73c0 0 17.5 18.51 13.5 53.36l-5.14 2.37z" fill="#008CCC"/><path opacity=".1" d="M33.27 161.29s-2.64-31.36-8.36-55.73c0 0 17.5 18.51 13.5 53.36l-5.14 2.37z" fill="#000"/><path d="M31.57 182.05s-5.05-43.2-21.84-58c0 0 30 7.47 25.58 53.35l-3.74 4.65z" fill="#008CCC"/><path d="M36.85 180.24s7.35-42.86 24.91-56.77c0 0-30.38 5.84-28.4 51.9l3.49 4.87z" fill="#008CCC"/><path d="M52.26 166.22h-35.5v6.17h1.18v21.77a11.05 11.05 0 0011 11H40a11 11 0 0011-11v-21.77h1.19l.07-6.17z" fill="#fff" stroke="#263238" stroke-miterlimit="10"/><path d="M41.25 172.1H46h-4.75z" fill="#fff"/><path d="M41.25 172.1H46" stroke="#263238" stroke-miterlimit="10"/><path d="M22.75 172.1h13.7-13.7z" fill="#fff"/><path d="M22.75 172.1h13.7" stroke="#263238" stroke-miterlimit="10"/><path d="M172.42 178.05L163.33 104a4.998 4.998 0 00-4.79-4.27H148.1l12.05 82.63h8.54a3.692 3.692 0 002.882-1.274 3.693 3.693 0 00.848-3.036z" fill="#008CCC" stroke="#263238" stroke-linecap="round" stroke-linejoin="round"/><path d="M166.43 182.31H61.57a4.998 4.998 0 01-4.78-4.26L47.69 104a3.692 3.692 0 013.74-4.27h104.85a5.003 5.003 0 014.79 4.27l9.1 74.1a3.686 3.686 0 01-3.74 4.21z" fill="#263238"/><mask id="mask4_572_9023" style="mask-type:luminance" maskUnits="userSpaceOnUse" x="47" y="99" width="124" height="84"><path d="M166.43 182.31H61.57a4.998 4.998 0 01-4.78-4.26L47.69 104a3.692 3.692 0 013.74-4.27h104.85a5.003 5.003 0 014.79 4.27l9.1 74.1a3.686 3.686 0 01-3.74 4.21z" fill="#fff"/></mask><g mask="url(#mask4_572_9023)"><path opacity=".1" d="M166.43 182.31H61.57a4.998 4.998 0 01-4.78-4.26L47.69 104a3.692 3.692 0 013.74-4.27h104.85a5.003 5.003 0 014.79 4.27l9.1 74.1a3.686 3.686 0 01-3.74 4.21z" fill="#fff"/></g><path d="M166.43 182.31H61.57a4.998 4.998 0 01-4.78-4.26L47.69 104a3.692 3.692 0 013.74-4.27h104.85a5.003 5.003 0 014.79 4.27l9.1 74.1a3.686 3.686 0 01-3.74 4.21z" stroke="#263238" stroke-linecap="round" stroke-linejoin="round"/><path d="M117.54 199.15l4.18-47.73a1.988 1.988 0 00-.538-1.499 1.988 1.988 0 00-1.462-.631H93.3a1.998 1.998 0 00-2 1.79l-4.56 52a1.997 1.997 0 001.201 1.976c.252.109.524.165.8.164h52.439a1.999 1.999 0 100-4h-21.69a1.986 1.986 0 01-1.407-.628 2.01 2.01 0 01-.543-1.442z" fill="#263238" stroke="#263238" stroke-linecap="round" stroke-linejoin="round"/><path d="M143.14 203.25a2 2 0 00-2-2h-21.65a2.002 2.002 0 01-1.95-2.13l4.18-47.73a1.99 1.99 0 00.072-.884 1.997 1.997 0 00-2.685-1.59 2.011 2.011 0 00-1.196 1.251 1.986 1.986 0 00-.081.883l-4.56 52a1.99 1.99 0 00.533 1.506 2.001 2.001 0 001.467.634h25.95a1.998 1.998 0 001.92-1.94z" fill="#008CCC" stroke="#263238" stroke-linecap="round" stroke-linejoin="round"/><path d="M23 205h276" stroke="#263238" stroke-linecap="round" stroke-linejoin="round"/></g><defs><clipPath id="clip0_572_9023"><path fill="#fff" d="M0 0h300v206H0z"/></clipPath></defs></svg>