<svg width="235" height="200" viewBox="0 0 235 200" fill="none" xmlns="http://www.w3.org/2000/svg"><path d="M183.725 1.289H39.077a16.04 16.04 0 00-6.501 1.37 16.091 16.091 0 00-5.396 3.89 16.14 16.14 0 00-3.92 5.7 16.193 16.193 0 00-1.18 6.824l3.054 66.793V265a14.71 14.71 0 004.288 10.401 14.612 14.612 0 0010.362 4.31H181.32a16.188 16.188 0 0010.77-4.748 16.306 16.306 0 004.737-10.807V85.082l3.045-66.794a16.294 16.294 0 00-1-6.443 16.238 16.238 0 00-3.446-5.528A16.17 16.17 0 00190.09 2.6a16.118 16.118 0 00-6.365-1.31z" fill="#fff" stroke="#263238" stroke-miterlimit="10"/><path d="M188.95 83.044l2.795-62.335a9.974 9.974 0 00-2.735-7.322 9.878 9.878 0 00-7.165-3.073H40.932a9.886 9.886 0 00-7.162 3.076 9.958 9.958 0 00-2.738 7.319l2.804 62.335H188.95z" fill="#263238" stroke="#263238" stroke-miterlimit="10"/><path d="M182.793 26.495H39.359V75.18h143.434V26.495z" fill="#7D7D7D"/><path d="M175.713 33.6H46.44v34.474h129.273V33.6z" fill="#BFBFBF"/><path d="M107.853 102.815h-64.1a4.142 4.142 0 00-4.135 4.15v13.016a4.142 4.142 0 004.135 4.15h64.1a4.142 4.142 0 004.135-4.15v-13.016a4.142 4.142 0 00-4.135-4.15z" fill="#7D7D7D" stroke="#263238" stroke-miterlimit="10"/><path d="M54.834 103.082v21.049m14.592-21.049v21.049m14.6-21.049v21.049m14.592-21.049v21.049" stroke="#263238" stroke-miterlimit="10"/><path d="M152.294 114.529h-18.061a3.85 3.85 0 00-3.843 3.857v9.018a3.85 3.85 0 003.843 3.857h18.061a3.85 3.85 0 003.844-3.857v-9.018a3.85 3.85 0 00-3.844-3.857zm-90.331 23.094h-18.06a3.85 3.85 0 00-3.844 3.857v11.982a3.85 3.85 0 003.843 3.857h18.061a3.85 3.85 0 003.844-3.857V141.48a3.85 3.85 0 00-3.844-3.857zm30.183 0H74.085a3.85 3.85 0 00-3.844 3.857v11.982a3.85 3.85 0 003.844 3.857h18.061a3.85 3.85 0 003.844-3.857V141.48a3.85 3.85 0 00-3.844-3.857zm12.121 0h18.053c1.021 0 2.001.407 2.723 1.132a3.87 3.87 0 011.129 2.734v11.973a3.872 3.872 0 01-1.126 2.73 3.841 3.841 0 01-2.718 1.135h-18.053a3.836 3.836 0 01-2.718-1.13 3.865 3.865 0 01-1.125-2.727v-11.99c0-1.021.403-2.001 1.122-2.724a3.838 3.838 0 012.713-1.133zm48.235 0h-18.061a3.85 3.85 0 00-3.843 3.857v11.982a3.85 3.85 0 003.843 3.857h18.061a3.85 3.85 0 003.844-3.857V141.48a3.85 3.85 0 00-3.844-3.857zm30.183 0h-18.061a3.85 3.85 0 00-3.844 3.857v11.982a3.85 3.85 0 003.844 3.857h18.061a3.85 3.85 0 003.844-3.857V141.48a3.85 3.85 0 00-3.844-3.857zM61.963 164.098h-18.06a3.85 3.85 0 00-3.844 3.858v11.981a3.85 3.85 0 003.843 3.857h18.061a3.85 3.85 0 003.844-3.857v-11.981a3.85 3.85 0 00-3.844-3.858z" fill="#BDBDBD" stroke="#263238" stroke-miterlimit="10"/><path d="M92.146 164.098H74.085a3.85 3.85 0 00-3.844 3.858v11.981a3.85 3.85 0 003.844 3.857h18.061a3.85 3.85 0 003.844-3.857v-11.981a3.85 3.85 0 00-3.844-3.858zm12.121 0h18.053c1.021 0 2.001.408 2.723 1.133a3.87 3.87 0 011.129 2.733v11.998a3.869 3.869 0 01-1.126 2.73 3.846 3.846 0 01-2.718 1.136h-18.053a3.84 3.84 0 01-2.718-1.13 3.87 3.87 0 01-1.125-2.728v-12.014c0-1.022.403-2.002 1.122-2.725a3.842 3.842 0 012.713-1.133zm48.235 0h-18.061a3.85 3.85 0 00-3.843 3.858v11.981a3.85 3.85 0 003.843 3.857h18.061a3.85 3.85 0 003.844-3.857v-11.981a3.85 3.85 0 00-3.844-3.858z" fill="#6B6B6B" stroke="#263238" stroke-miterlimit="10"/><path d="M182.685 164.098h-18.061a3.85 3.85 0 00-3.844 3.858v11.981a3.85 3.85 0 003.844 3.857h18.061a3.85 3.85 0 003.844-3.857v-11.981a3.85 3.85 0 00-3.844-3.858zM61.963 190.574h-18.06a3.85 3.85 0 00-3.844 3.857v11.981a3.85 3.85 0 003.843 3.858h18.061a3.85 3.85 0 003.844-3.858v-11.981a3.85 3.85 0 00-3.844-3.857z" fill="#BDBDBD" stroke="#263238" stroke-miterlimit="10"/><path d="M92.146 190.574H74.085a3.85 3.85 0 00-3.844 3.857v11.981a3.85 3.85 0 003.844 3.858h18.061a3.85 3.85 0 003.844-3.858v-11.981a3.85 3.85 0 00-3.844-3.857zm12.121 0h18.053c1.021 0 2.001.407 2.723 1.132a3.87 3.87 0 011.129 2.733v11.973a3.873 3.873 0 01-1.126 2.731 3.845 3.845 0 01-2.718 1.135h-18.053a3.84 3.84 0 01-2.718-1.13 3.865 3.865 0 01-1.125-2.727v-11.982a3.87 3.87 0 011.12-2.73 3.826 3.826 0 012.715-1.135zm48.235 0h-18.061a3.85 3.85 0 00-3.843 3.857v11.981a3.85 3.85 0 003.843 3.858h18.061a3.85 3.85 0 003.844-3.858v-11.981a3.85 3.85 0 00-3.844-3.857z" fill="#6B6B6B" stroke="#263238" stroke-miterlimit="10"/><path d="M182.685 190.574h-18.061a3.85 3.85 0 00-3.844 3.857v11.981a3.85 3.85 0 003.844 3.858h18.061a3.85 3.85 0 003.844-3.858v-11.981a3.85 3.85 0 00-3.844-3.857z" fill="#BDBDBD" stroke="#263238" stroke-miterlimit="10"/><path d="M182.685 114.529h-18.061a3.85 3.85 0 00-3.844 3.857v9.018a3.85 3.85 0 003.844 3.857h18.061a3.85 3.85 0 003.844-3.857v-9.018a3.85 3.85 0 00-3.844-3.857z" fill="#263238" stroke="#263238" stroke-linecap="round" stroke-linejoin="round"/><path d="M165.747 127.036a5.857 5.857 0 010-7.038 4.677 4.677 0 013.237-1.303c1.205 0 2.364.467 3.236 1.303a5.857 5.857 0 010 7.038 4.677 4.677 0 01-3.236 1.303 4.677 4.677 0 01-3.237-1.303zm5.466-.768a5.201 5.201 0 000-5.51 2.966 2.966 0 00-3.445-.741 2.976 2.976 0 00-1.006.741 5.144 5.144 0 000 5.51 2.959 2.959 0 004.451 0zm4.309 1.77a.538.538 0 01-.175-.426v-7.94a.857.857 0 01.041-.33.85.85 0 01.167-.288.702.702 0 01.533-.225c.167.001.33.047.474.134.171.09.317.222.424.384l4.75 6.946v-6.88a.527.527 0 01.04-.232.523.523 0 01.135-.193.615.615 0 01.433-.159.622.622 0 01.424.159.506.506 0 01.183.425v7.949a.84.84 0 01-.233.618.78.78 0 01-.574.233 1.038 1.038 0 01-.807-.434l-4.767-6.946v6.796a.538.538 0 01-.183.426.675.675 0 01-.832 0l-.033-.017zM48.07 152.844a.968.968 0 01-.34-.426l-3.046-6.855v7.13a.41.41 0 01-.174.351.748.748 0 01-.433.125.745.745 0 01-.424-.125.42.42 0 01-.183-.351v-7.756a.834.834 0 01.3-.635 1.097 1.097 0 011.314-.058c.207.146.369.349.466.584l2.961 6.605 2.962-6.605a1.28 1.28 0 01.466-.584 1.092 1.092 0 011.314.058.838.838 0 01.3.635v7.756a.396.396 0 01-.183.351.744.744 0 01-.424.125.705.705 0 01-.425-.125.395.395 0 01-.183-.351v-7.13l-3.045 6.847a.97.97 0 01-.34.425.72.72 0 01-.883 0v.009zm9.434-.1a3.933 3.933 0 01-1.49-1.72 5.714 5.714 0 01-.499-2.43 5.912 5.912 0 01.3-1.895c.18-.559.463-1.08.832-1.537.38-.45.858-.807 1.398-1.043a4.492 4.492 0 011.863-.376 4.715 4.715 0 012.354.61.485.485 0 01.292.45.55.55 0 01-.142.368.496.496 0 01-.35.158.545.545 0 01-.216-.058l-.158-.075-.216-.109-.266-.1-.341-.1-.408-.058a4.618 4.618 0 00-.5 0 3.374 3.374 0 00-1.156.192 2.484 2.484 0 00-.831.551 2.978 2.978 0 00-.591.835 3.992 3.992 0 00-.358 1.035 6.415 6.415 0 000 2.346c.07.358.19.703.358 1.027.148.31.347.593.59.835.257.234.556.416.882.534.376.137.774.205 1.174.201.347.004.693-.05 1.023-.159a5.56 5.56 0 00.94-.443.508.508 0 01.44-.027.51.51 0 01.208.761.597.597 0 01-.232.21 4.62 4.62 0 01-2.57.718 4.155 4.155 0 01-2.33-.701zm-9.9 21.566a3.073 3.073 0 010-3.657 1.971 1.971 0 011.614-.735c.348-.004.692.07 1.007.217.278.137.518.34.699.593.178.254.313.536.399.835.087.301.132.613.133.926a2.811 2.811 0 01-.607 1.829 2.185 2.185 0 01-1.627.723 2.181 2.181 0 01-1.626-.723l.008-.008zm2.355-.284c.194-.177.336-.406.407-.66.08-.291.12-.591.117-.893a3.17 3.17 0 00-.117-.885 1.327 1.327 0 00-.407-.66 1.128 1.128 0 00-1.456 0 1.372 1.372 0 00-.4.66 3.15 3.15 0 00-.116.885c-.003.302.036.602.116.893.072.252.21.48.4.66a1.129 1.129 0 001.456 0zm-.633 5.485a.339.339 0 01-.124-.267.443.443 0 01.083-.225l5.091-9.076a.44.44 0 01.383-.25.317.317 0 01.258.116.38.38 0 01.116.268.662.662 0 01-.091.275l-5.084 9.001a.398.398 0 01-.278.239.39.39 0 01-.354-.098v.017zm4.568-.835a2.811 2.811 0 01-.6-1.845 2.73 2.73 0 01.608-1.812 1.997 1.997 0 011.664-.734c.343-.006.683.071.99.225.282.126.524.328.699.584.18.252.313.535.39.835.093.3.141.613.142.927.005.443-.086.882-.266 1.286a2.137 2.137 0 01-.766.927 2.056 2.056 0 01-1.19.35 2.006 2.006 0 01-1.671-.768v.025zm2.354-.292c.191-.175.33-.401.4-.651.08-.294.119-.597.116-.902 0-.227-.022-.454-.067-.676a2.093 2.093 0 00-.208-.568 1.095 1.095 0 00-.383-.417 1.113 1.113 0 00-.582-.151 1.082 1.082 0 00-.74.267c-.19.18-.328.408-.4.66a3.71 3.71 0 000 1.778c.072.252.21.48.4.66.204.179.469.275.74.267.27.002.53-.103.724-.292v.025zm25.649.601a.537.537 0 01-.208-.434.897.897 0 01.066-.284l3.203-7.364h-4.31a.515.515 0 01-.39-.159.576.576 0 010-.734.484.484 0 01.39-.159h4.992a.835.835 0 01.541.167.555.555 0 01.183.451 1.31 1.31 0 01-.116.559l-3.328 7.765a.566.566 0 01-.566.367.685.685 0 01-.457-.175zm29.982.025a2.628 2.628 0 01-1.148-.91 2.466 2.466 0 01-.425-1.445 2.435 2.435 0 01.483-1.519 2.235 2.235 0 011.373-.835 2.152 2.152 0 01-1.281-.768 2.223 2.223 0 01-.425-1.378 2.315 2.315 0 01.416-1.377 2.493 2.493 0 011.107-.835 4.148 4.148 0 011.547-.276c.405-.002.809.054 1.198.167.35.092.68.247.973.459.284.206.513.478.666.794.163.338.245.709.241 1.085a2.06 2.06 0 01-1.664 2.146c.537.119 1.02.412 1.373.835.323.429.487.957.466 1.494a2.411 2.411 0 01-.433 1.445 2.542 2.542 0 01-1.148.91 4.796 4.796 0 01-3.327 0l.008.008zm3.02-1.111a1.462 1.462 0 00.541-1.235 1.657 1.657 0 00-.55-1.319 2.01 2.01 0 00-1.356-.46c-.5-.02-.991.143-1.381.46a1.666 1.666 0 00-.54 1.319 1.59 1.59 0 00.266.935c.167.249.409.439.69.543.308.119.636.175.965.167.491.022.974-.122 1.373-.41h-.008zm0-4.592a1.435 1.435 0 00.482-1.168 1.321 1.321 0 00-.524-1.153 2.149 2.149 0 00-1.298-.375c-.23 0-.459.028-.682.083a1.938 1.938 0 00-.582.259 1.123 1.123 0 00-.416.484 1.56 1.56 0 00-.15.702 1.402 1.402 0 00.491 1.168 2.436 2.436 0 002.679 0zm25.474 5.511a.416.416 0 01-.242-.409.674.674 0 01.142-.409.408.408 0 01.332-.192.438.438 0 01.167.042c.517.256 1.087.39 1.664.392.267.003.532-.031.79-.1.214-.058.416-.151.599-.276.173-.122.322-.275.441-.451.123-.182.223-.378.299-.584a4.68 4.68 0 00.184-.726c0-.268.074-.543.091-.835.017-.293 0-.576 0-.91a1.776 1.776 0 01-.79.943 2.7 2.7 0 01-1.481.409 2.901 2.901 0 01-2.147-.835 2.956 2.956 0 01-.831-2.146 3.064 3.064 0 01.831-2.229 3.089 3.089 0 012.288-.835c.468-.005.933.074 1.373.234.367.139.701.352.982.626.265.277.48.599.632.952.166.367.284.755.349 1.152.069.428.102.861.1 1.294 0 .384 0 .735-.041 1.069a7.416 7.416 0 01-.142 1.06 6.117 6.117 0 01-.274 1.011c-.119.313-.276.61-.466.885a3.037 3.037 0 01-.691.726 3.166 3.166 0 01-.948.468 4.558 4.558 0 01-3.27-.318l.059-.008zm3.843-4.584a2.373 2.373 0 000-2.955 1.74 1.74 0 00-1.406-.585 1.816 1.816 0 00-1.439.56c-.35.413-.528.945-.499 1.486a2.337 2.337 0 00.449 1.478 1.598 1.598 0 001.356.584 1.977 1.977 0 001.539-.568zm-59.656 30.65a.518.518 0 01-.2-.434v-1.444h-3.72a.62.62 0 01-.49-.209.71.71 0 01-.183-.476.764.764 0 01.125-.409l3.56-5.619a1.222 1.222 0 011.065-.618.973.973 0 01.657.226.832.832 0 01.258.684v5.461h.99a.442.442 0 01.35.142.492.492 0 01.125.342.494.494 0 01-.125.334.45.45 0 01-.35.142h-.998v1.444a.542.542 0 01-.183.434.665.665 0 01-.441.159.649.649 0 01-.44-.159zm-.2-2.838v-5.01l-3.12 5.01h3.12zm27.777 2.872a4.322 4.322 0 01-1.257-.785.334.334 0 01-.1-.126.33.33 0 01-.033-.158.603.603 0 01.175-.409.551.551 0 01.383-.192.325.325 0 01.224.083 3.077 3.077 0 002.08.785 1.932 1.932 0 001.464-.526 2.13 2.13 0 00.491-1.486 1.977 1.977 0 00-.491-1.403 1.661 1.661 0 00-1.297-.534c-.358.004-.71.086-1.032.242-.319.135-.604.34-.832.601a.312.312 0 01-.116.069.304.304 0 01-.134.015 1.184 1.184 0 01-.54-.142c-.175-.092-.267-.209-.267-.342v-4.275c0-.393.208-.593.633-.593h4.284a.454.454 0 01.358.15.554.554 0 010 .702.461.461 0 01-.358.142h-3.868v3.164l.075-.084c.075-.067.156-.128.241-.183.125-.084.255-.16.391-.226a2.83 2.83 0 01.582-.183c.246-.052.497-.077.749-.075a2.715 2.715 0 012.088.834c.534.587.815 1.361.782 2.155a2.9 2.9 0 01-.882 2.212 3.223 3.223 0 01-2.288.835 4.03 4.03 0 01-1.505-.267zm29.584.025a2.634 2.634 0 01-.982-.627 3.329 3.329 0 01-.624-.943 4.786 4.786 0 01-.349-1.161 7.885 7.885 0 01-.1-1.294v-1.06c.025-.356.073-.71.142-1.06.066-.346.158-.687.274-1.019.124-.312.283-.609.474-.885a2.912 2.912 0 011.664-1.186 4.24 4.24 0 011.256-.175 4.605 4.605 0 012.014.484.416.416 0 01.186.171.41.41 0 01.055.247.653.653 0 01-.141.409.395.395 0 01-.333.184.36.36 0 01-.167-.042 3.947 3.947 0 00-1.664-.393 2.893 2.893 0 00-.79.101 2.156 2.156 0 00-.607.283 1.631 1.631 0 00-.433.451 3.052 3.052 0 00-.308.585 4.32 4.32 0 00-.183.718 9.474 9.474 0 00-.091.835c-.017.284 0 .567 0 .91.133-.399.409-.735.774-.944.442-.28.957-.422 1.48-.409a2.88 2.88 0 012.155.835 2.954 2.954 0 01.832 2.146 2.969 2.969 0 01-1.931 2.914 2.941 2.941 0 01-1.222.175 3.684 3.684 0 01-1.381-.25zm-.075-4.334a2.095 2.095 0 00-.532 1.512c-.018.526.16 1.041.499 1.444a1.776 1.776 0 001.414.576 1.846 1.846 0 001.431-.551c.356-.413.538-.949.508-1.494a2.287 2.287 0 00-.458-1.478 1.668 1.668 0 00-1.356-.576 1.958 1.958 0 00-.813.123 1.992 1.992 0 00-.693.444zm31.08-56.09a1.443 1.443 0 01-.331-1.611c.077-.18.19-.342.331-.476a1.761 1.761 0 012.321 0 1.408 1.408 0 01.45 1.044 1.43 1.43 0 01-.45 1.052 1.74 1.74 0 01-2.321 0v-.009zm.002 8.725a1.432 1.432 0 01-.45-1.06 1.378 1.378 0 01.45-1.027 1.535 1.535 0 011.164-.442 1.587 1.587 0 011.157.434 1.39 1.39 0 01.449 1.035 1.444 1.444 0 01-.449 1.06 1.741 1.741 0 01-2.321 0zm.415 22.126l-2.604 3.506a.658.658 0 01-.525.301.57.57 0 01-.399-.167.54.54 0 01-.041-.751l2.895-3.808-2.729-3.732a.422.422 0 01-.092-.284.628.628 0 01.2-.442.682.682 0 01.466-.192.604.604 0 01.507.284l2.496 3.398 2.496-3.39a.688.688 0 01.549-.301c.142 0 .279.054.383.151a.519.519 0 01.158.359.562.562 0 01-.117.334l-2.812 3.782 2.787 3.824a.52.52 0 01-.091.743.689.689 0 01-.466.175.543.543 0 01-.482-.259l-2.579-3.531zM48.22 203.949a.67.67 0 01-.183-.493V200.3h-3.27a.722.722 0 01-.498-.183.585.585 0 01-.217-.468.593.593 0 01.2-.467.779.779 0 01.516-.184h3.27v-3.173a.72.72 0 01.182-.501.641.641 0 01.491-.2.621.621 0 01.474.2.679.679 0 01.192.501v3.173h3.277a.832.832 0 01.508.184.57.57 0 01.208.467.6.6 0 01-.208.468.728.728 0 01-.508.183h-3.277v3.156a.66.66 0 01-.192.485.599.599 0 01-.474.208.641.641 0 01-.49-.2zm3.095 3.565a.428.428 0 01-.458.084c-.117-.067-.166-.217-.15-.434.026-.297.123-.584.283-.835l6.655-11.597c.13-.257.319-.48.55-.652.191-.125.34-.15.457-.083.117.067.167.217.158.434a2.016 2.016 0 01-.29.835l-6.656 11.597a1.93 1.93 0 01-.55.651zm117.252-59.279a.412.412 0 01-.144-.152.413.413 0 010-.406.42.42 0 01.144-.152.908.908 0 01.557-.15h8.96c.2-.012.398.041.566.15a.462.462 0 01.2.359.436.436 0 01-.2.351.93.93 0 01-.566.15h-8.96a.901.901 0 01-.557-.15zm-89.999 4.609a1.026 1.026 0 01-.332-.426l-3.045-6.855v7.13a.396.396 0 01-.183.351.706.706 0 01-.425.125.745.745 0 01-.424-.125.396.396 0 01-.183-.351v-7.756a.833.833 0 01.3-.635c.192-.165.437-.254.69-.25.22-.002.435.065.616.192.21.146.374.348.474.584l2.962 6.605 2.961-6.605c.094-.234.253-.437.458-.584.18-.126.395-.193.615-.192a1.06 1.06 0 01.7.25.842.842 0 01.307.635v7.756a.42.42 0 01-.183.351.745.745 0 01-.424.125.755.755 0 01-.433-.125.41.41 0 01-.175-.351v-7.13l-3.044 6.846a1.03 1.03 0 01-.342.426.756.756 0 01-.44.151.785.785 0 01-.45-.142zm8.054.225a.59.59 0 01-.192-.467v-8.083a.617.617 0 01.192-.459.658.658 0 01.466-.192h2.837a7.16 7.16 0 01.981.059c.306.037.607.107.899.208.273.094.529.232.757.41.212.19.382.424.499.684.132.314.197.653.191.994.013.506-.165.998-.499 1.377-.39.414-.91.682-1.472.76.488.093.929.354 1.246.738.317.384.491.867.492 1.366l.233 2.054v.092a.563.563 0 01-.183.426.652.652 0 01-.44.167.76.76 0 01-.475-.159.564.564 0 01-.233-.434l-.208-1.829a6.468 6.468 0 00-.15-.926 1.439 1.439 0 00-.299-.56 1.011 1.011 0 00-.516-.3 3.523 3.523 0 00-.832-.075h-2.188v3.648a.567.567 0 01-.191.468.721.721 0 01-.466.167.703.703 0 01-.45-.134zm3.028-5.126h.682a3.4 3.4 0 00.616-.134 1.44 1.44 0 00.516-.267c.146-.126.262-.283.34-.459.091-.22.136-.456.134-.693a1.737 1.737 0 00-.092-.576.982.982 0 00-.258-.401 1.954 1.954 0 00-.357-.251 1.602 1.602 0 00-.45-.133l-.474-.059h-2.562v3.014l1.905-.041zm19.434 4.901a1.029 1.029 0 01-.341-.426l-3.037-6.855v7.13a.414.414 0 01-.183.351.727.727 0 01-.424.125.704.704 0 01-.424-.125.393.393 0 01-.183-.351v-7.756a.837.837 0 01.291-.635 1.095 1.095 0 011.314-.058c.208.146.37.349.466.584l2.962 6.605 2.97-6.605a1.27 1.27 0 01.457-.584 1.092 1.092 0 011.315.058.83.83 0 01.299.635v7.756a.39.39 0 01-.183.351.777.777 0 01-.832 0 .398.398 0 01-.183-.351v-7.13l-3.061 6.847c-.074.17-.192.317-.341.425a.784.784 0 01-.449.151.762.762 0 01-.433-.142zm7.071-2.739a.378.378 0 01-.15-.317.419.419 0 01.15-.334.504.504 0 01.374-.134h2.904a.535.535 0 01.382.134.426.426 0 01.142.334.373.373 0 01-.15.317.531.531 0 01-.374.125h-2.862a.561.561 0 01-.416-.125zm23.428 2.739a.97.97 0 01-.341-.426l-3.045-6.855v7.13a.406.406 0 01-.175.351.747.747 0 01-.432.125.747.747 0 01-.425-.125.42.42 0 01-.183-.351v-7.756a.845.845 0 01.3-.635 1.097 1.097 0 011.314-.058c.208.146.37.349.466.584l2.962 6.605 2.962-6.605c.093-.237.256-.44.466-.584a1.098 1.098 0 011.314.058.83.83 0 01.299.635v7.756a.39.39 0 01-.183.351.742.742 0 01-.424.125.704.704 0 01-.424-.125.393.393 0 01-.183-.351v-7.13l-3.045 6.847a1.022 1.022 0 01-.333.425.833.833 0 01-.449.151.76.76 0 01-.441-.142zm10.674.225a.467.467 0 01-.134-.351v-2.271h-2.346a.522.522 0 01-.366-.133.448.448 0 01-.149-.334.416.416 0 01.141-.342.567.567 0 01.374-.126h2.346v-2.287a.471.471 0 01.483-.501.456.456 0 01.349.142c.09.097.138.226.134.359v2.287h2.354a.555.555 0 01.366.126.421.421 0 01.15.342.426.426 0 01-.15.334.51.51 0 01-.366.133h-2.354v2.271a.505.505 0 01-.134.351.469.469 0 01-.349.142.456.456 0 01-.349-.142z" fill="#fff"/><path d="M138.95 122.369l3.736 5.01 4.159-7.515h4.16" stroke="#fff" stroke-miterlimit="10"/><path d="M152.344 142.023s-.474 41.529.774 54.512c1.248 12.983 3.702 33.881 5.757 46.864 2.055 12.983.832 20.088.832 20.088s-1.339-.417-1.24 1.361c.1 1.778.574 5.327.574 5.327a39.045 39.045 0 007.895 2.889c3.141.62 6.333.944 9.534.968 0 0 .267-7.239.333-10.929.067-3.69 0-6.421 0-6.421l.732-41.119s6.473 44.818 6.83 47.415c.358 2.596-1.156 4.366-.923 6.145.233 1.778.982 5.602.982 5.602s3.951-2.864 8.244-1.62a47.381 47.381 0 018.819 3.833s.682-.835 1.564-4.91c.882-4.074 0-6.829-.092-9.835-.091-3.006-1.581-46.864-1.298-47.958.283-1.094 2.097-41.529 2.097-41.529s1.497-16.114 1.189-21.449a91.955 91.955 0 00-1.422-10.929s-24.659 1.052-36.78 1.035c-12.121-.017-14.667-.434-14.667-.434l.266 1.094z" fill="#008CCC" stroke="#263238" stroke-linecap="round" stroke-linejoin="round"/><path d="M203.5 140.328s-24.658 1.052-36.779 1.035c-12.122-.017-14.667-.434-14.667-.434l.249 1.094v3.398c2.338.701 8.245 1.82 21.755 1.553 16.206-.317 26.98-2.355 30.091-3.023a135.359 135.359 0 00-.649-3.623z" fill="#263238" stroke="#263238" stroke-linecap="round" stroke-linejoin="round"/><path d="M171.987 147.65l-6.747-.008.067-3.782 6.747.016-.067 3.774z" fill="#fff" stroke="#263238" stroke-linecap="round" stroke-linejoin="round"/><path d="M169.716 168.632l4.8 3.615s1.364 29.105 2.995 43.316m-11.365-49.611l1.589 1.194m33.036 18.468c-.682 11.948-1.489 25.048-1.98 29.707-.79 7.514.898 19.512 1.622 29.021m1.607-81.471s-.5 9.526-1.124 20.589m-14.891-35.918s0 6.287.041 12.432m1.439-12.432l1.756 7.247m-33.003-7.164l-1.647 9.293m3.261-9.151l-.358 4.784m10.05-4.316s-.773 12.974-.116 13.934a23.691 23.691 0 002.379 2.597m29.009-5.552c.816.817 1.72 1.54 2.696 2.154m-7.404-15.179a18.353 18.353 0 003.486 11.63" stroke="#263238" stroke-linecap="round" stroke-linejoin="round"/><path d="M163.575 73.092s-16.464 7.022-16.68 8.049c-.216 1.026-.749 41.888-.749 41.888s-9.866-.226-10.956 4.675c-1.09 4.901 1.456 8.591 5.648 10.437 4.193 1.845 9.485-1.011 9.485-1.011s-1.265 3.273-.483 4.501c.782 1.227 2.987 1.836 3.594 1.836.607 0 17.104.643 28.394.46 11.289-.184 16.938-1.403 18.793-3.44 1.855-2.037.167-9.61.167-9.61h7.653s-.307 5.928 6.922 7.163c7.23 1.236 11.597-6.32 8.211-19.804-3.386-13.484-15.657-36.812-17.628-39.241-1.972-2.43-17.421-8.625-17.421-8.625l-24.95 2.722z" fill="#fff" stroke="#263238" stroke-linecap="round" stroke-linejoin="round"/><path d="M206.203 124.899s7.945-7.782 12.903-6.129m-11.637 3.257s4.259-5.185 7.487-5.586m-64.634 20.714l.233-12.757" stroke="#263238" stroke-linecap="round" stroke-linejoin="round"/><path d="M167.144 77.15l2.546 5.368-4.909 52.659 4.235 7.372 4.908-8.566-1.996-50.93 3.153-6.42-4.127-5.637-3.81 6.154z" fill="#263238" stroke="#263238" stroke-linecap="round" stroke-linejoin="round"/><path d="M185.93 45.89l-.358 20.18-13.968 8.291-6.115-6.279.117-6.32s1.772 2.622 7.279.626c5.508-1.995 7.346-3.523 7.879-7.514.532-3.991.291-16.481.291-16.481h5.466l-.591 7.497z" fill="#fff" stroke="#263238" stroke-linecap="round" stroke-linejoin="round"/><path d="M182.461 53.63l3.327.008.142-7.748.591-7.548-4.393-.008.333 15.296z" fill="#263238" stroke="#263238" stroke-linecap="round" stroke-linejoin="round"/><path d="M187.735 39.286l-.141 7.514a2.792 2.792 0 01-1.997 1.536 4.093 4.093 0 01-2.712-1.085l.141-8.007 4.709.042z" fill="#fff" stroke="#263238" stroke-linecap="round" stroke-linejoin="round"/><path d="M171.412 66.588a11.02 11.02 0 01-4.284-.886 11.065 11.065 0 01-5.971-6.178 11.13 11.13 0 01-.752-4.325l.308-17.207h22.462l-.308 17.207a11.557 11.557 0 01-3.405 8.048 11.475 11.475 0 01-8.05 3.34z" fill="#fff" stroke="#263238" stroke-linecap="round" stroke-linejoin="round"/><path d="M170.747 66.588h1.331a10.795 10.795 0 007.538-3.143 10.871 10.871 0 003.202-7.536l.308-17.884h-7.246v1.536a3.514 3.514 0 001.314 2.78 84.634 84.634 0 012.987 2.931s.324 7.239-.94 10.02c-1.265 2.78-3.968 1.377-3.968 1.377s-3.594-4.35-8.128-4.175a8.853 8.853 0 00-3.746.942 8.885 8.885 0 00-2.993 2.448 10.448 10.448 0 002.927 7.535 10.364 10.364 0 007.414 3.169z" fill="#263238" stroke="#263238" stroke-linecap="round" stroke-linejoin="round"/><path d="M166.071 44.162l-.765 8.783 4.733-1.386" stroke="#263238" stroke-linecap="round" stroke-linejoin="round"/><path d="M163.741 55.559s1.764 3.08 8.195.317" stroke="#fff" stroke-linecap="round" stroke-linejoin="round"/><path d="M169.3 41.857s3.369-1.536 5.449 1.086m-9.251-.626s-2.854-1.854-3.503.3" stroke="#263238" stroke-linecap="round" stroke-linejoin="round"/><path d="M166.337 20.542s-4.159 1.745-5.416 4.884c-1.256 3.14-1.663 13.952-1.663 13.952s-7.771 1.561-6.564 1.736c1.206.176 39.558.067 39.558.067-1.165-2.095-1.864-1.753-2.171-3.498-.308-1.745-.508-10.47-2.163-13.96-1.656-3.49-14.102-7.873-21.581-3.181z" fill="#008CCC" stroke="#263238" stroke-linecap="round" stroke-linejoin="round"/><path d="M172.261 20.208a12.35 12.35 0 00-2.138 1.069 5.838 5.838 0 00-2.021 2.404s5.415.142 5.366 2.822c-.05 2.68-.225 12.466-.225 12.466" stroke="#263238" stroke-linecap="round" stroke-linejoin="round"/><path d="M165.365 66.496l6.58 6.02 13.969-8.759 2.612 6.63-10.973 11.07-5.949-7.096-6.322 5.535-1.706-6.78 1.789-6.62z" fill="#fff" stroke="#263238" stroke-linecap="round" stroke-linejoin="round"/><path d="M155.164 109.92s4.302 8.066 7.205 11.355c2.903 3.29 4.243 3.415 4.243 3.415l-7.829 1.219-5.998-18.727 2.379 2.738z" stroke="#263238" stroke-linecap="round" stroke-linejoin="round"/><path d="M118.077 90.183l20.957 40.886 23.61-2.555-16.506-40.878-28.061 2.547z" fill="#263238" stroke="#263238" stroke-linecap="round" stroke-linejoin="round"/><path d="M129.824 120.933s-1.664.743-1.606 1.912c.059 1.169.158 1.728 1.098 1.519.941-.208 5.708-3.072 6.656-3.915.948-.844 1.664-1.67.449-1.67-1.214 0-4.551 1.069-6.597 2.154zm-.241 3.423s.216 2.805.832 3.072c.616.268 6.855-3.606 7.912-4.4 1.056-.793 1.331-1.502.557-1.945-.774-.442-5.957 1.937-6.398 2.112l-2.903 1.161z" fill="#fff" stroke="#263238" stroke-linecap="round" stroke-linejoin="round"/><path d="M130.406 127.428a11.962 11.962 0 001.872 2.121c.607.359 6.597-3.699 7.313-4.492.715-.793.724-1.853.208-2.029a3.924 3.924 0 00-1.481 0s-6.331 3.607-7.912 4.4z" fill="#fff" stroke="#263238" stroke-linecap="round" stroke-linejoin="round"/><path d="M132.278 129.549a5.452 5.452 0 001.806 1.244c.832.267 4.384-1.411 5.623-2.822 1.24-1.411-.748-1.945-.748-1.945s-5.541 3.089-6.681 3.523z" fill="#fff" stroke="#263238" stroke-linecap="round" stroke-linejoin="round"/><path d="M129.832 93.03a1.166 1.166 0 01-.158 1.594 1.09 1.09 0 01-1.232-.085 1.102 1.102 0 01-.282-.332 1.153 1.153 0 01.158-1.595 1.11 1.11 0 01.844-.107 1.1 1.1 0 01.67.525zm9.36-1.261a1.166 1.166 0 01-.158 1.595 1.11 1.11 0 01-.844.107 1.1 1.1 0 01-.67-.525 1.158 1.158 0 01.158-1.594 1.092 1.092 0 011.232.085c.115.09.211.204.282.332zm60.464-.626c-.965 3.415-2.071 7.664-2.179 9.56-.192 3.414 8.727 24.212 8.727 24.212l2.238 6.02" fill="#fff"/><path d="M199.656 91.143c-.965 3.415-2.071 7.664-2.179 9.56-.192 3.414 8.727 24.212 8.727 24.212l2.238 6.02" stroke="#263238" stroke-linecap="round" stroke-linejoin="round"/><path d="M201.104 86.225s-.333 1.06-.791 2.622l.791-2.622z" fill="#fff"/><path d="M201.104 86.225s-.333 1.06-.791 2.622" stroke="#263238" stroke-linecap="round" stroke-linejoin="round"/><path d="M209.166 125.04s3.369-.542 4.817 1.67c1.447 2.213 1.106 5.736-.275 7.648-1.381 1.912-3.918.543-3.918.543a19.066 19.066 0 00-.624-9.861zm-22.562-18.894s-1.015-3.414 4.16-5.594c5.174-2.179 8.768-.943 8.851 2.196a12.774 12.774 0 01-4.392 4.509c-2.87 1.628-7.571.943-8.619-1.111zm26.921 38.298l4.942 9.977-3.128 1.77-1.814-11.747z" fill="#fff" stroke="#263238" stroke-linecap="round" stroke-linejoin="round"/><path d="M182.602 104.368l21.064 56.725a7.653 7.653 0 006.423 2.504c2.446-.15 4.617-1.887 6.039-3.339a4.28 4.28 0 00.999-4.309l-17.529-53.201s-10.374 7.64-16.996 1.62z" fill="#fff" stroke="#263238" stroke-linecap="round" stroke-linejoin="round"/><path d="M210.097 125.308s-4.276-1.912-5.615-1.921c-1.34-.008-8.428 4.225-9.934 5.311-1.505 1.085-1.372 1.669-.832 1.778.541.108 1.207.275 1.207.275s-1.789 1.912-1.265 2.731c.524.818 2.147.684 2.147.684s-1.24 1.503.099 1.912c1.01.281 2.043.465 3.087.551 0 0-2.313 1.228-.441 1.912 1.872.685 8.378-1.761 10.815-2.713 2.438-.952 2.496-2.998 2.496-6.145 0-3.148-1.764-4.375-1.764-4.375z" fill="#fff" stroke="#263238" stroke-linecap="round" stroke-linejoin="round"/><path d="M194.923 130.752s6.655-3.34 8.061-3.632a12.14 12.14 0 012.188-.293m-9.367 7.339s5.49-2.354 7.537-2.747a159.88 159.88 0 012.637-.492m-6.988 5.702s5.391-.918 7.704-2.396M-58.135 200H292.11" stroke="#263238" stroke-miterlimit="10"/></svg>