<svg width="150" height="182" viewBox="0 0 150 182" fill="none" xmlns="http://www.w3.org/2000/svg"><path d="M128.744 181.361H28.601a3.058 3.058 0 01-2.336-1.005 3.036 3.036 0 01-.759-2.416L42.691 8.45a3.858 3.858 0 011.246-2.418 3.905 3.905 0 012.54-1.008h100.142a3.073 3.073 0 012.337 1.009 3.034 3.034 0 01.758 2.418L132.53 177.94a3.859 3.859 0 01-1.247 2.417 3.903 3.903 0 01-2.539 1.004z" fill="url(#paint0_linear_572_9139)"/><path d="M113.75 17.865H76.744a2.466 2.466 0 01-1.873-.807 2.435 2.435 0 01-.61-1.938l1.03-10.19a.591.591 0 01.548-.498h41.542a.438.438 0 01.44.497l-1.029 10.19a3.1 3.1 0 01-1.004 1.94 3.134 3.134 0 01-2.038.806z" fill="#263238"/><path d="M97.084-.225a3.141 3.141 0 00-2.036.812 3.107 3.107 0 00-1 1.94l-.435 4.267h5.536l.429-4.267a2.425 2.425 0 00-.61-1.947 2.451 2.451 0 00-1.885-.805zm-.417 4.095a.993.993 0 01-.97-.692.977.977 0 01-.036-.42c.034-.303.179-.582.405-.787.227-.205.52-.32.827-.326a1.006 1.006 0 01.757.33.99.99 0 01.249.783c-.036.302-.18.58-.407.785-.226.205-.52.32-.825.327z" fill="#263238"/><path d="M114.047 7.385l-.744 7.41H98.321a2.427 2.427 0 00-.664-1.854 2.451 2.451 0 00-1.824-.762 3.148 3.148 0 00-1.99.763 3.114 3.114 0 00-1.04 1.852H77.821l.75-7.409h35.476z" stroke="#fff" stroke-width="16.267" stroke-linecap="round" stroke-linejoin="round"/><path d="M111.249 7.427a.947.947 0 01.47-.805H80.767a.95.95 0 00-.47.805c-.066.639.303.805.303.805h30.953s-.369-.166-.304-.805z" fill="url(#paint1_linear_572_9139)"/><path d="M129.077 176.188H29.81L46.637 10.202h99.268l-16.828 165.986z" fill="#fff"/><path d="M138.023 27.718h-87a.298.298 0 01-.297-.295.295.295 0 01.297-.296h87a.298.298 0 01.298.296.298.298 0 01-.298.295z" fill="#263238"/><path d="M62.357 19.866a5.316 5.316 0 01-1.724 3.316 5.375 5.375 0 01-3.49 1.377 4.189 4.189 0 01-3.213-1.372 4.136 4.136 0 01-1.032-3.321 5.316 5.316 0 011.718-3.31 5.374 5.374 0 013.479-1.383 4.188 4.188 0 013.225 1.364 4.135 4.135 0 011.037 3.329z" fill="url(#paint2_linear_572_9139)"/><path d="M54.952 19.162s-2.536 3.32-1.786 4.337c.75 1.018 7.792-4.68 9.482-6.633 1.69-1.953-.292-1.184-.292-1.184s.745.041.346.645c-.816 1.231-7.5 5.616-8.179 5.385-.678-.23.429-2.55.429-2.55zm82.929-.87h-8.928a.596.596 0 01-.596-.592.596.596 0 01.596-.592h8.928c.158 0 .309.063.421.174a.588.588 0 010 .837.598.598 0 01-.421.173zm-.28 2.758h-5.767a.596.596 0 01-.596-.593.596.596 0 01.596-.592h5.767a.596.596 0 01.596.593.596.596 0 01-.596.592zm-.28 2.757H122.25a.596.596 0 01-.596-.592.596.596 0 01.596-.592h15.071a.592.592 0 110 1.184z" fill="#263238"/><path d="M73.53 34.82c.076-.715.42-1.375.964-1.849a2.885 2.885 0 011.97-.707 2.292 2.292 0 011.894.828l-.655.592a1.582 1.582 0 00-1.28-.592 1.923 1.923 0 00-1.338.497 1.9 1.9 0 00-.62 1.278 1.5 1.5 0 00.365 1.28 1.518 1.518 0 001.242.496 1.944 1.944 0 001.393-.592l.541.592a2.8 2.8 0 01-2.065.828 2.275 2.275 0 01-1.865-.733 2.244 2.244 0 01-.546-1.918zm5.083 0c.079-.721.43-1.386.982-1.86a2.898 2.898 0 011.994-.696 2.28 2.28 0 011.83.699 2.254 2.254 0 01.599 1.857 2.858 2.858 0 01-.972 1.848 2.891 2.891 0 01-1.975.703 2.286 2.286 0 01-1.846-.688 2.258 2.258 0 01-.612-1.863zm4.446 0a1.495 1.495 0 00-.353-1.27 1.512 1.512 0 00-1.224-.505 1.929 1.929 0 00-1.321.507c-.36.33-.579.783-.614 1.268a1.5 1.5 0 00.356 1.268 1.517 1.517 0 001.222.507 1.93 1.93 0 001.32-.506c.36-.33.58-.784.614-1.269zm6.62-2.486l-.506 4.965h-.762l-2.417-3.36-.339 3.343h-.923l.506-4.965H86l2.417 3.36.34-3.36.922.017zm2.279.806h-1.661l.083-.782h4.262l-.077.781H92.91l-.429 4.184h-.928l.405-4.184zm6.132 4.142l-.876-1.456a1.062 1.062 0 01-.19 0h-1.131l-.149 1.444h-.929l.506-4.965h2.06c1.31 0 2.06.669 1.946 1.775a1.768 1.768 0 01-.371.97c-.219.28-.517.488-.855.598l.988 1.634h-1zm-.834-4.184h-1.083l-.203 1.976h1.084c.815 0 1.273-.366 1.339-.994.065-.627-.322-.94-1.137-.94v-.042zm6.142 3.053h-2.5l-.595 1.148h-.958l2.75-4.965h.881l1.785 4.948h-.97l-.393-1.13zm-.232-.722l-.726-2.171-1.155 2.171h1.881zm2.048-.609c.076-.715.42-1.375.964-1.85a2.885 2.885 0 011.97-.707 2.294 2.294 0 011.893.829l-.655.592a1.58 1.58 0 00-1.273-.592 1.927 1.927 0 00-1.34.496c-.366.33-.59.789-.625 1.28a1.513 1.513 0 00.365 1.28 1.518 1.518 0 001.242.494 1.94 1.94 0 001.393-.591l.542.591a2.8 2.8 0 01-2.066.829 2.27 2.27 0 01-1.864-.733 2.238 2.238 0 01-.546-1.918zm6.691-1.68h-1.667l.078-.782h4.238l-.078.781h-1.654l-.429 4.184h-.923l.435-4.184z" fill="#000"/><path d="M70.636 44.288H50.398a.597.597 0 01-.595-.592.59.59 0 01.595-.591h20.238a.597.597 0 01.595.591.59.59 0 01-.595.592zm-10.433 3.196h-10.12a.597.597 0 01-.595-.592.59.59 0 01.596-.592h10.119a.597.597 0 01.595.592.59.59 0 01-.595.592zm72.482 16.706h-84.28a.597.597 0 01-.595-.592.59.59 0 01.595-.592h84.28a.596.596 0 01.595.592.595.595 0 01-.595.592zm-.369 3.645H48.03a.597.597 0 01-.595-.592.59.59 0 01.595-.592h84.286a.595.595 0 01.595.592.595.595 0 01-.595.592zm-.37 3.651H47.661a.597.597 0 01-.596-.592.59.59 0 01.596-.591h84.285a.596.596 0 01.596.591.596.596 0 01-.596.592zm-.369 3.669H47.292a.597.597 0 01-.596-.591.59.59 0 01.596-.592h84.285a.596.596 0 01.595.592.596.596 0 01-.595.592zm-.375 3.622h-84.28a.597.597 0 01-.595-.592.59.59 0 01.595-.592h84.28c.158 0 .309.063.421.174a.588.588 0 010 .837.598.598 0 01-.421.173zm-.369 3.645h-84.28a.597.597 0 01-.595-.592.597.597 0 01.595-.592h84.28c.158 0 .309.063.421.174a.588.588 0 010 .837.598.598 0 01-.421.173zm-.369 3.651h-84.28a.597.597 0 01-.595-.591.59.59 0 01.595-.592h84.28a.592.592 0 110 1.184zm-.369 3.646H45.834a.597.597 0 01-.596-.592.59.59 0 01.596-.592h84.261a.596.596 0 01.596.592.596.596 0 01-.596.592zM88.06 93.364H45.447a.597.597 0 01-.595-.592.59.59 0 01.595-.592H88.06a.597.597 0 01.595.592.59.59 0 01-.595.592zm47.267-49.076h-14.535a.596.596 0 01-.596-.592.596.596 0 01.596-.592h14.535a.596.596 0 01.595.592.596.596 0 01-.595.592zm-6.065 54.023h-75.31a.597.597 0 01-.595-.592.59.59 0 01.596-.592h75.309c.158 0 .309.063.421.174a.588.588 0 010 .837.598.598 0 01-.421.173zm-.405 3.645H44.571a.597.597 0 01-.595-.591.591.591 0 01.595-.592h84.286a.595.595 0 01.595.592.595.595 0 01-.595.591zm-.37 3.646H44.202a.597.597 0 01-.596-.592.597.597 0 01.595-.592h84.286a.596.596 0 01.596.592.59.59 0 01-.596.592zm-.374 3.651h-84.28a.597.597 0 01-.595-.592.589.589 0 01.596-.591h84.279a.596.596 0 01.596.591.59.59 0 01-.596.592zm-.37 3.645H43.452a.597.597 0 01-.596-.591.591.591 0 01.596-.592h84.291a.596.596 0 01.596.592.596.596 0 01-.596.591zm-53.933 3.646H43.094a.598.598 0 01-.595-.592.591.591 0 01.595-.592H73.81a.597.597 0 01.595.592.597.597 0 01-.595.592z" fill="#263238"/><path d="M129.077 176.188H29.81L46.637 10.202h99.268l-16.828 165.986z" fill="#000" opacity=".2"/><path d="M113.011 171.176H13.743C31.97 117.786 42.981 63.592 45.446 10.214h99.267c-2.452 53.378-13.476 107.549-31.702 160.962z" fill="#fff"/><path d="M136.97 27.127H49.964a.305.305 0 01-.304-.284.282.282 0 01.18-.27.288.288 0 01.112-.02h87a.306.306 0 01.309.29.278.278 0 01-.085.203.287.287 0 01-.206.081z" fill="#263238"/><path d="M61.035 19.528a4.984 4.984 0 01-1.626 3.237 5.04 5.04 0 01-3.398 1.296 4.308 4.308 0 01-3.214-1.296 4.256 4.256 0 01-1.196-3.237 4.954 4.954 0 011.605-3.232 5.01 5.01 0 013.383-1.3 4.345 4.345 0 013.225 1.294 4.293 4.293 0 011.221 3.238z" fill="url(#paint3_linear_572_9139)"/><path d="M53.606 18.854s-2.38 3.213-1.613 4.196c.768.982 7.631-4.527 9.22-6.415 1.59-1.888-.35-1.13-.345-1.13.006 0 .744.041.375.591-.75 1.184-7.262 5.433-7.958 5.208-.696-.225.321-2.45.321-2.45zm82.894-.84h-8.928a.597.597 0 01-.625-.592.542.542 0 01.162-.43.562.562 0 01.433-.162h8.928a.596.596 0 01.596.592.557.557 0 01-.566.592zm-.19 2.663h-5.768a.598.598 0 01-.421-.174.588.588 0 01-.174-.418.542.542 0 01.162-.43.564.564 0 01.433-.162h5.768a.592.592 0 01.595.592.559.559 0 01-.595.591zm-.162 2.669h-15.071a.596.596 0 01-.596-.592.596.596 0 01.596-.592h15.065a.588.588 0 01.423 1.008.596.596 0 01-.417.176z" fill="#263238"/><path d="M72.618 34.003a2.77 2.77 0 01.954-1.806 2.796 2.796 0 011.94-.667 2.346 2.346 0 011.904.804l-.643.54a1.63 1.63 0 00-1.285-.593 1.875 1.875 0 00-1.308.462c-.36.315-.585.756-.627 1.23a1.501 1.501 0 00.41 1.233 1.517 1.517 0 001.221.46 1.95 1.95 0 001.387-.592l.547.55a2.806 2.806 0 01-2.059.806c-1.53.047-2.571-.989-2.44-2.427zm5.085 0a2.78 2.78 0 01.962-1.81 2.808 2.808 0 011.948-.663c1.548 0 2.601 1.041 2.47 2.473a2.789 2.789 0 01-.968 1.809 2.82 2.82 0 01-1.948.665c-1.548 0-2.59-1.053-2.465-2.474zm4.446 0a1.5 1.5 0 00-.403-1.222 1.519 1.519 0 00-1.204-.47 1.875 1.875 0 00-1.289.472c-.353.314-.574.75-.616 1.22a1.495 1.495 0 00.398 1.223 1.51 1.51 0 001.203.47c.474.01.934-.16 1.287-.474a1.86 1.86 0 00.618-1.219h.006zm6.577-2.408a699.813 699.813 0 01-.435 4.817h-.762a992.26 992.26 0 00-2.458-3.26c-.095 1.082-.197 2.171-.298 3.26h-.922c.154-1.61.3-3.215.434-4.817h.762l2.452 3.26c.096-1.088.197-2.171.286-3.26h.94zm2.291.757h-1.655c0-.254.042-.503.066-.757h4.238c0 .254-.042.503-.066.757h-1.654c-.12 1.35-.239 2.705-.37 4.06h-.928c.131-1.355.25-2.68.37-4.06zm6.191 4.06l-.893-1.414h-1.321c-.042.467-.083.94-.131 1.408h-.923c.151-1.61.294-3.215.429-4.817h2.06c1.309 0 2.071.645 1.976 1.716a1.71 1.71 0 01-1.19 1.515c.338.527.672 1.053 1.005 1.586l-1.012.006zm-.893-4.06h-1.077c-.053.64-.113 1.279-.167 1.918h1.084c.815 0 1.268-.356 1.321-.96.054-.603-.345-.958-1.16-.958zm6.191 2.942H100l-.596 1.118h-.952c.9-1.61 1.794-3.215 2.679-4.817h.916a497.807 497.807 0 011.822 4.817h-.97l-.393-1.118zm-.244-.699c-.25-.704-.5-1.402-.756-2.106-.375.704-.744 1.402-1.125 2.106h1.881zm2.041-.592c.075-.7.416-1.347.954-1.806a2.795 2.795 0 011.939-.667 2.392 2.392 0 011.911.804l-.649.539a1.628 1.628 0 00-1.286-.592 1.875 1.875 0 00-1.307.462 1.85 1.85 0 00-.627 1.23 1.488 1.488 0 00.409 1.233 1.521 1.521 0 001.221.46 1.948 1.948 0 001.387-.592l.548.55a2.798 2.798 0 01-2.06.805c-1.529.048-2.577-.988-2.44-2.426zm6.649-1.651h-1.655c0-.254.042-.503.065-.757h4.238c0 .254-.041.503-.065.757h-1.631c-.115 1.35-.238 2.703-.369 4.06h-.923c.102-1.355.227-2.68.34-4.06z" fill="#000"/><path d="M69.786 43.2H49.548a.599.599 0 01-.68-.315.59.59 0 01.412-.838.6.6 0 01.268.004h20.238a.6.6 0 01.68.315.589.589 0 01-.412.838.598.598 0 01-.268-.005zm-10.453 3.083H49.214a.597.597 0 01-.595-.592.59.59 0 01.595-.592h10.12a.597.597 0 01.595.592.59.59 0 01-.596.592zm72.113 16.214h-84.28a.597.597 0 01-.595-.592.59.59 0 01.596-.592h84.321c.158 0 .309.063.421.174a.588.588 0 01-.015.852.586.586 0 01-.448.158zm-.494 3.545H46.655a.556.556 0 01-.563-.358.548.548 0 01-.033-.234.59.59 0 01.596-.592h84.327a.566.566 0 01.433.162.56.56 0 01.162.43.587.587 0 01-.388.556.6.6 0 01-.237.036zm-.553 3.538H46.114a.556.556 0 01-.563-.357.547.547 0 01-.033-.234.588.588 0 01.388-.556.598.598 0 01.237-.036h84.31a.566.566 0 01.432.162.547.547 0 01.163.43.598.598 0 01-.193.438.596.596 0 01-.456.154zm-.56 3.545H45.553a.55.55 0 01-.532-.366.626.626 0 01.597-.817h84.28a.552.552 0 01.537.364.55.55 0 01.029.228.604.604 0 01-.185.429.6.6 0 01-.44.162zm-.584 3.545h-84.28a.545.545 0 01-.533-.365.537.537 0 01-.026-.227.62.62 0 01.63-.591h84.28a.547.547 0 01.56.591.63.63 0 01-.198.42.64.64 0 01-.433.172zm-.607 3.545h-84.28a.538.538 0 01-.53-.366.528.528 0 01-.023-.226.626.626 0 01.63-.592h84.281a.547.547 0 01.415.17.54.54 0 01.144.422.638.638 0 01-.637.592zm-.625 3.55H43.738a.538.538 0 01-.525-.367.638.638 0 01.614-.817h84.28a.547.547 0 01.411.172.534.534 0 01.142.42.637.637 0 01-.637.592zm-.642 3.545H43.089a.532.532 0 01-.527-.366.644.644 0 01.622-.818h84.28a.535.535 0 01.547.593.649.649 0 01-.63.592zM85.03 90.855H42.415a.533.533 0 01-.527-.366.65.65 0 01.628-.818h42.601a.539.539 0 01.525.367.53.53 0 01.023.225.656.656 0 01-.637.592zM134.476 43.2H119.94a.599.599 0 01-.679-.315.585.585 0 01.168-.726.604.604 0 01.511-.108h14.536a.6.6 0 01.679.315.585.585 0 01-.168.726.603.603 0 01-.511.108zm-8.69 52.46h-75.31a.526.526 0 01-.523-.366.519.519 0 01-.018-.226.65.65 0 01.654-.591h75.304a.523.523 0 01.542.591.65.65 0 01-.649.592zM125 99.205H40.738a.515.515 0 01-.522-.366.505.505 0 01-.014-.226.655.655 0 01.655-.592h84.28a.519.519 0 01.536.592.657.657 0 01-.673.592zm-.732 3.55h-84.28a.518.518 0 01-.536-.591.673.673 0 01.66-.592h84.293a.518.518 0 01.535.592.675.675 0 01-.672.591zm-.774 3.545h-84.28a.516.516 0 01-.516-.367.505.505 0 01-.013-.225.68.68 0 01.66-.592h84.286a.534.534 0 01.223.039.503.503 0 01.301.553.677.677 0 01-.661.592zm-.798 3.539h-84.28a.499.499 0 01-.405-.17.5.5 0 01-.118-.422.683.683 0 01.666-.592h84.28a.534.534 0 01.223.039c.07.03.133.075.183.131a.5.5 0 01.118.422.667.667 0 01-.667.592zm-54.387 3.544H37.594a.496.496 0 01-.517-.591.688.688 0 01.666-.592h30.709a.497.497 0 01.404.17.498.498 0 01.114.422.682.682 0 01-.661.591z" fill="#263238"/><path d="M113.011 171.176H13.743C31.97 117.786 42.981 63.592 45.446 10.214h99.267c-2.452 53.378-13.476 107.549-31.702 160.962z" fill="#000" opacity=".1"/><path d="M99.535 160.719H.268c22.892-49.921 38.047-100.6 45.178-150.517h99.268c-7.131 49.922-22.286 100.596-45.179 150.517z" fill="#fff"/><path d="M136.083 26.038h-87a.262.262 0 01-.28-.272.301.301 0 01.31-.267h87.006a.266.266 0 01.199.072.267.267 0 01.061.089c.013.033.02.07.019.106a.309.309 0 01-.315.272z" fill="#263238"/><path d="M60.815 18.937c-.375 2.367-2.816 4.237-5.423 4.237s-4.393-1.9-4.012-4.237c.381-2.338 2.774-4.243 5.357-4.243 2.584 0 4.459 1.876 4.078 4.243z" fill="url(#paint4_linear_572_9139)"/><path d="M53.44 18.292s-2.678 3.006-1.976 3.923c.703.918 8.06-4.237 9.78-5.994 1.72-1.758-.244-1.06-.244-1.06s.744.036.321.592c-.851 1.113-7.738 5.078-8.41 4.864-.673-.213.535-2.325.53-2.325zm82.971-.787h-8.929a.541.541 0 01-.595-.533.591.591 0 01.595-.533h8.929a.532.532 0 01.551.313.54.54 0 01.044.22.591.591 0 01-.595.532zm-.399 2.491h-5.768a.541.541 0 01-.55-.314.548.548 0 01-.046-.219.597.597 0 01.596-.533h5.768a.532.532 0 01.595.533.592.592 0 01-.595.533zm-.417 2.492h-15.071a.53.53 0 01-.595-.533.597.597 0 01.625-.533h15.101a.53.53 0 01.595.533.581.581 0 01-.215.402.595.595 0 01-.44.13zm-94 129.881H11.13a.405.405 0 01-.201-.028.406.406 0 01-.24-.31.394.394 0 01.024-.2.844.844 0 01.768-.533h30.464a.394.394 0 01.441.333.387.387 0 01-.024.2.847.847 0 01-.768.538zm54.703.001h-35.12a.395.395 0 01-.417-.539.844.844 0 01.769-.533h35.148a.405.405 0 01.363.148.396.396 0 01.06.385.865.865 0 01-.803.539zm-49.227-30.991H30.917a.434.434 0 01-.373-.149.418.418 0 01-.08-.39.776.776 0 01.738-.533h16.15a.426.426 0 01.458.33.417.417 0 01-.007.203.777.777 0 01-.732.539zm56.048-.001h-23.53a.421.421 0 01-.452-.538.776.776 0 01.738-.533H103.4a.427.427 0 01.369.147.414.414 0 01.083.386.77.77 0 01-.732.538zm-25.673 24.719a2.876 2.876 0 01-1.44-.308c-.757-.432-.941-1.183-.53-2.136a3.72 3.72 0 01.202-.414 27.16 27.16 0 01-7.143 1.739c-1.464.089-1.821-.479-1.857-.976-.072-.882.797-2.29 2.184-3.912-3.214 1.427-5.571 2.302-5.619 2.32-.172.065-.327 0-.357-.13a.346.346 0 01.256-.355c.054 0 2.857-1.059 6.512-2.728 3.714-4.024 9.893-8.966 13.095-10.652 2.304-1.213 3.643-1.545 3.988-.982.536.881-2.095 3.55-6.434 6.438a75.657 75.657 0 01-10.31 5.586c-1.672 1.829-2.773 3.397-2.708 4.249 0 .172.06.704 1.37.592a27.212 27.212 0 007.5-1.905c1.856-2.492 6.172-5.439 8.148-5.918.762-.19 1.065 0 1.19.207s.161.521-.255 1.053c-1.054 1.355-4.709 3.492-8.733 5.072a4.74 4.74 0 00-.44.775c-.316.752-.19 1.278.393 1.616 1.333.763 4.762-.326 8.166-1.888a2.13 2.13 0 01.167-.533c.952-2.16 5.607-5.491 8.083-5.326.494.03.596.249.596.426.053.781-2.042 2.231-3.81 3.314a49.74 49.74 0 01-4.434 2.367c.083.296.374.48.874.592 3.685.592 12.298-4.764 12.376-4.817a.305.305 0 01.41 0 .298.298 0 01-.143.379c-.357.231-8.964 5.592-12.904 4.941a1.336 1.336 0 01-1.19-.811c-2.638 1.178-5.37 2.125-7.203 2.125zm15.09-8.013c-2.18 0-6.382 3.042-7.191 4.876l-.066.154a47.754 47.754 0 004.131-2.237c2.548-1.556 3.47-2.503 3.453-2.734 0 0-.054-.047-.203-.053l-.125-.006zm-7.858-1.024a1.77 1.77 0 00-.37.054c-1.702.426-5.309 2.864-7.208 5.042 3.572-1.48 6.727-3.332 7.637-4.51.179-.23.239-.402.173-.503-.065-.1-.125-.083-.232-.083zm1.268-9.237c-.363 0-1.22.219-2.976 1.154-3.072 1.621-8.447 5.959-12.054 9.64a72.07 72.07 0 009.101-5.024c4.572-3.06 6.405-5.326 6.167-5.711-.036-.03-.107-.059-.238-.059zM67.493 41.04H47.255a.522.522 0 01-.513-.327.513.513 0 01-.034-.212.638.638 0 01.648-.532h20.238a.51.51 0 01.515.32.5.5 0 01.033.212.639.639 0 01-.649.539zm-10.713 2.9H46.66a.508.508 0 01-.511-.327.501.501 0 01-.03-.212.65.65 0 01.654-.539h10.12a.509.509 0 01.51.326c.026.068.036.14.031.213a.644.644 0 01-.655.538zm70.69 15.16H43.19a.49.49 0 01-.5-.327.483.483 0 01-.024-.211.663.663 0 01.667-.533h84.28a.488.488 0 01.389.143.48.48 0 01.134.39.66.66 0 01-.666.538zm-.822 3.314h-84.28a.49.49 0 01-.5-.327.483.483 0 01-.023-.211.674.674 0 01.672-.539h84.268a.5.5 0 01.388.149.48.48 0 01.136.39.678.678 0 01-.661.538zm-.845 3.314H41.518a.48.48 0 01-.495-.328.471.471 0 01-.017-.21.674.674 0 01.672-.539h84.28a.486.486 0 01.498.328c.022.068.029.14.02.21a.683.683 0 01-.673.54zm-.869 3.314H40.649a.483.483 0 01-.512-.538.686.686 0 01.678-.539h84.28a.48.48 0 01.494.328c.022.068.028.14.018.21a.674.674 0 01-.673.54zm-.892 3.314H39.756a.472.472 0 01-.491-.328.464.464 0 01-.015-.21.686.686 0 01.678-.539h84.286a.475.475 0 01.385.147.465.465 0 01.121.392.687.687 0 01-.678.538zm-.917 3.314h-84.28a.466.466 0 01-.494-.327.458.458 0 01-.012-.211.692.692 0 01.684-.539h84.28a.476.476 0 01.385.147.465.465 0 01.121.392.698.698 0 01-.684.538zm-.941 3.314h-84.28a.468.468 0 01-.485-.325.457.457 0 01-.015-.208.692.692 0 01.685-.538h84.285a.472.472 0 01.384.146.451.451 0 01.116.392.7.7 0 01-.69.533zm-.958 3.32H36.94a.468.468 0 01-.482-.331.46.46 0 01-.012-.208.71.71 0 01.69-.538h84.292a.466.466 0 01.5.538.714.714 0 01-.702.538zm-42.655 3.314H35.952a.466.466 0 01-.482-.331.46.46 0 01-.012-.208.722.722 0 01.696-.538h42.613a.467.467 0 01.488.329c.02.067.025.14.012.209a.721.721 0 01-.696.539zm53.613-44.578h-14.529a.52.52 0 01-.548-.539.643.643 0 01.649-.533h14.536a.502.502 0 01.392.144.51.51 0 01.149.389.644.644 0 01-.649.538zM118.91 90.115H43.601a.456.456 0 01-.482-.33.446.446 0 01-.006-.209.71.71 0 01.696-.538h75.31a.455.455 0 01.482.33.46.46 0 01.006.208.72.72 0 01-.697.539zm-1.053 3.314H33.553a.454.454 0 01-.482-.33.449.449 0 01-.006-.209.728.728 0 01.702-.538h84.286a.449.449 0 01.479.33.43.43 0 01.003.208.734.734 0 01-.678.538zm-1.084 3.314H32.488a.455.455 0 01-.476-.331.448.448 0 01-.007-.208.74.74 0 01.709-.538h84.285a.449.449 0 01.479.33c.018.068.019.14.004.209a.74.74 0 01-.709.538zm-1.083 3.314H31.405a.444.444 0 01-.476-.33.437.437 0 010-.209.746.746 0 01.714-.538h84.279a.448.448 0 01.477.538.74.74 0 01-.709.539zm-1.107 3.314h-84.28a.458.458 0 01-.207-.027.443.443 0 01-.269-.512.746.746 0 01.714-.532h84.286a.434.434 0 01.47.532.746.746 0 01-.714.539zm-54.703 3.314H29.166a.43.43 0 01-.378-.146.434.434 0 01-.092-.393.76.76 0 01.72-.532h30.702a.435.435 0 01.47.532.74.74 0 01-.708.539z" fill="#263238"/><g opacity=".2" fill="#000"><path d="M56.685 133.249c.303-.26 1.065-.846 1.518-1.183.202-.148.458-.166.595-.036.256.314.512.622.762.935 0 0-.846.941-1.12 1.261-2.737 3.225-4.374 6.326-4.166 6.918 2.798-.284 21.077-9.179 29.262-14.404-1.816-3.776-6.137-6.131-12.024-5.865-8.38.379-17.38 6.196-21.244 13.582a15.117 15.117 0 00-1.905 7.373 73.492 73.492 0 018.322-8.581zM51.25 148.44c2.006 1.852 4.988 2.959 8.738 2.959 9.363 0 19.982-6.817 23.405-15.256a12.95 12.95 0 00.988-6.45c-8.387 5.935-24.673 15.676-33.131 18.747z"/><path d="M57.446 133.841c.03 0-12.31 10.818-10.666 14.114 1.744 3.302 32.791-15.226 40.476-21.594 7.791-6.361 0-3.817 0-3.817s2.643.137.684 2.101c-3.922 4.012-32.184 18.304-34.452 17.534-2.268-.769 3.976-8.338 3.958-8.338z"/></g><path d="M19.684 147.203c-4.375 0-5.25-1.692-5.208-3.142.149-4.308 8.601-11.681 17.41-15.167 4.84-1.911 8.697-2.03 9.834-.302.929 1.42-.214 3.782-3.167 6.468-5.833 5.326-10.654 6.51-12.785 5.326-.3-.15-.555-.377-.738-.657a32.7 32.7 0 01-1.786.77c-.167.071-.328 0-.37-.107a.348.348 0 01.239-.367c.627-.26 1.192-.509 1.696-.745a2.192 2.192 0 01.405-1.717 4.176 4.176 0 013.327-1.81c.56 0 .887.278.87.668-.036.77-1.37 1.817-3.804 3.018.142.199.33.361.548.474 1.446.781 5.636.592 11.982-5.202 2.714-2.468 3.797-4.586 2.976-5.799-.988-1.509-4.667-1.332-9.149.438-8.565 3.385-16.78 10.456-16.922 14.551-.06 1.894 1.785 2.841 5.32 2.728 4.537-.148 9.328-1.982 13.358-4.142 1.274-2.42 4.982-5.569 8.929-7.456.785-.379 1.238-.468 1.446-.278.208.189.131.396-.095.745-.822 1.255-4.72 4.498-9.786 7.243a4.735 4.735 0 00-.172.415 1.43 1.43 0 00.297 1.716c1.679 1.385 7.78-2.746 9.964-4.456a.335.335 0 01.429 0c.095.094.053.266-.09.373-.327.266-8.422 6.509-10.791 4.533-.595-.486-.72-1.231-.399-2.154-4.09 2.13-8.833 3.882-13.22 4.018l-.548.017zm23.911-11.977a3.207 3.207 0 00-.738.29c-3.399 1.633-6.714 4.326-8.173 6.509a45.984 45.984 0 007.143-4.935 8.025 8.025 0 001.768-1.864zm-15.286 1.089a3.346 3.346 0 00-2.547 1.45c-.27.359-.386.81-.322 1.254 2.584-1.272 3.37-2.112 3.381-2.45 0-.207-.303-.248-.44-.254h-.072z" fill="url(#paint5_linear_572_9139)"/><defs><linearGradient id="paint0_linear_572_9139" x1="146.621" y1="5.024" x2="16.039" y2="12.318" gradientUnits="userSpaceOnUse"><stop offset=".068" stop-color="#007DB7"/><stop offset="1" stop-color="#00A4EF"/></linearGradient><linearGradient id="paint1_linear_572_9139" x1="110.931" y1="6.622" x2="101.174" y2="21.724" gradientUnits="userSpaceOnUse"><stop offset=".068" stop-color="#007DB7"/><stop offset="1" stop-color="#00A4EF"/></linearGradient><linearGradient id="paint2_linear_572_9139" x1="62.155" y1="15.171" x2="52.17" y2="15.975" gradientUnits="userSpaceOnUse"><stop offset=".068" stop-color="#007DB7"/><stop offset="1" stop-color="#00A4EF"/></linearGradient><linearGradient id="paint3_linear_572_9139" x1="60.805" y1="14.993" x2="50.91" y2="15.811" gradientUnits="userSpaceOnUse"><stop offset=".068" stop-color="#007DB7"/><stop offset="1" stop-color="#00A4EF"/></linearGradient><linearGradient id="paint4_linear_572_9139" x1="60.625" y1="14.694" x2="50.653" y2="15.582" gradientUnits="userSpaceOnUse"><stop offset=".068" stop-color="#007DB7"/><stop offset="1" stop-color="#00A4EF"/></linearGradient><linearGradient id="paint5_linear_572_9139" x1="44.023" y1="127.374" x2="12.534" y2="131.189" gradientUnits="userSpaceOnUse"><stop offset=".068" stop-color="#007DB7"/><stop offset="1" stop-color="#00A4EF"/></linearGradient></defs></svg>