<svg width="248" height="184" viewBox="0 0 248 184" fill="none" xmlns="http://www.w3.org/2000/svg"><path d="M99.268 132.298l.779-.359-.165-.937-.864-.067a3.601 3.601 0 00-.432-.815l.444-.755-.675-.675-.755.45a3.868 3.868 0 00-1.448-.609l-.22-.864h-.948l-.22.87a3.99 3.99 0 00-.858.274l-.681-.608-.785.547.322.84c-.206.218-.39.457-.547.712l-.895-.091-.329.895.743.505a4.35 4.35 0 00-.049.608v.268l-.779.438.244.919h.888c.127.278.29.538.487.773l-.383.797.73.609.706-.506c.269.154.554.274.852.36l.146.858.95.079.285-.81a3.52 3.52 0 00.913-.194l.608.608.828-.475-.225-.821c.229-.207.433-.44.608-.694l.84.152.402-.864-.657-.541c.08-.286.126-.58.14-.877zm-1.412 0a2.384 2.384 0 11-2.38-2.379 2.38 2.38 0 012.38 2.379zm69.533 0l.785-.359-.165-.937-.864-.067a3.597 3.597 0 00-.432-.815l.444-.755-.675-.675-.755.45a3.871 3.871 0 00-1.448-.609l-.219-.864h-.95l-.219.87a3.99 3.99 0 00-.858.274l-.681-.608-.785.547.322.84a4.445 4.445 0 00-.547.712l-.895-.091-.329.895.743.505a4.26 4.26 0 00-.049.608v.268l-.779.438.244.919h.888c.127.278.29.538.487.773l-.383.797.73.609.706-.506c.268.154.554.274.852.36l.146.858.949.079.286-.81c.312-.024.619-.089.913-.194l.608.608.828-.475-.225-.821c.229-.207.433-.44.608-.694l.84.152.402-.864-.657-.541c.08-.286.125-.58.134-.877zm-1.406 0a2.384 2.384 0 01-2.85 2.346 2.388 2.388 0 01-1.876-1.876 2.384 2.384 0 013.257-2.668 2.383 2.383 0 011.469 2.198zm-30.032-4.254h-6.086v30.878h6.086v-30.878z" fill="#263238"/><path d="M135.95 159.226h-6.085a.303.303 0 01-.304-.304v-30.884a.303.303 0 01.304-.304h6.085a.303.303 0 01.305.304v30.877a.322.322 0 01-.087.22.338.338 0 01-.1.067.296.296 0 01-.118.024zm-5.781-.609h5.477v-30.269h-5.477v30.269z" fill="#263238"/><path d="M140.204 138.572h-14.593v42.696h14.593v-42.696z" fill="#fff"/><path d="M140.204 181.59h-14.605a.303.303 0 01-.304-.304v-42.714a.305.305 0 01.304-.304h14.605a.303.303 0 01.305.304v42.696a.317.317 0 01-.018.122.313.313 0 01-.166.176.311.311 0 01-.121.024zm-14.294-.608h13.996v-42.105H125.91v42.105z" fill="#263238"/><path d="M133.991 138.572h-2.173v42.696h2.173v-42.696z" fill="#fff"/><path d="M133.998 181.59h-2.179a.313.313 0 01-.214-.09.313.313 0 01-.09-.214v-42.714a.305.305 0 01.304-.304h2.179a.305.305 0 01.304.304v42.696a.314.314 0 01-.185.296.286.286 0 01-.119.026zm-1.875-.608h1.57v-42.105h-1.57v42.105z" fill="#263238"/><path d="M224.39 126.803H71.749v5.276H224.39v-5.276z" fill="url(#paint0_linear_318_11281)"/><path d="M224.391 132.383H71.75a.305.305 0 01-.305-.304v-5.258a.304.304 0 01.305-.304h152.64a.303.303 0 01.304.304v5.276a.303.303 0 01-.304.286zm-152.337-.609h152.033v-4.667H72.054v4.667z" fill="#263238"/><path d="M90.687 132.359a.305.305 0 01-.304-.304v-4.942a.305.305 0 01.52-.215.309.309 0 01.088.215v4.942a.305.305 0 01-.304.304zm5.075 0a.305.305 0 01-.304-.304v-4.942a.31.31 0 01.304-.304.304.304 0 01.305.304v4.942a.305.305 0 01-.305.304zm5.082 0a.305.305 0 01-.304-.304v-4.942a.305.305 0 01.304-.304.312.312 0 01.305.304v4.942a.303.303 0 01-.305.304zm5.075 0a.306.306 0 01-.305-.304v-4.942a.305.305 0 01.305-.304.311.311 0 01.304.304v4.942a.305.305 0 01-.304.304zm5.075 0a.303.303 0 01-.305-.304v-4.942a.306.306 0 01.305-.304.305.305 0 01.304.304v4.942a.305.305 0 01-.304.304zm5.076 0a.303.303 0 01-.304-.304v-4.942a.305.305 0 01.304-.304.303.303 0 01.304.304v4.942a.305.305 0 01-.304.304zm5.075 0a.303.303 0 01-.304-.304v-4.942a.31.31 0 01.304-.304.303.303 0 01.304.304v4.942a.305.305 0 01-.304.304zm5.074 0a.305.305 0 01-.304-.304v-4.942a.311.311 0 01.304-.304.303.303 0 01.305.304v4.942a.303.303 0 01-.305.304zm5.082 0a.305.305 0 01-.304-.304v-4.942a.305.305 0 01.304-.304.312.312 0 01.305.304v4.942a.305.305 0 01-.305.304zm5.076 0a.306.306 0 01-.305-.304v-4.942a.305.305 0 01.609 0v4.942a.305.305 0 01-.304.304zm5.075 0a.303.303 0 01-.305-.304v-4.942a.306.306 0 01.305-.304.305.305 0 01.304.304v4.942a.305.305 0 01-.304.304zm5.076 0a.303.303 0 01-.304-.304v-4.942a.31.31 0 01.304-.304.303.303 0 01.304.304v4.942a.305.305 0 01-.304.304zm5.074 0a.303.303 0 01-.304-.304v-4.942a.31.31 0 01.304-.304.303.303 0 01.304.304v4.942a.305.305 0 01-.304.304zm5.082 0a.303.303 0 01-.304-.304v-4.942a.305.305 0 01.304-.304.31.31 0 01.304.304v4.942a.305.305 0 01-.304.304zm5.075 0a.305.305 0 01-.304-.304v-4.942a.305.305 0 01.304-.304.303.303 0 01.305.304v4.942a.303.303 0 01-.305.304zm5.076 0a.306.306 0 01-.305-.304v-4.942a.305.305 0 01.609 0v4.942a.305.305 0 01-.304.304zm5.075 0a.303.303 0 01-.305-.304v-4.942a.314.314 0 01.305-.304.305.305 0 01.304.304v4.942a.305.305 0 01-.304.304zm5.075 0a.303.303 0 01-.304-.304v-4.942a.31.31 0 01.304-.304.303.303 0 01.304.304v4.942a.305.305 0 01-.304.304zm5.081 0a.303.303 0 01-.304-.304v-4.942a.305.305 0 01.304-.304.31.31 0 01.304.304v4.942a.305.305 0 01-.304.304zm5.075 0a.303.303 0 01-.304-.304v-4.942a.305.305 0 01.304-.304.303.303 0 01.304.304v4.942a.305.305 0 01-.304.304z" fill="#263238"/><path d="M81.674 87.205H30.08L6.543 117.76v63.508h75.13V87.205z" fill="#fff"/><path d="M81.674 181.59H6.544a.304.304 0 01-.305-.305v-63.526a.31.31 0 01.061-.182l23.545-30.555a.286.286 0 01.237-.122h51.592a.304.304 0 01.305.304v94.063a.305.305 0 01-.305.323zm-74.85-.609H81.37V87.509H30.252L6.848 117.863l-.025 63.118z" fill="#263238"/><path d="M84.321 86.231h-4.46v51.118h4.46V86.231z" fill="#263238"/><path d="M84.328 137.653H79.86a.304.304 0 01-.304-.304V86.231a.31.31 0 01.304-.304h4.467a.31.31 0 01.304.304v51.118a.305.305 0 01-.304.304zm-4.163-.608h3.858v-50.51h-3.858v50.51zm-62.729 3.553a2.586 2.586 0 100-5.173 2.586 2.586 0 000 5.173z" fill="#263238"/><path d="M17.436 140.903a2.895 2.895 0 01-2.67-1.785 2.89 2.89 0 115.561-1.106 2.895 2.895 0 01-2.89 2.891zm0-5.173a2.28 2.28 0 00-2.238 2.727 2.282 2.282 0 102.238-2.727zm0 17.952a2.586 2.586 0 100-5.173 2.586 2.586 0 000 5.173z" fill="#263238"/><path d="M17.436 153.987a2.888 2.888 0 01-2.67-1.785 2.89 2.89 0 115.561-1.106 2.897 2.897 0 01-2.89 2.891zm0-5.173a2.285 2.285 0 00-1.614 3.896 2.282 2.282 0 101.614-3.896zm8.063 32.557a.304.304 0 01-.305-.304v-53.856a.306.306 0 01.305-.305h14.909V87.351a.304.304 0 11.608 0v39.86a.305.305 0 01-.304.304h-14.91v53.552a.304.304 0 01-.303.304z" fill="#263238"/><path d="M25.317 171.939H6.598a.303.303 0 110-.609h18.72a.304.304 0 110 .609z" fill="#263238"/><path d="M31.177 153.987h-3.042v3.042h3.042v-3.042z" fill="#fff"/><path d="M31.178 157.334h-3.043a.311.311 0 01-.304-.305v-3.042a.304.304 0 01.304-.305h3.043a.305.305 0 01.304.305v3.042a.305.305 0 01-.304.305zm-2.738-.609h2.434v-2.434H28.44v2.434z" fill="#263238"/><path d="M35.844 153.987h-3.042v3.042h3.042v-3.042z" fill="#fff"/><path d="M35.845 157.334h-3.043a.304.304 0 01-.304-.305v-3.042a.304.304 0 01.304-.305h3.043a.305.305 0 01.304.305v3.042a.305.305 0 01-.304.305zm-2.738-.609h2.434v-2.434h-2.434v2.434z" fill="#263238"/><path d="M40.513 153.987H37.47v3.042h3.043v-3.042z" fill="#fff"/><path d="M40.513 157.334H37.47a.305.305 0 01-.304-.305v-3.042a.305.305 0 01.304-.305h3.043a.305.305 0 01.304.305v3.042a.31.31 0 01-.304.305zm-2.738-.609h2.434v-2.434h-2.434v2.434z" fill="#263238"/><path d="M31.177 159.664h-3.042v3.043h3.042v-3.043z" fill="#fff"/><path d="M31.178 163.011h-3.043a.304.304 0 01-.304-.304v-3.043a.305.305 0 01.304-.304h3.043a.305.305 0 01.304.304v3.043a.303.303 0 01-.304.304zm-2.738-.608h2.434v-2.434H28.44v2.434z" fill="#263238"/><path d="M35.844 159.664h-3.042v3.043h3.042v-3.043z" fill="#fff"/><path d="M35.845 163.011h-3.043a.304.304 0 01-.304-.304v-3.043a.305.305 0 01.304-.304h3.043a.305.305 0 01.304.304v3.043a.303.303 0 01-.304.304zm-2.738-.608h2.434v-2.434h-2.434v2.434z" fill="#263238"/><path d="M40.513 159.664H37.47v3.043h3.043v-3.043z" fill="#fff"/><path d="M40.513 163.011H37.47a.305.305 0 01-.304-.304v-3.043a.305.305 0 01.304-.304h3.043a.305.305 0 01.304.304v3.043a.304.304 0 01-.304.304zm-2.738-.608h2.434v-2.434h-2.434v2.434z" fill="#263238"/><path d="M31.177 165.342h-3.042v3.042h3.042v-3.042z" fill="#fff"/><path d="M31.178 168.689h-3.043a.304.304 0 01-.304-.304v-3.043a.308.308 0 01.304-.304h3.043a.305.305 0 01.304.304v3.043a.303.303 0 01-.304.304zm-2.738-.608h2.434v-2.435H28.44v2.435z" fill="#263238"/><path d="M35.844 165.342h-3.042v3.042h3.042v-3.042z" fill="#fff"/><path d="M35.845 168.689h-3.043a.304.304 0 01-.304-.304v-3.043a.303.303 0 01.304-.304h3.043a.305.305 0 01.304.304v3.043a.303.303 0 01-.304.304zm-2.738-.608h2.434v-2.435h-2.434v2.435z" fill="#263238"/><path d="M40.513 165.342H37.47v3.042h3.043v-3.042z" fill="#fff"/><path d="M40.513 168.689H37.47a.305.305 0 01-.304-.304v-3.043a.304.304 0 01.304-.304h3.043a.308.308 0 01.304.304v3.043a.304.304 0 01-.304.304zm-2.738-.608h2.434v-2.435h-2.434v2.435z" fill="#263238"/><path d="M54.032 175.133a11.34 11.34 0 002.89 2.617c1.516.828 4.133 1.789 4.133 2.477v.693H48.933l.14-6.085 4.96.298z" fill="#fff"/><path d="M61.054 181.225H48.932a.32.32 0 01-.217-.095.315.315 0 01-.087-.222l.14-6.085a.294.294 0 01.097-.213.284.284 0 01.104-.065c.039-.014.08-.018.121-.014l4.96.274a.318.318 0 01.225.115c.78 1 1.724 1.858 2.794 2.538.425.231.955.481 1.466.724 1.753.828 2.824 1.369 2.824 2.02v.694a.306.306 0 01-.305.329zm-11.811-.609H60.75v-.389c-.048-.323-1.63-1.071-2.477-1.473a34.553 34.553 0 01-1.497-.736 11.213 11.213 0 01-2.896-2.587l-4.51-.255-.127 5.44z" fill="#263238"/><path d="M48.933 180.921h12.122v-.694c0-.194-.22-.42-.566-.651H48.963l-.03 1.345z" fill="#fff"/><path d="M61.054 181.225H48.932a.31.31 0 01-.304-.316l.03-1.345a.302.302 0 01.305-.292h11.526c.06 0 .119.017.17.048.328.226.7.53.7.907v.694a.303.303 0 01-.305.304zm-11.811-.608H60.75v-.39s0-.109-.359-.347h-11.13l-.018.737zm3.03-52.19s.408 15.616.408 17.441c0 1.826-1.826 5.477-2.233 9.128-.408 3.652-1.376 19.863-1.376 19.863h4.869s3.401-16.613 5.227-24.122c1.826-7.51 3.043-25.76 3.043-25.76h-9.33l-.608 3.45z" fill="#263238"/><path d="M53.941 175.164h-4.868a.31.31 0 01-.304-.323c0-.164.974-16.26 1.375-19.875a29.691 29.691 0 011.382-5.623c.43-1.118.715-2.285.851-3.475 0-1.825-.401-17.276-.407-17.435a.201.201 0 010-.06l.608-3.451a.3.3 0 01.298-.249h9.33a.31.31 0 01.225.097.301.301 0 01.079.225c0 .183-1.217 18.372-3.043 25.815-1.826 7.442-5.19 23.94-5.227 24.11a.303.303 0 01-.299.244zm-4.545-.609h4.296c.432-2.087 3.5-16.96 5.185-23.891 1.685-6.932 2.835-22.9 3.042-25.383h-8.78l-.56 3.165c0 .779.407 15.651.407 17.422a14.379 14.379 0 01-.882 3.652 28.977 28.977 0 00-1.351 5.476c-.372 3.354-1.217 17.253-1.357 19.559z" fill="#263238"/><path d="M50.083 116.476s-.274 6.748.553 9.091c.828 2.343 2.063 6.889 2.063 6.889s1.516 11.295 1.516 13.09-1.79 6.475-1.79 10.193 1.516 19.151 1.516 19.151l4.96.274s2.756-19.011 3.991-26.04c1.236-7.029 1.382-17.648.968-20.94-.414-3.292-.274-11.435-.274-11.435l-13.503-.273z" fill="#263238"/><path d="M58.9 175.438l-4.96-.28a.305.305 0 01-.285-.274c-.061-.609-1.516-15.482-1.516-19.175 0-2.234.609-4.808 1.144-6.877.319-1.083.534-2.193.646-3.317 0-1.752-1.497-12.937-1.51-13.047 0 0-1.217-4.527-2.056-6.828-.84-2.3-.609-8.927-.566-9.207a.292.292 0 01.31-.292l13.504.274a.316.316 0 01.298.31c0 .079-.134 8.142.274 11.392.389 3.128.316 13.747-.968 21.031-1.217 6.944-3.968 25.839-3.998 26.028a.298.298 0 01-.317.262zm-4.68-.871l4.419.244c.347-2.367 2.811-19.279 3.955-25.766 1.278-7.23 1.351-17.757.962-20.855-.371-2.963-.304-9.645-.28-11.173l-12.901-.261c-.037 1.326-.153 6.694.547 8.684.822 2.324 2.057 6.858 2.07 6.906.072.499 1.527 11.374 1.527 13.169a18.064 18.064 0 01-.663 3.463c-.5 2.039-1.126 4.57-1.126 6.731 0 3.395 1.29 16.82 1.49 18.858zm15.61-61.511l-3.358-4.29 10.077-7.839 5.221 3.828-11.94 8.301z" fill="#263238"/><path d="M69.83 113.36a.3.3 0 01-.243-.115l-3.353-4.291a.31.31 0 01-.067-.225.324.324 0 01.115-.201l10.078-7.838a.3.3 0 01.365 0l5.227 3.828a.3.3 0 01.126.247.303.303 0 01-.126.246l-11.945 8.301a.283.283 0 01-.177.048zm-2.951-4.539l3.042 3.821 11.356-7.911-4.692-3.438-9.706 7.528z" fill="#263238"/><path d="M70.347 112.095l-2.951-3.767 8.854-6.889 4.588 3.365-10.491 7.291z" fill="#fff"/><path d="M70.347 112.246a.156.156 0 01-.064-.014.159.159 0 01-.051-.04l-2.952-3.773a.147.147 0 010-.11.157.157 0 01.055-.103l8.854-6.883a.157.157 0 01.183 0l4.588 3.359c.02.014.037.033.048.056.01.022.015.047.013.072a.151.151 0 01-.06.122l-10.492 7.302a.171.171 0 01-.122.012zm-2.732-3.894l2.769 3.535 10.193-7.089-4.32-3.165-8.642 6.719z" fill="#263238"/><path d="M67.487 104.944s2.24-1.4 2.988-1.497c.748-.098 3.827.28 4.01.657.183.377 0 .84-.371.84s-2.89-.56-2.89-.56l-1.68 1.399s3.45-.097 3.45.463-.931.651-1.4.56a18.344 18.344 0 00-2.148-.091c-.28 0-1.582.931-2.61.931h-1.583l-.377-1.4 2.61-1.302z" fill="#fff"/><path d="M66.843 107.956h-1.582a.309.309 0 01-.188-.061.307.307 0 01-.11-.164l-.371-1.4a.31.31 0 01.158-.353l2.599-1.296c.285-.182 2.318-1.43 3.097-1.527.505-.061 3.998.17 4.32.815a.976.976 0 010 .931.725.725 0 01-.608.347c-.353 0-2.178-.389-2.811-.529l-.907.754c1.034 0 2.392.091 2.757.444a.46.46 0 01.146.335.746.746 0 01-.286.609 2.01 2.01 0 01-1.48.267 15.646 15.646 0 00-2.086-.085c-.043 0-.274.128-.457.219a5.23 5.23 0 01-2.19.694zm-1.35-.608h1.35a4.901 4.901 0 001.88-.646c.221-.145.47-.243.731-.286a16.82 16.82 0 012.21.098c.328.068.67.019.967-.14a.135.135 0 00.048-.055 11.248 11.248 0 00-3.121-.231.301.301 0 01-.293-.195.293.293 0 01.092-.341l1.68-1.399a.282.282 0 01.262-.061c1.216.268 2.603.547 2.823.547.02.001.04-.004.058-.015a.108.108 0 00.039-.045.355.355 0 000-.335 12.652 12.652 0 00-3.706-.487c-1.01.364-1.97.85-2.86 1.448l-2.392 1.218.231.925z" fill="#263238"/><path d="M65.26 107.645l-5.976 1.869.28-3.268h5.319l.377 1.399z" fill="#fff"/><path d="M59.284 109.818a.303.303 0 01-.298-.335l.28-3.261a.298.298 0 01.298-.28h5.319a.302.302 0 01.298.225l.371 1.399a.304.304 0 01-.207.372l-5.97 1.844-.09.036zm.56-3.268l-.213 2.538 5.258-1.643-.237-.895h-4.808z" fill="#263238"/><path d="M60.83 92.06s2.477 5.374 2.757 9.506c.28 4.132.962 13.504 1.102 14.325.14.822-1.102 1.656-1.516 1.795-.413.14-10.607.548-11.848.274-1.241-.274-2.757-2.203-2.757-3.17 0-.968 1.656-19.973 1.79-21.908.133-1.935 4.66-5.057 4.66-5.057l5.813 4.236z" fill="url(#paint1_linear_318_11281)"/><path d="M53.68 118.356a17.67 17.67 0 01-2.435-.097c-1.387-.31-2.994-2.361-2.994-3.469 0-.608.67-8.519 1.217-14.879.286-3.407.536-6.353.609-7.046.146-2.015 4.314-4.954 4.789-5.283a.304.304 0 01.353 0l5.811 4.23a.255.255 0 01.098.115c.103.225 2.507 5.477 2.787 9.615.286 4.339.961 13.498 1.095 14.295.183 1.095-1.32 1.996-1.722 2.13-.401.134-6.189.389-9.609.389zm1.332-30.147c-1.327.943-4.26 3.304-4.351 4.698-.049.7-.298 3.651-.609 7.06-.51 5.999-1.217 14.221-1.217 14.823 0 .785 1.357 2.617 2.52 2.873 1.162.255 11.063-.122 11.696-.268.365-.122 1.393-.864 1.296-1.448-.14-.846-.815-10.066-1.101-14.362-.256-3.773-2.435-8.678-2.696-9.323l-5.538-4.053z" fill="#263238"/><path d="M54.385 78.77l1.515 4.784-.882 4.278L59.8 91.86l2.264-5.032-.128-9.317-7.552 1.26z" fill="#fff"/><path d="M59.801 92.164a.316.316 0 01-.194-.067l-4.79-4.028a.305.305 0 01-.097-.298l.864-4.2-1.485-4.71a.28.28 0 01.03-.249.303.303 0 01.208-.146l7.552-1.254a.298.298 0 01.353.292l.128 9.317a.3.3 0 010 .128l-2.27 5.039a.292.292 0 01-.207.17l-.092.006zm-4.448-4.448l4.333 3.651 2.075-4.607-.122-8.89-6.858 1.144 1.406 4.448a.261.261 0 010 .152l-.834 4.102z" fill="#263238"/><path d="M57.154 81.29l-2.896 1.381.633 1.51 2.769-1.382-.505-1.51z" fill="#fff"/><path d="M54.89 84.484a.286.286 0 01-.103 0 .311.311 0 01-.177-.164l-.608-1.515a.304.304 0 01.152-.39l2.897-1.387a.322.322 0 01.25 0 .328.328 0 01.17.188l.505 1.51a.304.304 0 01-.159.365l-2.769 1.387a.255.255 0 01-.158.006zm-.237-1.661l.39.943 2.245-1.126-.31-.93-2.325 1.113z" fill="#263238"/><path d="M66.349 77.888l.608 2.77s1.388 1.01 1.004 1.508a8.876 8.876 0 01-1.132 1.138s-.882 4.15-1.509 4.26a8.076 8.076 0 01-4.26-.608c-1.387-.755-2.896-3.524-2.896-3.524l-.256-4.91 8.44-.634z" fill="#fff"/><path d="M64.445 87.947a7.912 7.912 0 01-3.517-.73c-1.448-.786-2.958-3.53-3.043-3.652a.238.238 0 01-.036-.128l-.25-4.91a.298.298 0 01.28-.317l8.435-.608a.304.304 0 01.316.237l.609 2.66c.292.224 1.01.827 1.095 1.374a.641.641 0 01-.122.493c-.33.406-.697.78-1.095 1.12-.426 1.96-1.059 4.26-1.728 4.412-.313.044-.628.06-.944.049zm-5.97-4.607c.226.402 1.558 2.702 2.745 3.347a8.009 8.009 0 004.071.609c.28-.195.895-2.252 1.272-4.047a.347.347 0 01.103-.17c.396-.327.761-.69 1.09-1.084-.043-.31-.609-.821-.943-1.077a.334.334 0 01-.122-.183l-.572-2.513-7.875.609.231 4.509z" fill="#263238"/><path d="M61.456 79.105l.39 2.106s4.223.468 5.476-.31c1.254-.78.548-2.891 0-3.202-.547-.31-5.866 1.406-5.866 1.406z" fill="#fff"/><path d="M64.444 81.661a25.872 25.872 0 01-2.61-.146.304.304 0 01-.268-.25l-.39-2.105a.304.304 0 01.207-.347c2.033-.657 5.526-1.71 6.086-1.381a2.623 2.623 0 01.852 1.99 1.905 1.905 0 01-.834 1.758c-.609.371-1.893.481-3.043.481zm-2.318-.73c1.29.128 4.156.267 5.05-.286a1.346 1.346 0 00.554-1.217 2.148 2.148 0 00-.547-1.473c-.378-.103-2.976.609-5.362 1.351l.305 1.625z" fill="#263238"/><path d="M54.008 79.397l16.62-1.637-3.14-1.382-1.894-5.16a2.184 2.184 0 00-1.509-.505c-1.004 0-5.16-1.01-7.552.377-2.391 1.388-3.408 3.146-2.525 8.307z" fill="url(#paint2_linear_318_11281)"/><path d="M54.007 79.702a.298.298 0 01-.298-.25c-.925-5.416.225-7.211 2.666-8.623 1.96-1.138 4.923-.754 6.694-.53.334.054.671.09 1.01.11a2.525 2.525 0 011.728.609.26.26 0 01.067.11l1.826 5.038 3.042 1.339a.303.303 0 01-.091.578l-16.62 1.637-.024-.018zm5.995-9.037a6.786 6.786 0 00-3.323.688c-2.215 1.284-3.201 2.841-2.434 7.716l15.177-1.497-2.081-.92a.268.268 0 01-.165-.17l-1.862-5.087a2.002 2.002 0 00-1.253-.377 10.579 10.579 0 01-1.09-.11 22.506 22.506 0 00-2.97-.243zm1.844 10.546l-6.64-.31-.31-.938 6.56-.857.39 2.105z" fill="#263238"/><path d="M61.846 81.514l-6.65-.334a.304.304 0 01-.275-.207l-.316-.937a.304.304 0 010-.262.316.316 0 01.219-.14l6.578-.834a.298.298 0 01.335.25l.395 2.105a.324.324 0 01-.073.256.297.297 0 01-.213.103zm-6.414-.906l6.05.28-.268-1.449-5.897.78.115.389z" fill="#263238"/><path d="M58.225 83.803a1.826 1.826 0 01-1.826-1.826v-1.406a1.826 1.826 0 013.652 0v1.382a1.826 1.826 0 01-1.826 1.85z" fill="#fff"/><path d="M58.226 84.107a2.13 2.13 0 01-2.13-2.13v-1.405a2.13 2.13 0 114.26 0v1.381a2.13 2.13 0 01-2.13 2.154zm0-5.032a1.522 1.522 0 00-1.522 1.52v1.382a1.521 1.521 0 003.043 0v-1.405a1.522 1.522 0 00-1.521-1.498z" fill="#263238"/><path d="M54.112 86.055l7.503 4.844-.547 2.817-7.656-5.391.7-2.27z" fill="#fff"/><path d="M61.067 94.02a.28.28 0 01-.176-.06l-7.656-5.386a.299.299 0 01-.115-.34l.7-2.264a.341.341 0 01.188-.201.315.315 0 01.268.03l7.503 4.868a.316.316 0 01.134.317l-.547 2.811a.304.304 0 01-.183.226.4.4 0 01-.116 0zm-7.302-5.817l7.095 4.99.414-2.148-6.992-4.516-.517 1.674z" fill="#263238"/><path d="M53.388 92.889s-1.218-.274-1.93 1.515-1.217 21.628-.961 22.729a3.115 3.115 0 002.617 2.069c.967 0 16.808-6.341 16.808-6.341l-.414-1.789-13.09.554 1.217-13.09" fill="url(#paint3_linear_318_11281)"/><path d="M53.113 119.518a3.411 3.411 0 01-2.91-2.3c-.334-1.327.287-21.123.974-22.912.609-1.612 1.76-1.825 2.276-1.704a.307.307 0 01.235.246c.007.04.006.08-.003.12a.31.31 0 01-.36.23c-.048 0-1.004-.17-1.582 1.327-.608 1.637-1.26 21.299-.955 22.516a2.821 2.821 0 002.325 1.826c.736-.03 10.15-3.7 16.43-6.219l-.298-1.29-12.834.541a.315.315 0 01-.304-.207.282.282 0 01-.013-.127l1.218-13.09a.31.31 0 01.449-.24.303.303 0 01.16.3l-1.218 12.737 12.737-.535a.316.316 0 01.31.237l.414 1.789a.317.317 0 01-.183.353c-2.604 1.09-15.882 6.402-16.868 6.402z" fill="#263238"/><path d="M69.508 111.072s2.184-1.747 2.464-2.398c.28-.651 2.149-.937 2.435-1.028.286-.091.65-.651.93-.371s0 .931-.28 1.022c-.28.091-1.77.937-1.77.937l3.45-.28a.611.611 0 01.189.743c-.189.468-1.029.839-1.029.839s-.742.658-1.49 1.218c-.749.559-4.48 1.107-4.48 1.107l-.42-1.789z" fill="#fff"/><path d="M69.921 113.165a.302.302 0 01-.298-.231l-.413-1.795a.311.311 0 01.109-.304c.822-.658 2.197-1.857 2.373-2.282.268-.609 1.351-.907 2.343-1.132l.268-.061c.075-.044.147-.095.213-.152.213-.171.651-.53 1.034-.153a.833.833 0 01.17.786 1.016 1.016 0 01-.571.748c-.067 0-.237.11-.463.225l2.02-.164a.296.296 0 01.208.061.928.928 0 01.286 1.101 2.4 2.4 0 01-1.138.986c-.159.134-.816.7-1.48 1.217-.784.609-4.228 1.108-4.618 1.169l-.043-.019zm-.073-1.978l.305 1.333c1.436-.225 3.596-.663 4.065-1.01.73-.548 1.466-1.217 1.472-1.217a.208.208 0 01.08-.049 1.92 1.92 0 00.864-.675.325.325 0 000-.317l-3.31.268a.304.304 0 01-.176-.572c.254-.14 1.532-.858 1.824-.955a.57.57 0 00.183-.347.252.252 0 000-.177 1.76 1.76 0 01-.22.189 1.52 1.52 0 01-.4.262l-.335.079c-.433.097-1.74.389-1.911.779-.299.639-1.862 1.941-2.44 2.409z" fill="#263238"/><path d="M58.9 175.133a11.338 11.338 0 002.891 2.617c1.515.828 4.132 1.789 4.132 2.477v.693H53.801l.14-6.085 4.96.298z" fill="#fff"/><path d="M65.924 181.225H53.8a.32.32 0 01-.217-.095.318.318 0 01-.087-.222l.14-6.085a.296.296 0 01.097-.213.284.284 0 01.226-.079l4.96.274a.332.332 0 01.225.115c.779 1 1.723 1.858 2.793 2.538.426.231.955.481 1.466.724 1.753.828 2.824 1.369 2.824 2.02v.694a.304.304 0 01-.304.329zm-11.812-.609h11.507v-.389c-.048-.323-1.63-1.071-2.476-1.473a34.559 34.559 0 01-1.498-.736 11.213 11.213 0 01-2.896-2.587l-4.51-.255-.127 5.44z" fill="#263238"/><path d="M53.8 180.921h12.123v-.694c0-.194-.22-.42-.566-.651H53.831l-.03 1.345z" fill="#fff"/><path d="M65.924 181.225H53.8a.31.31 0 01-.304-.316l.03-1.345a.302.302 0 01.304-.292h11.527c.06 0 .119.017.17.048.329.226.7.53.7.907v.694a.304.304 0 01-.304.304zm-11.812-.608h11.507v-.39s0-.109-.359-.347H54.13l-.018.737z" fill="#263238"/><path d="M163.62 111.376h-18.391v15.445h18.391v-15.445z" fill="#fff"/><path d="M163.639 127.119H145.23a.303.303 0 01-.304-.304v-15.439a.303.303 0 01.304-.304h18.409a.305.305 0 01.304.304v15.445a.305.305 0 01-.304.298zm-18.093-.608h17.788V111.68h-17.8l.012 14.831z" fill="#263238"/><path d="M166.455 111.376h-13.442v15.445h13.442v-15.445z" fill="#263238"/><path d="M166.456 127.119h-13.443a.305.305 0 01-.304-.304v-15.439a.303.303 0 01.304-.304h13.443a.303.303 0 01.304.304v15.445a.303.303 0 01-.304.298zm-13.138-.608h12.834V111.68h-12.859l.025 14.831z" fill="#263238"/><path d="M194.339 108.857h23.916a8.063 8.063 0 018.063 8.063v30.884h-34.991v-35.905a3.042 3.042 0 013.012-3.042z" fill="#fff"/><path d="M226.318 148.12h-34.991a.303.303 0 01-.305-.304v-35.947a3.326 3.326 0 013.317-3.317h23.916a8.378 8.378 0 018.367 8.368v30.883a.313.313 0 01-.019.121.312.312 0 01-.166.172.301.301 0 01-.119.024zm-34.687-.609h34.383V116.92a7.764 7.764 0 00-7.759-7.747h-23.916a2.712 2.712 0 00-2.708 2.708v35.63z" fill="#263238"/><path d="M188.74 139.601h40.164a4.112 4.112 0 012.905 1.203 4.103 4.103 0 011.203 2.904v7.455h-48.379v-7.467a4.108 4.108 0 014.107-4.095z" fill="url(#paint4_linear_318_11281)"/><path d="M233.013 151.455h-48.38a.305.305 0 01-.304-.304v-7.455a4.42 4.42 0 014.412-4.412h40.164a4.42 4.42 0 014.412 4.412v7.467a.306.306 0 01-.304.292zm-48.075-.609h47.77v-7.15a3.803 3.803 0 00-3.803-3.804h-40.164a3.803 3.803 0 00-3.803 3.804v7.15z" fill="#263238"/><path d="M179.308 150.237h59.029a2.587 2.587 0 012.586 2.587v28.443h-64.201v-28.443a2.586 2.586 0 012.586-2.587z" fill="#263238"/><path d="M240.923 181.59h-64.202a.303.303 0 01-.304-.305v-28.461a2.89 2.89 0 012.891-2.891h59.028a2.89 2.89 0 012.891 2.891v28.443a.306.306 0 01-.304.323zm-63.897-.609h63.592v-28.157a2.281 2.281 0 00-2.282-2.282h-59.028a2.281 2.281 0 00-2.282 2.282v28.157zm28.065-41.344a.305.305 0 01-.304-.305v-7.418a.305.305 0 01.304-.304h13.388v-22.753a.306.306 0 01.305-.305.305.305 0 01.304.305v23.057a.303.303 0 01-.304.305h-13.388v7.113a.306.306 0 01-.305.305z" fill="#263238"/><path d="M225.996 122.78h-7.193a.305.305 0 01-.304-.304.303.303 0 01.304-.305h7.193a.3.3 0 01.215.09.3.3 0 010 .43.303.303 0 01-.215.089z" fill="#263238"/><path d="M210.6 82.878h-27.585v5.276H210.6v-5.276z" fill="#fff"/><path d="M210.6 88.482h-27.586a.305.305 0 01-.304-.304v-5.27a.304.304 0 01.304-.304H210.6a.305.305 0 01.304.304v5.27a.305.305 0 01-.304.304zm-27.281-.608h26.976v-4.662h-26.976v4.662z" fill="#263238"/><path d="M191.814 88.318a.309.309 0 01-.304-.304V82.81a.304.304 0 11.608 0v5.203a.304.304 0 01-.304.304zm1.844 0a.303.303 0 01-.304-.304V82.81a.304.304 0 11.608 0v5.203a.304.304 0 01-.304.304zm1.844 0a.306.306 0 01-.305-.304V82.81a.304.304 0 11.609 0v5.203a.311.311 0 01-.304.304zm1.837 0a.31.31 0 01-.304-.304V82.81a.304.304 0 11.609 0v5.203a.304.304 0 01-.305.304zm1.844 0a.303.303 0 01-.304-.304V82.81a.304.304 0 11.608 0v5.203a.304.304 0 01-.304.304zm1.844 0a.303.303 0 01-.304-.304V82.81a.304.304 0 11.608 0v5.203a.309.309 0 01-.304.304zm1.838 0a.31.31 0 01-.304-.304V82.81a.304.304 0 11.608 0v5.203a.304.304 0 01-.304.304z" fill="#263238"/><path d="M215.669 86.997l-8.215 29.679a5.58 5.58 0 01-4.934 3.748 5.581 5.581 0 01-2.156-.298 5.57 5.57 0 01-3.457-7.089l8.216-29.685a5.579 5.579 0 1110.546 3.645z" fill="url(#paint5_linear_318_11281)"/><path d="M202.177 120.735a6.001 6.001 0 01-1.911-.316 5.876 5.876 0 01-3.375-2.983 5.88 5.88 0 01-.276-4.496l8.209-29.667a5.892 5.892 0 0110.863-.69 5.885 5.885 0 01.286 4.5l-8.21 29.679a5.899 5.899 0 01-2.158 2.879 5.899 5.899 0 01-3.428 1.094zm8.215-40.84a5.287 5.287 0 00-4.984 3.56l-8.209 29.674a5.292 5.292 0 00.16 4.101 5.282 5.282 0 005.126 3.024 5.277 5.277 0 004.682-3.675l8.197-29.667a5.273 5.273 0 00-.698-4.778 5.287 5.287 0 00-4.292-2.214l.018-.024zm-43.303 30.885l7.467-4.4-6.329-4.193-1.138 8.593z" fill="#263238"/><path d="M167.089 111.084a.318.318 0 01-.164-.049.293.293 0 01-.11-.126.296.296 0 01-.024-.166l1.138-8.592a.303.303 0 01.17-.238.311.311 0 01.299 0l6.328 4.193a.284.284 0 01.134.256.294.294 0 01-.146.255l-7.467 4.4a.288.288 0 01-.158.067zm1.375-8.373l-.991 7.491 6.511-3.834-5.52-3.657z" fill="#263238"/><path d="M186.764 84.923l-3.551-2.352-11.295 17.052 3.551 2.352 11.295-17.052z" fill="#fff"/><path d="M175.474 102.278a.277.277 0 01-.165-.048l-3.554-2.35a.3.3 0 01-.127-.194.309.309 0 01.042-.231l11.295-17.04a.304.304 0 01.19-.135.303.303 0 01.23.044l3.554 2.355a.294.294 0 01.127.195.288.288 0 01-.042.225l-11.295 17.039a.303.303 0 01-.255.14zm-3.128-2.738l3.042 2.014 10.954-16.54-3.042-2.02-10.954 16.546z" fill="#263238"/><path d="M176.052 89.018l7.61 5.04-7.965 12.025a1.072 1.072 0 01-1.484.301l-5.824-3.858a1.069 1.069 0 01-.302-1.484l7.965-12.024z" fill="url(#paint6_linear_318_11281)"/><path d="M174.776 106.855a1.381 1.381 0 01-.755-.232l-5.805-3.84a1.387 1.387 0 01-.39-1.91l7.984-12.025a.31.31 0 01.426-.085l7.589 5.026a.304.304 0 01.085.42l-7.966 12.025a1.375 1.375 0 01-1.168.621zm1.357-17.417l-7.796 11.769a.781.781 0 00-.115.609.747.747 0 00.328.487l5.806 3.846a.772.772 0 001.065-.219l7.795-11.77-7.083-4.722z" fill="#263238"/><path d="M184.231 90.685a5.782 5.782 0 100-11.563 5.782 5.782 0 000 11.563z" fill="#fff"/><path d="M184.231 90.99a6.086 6.086 0 110-12.172 6.086 6.086 0 010 12.172zm0-11.563a5.479 5.479 0 00-5.372 6.546 5.482 5.482 0 004.303 4.303 5.48 5.48 0 006.546-5.372 5.477 5.477 0 00-5.477-5.477z" fill="#263238"/><path d="M184.231 87.643a2.738 2.738 0 100-5.477 2.738 2.738 0 000 5.477z" fill="#263238"/><path d="M184.231 87.947a3.04 3.04 0 01-2.984-3.637 3.037 3.037 0 012.391-2.39 3.043 3.043 0 11.593 6.027zm0-5.477a2.433 2.433 0 100 4.866 2.433 2.433 0 000-4.866z" fill="#263238"/><path d="M210.6 90.685a5.782 5.782 0 10-.001-11.563 5.782 5.782 0 00.001 11.563z" fill="#fff"/><path d="M210.599 90.99a6.088 6.088 0 01-5.622-3.757 6.08 6.08 0 011.319-6.632 6.084 6.084 0 019.363.922 6.083 6.083 0 01-5.06 9.467zm0-11.563a5.479 5.479 0 00-5.372 6.546 5.482 5.482 0 004.304 4.303 5.477 5.477 0 101.068-10.849z" fill="#263238"/><path d="M210.6 87.643a2.738 2.738 0 100-5.477 2.738 2.738 0 000 5.477z" fill="#263238"/><path d="M210.599 87.947a3.043 3.043 0 110-6.085 3.043 3.043 0 010 6.085zm0-5.477a2.433 2.433 0 100 4.866 2.433 2.433 0 000-4.866z" fill="#263238"/><path d="M202.226 120.638a5.781 5.781 0 100-11.563 5.781 5.781 0 000 11.563z" fill="#fff"/><path d="M202.227 120.942a6.09 6.09 0 01-5.622-3.756 6.083 6.083 0 011.319-6.632 6.086 6.086 0 114.303 10.388zm0-11.562a5.477 5.477 0 100 10.955 5.477 5.477 0 000-10.955z" fill="#263238"/><path d="M202.226 117.596a2.738 2.738 0 100-5.477 2.738 2.738 0 000 5.477z" fill="#263238"/><path d="M202.225 117.9a3.045 3.045 0 01-2.984-3.637 3.04 3.04 0 012.391-2.39 3.04 3.04 0 013.636 2.984 3.043 3.043 0 01-3.043 3.043zm0-5.477a2.437 2.437 0 00-2.249 1.502 2.438 2.438 0 001.774 3.319 2.437 2.437 0 002.499-1.035 2.43 2.43 0 00-.302-3.073 2.434 2.434 0 00-1.722-.713zm-36.256-3.664a.303.303 0 01-.292-.213l-.901-2.884a.318.318 0 01-.016-.119.309.309 0 01.106-.208.307.307 0 01.105-.057.31.31 0 01.384.201l.9 2.885a.31.31 0 01-.201.383l-.085.012zm-1.625 1.083a.298.298 0 01-.176-.054l-2.532-1.826a.309.309 0 01-.122-.199.31.31 0 01.055-.227.306.306 0 01.426-.067l2.526 1.826a.31.31 0 01.067.426.295.295 0 01-.244.121zm8.294 1.984l-3.043-.182a.308.308 0 01-.21-.102.308.308 0 01.026-.431.308.308 0 01.221-.076l3.042.183a.293.293 0 01.21.102.302.302 0 01.076.22.296.296 0 01-.322.286zm-2.884 4.692a.304.304 0 01-.274-.17l-1.826-3.609a.313.313 0 01.134-.408.306.306 0 01.408.14l1.826 3.603a.31.31 0 01-.268.444zm2.167-2.166a.322.322 0 01-.152-.037l-1.26-.724a.303.303 0 01-.145-.182.3.3 0 01.03-.232.309.309 0 01.414-.115l1.265.724a.304.304 0 01-.152.566zM149.275 42.05h-2.806a.305.305 0 01-.304-.303V6.596a.304.304 0 11.609 0v34.845h2.196V6.755a.303.303 0 11.609 0v34.991a.305.305 0 01-.304.305zM136.1 97.3a1.219 1.219 0 01-1.217-1.216v-10.76a1.218 1.218 0 112.434 0v10.76A1.218 1.218 0 01136.1 97.3z" fill="#263238"/><path d="M136.404 86.268a1.213 1.213 0 01-1.179-.88 1.218 1.218 0 01.528-1.372l11.453-7.187a1.217 1.217 0 111.296 2.063l-11.471 7.187a1.219 1.219 0 01-.627.189z" fill="#263238"/><path d="M138.406 85.325a2.31 2.31 0 00-1.424-2.131 2.307 2.307 0 101.424 2.13z" fill="#fff"/><path d="M136.1 87.935a2.61 2.61 0 01-2.561-3.12 2.614 2.614 0 013.56-1.902 2.613 2.613 0 011.612 2.412 2.61 2.61 0 01-2.611 2.61zm0-4.613a2 2 0 00-1.964 2.393 2.008 2.008 0 001.573 1.573 2.002 2.002 0 10.391-3.966z" fill="#263238"/><path d="M137.189 85.324a1.1 1.1 0 00-.678-1.012 1.096 1.096 0 10.007 2.024 1.094 1.094 0 00.671-1.012z" fill="#fff"/><path d="M136.1 86.724a1.399 1.399 0 11-.012-2.798 1.399 1.399 0 01.012 2.798zm0-2.185a.791.791 0 10-.012 1.583.791.791 0 00.012-1.583zM159.566 97.3a1.217 1.217 0 01-1.217-1.216v-10.76a1.218 1.218 0 112.434 0v10.76a1.214 1.214 0 01-1.217 1.217z" fill="#263238"/><path d="M159.261 86.268a1.217 1.217 0 01-.645-.189l-11.465-7.187a1.215 1.215 0 01-.356-1.658 1.213 1.213 0 011.647-.405l11.471 7.187a1.218 1.218 0 01-.652 2.252z" fill="#263238"/><path d="M157.259 85.325a2.31 2.31 0 011.424-2.131 2.305 2.305 0 013.013 3.013 2.31 2.31 0 01-2.131 1.424 2.307 2.307 0 01-2.306-2.306z" fill="#fff"/><path d="M159.565 87.935a2.612 2.612 0 01-2.561-3.12 2.614 2.614 0 013.56-1.902 2.605 2.605 0 011.611 2.412 2.615 2.615 0 01-2.61 2.61zm0-4.613a2.006 2.006 0 00-1.85 1.236 2.009 2.009 0 00.434 2.182 2.004 2.004 0 003.418-1.415 2.01 2.01 0 00-2.002-2.003z" fill="#263238"/><path d="M158.477 85.324a1.092 1.092 0 01.677-1.012 1.096 1.096 0 11-.677 1.012z" fill="#fff"/><path d="M159.566 86.724a1.4 1.4 0 110-2.8 1.4 1.4 0 010 2.8zm0-2.185a.79.79 0 00-.776.948.793.793 0 001.083.572.79.79 0 00.484-.735.782.782 0 00-.232-.557.79.79 0 00-.559-.228zm-9-48.744h-5.392v35.667h5.392V35.795z" fill="#263238"/><path d="M150.565 71.772h-5.392a.31.31 0 01-.304-.304V35.795a.311.311 0 01.304-.304h5.392a.304.304 0 01.304.304v35.649a.303.303 0 01-.182.303.301.301 0 01-.122.025zm-5.087-.608h4.771V36.099h-4.783l.012 35.065z" fill="#263238"/><path d="M147.869 84.022a6.158 6.158 0 01-6.14-6.165V53.552h12.323v24.305a6.167 6.167 0 01-1.811 4.368 6.147 6.147 0 01-4.372 1.797z" fill="url(#paint7_linear_318_11281)"/><path d="M147.87 84.326a6.473 6.473 0 01-6.463-6.468V53.552a.304.304 0 01.304-.304h12.324a.305.305 0 01.304.304v24.306a6.476 6.476 0 01-6.469 6.468zm-5.854-30.47v24.002a5.846 5.846 0 001.647 4.265 5.859 5.859 0 009.677-1.966 5.846 5.846 0 00.39-2.3v-24h-11.714z" fill="#263238"/><path d="M155.385 52.554h-15.031v3.767h15.031v-3.767z" fill="#fff"/><path d="M155.385 56.626h-15.031a.309.309 0 01-.304-.305V52.58a.305.305 0 01.304-.305h15.031a.304.304 0 01.304.305v3.767a.303.303 0 01-.304.28zm-14.727-.609h14.423v-3.158h-14.423v3.158z" fill="#263238"/><path d="M147.87 82.738a4.88 4.88 0 100-9.76 4.88 4.88 0 000 9.76z" fill="#fff"/><path d="M147.869 83.042a5.183 5.183 0 01-5.085-6.196 5.185 5.185 0 115.085 6.196zm0-9.737a4.577 4.577 0 104.577 4.57 4.58 4.58 0 00-4.577-4.606v.036z" fill="#263238"/><path d="M147.869 80.17a2.313 2.313 0 100-4.626 2.313 2.313 0 000 4.626z" fill="#263238"/><path d="M147.869 80.475a2.616 2.616 0 11-.001-5.232 2.616 2.616 0 01.001 5.232zm0-4.62a2.01 2.01 0 00-1.969 2.403 2.004 2.004 0 001.581 1.576 2.005 2.005 0 002.06-.859 2.01 2.01 0 00-.254-2.533 2.01 2.01 0 00-1.418-.586zm-2.385-16.528h-2.641v11.07h2.641v-11.07z" fill="#263238"/><path d="M145.49 70.695h-2.648a.305.305 0 01-.304-.305V59.327a.305.305 0 01.304-.304h2.648a.305.305 0 01.304.304V70.39a.305.305 0 01-.304.305zm-2.343-.609h2.038V59.631h-2.038v10.455zm9.773-10.759h-2.641v11.07h2.641v-11.07z" fill="#263238"/><path d="M152.92 70.695h-2.641a.304.304 0 01-.304-.305V59.327a.305.305 0 01.304-.304h2.641a.304.304 0 01.304.304V70.39a.305.305 0 01-.304.305zm-2.337-.609h2.033V59.631h-2.033v10.455z" fill="#263238"/><path d="M112.563 94.337h-18.39v15.445h18.39V94.337z" fill="#fff"/><path d="M112.563 110.08h-18.39a.304.304 0 01-.305-.304v-15.44a.304.304 0 01.304-.303h18.391a.305.305 0 01.304.304v15.445a.306.306 0 01-.304.298zm-18.086-.609h17.781v-14.83H94.477v14.83z" fill="#263238"/><path d="M115.399 94.337h-13.443v15.445h13.443V94.337z" fill="#263238"/><path d="M115.392 110.08h-13.436a.305.305 0 01-.305-.304v-15.44a.304.304 0 01.305-.303h13.436a.3.3 0 01.215.089.3.3 0 01.09.215v15.445a.307.307 0 01-.305.298zm-13.132-.609h12.828v-14.83H102.26v14.83zm3.956-67.421h-2.824a.303.303 0 01-.304-.303V6.596a.304.304 0 11.608 0v34.845h2.197V6.755a.304.304 0 11.609 0v34.991a.306.306 0 01-.286.305zM93.047 97.3a1.217 1.217 0 01-1.217-1.216v-10.76a1.217 1.217 0 112.434 0v10.76a1.217 1.217 0 01-1.217 1.217z" fill="#263238"/><path d="M93.345 86.268a1.217 1.217 0 01-.645-2.252l11.471-7.187a1.218 1.218 0 011.29 2.063l-11.47 7.187a1.216 1.216 0 01-.646.189z" fill="#263238"/><path d="M95.354 85.324a2.313 2.313 0 10-4.626-.012 2.313 2.313 0 004.626.012z" fill="#fff"/><path d="M93.047 87.935a2.61 2.61 0 112.617-2.61 2.616 2.616 0 01-2.617 2.61zm0-4.613a2.002 2.002 0 10.012 4.004 2.002 2.002 0 00-.012-4.004z" fill="#263238"/><path d="M94.136 85.324a1.096 1.096 0 10-2.192 0 1.096 1.096 0 002.192 0z" fill="#fff"/><path d="M93.047 86.724a1.4 1.4 0 110-2.8 1.4 1.4 0 010 2.8zm0-2.185a.791.791 0 10.73.483.784.784 0 00-.73-.483zM116.513 97.3a1.219 1.219 0 01-1.217-1.216v-10.76a1.218 1.218 0 112.434 0v10.76a1.218 1.218 0 01-1.217 1.217z" fill="#263238"/><path d="M116.208 86.268a1.215 1.215 0 01-.645-.19l-11.471-7.186a1.218 1.218 0 111.296-2.063l11.465 7.187a1.216 1.216 0 01.09 2.008c-.212.159-.47.244-.735.244z" fill="#263238"/><path d="M114.207 85.325a2.302 2.302 0 011.424-2.131 2.305 2.305 0 013.013 3.013 2.303 2.303 0 01-3.761.748 2.305 2.305 0 01-.676-1.63z" fill="#fff"/><path d="M116.512 87.935a2.61 2.61 0 01-2.56-3.12 2.605 2.605 0 012.051-2.051 2.61 2.61 0 11.509 5.171zm0-4.613a2 2 0 00-1.964 2.393 2.008 2.008 0 001.573 1.573 2.002 2.002 0 10.391-3.966z" fill="#263238"/><path d="M115.418 85.324a1.09 1.09 0 01.676-1.012 1.096 1.096 0 11-.676 1.012z" fill="#fff"/><path d="M116.512 86.724a1.399 1.399 0 11-.012-2.798 1.399 1.399 0 01.012 2.798zm0-2.185a.791.791 0 10-.012 1.583.791.791 0 00.012-1.583zm-8.999-48.744h-5.392v35.667h5.392V35.795z" fill="#263238"/><path d="M107.512 71.772h-5.391a.303.303 0 01-.215-.089.301.301 0 01-.09-.215V35.795a.304.304 0 01.305-.304h5.391a.31.31 0 01.305.304v35.649a.321.321 0 01-.082.229.319.319 0 01-.223.1zm-5.087-.608h4.783V36.099h-4.783v35.065z" fill="#263238"/><path d="M104.816 84.022a6.157 6.157 0 01-6.165-6.165V53.552h12.323v24.305a6.157 6.157 0 01-6.158 6.165z" fill="url(#paint8_linear_318_11281)"/><path d="M104.816 84.326a6.475 6.475 0 01-6.468-6.468V53.552a.304.304 0 01.304-.304h12.323a.303.303 0 01.304.304v24.306a6.474 6.474 0 01-6.463 6.468zm-5.86-30.47v24.002a5.861 5.861 0 1011.715 0V53.857H98.956z" fill="#263238"/><path d="M112.332 52.554H97.301v3.767h15.031v-3.767z" fill="#fff"/><path d="M112.332 56.626H97.307a.304.304 0 01-.304-.305V52.58a.304.304 0 01.304-.305h15.031a.304.304 0 01.305.305v3.767a.313.313 0 01-.311.28zm-14.727-.609h14.423v-3.158H97.605v3.158z" fill="#263238"/><path d="M104.816 82.738a4.88 4.88 0 100-9.761 4.88 4.88 0 000 9.76z" fill="#fff"/><path d="M104.816 83.042a5.182 5.182 0 01-5.092-6.192 5.19 5.19 0 014.072-4.077 5.186 5.186 0 016.199 5.084 5.192 5.192 0 01-5.179 5.185zm0-9.737a4.577 4.577 0 104.57 4.57 4.573 4.573 0 00-2.814-4.253 4.571 4.571 0 00-1.756-.353v.036z" fill="#263238"/><path d="M104.816 80.17a2.312 2.312 0 10.001-4.625 2.312 2.312 0 00-.001 4.625z" fill="#263238"/><path d="M104.816 80.475a2.618 2.618 0 01-2.567-3.128 2.618 2.618 0 015.184.51 2.626 2.626 0 01-2.617 2.618zm0-4.62a2.007 2.007 0 00-1.418 3.431 2.01 2.01 0 003.091-.31 2.009 2.009 0 00-1.673-3.12zm-2.385-16.528H99.79v11.07h2.641v-11.07z" fill="#263238"/><path d="M102.432 70.695h-2.641a.305.305 0 01-.305-.305V59.327a.305.305 0 01.305-.304h2.641a.305.305 0 01.304.304V70.39a.305.305 0 01-.304.305zm-2.337-.609h2.032V59.631h-2.032v10.455zm9.773-10.759h-2.641v11.07h2.641v-11.07z" fill="#263238"/><path d="M109.866 70.695h-2.647a.305.305 0 01-.304-.305V59.327a.305.305 0 01.304-.304h2.647a.306.306 0 01.305.304V70.39a.305.305 0 01-.305.305zm-2.342-.609h2.038V59.631h-2.038v10.455zm139.241 110.829H.311v2.458h246.454v-2.458z" fill="#263238"/><path d="M246.765 183.677H.305a.304.304 0 01-.305-.304v-2.434a.306.306 0 01.304-.305h246.461a.31.31 0 01.304.305v2.434a.305.305 0 01-.304.304zm-246.15-.609h245.852v-1.825H.615v1.825z" fill="#263238"/><defs><linearGradient id="paint0_linear_318_11281" x1="220.56" y1="126.803" x2="194.852" y2="185.758" gradientUnits="userSpaceOnUse"><stop offset=".068" stop-color="#007DB7"/><stop offset="1" stop-color="#00A4EF"/></linearGradient><linearGradient id="paint1_linear_318_11281" x1="64.295" y1="87.825" x2="47.32" y2="88.543" gradientUnits="userSpaceOnUse"><stop offset=".068" stop-color="#007DB7"/><stop offset="1" stop-color="#00A4EF"/></linearGradient><linearGradient id="paint2_linear_318_11281" x1="70.202" y1="70.358" x2="52.736" y2="72.952" gradientUnits="userSpaceOnUse"><stop offset=".068" stop-color="#007DB7"/><stop offset="1" stop-color="#00A4EF"/></linearGradient><linearGradient id="paint3_linear_318_11281" x1="69.433" y1="92.874" x2="48.955" y2="94.075" gradientUnits="userSpaceOnUse"><stop offset=".068" stop-color="#007DB7"/><stop offset="1" stop-color="#00A4EF"/></linearGradient><linearGradient id="paint4_linear_318_11281" x1="231.798" y1="139.601" x2="185.852" y2="154.84" gradientUnits="userSpaceOnUse"><stop offset=".068" stop-color="#007DB7"/><stop offset="1" stop-color="#00A4EF"/></linearGradient><linearGradient id="paint5_linear_318_11281" x1="215.49" y1="79.592" x2="195.096" y2="80.359" gradientUnits="userSpaceOnUse"><stop offset=".068" stop-color="#007DB7"/><stop offset="1" stop-color="#00A4EF"/></linearGradient><linearGradient id="paint6_linear_318_11281" x1="183.471" y1="93.932" x2="175.218" y2="89.004" gradientUnits="userSpaceOnUse"><stop offset=".068" stop-color="#007DB7"/><stop offset="1" stop-color="#00A4EF"/></linearGradient><linearGradient id="paint7_linear_318_11281" x1="153.742" y1="53.552" x2="140.765" y2="53.968" gradientUnits="userSpaceOnUse"><stop offset=".068" stop-color="#007DB7"/><stop offset="1" stop-color="#00A4EF"/></linearGradient><linearGradient id="paint8_linear_318_11281" x1="110.665" y1="53.552" x2="97.688" y2="53.968" gradientUnits="userSpaceOnUse"><stop offset=".068" stop-color="#007DB7"/><stop offset="1" stop-color="#00A4EF"/></linearGradient></defs></svg>