<svg width="295" height="179" viewBox="0 0 295 179" fill="none" xmlns="http://www.w3.org/2000/svg"><path d="M97.855 136.446h30.14v32.25h-30.14v-32.25z" fill="#fff" stroke="#B2B2B2" stroke-linecap="round" stroke-linejoin="round"/><path d="M122.886 136.446h2.739v11.731h-2.739v-11.731z" fill="#B2B2B2" stroke="#B2B2B2" stroke-miterlimit="10"/><path d="M67.74 136.446h30.14v32.25H67.74v-32.25z" fill="#fff" stroke="#B2B2B2" stroke-linecap="round" stroke-linejoin="round"/><path d="M92.772 136.446h2.739v11.731h-2.74v-11.731z" fill="#B2B2B2" stroke="#B2B2B2" stroke-miterlimit="10"/><path d="M97.855 103.986h30.14v32.25h-30.14v-32.25z" fill="#fff" stroke="#B2B2B2" stroke-linecap="round" stroke-linejoin="round"/><path d="M122.886 103.986h2.739v11.732h-2.739v-11.732z" fill="#B2B2B2" stroke="#B2B2B2" stroke-miterlimit="10"/><path d="M67.74 103.986h30.14v32.25H67.74v-32.25z" fill="#fff" stroke="#B2B2B2" stroke-linecap="round" stroke-linejoin="round"/><path d="M92.772 103.986h2.739v11.732h-2.74v-11.732z" fill="#B2B2B2" stroke="#B2B2B2" stroke-miterlimit="10"/><path d="M64.618 172.697h64.529v1.539H64.619v-1.539zm0-5.587h64.529v1.54H64.619v-1.54zm58.369 1.586h5.008v3.909h-5.008v-3.909zm-27.779 0h5.008v3.909h-5.008v-3.909zm-27.778 0h5.007v3.909H67.43v-3.909zm96.275-32.25h30.14v32.25h-30.14v-32.25z" fill="#fff" stroke="#B2B2B2" stroke-linecap="round" stroke-linejoin="round"/><path d="M188.736 136.446h2.739v11.731h-2.739v-11.731z" fill="#B2B2B2" stroke="#B2B2B2" stroke-miterlimit="10"/><path d="M133.589 136.446h30.14v32.25h-30.14v-32.25z" fill="#fff" stroke="#B2B2B2" stroke-linecap="round" stroke-linejoin="round"/><path d="M158.621 136.446h2.739v11.731h-2.739v-11.731z" fill="#B2B2B2" stroke="#B2B2B2" stroke-miterlimit="10"/><path d="M163.705 103.986h30.14v32.25h-30.14v-32.25z" fill="#fff" stroke="#B2B2B2" stroke-linecap="round" stroke-linejoin="round"/><path d="M188.736 103.986h2.739v11.732h-2.739v-11.732z" fill="#B2B2B2" stroke="#B2B2B2" stroke-miterlimit="10"/><path d="M133.589 103.986h30.14v32.25h-30.14v-32.25z" fill="#fff" stroke="#B2B2B2" stroke-linecap="round" stroke-linejoin="round"/><path d="M158.621 103.986h2.739v11.732h-2.739v-11.732z" fill="#B2B2B2" stroke="#B2B2B2" stroke-miterlimit="10"/><path d="M130.47 172.697h64.529v1.539H130.47v-1.539zm0-5.587h64.529v1.54H130.47v-1.54zm58.367 1.586h5.008v3.909h-5.008v-3.909zm-27.779 0h5.008v3.909h-5.008v-3.909zm-27.779 0h5.008v3.909h-5.008v-3.909zm96.276-32.25h30.14v32.25h-30.14v-32.25z" fill="#fff" stroke="#B2B2B2" stroke-linecap="round" stroke-linejoin="round"/><path d="M254.586 136.446h2.739v11.731h-2.739v-11.731z" fill="#B2B2B2" stroke="#B2B2B2" stroke-miterlimit="10"/><path d="M199.44 136.446h30.14v32.25h-30.14v-32.25z" fill="#fff" stroke="#B2B2B2" stroke-linecap="round" stroke-linejoin="round"/><path d="M224.472 136.446h2.739v11.731h-2.739v-11.731z" fill="#B2B2B2" stroke="#B2B2B2" stroke-miterlimit="10"/><path d="M229.555 103.986h30.14v32.25h-30.14v-32.25z" fill="#fff" stroke="#B2B2B2" stroke-linecap="round" stroke-linejoin="round"/><path d="M254.586 103.986h2.739v11.732h-2.739v-11.732z" fill="#B2B2B2" stroke="#B2B2B2" stroke-miterlimit="10"/><path d="M199.44 103.986h30.14v32.25h-30.14v-32.25z" fill="#fff" stroke="#B2B2B2" stroke-linecap="round" stroke-linejoin="round"/><path d="M224.472 103.986h2.739v11.732h-2.739v-11.732z" fill="#B2B2B2" stroke="#B2B2B2" stroke-miterlimit="10"/><path d="M229.555 72.11h30.14v32.25h-30.14V72.11z" fill="#fff" stroke="#B2B2B2" stroke-linecap="round" stroke-linejoin="round"/><path d="M254.586 72.11h2.739v11.731h-2.739v-11.73z" fill="#B2B2B2" stroke="#B2B2B2" stroke-miterlimit="10"/><path d="M199.44 72.11h30.14v32.25h-30.14V72.11z" fill="#fff" stroke="#B2B2B2" stroke-linecap="round" stroke-linejoin="round"/><path d="M224.472 72.11h2.739v11.731h-2.739v-11.73z" fill="#B2B2B2" stroke="#B2B2B2" stroke-miterlimit="10"/><path d="M196.32 172.697h64.529v1.539H196.32v-1.539zm0-5.587h64.529v1.54H196.32v-1.54zm58.367 1.586h5.008v3.909h-5.008v-3.909zm-27.778 0h5.008v3.909h-5.008v-3.909zm-27.779 0h5.008v3.909h-5.008v-3.909z" fill="#fff" stroke="#B2B2B2" stroke-linecap="round" stroke-linejoin="round"/><path d="M201.797 45.585h8.602v123.589h-8.602V45.585z" fill="#263238" stroke="#263238" stroke-linecap="round" stroke-linejoin="round"/><path d="M197.623 71.636h5.394a4.816 4.816 0 014.815 4.815v3.657a2.09 2.09 0 01-2.036 2.124 2.097 2.097 0 01-1.047-.245l-9.227-4.764v-5.008l2.101-.579zm0 68.207h5.394a4.815 4.815 0 014.815 4.815v3.657a2.089 2.089 0 01-1.006 1.819 2.097 2.097 0 01-2.077.06l-9.227-4.764v-5.029l2.101-.558zm12.138-97.488h3.85v27.351h-3.85v-27.35z" fill="#424242" stroke="#263238" stroke-linecap="round" stroke-linejoin="round"/><path d="M141.533 121.975h29.738v13.628h-29.738v-13.628z" fill="#263238" stroke="#263238" stroke-linecap="round" stroke-linejoin="round"/><path d="M196.06 145.715L183.229 79.4a17.042 17.042 0 00-15.992-13.795l-29.218-1.259a5.53 5.53 0 00-5.746 5.075l-5.033 62.747" stroke="#263238" stroke-width="11" stroke-miterlimit="10"/><path d="M173.112 147.267l30.702-4.496v14.667l-32.656-8.019 1.954-2.152zm2.21-33.298l4.291-2.475 2.236 1.086 3.636-2.726 1.434 2.345-1.434 1.564 1.434.654-.78 1.678s3.259 2.215 4.039 8.212l3.389-.13v11.891l-4.307-1.967-1.565-.26s-8.346-8.602-10.301-12.776c-1.954-4.173-2.072-7.096-2.072-7.096z" fill="#263238" stroke="#263238" stroke-miterlimit="10"/><path d="M166.41 102.858l1.258.554 9.043-.839s2.366-1.389 3.754-.839a6.25 6.25 0 012.227 1.531s0 2.642-.696 2.781c-.696.138-1.946-.277-1.946-.277l-.696-.696s-8.901 2.365-10.155 2.642c-1.254.277-4.865-1.258-4.865-1.258l2.076-3.599z" fill="#fff" stroke="#263238" stroke-linecap="round" stroke-linejoin="round"/><path d="M180.453 101.742a6.285 6.285 0 012.227 1.531s0 2.643-.697 2.781c-.696.139-1.946-.277-1.946-.277l-.696-.696-2.613.692a2.006 2.006 0 01-.533-1.237c.05-.656.161-1.307.332-1.942h.172s2.369-1.405 3.754-.852z" fill="#008CCC" stroke="#263238" stroke-linecap="round" stroke-linejoin="round"/><path d="M179.274 102.556l.817.139s1.229 1.367 1.229 1.841-.75.751-1.023.617a5.403 5.403 0 01-.839-.684c-.337.239-.744.36-1.158.344a3.13 3.13 0 01-1.367-.344" stroke="#263238" stroke-miterlimit="10"/><path d="M159.732 96.042l7.651 6.12-3.058 4.311-4.593-3.338v-7.093z" fill="#fff" stroke="#263238" stroke-linecap="round" stroke-linejoin="round"/><path d="M167.383 102.162l-2.643 5.561-1.669-1.669 2.366-5.562 1.946 1.67zm-7.79-10.553l1.946 8.9s-.839 7.369-.839 8.762c0 1.392.697 4.45.697 4.45l.281.973s0 5.285-2.227 5.843c-2.228.557-4.451 1.111-7.231 1.111-2.781 0-5.008-1.258-6.12-3.196-1.111-1.938-1.115-6.124-1.115-7.65 0-1.527 2.365-13.493 2.785-16.551.419-3.058 4.45-5.427 5.284-5.704.835-.277 6.539 3.062 6.539 3.062zm3.629-12.881l.772 1.707s2.068 1.514 1.59 1.913a7.66 7.66 0 00-.772.721s.784 3.41.499 3.712a2.067 2.067 0 01-2.311.323 1.555 1.555 0 00-1.481.264l-2.034 3.86-6.258-3.776.839-3.192-1.552-2.348 10.708-3.184z" fill="#fff" stroke="#263238" stroke-linecap="round" stroke-linejoin="round"/><path d="M154.075 84.256l-1.552-2.349 8.586-2.462c.21.374.579 1.124.264 1.326a3.71 3.71 0 00-.839.839s.105.8-.461.708c-.566-.092-1.435-1.237-2.332-.57-.898.667-.927 1.418-.273 2.009.392.354.804.686 1.233.994 0 0-3.489 2.642-4.613 2.45l-.655-.114.642-2.83z" fill="#263238" stroke="#263238" stroke-linecap="round" stroke-linejoin="round"/><path d="M164.175 78.09l2.29.34s-5.348 2.097-6.891 2.076c-1.544-.02-7.55 3.109-7.55 3.109s-2.55-3.775-.633-7.13c1.916-3.356 5.247-4.237 7.742-3.356 2.496.88 3.792 1.757 5.042 4.962zm-10.701 7.936l7.512 4.589-.281 2.366-8.342-4.866 1.111-2.089z" fill="#fff" stroke="#263238" stroke-linecap="round" stroke-linejoin="round"/><path d="M184.063 137.62s4.433 2.479 5.217 2.739c.785.26 5.872 1.564 5.734 2.479-.139.914-.52 1.17-2.605 1.678-2.084.507-10.821 1.434-11.995 1.304-1.175-.13.13-7.172.13-7.172l3.519-1.028z" fill="#263238" stroke="#263238" stroke-linecap="round" stroke-linejoin="round"/><path d="M192.411 144.532c-2.097.52-10.821 1.435-11.996 1.305-.419-.046-.52-.977-.478-2.148 7.021.999 12.335-.31 14.911-1.199a.425.425 0 01.167.348c-.13.91-.52 1.17-2.604 1.694z" fill="#fff" stroke="#263238" stroke-linecap="round" stroke-linejoin="round"/><path d="M150.823 117.156s5.604-2.479 6.141-2.869c.536-.39 16.689.911 18.123 1.955 1.434 1.044 12.386 20.208 12.386 20.208l-7.043 4.563-10.968-16.689s-4.169-.13-5.213-.52c-1.044-.39-7.172-1.434-7.172-1.434s-6.648.91-8.473.13c-1.824-.78.26-4.043.26-4.043" fill="#008CCC"/><path d="M150.823 117.156s5.604-2.479 6.141-2.869c.536-.39 16.689.911 18.123 1.955 1.434 1.044 12.386 20.208 12.386 20.208l-7.043 4.563-10.968-16.689s-4.169-.13-5.213-.52c-1.044-.39-7.172-1.434-7.172-1.434s-6.648.91-8.473.13c-1.824-.78.26-4.043.26-4.043" stroke="#263238" stroke-linecap="round" stroke-linejoin="round"/><path d="M169.723 123.934l3.389-4.043-3.779 2.739" stroke="#263238" stroke-miterlimit="10"/><path d="M166.418 126.027H141.29v-7.382s1.074-1.308 3.335-.478c2.26.831 3.93 3.813 3.93 3.813s16.554-2.857 17.863 4.047z" fill="#263238" stroke="#263238" stroke-linecap="round" stroke-linejoin="round"/><path d="M141.529 121.502h-3.334l-5.717-16.077 2.621-.713 6.43 16.79z" fill="#263238" stroke="#263238" stroke-linecap="round" stroke-linejoin="round"/><path d="M135.1 104.712l4.643 12.625 3.993-1.636a3.385 3.385 0 001.736-4.673c-1.409-2.755-3.662-6.476-6.203-8.103-4.287-2.739-4.534-.117-4.169 1.787z" fill="#263238" stroke="#263238" stroke-linecap="round" stroke-linejoin="round"/><path d="M174.286 132.214l.785 16.622 14.357 2.516a13.655 13.655 0 00-4.966 16.857h-59.681a2.709 2.709 0 01-1.913-.792 2.709 2.709 0 01-.792-1.913v-35.958a2.44 2.44 0 012.236-2.437c7.939-.687 35.064-2.365 49.974 5.105z" fill="#008CCC" stroke="#263238" stroke-linecap="round" stroke-linejoin="round"/><path d="M189.263 171.275c-4.725-4.258-5.104-11.541-.846-16.266 4.258-4.726 11.54-5.105 16.266-.847 4.725 4.258 5.105 11.54.847 16.266-4.258 4.726-11.541 5.105-16.267.847z" fill="#263238" stroke="#263238" stroke-linecap="round" stroke-linejoin="round"/><path d="M193.38 166.715a5.364 5.364 0 117.195-7.958 5.364 5.364 0 01-7.195 7.958z" fill="#fff" stroke="#263238" stroke-linecap="round" stroke-linejoin="round"/><path d="M124.215 172.449a6.103 6.103 0 118.63-8.63 6.103 6.103 0 01-8.63 8.63z" fill="#263238" stroke="#263238" stroke-linecap="round" stroke-linejoin="round"/><path d="M125.691 168.134a2.843 2.843 0 115.687 0 2.843 2.843 0 01-5.687 0z" fill="#fff" stroke="#263238" stroke-linecap="round" stroke-linejoin="round"/><path d="M204.716 152.4a12.902 12.902 0 00-20.032 14.261h-.838a13.682 13.682 0 0113.34-17.621 13.686 13.686 0 017.979 2.735l-.449.625z" fill="#008CCC" stroke="#263238" stroke-linecap="round" stroke-linejoin="round"/><path d="M175.07 148.836s-31.541-4.673-33.927-5.034c-2.387-.36-9.421-2.889-12.059-16.957" stroke="#263238" stroke-linecap="round" stroke-linejoin="round"/><path d="M247.422 33.46h30.14v32.25h-30.14V33.46z" fill="#008CCC" stroke="#263238" stroke-linecap="round" stroke-linejoin="round"/><path d="M272.454 33.46h2.739v11.73h-2.739V33.46z" fill="#263238"/><path d="M217.306 33.46h30.14v32.25h-30.14V33.46z" fill="#008CCC" stroke="#263238" stroke-linecap="round" stroke-linejoin="round"/><path d="M242.338 33.46h2.739v11.73h-2.739V33.46z" fill="#263238"/><path d="M247.422 1h30.14v32.25h-30.14V1z" fill="#008CCC" stroke="#263238" stroke-linecap="round" stroke-linejoin="round"/><path d="M272.454 1h2.739v11.731h-2.739V1z" fill="#263238"/><path d="M217.306 1h30.14v32.25h-30.14V1z" fill="#008CCC" stroke="#263238" stroke-linecap="round" stroke-linejoin="round"/><path d="M242.338 1h2.739v11.731h-2.739V1z" fill="#263238"/><path d="M214.191 69.71h64.529v1.54h-64.529v-1.54zm0-5.586h64.529v1.54h-64.529v-1.54zm58.364 1.586h5.007v3.909h-5.007v-3.91zm-27.78 0h5.008v3.909h-5.008v-3.91zm-27.774 0h5.008v3.909h-5.008v-3.91zm-54.345 41.178s7.369 2.517 8.481 2.936a2.309 2.309 0 011.392 1.112s.973 2.365.139 2.781c-.835.415-2.936.138-2.936.138s-1.259.281-1.531-.277a8.145 8.145 0 01-.42-1.946s-6.4-.419-7.788-.558a5.057 5.057 0 01-2.517-1.111l5.18-3.075z" fill="#fff" stroke="#263238" stroke-linecap="round" stroke-linejoin="round"/><path d="M168.217 113.566a7.886 7.886 0 01-.42-1.937 3.816 3.816 0 002.185-.948c.504-.445.533-.839.42-1.137.335.117.6.21.746.268a2.305 2.305 0 011.393 1.112s.973 2.365.138 2.781c-.834.415-2.936.138-2.936.138s-1.25.281-1.526-.277z" fill="#008CCC" stroke="#263238" stroke-linecap="round" stroke-linejoin="round"/><path d="M156.546 92.028s1.526 1.808 1.946 3.356c.419 1.547 1.531 7.092 1.531 7.092l1.111 2.097 1.531 2.362a3.93 3.93 0 01-2.785 2.781c-2.361.696-2.936.977-3.477.419-.541-.558-2.936-4.731-3.477-6.677-.541-1.946-2.781-7.37-2.781-7.37" fill="#fff"/><path d="M156.546 92.028s1.526 1.808 1.946 3.356c.419 1.547 1.531 7.092 1.531 7.092l1.111 2.097 1.531 2.362a3.93 3.93 0 01-2.785 2.781c-2.361.696-2.936.977-3.477.419-.541-.558-2.936-4.731-3.477-6.677-.541-1.946-2.781-7.37-2.781-7.37" stroke="#263238" stroke-linecap="round" stroke-linejoin="round"/><path d="M161.125 104.527l3.2 1.946a8.99 8.99 0 01-1.392 2.781c-.973 1.258-2.517 1.808-2.936 1.808h-1.951l-2.223-1.259s3.058-.419 4.031-2.516c.973-2.097 1.271-2.76 1.271-2.76z" fill="#fff" stroke="#263238" stroke-linecap="round" stroke-linejoin="round"/><path d="M180.675 107.505l-1.565 4.173-4.169 1.955-1.434-2.475 7.168-3.653z" fill="#263238" stroke="#263238" stroke-miterlimit="10"/><path d="M169.052 114.208a.824.824 0 00.364-.088l14.19-7.512a.786.786 0 00-.153-1.418.78.78 0 00-.581.034l-14.185 7.511a.778.778 0 00-.398.88.785.785 0 00.763.593z" fill="#263238"/><path d="M279.438 174.236H1m293.117 0h-11.744" stroke="#263238" stroke-linecap="round" stroke-linejoin="round"/></svg>