<svg width="153" height="50" viewBox="0 0 153 50" fill="none" xmlns="http://www.w3.org/2000/svg">
<g id="&#208;&#176;&#208;&#178;&#208;&#184;&#208;&#176;&#209;&#129;&#209;&#130;&#208;&#176;&#209;&#128; 1">
<g id="&#208;&#161;&#208;&#187;&#208;&#190;&#208;&#185; 2">
<g id="&#208;&#161;&#208;&#187;&#208;&#190;&#208;&#185; 1">
<path id="Vector" d="M43.4549 18.0472C42.1326 18.8256 40.7661 19.5337 39.504 20.4026C38.4255 21.1418 37.3028 21.3161 36.0407 21.2999C32.1153 21.2499 28.1898 21.2837 24.2643 21.2783C23.1751 21.2783 22.3069 21.6472 21.6089 22.5486C19.5711 25.1796 17.4892 27.7769 15.4058 30.3729C15.2291 30.5913 14.9748 30.7314 14.6971 30.7634C10.6162 30.785 6.53399 30.7769 2.45176 30.7729C2.37237 30.7511 2.29556 30.7208 2.22266 30.6823L5.9311 29.2229C8.14973 28.3513 10.3737 27.4891 12.587 26.6026C13.0204 26.4247 13.4325 26.198 13.8156 25.9269C14.5685 25.3999 14.4854 24.5756 14.3649 23.8364C14.0969 22.2242 13.7486 20.6242 13.4136 19.0242C13.0787 17.4242 13.7754 16.081 15.3121 15.6756C18.7954 14.7567 22.2788 13.8121 25.801 13.0783C29.7533 12.2567 33.7431 11.6053 37.7315 10.9756C40.2771 10.5702 42.8387 10.3364 45.3963 10.0486C47.8659 9.77017 50.3368 9.50891 52.8091 9.26477C54.7973 9.07017 56.7882 8.91477 58.7791 8.74585C58.9143 8.75386 59.0486 8.77239 59.181 8.80126C58.0904 9.45666 57.1312 10.0445 56.1612 10.6134C53.0449 12.4404 49.9242 14.2598 46.799 16.0715C46.4736 16.2541 46.1088 16.3534 45.7366 16.3607C43.1723 16.3837 40.604 16.4499 38.0437 16.3364C36.85 16.2823 36.2578 16.8364 35.7125 17.8445H43.4081L43.4549 18.0472Z" fill="black"/>
<path id="Vector_2" d="M44.1852 9.0892C43.0504 9.24055 41.9411 9.40947 40.8251 9.52298C40.6228 9.54325 40.3655 9.38784 40.19 9.23919C37.1997 6.75541 33.7592 5.3 29.9248 4.9473C25.1017 4.50541 20.6926 5.71757 16.7952 8.6473C12.575 11.8216 10.0844 16.0797 9.33145 21.3216C9.11307 22.8351 9.23097 24.4041 9.26313 25.946C9.27652 26.5649 9.17068 26.9392 8.51688 27.1149C7.86308 27.2906 7.23474 27.5905 6.58362 27.8378C4.9317 20.8905 7.75188 10.3608 17.0163 4.89865C27.0631 -1.02162 38.6989 2.42298 44.1852 9.0892Z" fill="black"/>
<path id="Vector_3" d="M7.60059 31.781C8.57995 31.781 9.495 31.7351 10.398 31.8121C10.6311 31.8324 10.9017 32.2 11.0357 32.4689C12.0566 34.5148 13.3481 36.3621 15.0054 37.9229C18.0721 40.8094 21.6734 42.5608 25.8708 43.0581C29.5243 43.4892 33.0144 42.931 36.3102 41.3297C40.158 39.4608 43.1094 36.6081 45.0052 32.7229C45.3482 32.0229 45.7059 31.6743 46.5057 31.7621C47.185 31.8364 47.879 31.777 48.6748 31.777C47.4757 35.0838 45.5933 37.7946 43.1537 40.1554C39.3729 43.8202 34.7909 45.9067 29.6543 46.204C18.1994 46.8675 10.1823 39.2959 7.60059 31.781Z" fill="black"/>
<path id="Vector_4" d="M26.9613 22.358C25.2906 24.4688 23.7339 26.4364 22.1757 28.4026L22.2266 28.4931C22.8965 28.1823 23.5583 27.8742 24.2229 27.5607C24.9678 27.2067 25.6872 26.7783 26.4603 26.5067C28.0157 25.9661 28.782 24.5972 29.6837 23.4067C30.2692 22.6337 30.8587 22.235 31.8407 22.3431C32.6325 22.4296 33.4404 22.3607 34.3795 22.3607C33.9133 22.9688 33.5234 23.4931 33.1175 24.0053C31.4535 26.108 29.7815 28.2026 28.1202 30.3067C28.0061 30.47 27.8519 30.6007 27.6727 30.6859C27.4936 30.7712 27.2955 30.8081 27.098 30.7931C26.0798 30.758 25.0602 30.7823 23.8826 30.7823L26.0007 28.0688C25.3429 28.3621 24.8592 28.5634 24.393 28.7904C23.2288 29.354 22.0793 29.9512 20.903 30.4891C20.5195 30.6588 20.1076 30.7537 19.6891 30.7688C18.6682 30.8067 17.6447 30.781 16.459 30.781C16.6733 30.4864 16.7993 30.2999 16.9373 30.1242C18.8826 27.6756 20.8226 25.2229 22.7893 22.7931C22.9998 22.5554 23.2919 22.4072 23.6066 22.3783C24.6583 22.3296 25.7234 22.358 26.9613 22.358Z" fill="black"/>
<path id="Vector_5" d="M35.3485 30.7825L37.0031 28.6488L36.9616 28.5771C36.0894 29.0988 35.1797 29.5677 34.3558 30.1582C33.6363 30.6717 32.8901 30.8339 32.0367 30.792C31.1832 30.7501 30.3137 30.7825 29.2969 30.7825C30.1985 29.6379 31.0024 28.6082 31.821 27.5906C31.92 27.471 32.0612 27.3949 32.2149 27.3785C33.3657 27.3609 34.5166 27.369 35.7572 27.369L35.311 28.1569C36.3333 27.5366 37.2577 27.0298 38.1245 26.4352C38.7944 25.9744 39.3866 25.4001 40.0216 24.8852C40.1556 24.7812 40.311 24.6515 40.4597 24.6488C41.5905 24.6285 42.7226 24.6379 44.0556 24.6379L40.453 29.2055L49.3034 30.0352C48.8292 30.5758 48.3964 30.7988 47.7788 30.7947C43.923 30.7704 40.0672 30.7825 36.21 30.7825H35.3485Z" fill="black"/>
<path id="Vector_6" d="M48.661 16.2068C50.1896 20.4622 50.4696 24.6771 49.5157 29.0149L46.5924 28.7203C46.7264 27.8581 46.8496 27.073 46.9501 26.2879C47.2914 23.59 47.0393 20.8494 46.2119 18.2608C46.0779 17.8487 46.1342 17.6568 46.4959 17.4608C47.1966 17.0771 47.8786 16.6622 48.661 16.2068Z" fill="black"/>
<path id="Vector_7" d="M68.9166 15.3096C68.9608 15.6352 68.9943 15.8744 69.0265 16.1028C71.3925 16.7096 72.3558 17.6623 72.1722 19.2798C71.9994 20.8001 71.4782 21.9731 69.0466 22.1298C69.009 22.4001 68.9702 22.6704 68.9126 23.0623C68.5964 23.0623 68.2695 23.0433 67.9466 23.0623C67.5367 23.092 67.2928 22.9771 67.3464 22.5109C67.3893 22.1325 67.1696 22.0866 66.8587 22.0623C65.1519 21.9271 64.2382 20.9231 64.2315 19.2136C64.2248 17.4096 65.1278 16.3866 66.8614 16.1974C67.0316 16.1785 67.3263 15.9866 67.3223 15.8866C67.2942 15.3096 67.6264 15.2771 68.0484 15.3014C68.3351 15.3231 68.6178 15.3096 68.9166 15.3096ZM69.0278 17.4015V20.8352C70.0326 20.8352 70.4171 20.4298 70.468 19.3987C70.535 18.0514 70.1639 17.5082 69.0278 17.4015ZM67.3156 17.419C66.2438 17.5109 65.7829 18.196 65.8955 19.3852C66.004 20.5244 66.3537 20.8852 67.3156 20.8055V17.419Z" fill="black"/>
<path id="Vector_8" d="M81.9326 33.5013H80.4307V28.5702L78.886 32.2661C78.2818 33.7121 78.2764 33.7148 76.6191 33.4472V25.8797H78.0688V30.9648L79.5813 27.3675C79.6068 27.3053 79.6162 27.2324 79.643 27.1743C80.2593 25.7202 80.2593 25.7202 81.9366 25.8526L81.9326 33.5013Z" fill="black"/>
<path id="Vector_9" d="M78.3351 22.9838C78.2767 23.0119 78.2157 23.034 78.1529 23.05C76.8628 23.1581 76.8628 23.1581 76.8641 21.8621C76.8641 20.6297 76.8641 19.3973 76.8641 18.0676C76.5653 18.7986 76.2934 19.4676 76.0174 20.1351C75.7414 20.8027 75.389 21.4865 75.172 22.1838C74.9549 22.8811 74.5865 23.1919 73.8644 23.0689C73.613 23.0412 73.3603 23.0281 73.1074 23.0297V15.3175C73.496 15.3175 73.8898 15.2784 74.269 15.3392C74.403 15.3594 74.5946 15.6257 74.5932 15.7797C74.5932 17.0351 74.541 18.2905 74.5088 19.5459C74.4872 19.7536 74.5343 19.9627 74.6428 20.1405C74.9938 19.3126 75.3444 18.4842 75.6945 17.6554C75.9289 17.0986 76.2116 16.5554 76.3791 15.977C76.5466 15.3986 76.8815 15.2486 77.4174 15.3013C77.7001 15.3311 77.9895 15.3013 78.3338 15.3013L78.3351 22.9838Z" fill="black"/>
<path id="Vector_10" d="M134.251 15.3445H135.67V20.3905C135.946 19.7581 136.159 19.2932 136.354 18.8202C136.774 17.8067 137.181 16.7932 137.6 15.7729C137.772 15.3581 139.133 15.0783 139.416 15.4094C139.501 15.5108 139.508 15.7027 139.508 15.8527C139.508 18.0797 139.496 20.3121 139.52 22.5337C139.52 23.2351 139.061 23.0391 138.699 23.0594C138.316 23.081 137.945 23.1324 137.958 22.5189C137.99 21.0635 137.969 19.6067 137.969 18.1864L136.433 21.8351C136.351 21.9938 136.283 22.1598 136.23 22.331C136.104 22.9216 135.756 23.1418 135.17 23.0675C134.864 23.0497 134.557 23.0497 134.251 23.0675V15.3445Z" fill="black"/>
<path id="Vector_11" d="M89.9368 18.3284C89.6207 19.077 89.3049 19.8252 88.9896 20.573C88.79 21.0473 88.5877 21.5189 88.3934 21.9987C87.8964 23.1703 87.8937 23.1838 86.641 23.0446C86.4776 23.0257 86.211 22.7811 86.2096 22.6392C86.1828 20.3419 86.1882 18.0541 86.1949 15.7608C86.1949 15.0446 86.7536 15.3716 87.0858 15.3189C87.4181 15.2662 87.7423 15.2879 87.7343 15.8095C87.7115 17.277 87.7262 18.746 87.7262 20.3933C88.3265 18.927 88.8637 17.6108 89.4023 16.296C89.8109 15.2946 89.8109 15.2946 90.8934 15.3108C91.0689 15.3108 91.2444 15.3324 91.4735 15.3473V23.0054H90.032V18.3608L89.9368 18.3284Z" fill="black"/>
<path id="Vector_12" d="M74.6726 29.4256C75.6251 30.0459 75.8382 30.9027 75.6251 31.9135C75.4202 32.881 74.9445 33.4148 73.9759 33.4824C72.8733 33.5594 71.7613 33.5 70.5957 33.5V25.8283C71.9355 25.8878 73.3221 25.55 74.631 26.1175C75.8703 26.654 75.9145 28.427 74.6726 29.4256ZM72.2034 32.3567C72.545 32.3567 72.805 32.3567 73.0649 32.3567C73.503 32.3473 73.9263 32.1905 73.929 31.7162C73.929 31.2216 73.8808 30.6175 73.6008 30.2675C73.4172 30.0392 72.7835 30.1689 72.3521 30.1648C72.3025 30.1648 72.2181 30.3337 72.2101 30.427C72.1967 31.0432 72.2034 31.6608 72.2034 32.3567ZM72.2382 28.881C72.8344 28.9797 73.444 29.0513 73.7629 28.5162C73.9384 28.2229 73.9411 27.6189 73.7495 27.3567C73.4092 26.8905 72.805 26.9338 72.2382 27.0459V28.881Z" fill="black"/>
<path id="Vector_13" d="M102.089 44.0053V36.4378C103.279 36.4378 104.471 36.2878 105.608 36.4769C107.007 36.7107 107.46 38.3688 106.546 39.4945C106.403 39.6413 106.248 39.7769 106.084 39.8999C106.987 40.5094 107.22 41.3405 107.065 42.3324C106.931 43.1905 106.312 43.9324 105.457 43.9905C104.352 44.0621 103.238 44.0053 102.089 44.0053ZM103.664 40.604C103.664 41.2905 103.658 41.8702 103.664 42.4486C103.664 42.5661 103.756 42.7851 103.798 42.7837C104.231 42.7715 104.826 42.8797 105.055 42.6418C105.334 42.3513 105.419 41.7472 105.367 41.3053C105.338 41.0459 104.91 40.7648 104.604 40.6296C104.366 40.5161 104.045 40.604 103.659 40.604H103.664ZM103.702 39.3878C104.29 39.4337 104.894 39.5756 105.192 39.0094C105.353 38.704 105.371 38.0405 105.184 37.8945C104.821 37.6134 104.266 37.5851 103.702 37.4283V39.3878Z" fill="black"/>
<path id="Vector_14" d="M108.41 15.3148C110.037 15.3148 111.615 15.3067 113.194 15.331C113.277 15.3546 113.353 15.3993 113.414 15.4608C113.475 15.5223 113.519 15.5986 113.543 15.6823C113.564 18.1067 113.559 20.531 113.559 22.9094C113.461 22.981 113.425 23.0242 113.39 23.0283C111.947 23.1999 111.948 23.1986 111.946 21.7621C111.946 20.1206 111.942 18.4792 111.934 16.8377C111.92 16.7734 111.899 16.7109 111.871 16.6513H109.984V23.0134H108.41V15.3148Z" fill="black"/>
<path id="Vector_15" d="M86.3417 40.773C86.1247 40.9486 85.8299 41.0824 85.7026 41.3135C85.3353 41.9281 85.0296 42.5782 84.7903 43.254C84.5839 43.8986 84.2316 44.1054 83.6113 44.027C83.2958 44.0094 82.9796 44.0094 82.6641 44.027C83.2214 42.8946 83.7265 41.8649 84.2557 40.7838C83.4063 40.2662 82.9695 39.5 82.9802 38.5054C82.9781 38.2244 83.0316 37.9458 83.1377 37.6859C83.2437 37.426 83.4002 37.1902 83.5979 36.9921C83.7956 36.7941 84.0305 36.638 84.2889 36.5328C84.5472 36.4276 84.8238 36.3756 85.1024 36.3797C85.9491 36.373 86.7959 36.3946 87.648 36.373C88.0673 36.3622 88.2428 36.4838 88.2401 36.9405C88.2223 39.1207 88.2223 41.3004 88.2401 43.4797C88.2401 43.8851 88.1061 44.0311 87.7042 44.0203C86.3444 44.0027 86.6163 44.0838 86.5936 42.9122C86.5802 42.2649 86.5936 41.6176 86.5936 40.9689L86.3417 40.773ZM86.5587 37.6041C85.8567 37.4973 85.1721 37.45 84.8291 38.0703C84.6576 38.3784 84.7179 38.9986 84.9256 39.3013C85.3007 39.8419 85.9424 39.804 86.5587 39.6581V37.6041Z" fill="black"/>
<path id="Vector_16" d="M120.778 19.204C120.778 18.6202 120.743 18.0337 120.786 17.4472C120.907 15.8256 122.427 14.8796 124.243 15.2594C125.408 15.5026 126.047 16.0837 126.138 17.3499C126.225 18.6904 126.204 20.0358 126.075 21.3729C125.987 22.3796 125.241 23.0026 124.239 23.108C123.751 23.1573 123.26 23.1573 122.773 23.108C121.613 22.9932 120.829 22.1026 120.781 20.8769C120.759 20.3269 120.778 19.7648 120.778 19.204ZM124.469 19.1742C124.469 18.5905 124.481 18.0067 124.469 17.4242C124.454 16.8837 124.174 16.5486 123.629 16.4783C123.041 16.4107 122.565 16.5959 122.542 17.2567C122.501 18.5242 122.52 19.7959 122.526 21.0648C122.526 21.6918 122.928 21.9378 123.482 21.9472C124.059 21.958 124.441 21.5837 124.466 20.9864C124.492 20.3891 124.464 19.7797 124.464 19.1742H124.469Z" fill="black"/>
<path id="Vector_17" d="M83.5084 16.6297H81.9007C81.9007 17.0107 81.9168 17.3621 81.9007 17.7107C81.8256 19.0283 81.8069 20.354 81.6327 21.658C81.4987 22.6851 80.9133 23.1229 80.025 23.1445C78.9867 23.1716 78.9144 23.0837 79.0617 21.9837C80.0357 21.9297 80.1496 21.8135 80.1751 20.7797C80.2139 19.1878 80.2715 17.5959 80.2648 16.004C80.2648 15.4283 80.4551 15.2837 80.9937 15.2972C82.3455 15.3324 83.6973 15.3094 85.1335 15.3094V16.7959C85.1335 18.6161 85.104 20.4364 85.1482 22.2553C85.163 22.908 84.9701 23.1594 84.3297 23.0662C84.0579 23.0495 83.7855 23.0495 83.5137 23.0662L83.5084 16.6297Z" fill="black"/>
<path id="Vector_18" d="M102.789 16.6352H101.234C101.234 16.9379 101.242 17.2001 101.234 17.4623C101.197 18.6501 101.18 19.8393 101.108 21.0258C101.035 22.242 100.447 23.0217 99.5964 23.1298C98.5487 23.265 98.3906 23.1069 98.5004 22.0312C99.3659 21.9042 99.5039 21.7217 99.5213 20.6717C99.5481 19.1001 99.5923 17.5285 99.5883 15.9555C99.5883 15.4596 99.7303 15.2798 100.235 15.3001C101.461 15.3312 102.687 15.3231 103.914 15.3001C104.316 15.3001 104.461 15.4271 104.458 15.8407C104.443 18.0668 104.443 20.2929 104.458 22.519C104.458 22.9244 104.324 23.1042 103.922 23.0596C103.744 23.0392 103.565 23.0392 103.387 23.0596C102.904 23.119 102.781 22.8988 102.786 22.4379C102.809 20.7961 102.794 19.1542 102.794 17.5136L102.789 16.6352Z" fill="black"/>
<path id="Vector_19" d="M146.219 22.9433C146.15 22.982 146.077 23.0137 146.001 23.0378C144.561 23.1865 144.559 23.1865 144.559 21.7554V16.6514H143.004C143.004 17.6149 143.027 18.5527 142.996 19.4892C142.978 20.1825 142.916 20.874 142.811 21.5595C142.658 22.5054 142.043 23.0878 141.246 23.1433C140.215 23.2162 140.106 23.0878 140.279 22.0041C141.152 21.9568 141.258 21.9095 141.296 20.9797C141.361 19.3203 141.371 17.6581 141.363 15.9973C141.363 15.4784 141.497 15.2838 142.033 15.3C143.238 15.3365 144.444 15.3122 145.642 15.3122C145.938 15.3122 146.226 15.2851 146.225 15.7365C146.215 18.1378 146.219 20.5405 146.219 22.9433Z" fill="black"/>
<path id="Vector_20" d="M100.955 40.2851C100.955 40.8257 100.963 41.3662 100.955 41.9068C100.935 42.9013 100.496 43.6054 99.5617 43.9905C98.1523 44.5703 96.3463 44.077 95.8332 42.8797C95.635 42.3595 95.5372 41.8059 95.5451 41.2486C95.5317 40.1973 95.5197 39.1311 95.6872 38.1C95.8017 37.5383 96.1186 37.0395 96.5767 36.7C97.6311 35.9905 98.8141 36.0324 99.9382 36.6095C100.698 37 100.908 37.7446 100.951 38.5351C100.981 39.1149 100.955 39.7 100.955 40.2851ZM97.2386 40.1811C97.2386 40.7216 97.2279 41.2622 97.2386 41.7959C97.2547 42.5013 97.6084 42.9243 98.1858 42.9527C98.8249 42.9851 99.2455 42.6216 99.2737 41.8811C99.3139 40.7608 99.3139 39.6365 99.2737 38.5176C99.2469 37.8257 98.8034 37.4243 98.2367 37.4365C97.67 37.4486 97.2868 37.8513 97.248 38.5635C97.2158 39.104 97.2386 39.6432 97.2386 40.1811Z" fill="black"/>
<path id="Vector_21" d="M58.5943 44.0445V43.281C58.5943 34.1955 58.5943 25.1108 58.5943 16.027C58.5943 15.8689 58.5407 15.6743 58.6131 15.5635C58.7109 15.4148 58.9038 15.2459 59.0605 15.2432C59.2173 15.2405 59.429 15.3919 59.5375 15.5351C59.6125 15.6364 59.5589 15.8391 59.5589 15.9973C59.5589 25.1036 59.5589 34.2108 59.5589 43.3189C59.5616 44.1891 59.5495 44.1891 58.5943 44.0445Z" fill="black"/>
<path id="Vector_22" d="M74.1606 44.0188V37.6067H72.585C72.585 38.3053 72.6118 38.9945 72.585 39.6796C72.5368 40.6837 72.5194 41.6986 72.3546 42.685C72.1603 43.8486 71.2413 44.4215 70.136 44.081C69.9136 44.0121 69.8412 43.4472 69.6416 42.9742C70.6759 43.0756 70.897 42.5986 70.8983 41.8932C70.8983 40.3891 70.9237 38.8837 70.9278 37.3796C70.9278 36.3796 70.9278 36.3783 71.879 36.3783C72.9508 36.3783 74.0226 36.404 75.0864 36.3675C75.6223 36.3486 75.8232 36.5026 75.8152 37.0756C75.783 39.1648 75.7857 41.2553 75.8152 43.3459C75.8152 43.8864 75.6571 44.0837 75.1333 44.0215C74.8412 43.9932 74.5505 44.0188 74.1606 44.0188Z" fill="black"/>
<path id="Vector_23" d="M92.8941 44.0163V40.5609H90.9448V43.8582C90.8296 43.9366 90.7961 43.9785 90.7572 43.9825C89.2942 44.1406 89.2942 44.1406 89.2942 42.6623C89.2942 40.842 89.3183 39.0136 89.2781 37.2001C89.2647 36.5677 89.4201 36.2744 90.082 36.3704C90.3586 36.3878 90.636 36.3878 90.9126 36.3704V39.2082C91.5182 39.2082 92.0286 39.2447 92.5203 39.1839C92.6543 39.169 92.8459 38.8677 92.8553 38.6893C92.8928 37.9542 92.8713 37.215 92.8713 36.4231H94.463C94.4963 36.5277 94.5187 36.6354 94.53 36.7447C94.53 38.992 94.53 41.2406 94.542 43.4879C94.542 43.8501 94.4402 44.0285 94.0503 44.0123C93.706 44.0001 93.351 44.0163 92.8941 44.0163Z" fill="black"/>
<path id="Vector_24" d="M115.681 36.3743V39.3L115.809 39.3567C116.045 38.9797 116.283 38.6054 116.513 38.2257C116.647 37.9959 116.781 37.7581 116.915 37.5216C117.613 36.25 117.759 36.1824 119.35 36.4703C118.956 37.0973 118.633 37.7324 118.196 38.2757C117.497 39.1419 117.274 39.9297 117.963 40.9622C118.563 41.8622 118.949 42.9068 119.492 44.0135C118.892 44.0135 118.409 44.0419 117.935 43.9959C117.789 43.9824 117.613 43.7892 117.533 43.6338C117.12 42.7959 116.729 41.9446 116.327 41.0824C115.675 41.4878 115.685 42.0824 115.694 42.6959C115.712 44.1568 115.641 44.2081 114.208 43.9649C114.189 43.9649 114.173 43.9405 114.074 43.8662V42.0581C114.074 40.4365 114.111 38.8149 114.054 37.2013C114.027 36.4811 114.283 36.2784 114.93 36.3703C115.18 36.3869 115.431 36.3882 115.681 36.3743Z" fill="black"/>
<path id="Vector_25" d="M69.9491 33.5271C69.4534 33.5271 69.0113 33.5488 68.5745 33.5123C68.4973 33.4936 68.4251 33.4581 68.3629 33.4084C68.3006 33.3587 68.2499 33.2959 68.2141 33.2244C68.1315 33.017 68.0748 32.8001 68.0453 32.5785C67.839 31.5771 67.8403 31.6096 66.7873 31.5717C66.2514 31.5528 66.0611 31.7474 65.954 32.2474C65.6512 33.6907 65.5386 33.742 63.9443 33.4217C64.0863 32.8434 64.2123 32.2636 64.3744 31.6934C64.8768 29.8812 65.4033 28.0771 65.8883 26.2609C65.9834 25.9028 66.1335 25.8109 66.4805 25.8042C68.119 25.7744 68.1351 25.7596 68.541 27.3758C68.9992 29.1988 69.4239 31.0244 69.858 32.8582C69.9076 33.0542 69.9143 33.2528 69.9491 33.5271ZM67.1356 27.4123L66.9869 27.4001L66.3907 30.2582H67.6327C67.4612 29.2771 67.2977 28.3447 67.1356 27.4123Z" fill="black"/>
<path id="Vector_26" d="M106.283 33.5298C105.79 33.5298 105.384 33.5784 104.999 33.5095C104.805 33.4757 104.624 33.2487 104.485 33.0703C104.398 32.9582 104.396 32.7744 104.363 32.6217C104.135 31.5811 104.134 31.6095 103.108 31.573C102.588 31.5541 102.367 31.7257 102.243 32.2392C101.904 33.6622 101.882 33.6568 100.222 33.4676C100.423 32.6919 100.61 31.9244 100.819 31.1622C101.251 29.5865 101.706 28.0163 102.127 26.4325C102.241 26.0028 102.416 25.8041 102.896 25.8028C104.427 25.8028 104.434 25.7771 104.808 27.2798C105.273 29.1474 105.724 31.0203 106.178 32.8906C106.218 33.0636 106.243 33.2433 106.283 33.5298ZM103.436 27.4325L103.278 27.4203C103.079 28.3406 102.876 29.2622 102.667 30.2582H103.903C103.745 29.2919 103.59 28.3609 103.436 27.4325Z" fill="black"/>
<path id="Vector_27" d="M120.253 23.0257H118.512C118.377 22.5226 118.267 22.0129 118.183 21.4987C118.134 21.0784 117.936 20.973 117.564 21.0014C117.297 21.0203 117.019 20.9609 116.761 21.0217C116.575 21.095 116.415 21.2213 116.3 21.3852C116.223 21.4784 116.225 21.6393 116.193 21.7703C115.827 23.2447 115.827 23.2447 114.16 22.9866C114.396 22.0838 114.622 21.1866 114.868 20.2933C115.269 18.8244 115.712 17.3649 116.089 15.8879C116.198 15.4636 116.347 15.2893 116.795 15.3055C118.761 15.3757 118.297 14.9622 118.773 16.8366C119.289 18.8744 119.754 20.9271 120.253 23.0257ZM117.374 16.9284L117.22 16.9082C117.026 17.8541 116.832 18.7893 116.631 19.7582H117.863L117.374 16.9284Z" fill="black"/>
<path id="Vector_28" d="M92.1211 22.981L93.3363 18.5391C93.5787 17.6526 93.8427 16.7715 94.0584 15.8797C94.1615 15.454 94.3625 15.2864 94.7979 15.304C96.6736 15.3769 96.2717 14.9296 96.7553 16.8634C97.2148 18.6864 97.6395 20.5188 98.0776 22.3486C98.1232 22.5418 98.154 22.7391 98.2116 23.0553C97.6757 23.0553 97.2041 23.077 96.7379 23.0405C96.612 23.0297 96.4579 22.8567 96.3936 22.7215C96.3293 22.5864 96.34 22.3702 96.3105 22.1932C96.1069 20.9553 95.8965 20.7986 94.6586 21.0148C94.5064 21.0706 94.3774 21.1768 94.2928 21.3161C94.2353 21.4377 94.1995 21.5685 94.187 21.7026C93.8092 23.2432 93.8092 23.2432 92.1211 22.981ZM95.3285 16.8351H95.2039C95.0109 17.8062 94.8171 18.7806 94.6224 19.758H95.8416C95.658 18.7391 95.4946 17.7878 95.3285 16.8351Z" fill="black"/>
<path id="Vector_29" d="M88.6163 33.5231C88.0804 33.5231 87.6263 33.5515 87.1707 33.5055C87.0368 33.492 86.8813 33.2907 86.7929 33.1407C86.7192 33.015 86.7313 32.838 86.6965 32.6853C86.4218 31.4893 86.7259 31.6042 85.3567 31.5758C84.8918 31.565 84.6319 31.6947 84.6051 32.1812C84.6051 32.2028 84.585 32.2217 84.5783 32.2434C84.1616 33.6988 84.1616 33.6988 82.5459 33.4596C82.645 33.0542 82.7321 32.642 82.842 32.2434C83.3672 30.3231 83.9138 28.4082 84.4189 26.4839C84.5435 26.015 84.7109 25.7893 85.2602 25.8082C86.746 25.8569 86.7688 25.819 87.1238 27.2488C87.6329 29.2974 88.1045 31.3609 88.6163 33.5231ZM85.7345 27.4326H85.5925L85.0017 30.2434H86.2316C86.0574 29.2501 85.8966 28.3407 85.7345 27.4326Z" fill="black"/>
<path id="Vector_30" d="M111.536 41.2784C112.072 41.3324 112.687 41.2216 113.035 41.477C113.384 41.7324 112.873 43.1973 112.377 43.596C111.476 44.3203 110.441 44.3054 109.401 44.0014C108.498 43.7405 108.043 43.0433 108.025 42.1433C107.996 40.7351 107.947 39.3054 108.124 37.9189C108.293 36.5838 109.632 35.9743 111.295 36.273C112.53 36.4946 113.188 37.4338 113.037 38.8338H111.535C111.472 38.5635 111.482 38.2541 111.334 38.0689C111.122 37.8081 110.787 37.4743 110.517 37.4838C110.246 37.4933 109.758 37.8703 109.746 38.1068C109.672 39.4958 109.672 40.888 109.746 42.277C109.76 42.5149 110.234 42.873 110.525 42.9041C110.768 42.9297 111.141 42.6149 111.296 42.3527C111.468 42.0716 111.458 41.6743 111.536 41.2784Z" fill="black"/>
<path id="Vector_31" d="M108.543 30.3877V33.4661H106.944V25.9147C108.13 25.9147 109.286 25.8269 110.428 25.9404C111.5 26.0472 112.215 27.2053 112.092 28.3418C111.958 29.5228 111.106 30.3688 109.999 30.3864C109.533 30.3958 109.071 30.3877 108.543 30.3877ZM108.52 28.1728C108.679 28.5134 108.142 29.2539 109.104 29.2282C109.979 29.2053 110.388 28.8877 110.393 28.1553C110.393 27.3837 110.062 27.1228 109.217 27.062C108.269 26.9945 108.564 27.6539 108.52 28.1728Z" fill="black"/>
<path id="Vector_32" d="M92.6386 28.4446C92.6171 28.1054 92.6386 27.873 92.5823 27.6622C92.4698 27.2392 92.2353 26.9581 91.7329 26.973C91.2693 26.9879 90.8942 27.1541 90.8781 27.6311C90.8312 28.9987 90.8031 30.369 90.8781 31.7325C90.8929 31.9865 91.3899 32.3527 91.7141 32.4162C92.1723 32.5068 92.4845 32.1284 92.5796 31.6649C92.6186 31.3887 92.6383 31.1101 92.6386 30.8311C92.7136 30.7838 92.7525 30.7365 92.7859 30.7406C93.2656 30.796 93.8577 30.7068 94.1913 30.9608C94.5249 31.2149 94.0051 32.6703 93.559 33.096C92.7444 33.8703 90.3342 33.95 89.6281 32.8014C89.391 32.4162 89.186 31.9433 89.1686 31.5027C89.119 30.296 89.0641 29.0703 89.2195 27.8811C89.45 26.1122 90.771 25.3406 92.514 25.7933C93.5938 26.073 94.2409 26.8744 94.2557 27.873C94.2624 28.3135 94.1217 28.4879 93.6796 28.45C93.3513 28.423 93.0204 28.4446 92.6386 28.4446Z" fill="black"/>
<path id="Vector_33" d="M76.9961 36.4689C77.0514 36.4391 77.1098 36.4155 77.1703 36.3986C78.6132 36.2486 78.6132 36.2486 78.6105 37.681V39.1419C79.1692 39.2081 79.6944 39.2392 80.2075 39.3351C81.4736 39.5743 82.1314 40.6081 81.976 42.0648C81.842 43.3135 81.0542 44.0135 79.7707 44.0175C78.8624 44.0175 77.954 44.0175 76.9961 44.0175V36.4689ZM78.644 42.8378C79.2187 42.8121 79.7948 43.0405 80.1485 42.4743C80.3053 42.2413 80.3851 41.9643 80.3767 41.6828C80.3683 41.4014 80.272 41.1298 80.1016 40.9067C79.7386 40.4054 79.2053 40.4459 78.644 40.5716V42.8378Z" fill="black"/>
<path id="Vector_34" d="M65.193 42.9961C66.1549 42.8785 66.2902 42.6488 65.9647 41.7799C65.3042 40.0231 64.6464 38.2664 63.9443 36.3866C64.5204 36.3866 65.0255 36.3434 65.5159 36.411C65.6753 36.4339 65.8562 36.7231 65.9258 36.9258C66.2849 37.961 66.6091 39.0055 67.0097 40.2447C67.3272 39.2718 67.5965 38.488 67.8417 37.6853C68.2932 36.2177 68.2878 36.215 69.9732 36.4474C69.8687 36.7664 69.779 37.0772 69.6678 37.3799C68.9979 39.2082 68.3548 41.0528 67.6126 42.8528C67.4089 43.3461 66.9628 43.8704 66.4952 44.092C65.5494 44.538 65.0469 44.0731 65.193 42.9961Z" fill="black"/>
<path id="Vector_35" d="M96.872 27.0731H95.9007C94.8289 27.0731 94.8021 27.0434 95.0245 25.865H100.392V27.0623H98.532V28.8866C98.532 30.1907 98.4971 31.4961 98.5467 32.8055C98.5695 33.4217 98.3658 33.6163 97.7884 33.5407C97.4832 33.5221 97.1772 33.5221 96.872 33.5407V27.0731Z" fill="black"/>
<path id="Vector_36" d="M131.319 18.5134C131.808 19.6148 130.973 19.8648 130.352 20.2986C130.909 20.8661 131.825 21.2283 131.348 22.3256C130.813 21.8823 130.208 21.5148 129.82 20.9905C129.613 20.7121 129.623 20.0188 129.832 19.7378C130.198 19.2513 130.791 18.9323 131.319 18.5134Z" fill="black"/>
<path id="Vector_37" d="M133.418 18.4514C133.542 19.5055 133.542 19.5055 132.43 20.3203C132.925 20.846 133.848 21.1649 133.421 22.1649C132.743 21.969 131.687 20.969 131.666 20.4866C131.611 19.2771 132.77 19.2095 133.418 18.4514Z" fill="black"/>
<path id="Vector_38" d="M148.121 20.1987C147.404 19.7865 146.781 19.3878 147.212 18.4216C147.758 18.85 148.378 19.196 148.783 19.7135C148.977 19.9608 148.917 20.6595 148.698 20.9297C148.318 21.4149 147.731 21.7406 147.224 22.1324C146.734 21.123 147.562 20.7824 148.121 20.1987Z" fill="black"/>
<path id="Vector_39" d="M149.341 22.1203C148.952 21.1339 149.583 20.7176 150.243 20.2284C149.55 19.823 148.926 19.4176 149.346 18.4514C149.835 18.8393 150.428 19.142 150.753 19.6271C150.965 19.942 150.959 20.6379 150.753 20.9568C150.433 21.4352 149.849 21.723 149.341 22.1203Z" fill="black"/>
<path id="Vector_40" d="M95.3291 16.8352C95.4952 17.7812 95.6627 18.7393 95.8422 19.7595H94.623C94.8178 18.7811 95.0116 17.8068 95.2045 16.8366L95.3291 16.8352Z" fill="white"/>
</g>
</g>
</g>
</svg>
