<svg width="101" height="50" viewBox="0 0 101 50" fill="none" xmlns="http://www.w3.org/2000/svg">
<g id="Gazprom-Logo-rus">
<g id="layer1">
<g id="g2058">
<path id="path26" d="M31.5889 31.8813H37.8681V33.9484H34.881V48.472H31.5889V31.8813Z" fill="#464646"/>
<path id="path28" d="M41.5911 42.2437L42.1553 33.9484H42.3443L42.9085 42.2437H41.5911ZM37.9453 48.472H41.1686L41.4737 44.0659H43.0259L43.3323 48.472H46.5543L44.8374 31.8813H39.6623L37.9453 48.472Z" fill="#464646"/>
<path id="path30" d="M51.2691 42.6652V45.793C51.2691 46.2146 51.593 46.3369 51.782 46.3369C52.0925 46.3369 52.3084 46.0786 52.3084 45.793V41.9309C52.3084 41.4142 52.2139 40.843 50.9856 40.843H49.6493V39.0208H51.0396C51.971 39.0208 52.3084 38.8032 52.3084 37.7833V34.4923C52.3084 34.2068 52.0925 33.9484 51.782 33.9484C51.593 33.9484 51.2691 34.0572 51.2691 34.4923V37.1985H47.9756V34.8459C47.9756 33.69 48.1106 31.8813 50.4187 31.8813H53.1453C55.4534 31.8813 55.6019 33.69 55.6019 34.8459V37.4977C55.6019 39.3063 54.3466 39.7959 53.3613 39.7551V39.9183C55.5749 39.8639 55.6019 41.5773 55.6019 42.1621V45.5074C55.6019 46.6769 55.4534 48.472 53.1453 48.472H50.4187C48.1106 48.472 47.9756 46.6769 47.9756 45.5074V42.6652H51.2691Z" fill="#464646"/>
<path id="path32" d="M57.7617 31.8813H65.3881V48.472H62.0946V33.9484H61.0552V48.472H57.7617V31.8813Z" fill="#464646"/>
<path id="path34" d="M70.8414 41.0062V33.9484H71.2733C71.6242 33.9484 71.8807 34.2475 71.8807 34.7779V40.1767C71.8807 40.707 71.6242 41.0062 71.2733 41.0062H70.8414ZM67.5479 48.472H70.8414V42.8284H72.7311C75.0257 42.8284 75.1742 41.0334 75.1742 39.8639V34.8459C75.1742 33.69 75.0257 31.8813 72.7311 31.8813H67.5479V48.472Z" fill="#464646"/>
<path id="path36" d="M81.6668 45.793C81.6668 46.0786 81.4509 46.3369 81.1404 46.3369C80.9514 46.3369 80.6275 46.2146 80.6275 45.793V34.4923C80.6275 34.0572 80.9514 33.9484 81.1404 33.9484C81.4509 33.9484 81.6668 34.2068 81.6668 34.4923V45.793ZM77.334 45.5074C77.334 46.6769 77.4825 48.472 79.7771 48.472H82.5172C84.8118 48.472 84.9603 46.6769 84.9603 45.5074V34.8459C84.9603 33.69 84.8118 31.8813 82.5172 31.8813H79.7771C77.4825 31.8813 77.334 33.69 77.334 34.8459V45.5074Z" fill="#464646"/>
<path id="path38" d="M95.6768 31.8813H99.9692V48.472H96.6757V38.0688H96.5542L94.8535 48.472H92.2214L90.5341 38.0688H90.4126V48.472H87.1191V31.8813H91.398L93.5442 43.5492L95.6768 31.8813Z" fill="#464646"/>
<path id="path40" d="M27.3214 9.19843C26.3131 4.75161 23.7863 1.13431 23.4381 0.549561C22.8873 1.37909 20.8721 4.57482 19.8476 8.11053C18.7286 12.0678 18.5639 15.5763 18.95 19.0168C19.3333 22.4709 20.7817 26.0202 20.7817 26.0202C21.551 27.8697 22.7038 29.8687 23.4543 30.8478C24.5543 29.4064 27.0825 25.1091 27.8708 19.5064C28.3095 16.3786 28.3284 13.6453 27.3214 9.19843ZM23.4381 29.7327C22.9427 28.7944 22.1733 27.013 22.1004 24.2388C22.0815 21.5734 23.1438 19.2752 23.4543 18.7992C23.731 19.2752 24.6461 21.2742 24.7555 24.0076C24.8297 26.673 23.9496 28.7808 23.4381 29.7327ZM27.0285 16.7458C26.9907 18.4457 26.7896 20.2407 26.5331 21.315C26.6249 19.4656 26.4049 16.8682 25.9838 14.8284C25.5626 12.8021 24.3708 9.40242 23.4192 7.83855C22.5404 9.33443 21.4579 12.2718 20.891 14.8148C20.3214 17.3578 20.3052 20.4447 20.3052 21.3694C20.154 20.5943 19.7761 17.8065 19.8827 15.0187C19.9718 12.7205 20.5063 10.3407 20.7992 9.25284C21.9168 5.62194 23.1816 3.29653 23.4192 2.92936C23.6567 3.29653 25.2495 6.16589 26.0756 9.17124C26.8976 12.1766 27.0636 15.0595 27.0285 16.7458Z" fill="#464646"/>
<path id="path42" d="M24.7656 31.9482H17.1001V37.1293C17.1069 37.1293 17.1123 37.1158 17.119 37.1158C18.925 35.2935 21.8541 35.2935 23.6615 37.1158C25.4675 38.9244 25.4675 41.8754 23.6615 43.6976C23.6534 43.7112 23.6453 43.7112 23.6372 43.7248C23.6277 43.7248 23.6183 43.7384 23.6102 43.752C21.8082 45.5471 19.4542 46.4446 17.1001 46.4446C14.7353 46.4446 12.3704 45.5471 10.5671 43.7248C7.38699 40.5291 7.0104 35.5655 9.43463 31.9482C9.76127 31.4586 10.1379 30.9963 10.5671 30.5611C12.3704 28.7389 14.7353 27.8413 17.1001 27.8413V15.3848C8.0133 15.3848 0.647461 22.7961 0.647461 31.9482C0.647461 41.1002 8.0133 48.5252 17.1001 48.5252C21.8379 48.5252 26.106 46.499 29.1079 43.276V31.9482H24.7656Z" fill="#464646"/>
</g>
</g>
</g>
</svg>
