<svg width="142" height="50" viewBox="0 0 142 50" fill="none" xmlns="http://www.w3.org/2000/svg">
<g id="&#208;&#160;&#208;&#190;&#209;&#129;&#208;&#176;&#209;&#130;&#208;&#190;&#208;&#188;" clip-path="url(#clip0_369_16962)">
<path id="Vector" d="M29.0147 28.5625C28.3205 29.3308 27.4147 29.8755 26.4118 30.1278C25.4089 30.3801 24.3539 30.3287 23.3802 29.98C22.4064 29.6314 21.5576 29.0012 20.9409 28.1691C20.3243 27.337 19.9675 26.3403 19.9157 25.3049C19.864 24.2696 20.1194 23.2421 20.6499 22.3523C21.1804 21.4625 21.9621 20.7503 22.8962 20.3057C23.8302 19.8611 24.8748 19.7041 25.8979 19.8546C26.9209 20.005 27.8765 20.4561 28.6439 21.1508C29.1551 21.6122 29.5703 22.1703 29.8657 22.793C30.1611 23.4157 30.331 24.0908 30.3654 24.7794C30.3999 25.4681 30.2983 26.1569 30.0665 26.8061C29.8347 27.4553 29.4773 28.0522 29.0147 28.5625Z" fill="url(#paint0_radial_369_16962)"/>
<path id="Vector_2" d="M26.5039 7.07859C26.9365 7.5123 27.3459 7.95375 27.709 8.3952C28.9723 9.90619 30.0129 11.591 30.799 13.3983C32.0388 13.6301 33.3011 13.7185 34.561 13.6616H34.7851H34.9859C38.4278 13.3463 41.6402 11.7951 44.0318 9.29359L44.3485 8.96831C43.8696 8.3952 43.3829 7.83758 42.8499 7.30319C38.5953 3.0528 32.9573 0.479143 26.9662 0.0525446C20.975 -0.374054 15.0308 1.37489 10.2197 4.97977C17.8674 1.24681 23.1745 3.81806 26.5039 7.07859Z" fill="url(#paint1_linear_369_16962)"/>
<path id="Vector_3" d="M8.79907 32.5279C8.95357 31.9316 9.13124 31.3585 9.32436 30.8241C10.0017 28.9736 10.9381 27.2291 12.1053 25.6429C11.6875 24.4516 11.1327 23.3132 10.4522 22.2507L10.3286 22.057L10.2127 21.8944C8.23069 19.0911 5.31165 17.0934 1.98566 16.264L1.54534 16.1323C1.29042 16.8294 1.05867 17.5341 0.85782 18.2621C-0.689973 24.0793 -0.0986228 30.2606 2.52384 35.6768C5.1463 41.093 9.62483 45.3826 15.1412 47.7618C8.07292 42.9601 7.6326 37.0431 8.79907 32.5279Z" fill="url(#paint2_linear_369_16962)"/>
<path id="Vector_4" d="M39.7064 35.2153C39.1116 35.3779 38.5245 35.5096 37.9605 35.6103C36.0242 35.9464 34.0499 36.0038 32.0973 35.7806C31.2802 36.7287 30.5752 37.7682 29.9961 38.8785C29.9961 38.9482 29.9266 39.0102 29.8957 39.0799C29.8642 39.1404 29.8358 39.2024 29.8107 39.2658C28.3653 42.3896 28.091 45.931 29.0382 49.241C29.0382 49.3881 29.1232 49.5353 29.1696 49.6824C29.8957 49.5508 30.6296 49.4114 31.3557 49.2178C37.1442 47.6474 42.178 44.0457 45.5409 39.0679C48.9038 34.0902 50.3724 28.0675 49.6793 22.0957C49.0613 30.6381 44.1714 33.9684 39.7064 35.2153Z" fill="url(#paint3_linear_369_16962)"/>
<path id="Vector_5" d="M10.1818 4.97996C6.51949 7.54529 3.65643 11.0977 1.92383 15.2262C4.49992 15.7716 6.88639 16.9901 8.84131 18.7582C10.7962 20.5264 12.2501 22.7813 13.0555 25.2944C13.743 24.8529 15.8596 23.1723 17.281 18.5565C19.0037 12.9725 22.2636 8.85233 26.5046 7.05555C26.5046 7.07878 21.1358 -0.580759 10.1818 4.97996Z" fill="url(#paint4_linear_369_16962)"/>
<path id="Vector_6" d="M27.3777 45.1827C27.3747 41.4409 28.7723 37.8342 31.2942 35.0759L31.3329 35.0216C30.8153 34.4718 29.0154 33.1242 24.3804 34.1775C18.7335 35.4708 12.4608 35.3237 8.7992 32.5278C8.7992 32.5278 4.85948 41.047 15.1414 47.7462C19.1821 49.644 23.6764 50.3556 28.1038 49.7986C27.6108 48.3103 27.3655 46.7509 27.3777 45.1827Z" fill="url(#paint5_linear_369_16962)"/>
<path id="Vector_7" d="M44.9591 9.80493C43.576 11.381 41.8744 12.6442 39.9672 13.5108C38.0601 14.3773 35.9909 14.8275 33.897 14.8313C32.7937 14.8273 31.6936 14.7106 30.6139 14.4828H30.5598C30.3435 15.2572 30.1736 17.4645 33.3022 20.8412C37.2651 25.1318 40.2546 30.646 39.7062 35.2231C39.7062 35.2231 48.9761 34.3945 49.6791 22.1036C49.2963 17.6393 47.6598 13.3751 44.9591 9.80493Z" fill="url(#paint6_linear_369_16962)"/>
<path id="Vector_8" d="M61.2127 31.3972H58.6094V19.2302H62.7886C65.8785 19.2302 67.7634 20.5004 67.7634 23.2962C67.7634 26.0921 65.7858 27.5945 62.5723 27.5945H61.2127V31.3972ZM61.1586 25.2944H62.5723C64.1173 25.2944 65.0674 24.6903 65.0674 23.4046C65.0674 22.119 64.1945 21.5304 62.5723 21.5304H61.1586V25.2944Z" fill="#1A1A1A"/>
<path id="Vector_9" d="M69.6562 25.3175C69.6562 21.2282 72.136 19.021 75.4809 19.021C79.2275 19.021 81.3982 21.4064 81.3982 25.3175C81.3982 29.6468 78.8798 31.6062 75.5504 31.6062C72.0355 31.6062 69.6562 29.4299 69.6562 25.3175ZM78.6404 25.3175C78.6404 22.5526 77.3735 21.3212 75.4809 21.3212C73.7659 21.3212 72.3909 22.6068 72.3909 25.3175C72.3909 28.0281 73.7968 29.3137 75.6199 29.3137C77.443 29.3137 78.6404 28.0436 78.6404 25.3175Z" fill="#1A1A1A"/>
<path id="Vector_10" d="M92.9699 30.9093C91.9563 31.4287 90.8234 31.6692 89.6868 31.6063C85.9788 31.6063 83.5068 29.4688 83.5068 25.4725C83.5068 21.2826 85.9479 19.0211 89.9185 19.0211C90.9769 18.9965 92.029 19.1917 93.0085 19.5942L92.4369 21.786C91.7527 21.5623 91.0397 21.4397 90.3202 21.422C87.9255 21.422 86.2955 22.6224 86.2955 25.2943C86.2955 27.8656 87.8405 29.1667 90.3048 29.1667C91.0427 29.1428 91.7703 28.9854 92.4523 28.702L92.9699 30.9093Z" fill="#1A1A1A"/>
<path id="Vector_11" d="M102.487 28.1522H97.3344L96.1602 31.3972H94.6152L99.2502 19.2302H100.795L105.337 31.3972H103.707L102.487 28.1522ZM97.8056 26.7271H101.969L99.9454 21.0038H99.8759L97.8056 26.7271Z" fill="#1A1A1A"/>
<path id="Vector_12" d="M110.699 31.3972H109.154V20.694H105.562V19.2302H114.298V20.694H110.699V31.3972Z" fill="#1A1A1A"/>
<path id="Vector_13" d="M115.936 25.3176C115.936 21.4452 118.176 19.0598 121.343 19.0598C124.951 19.0598 126.89 21.6311 126.89 25.3176C126.89 29.4532 124.572 31.5753 121.397 31.5753C118.068 31.5753 115.936 29.1744 115.936 25.3176ZM125.267 25.3176C125.267 21.9796 123.776 20.5158 121.405 20.5158C119.273 20.5158 117.627 22.0648 117.627 25.3176C117.627 28.5703 119.219 30.1115 121.613 30.1115C123.861 30.1115 125.267 28.4619 125.267 25.3176Z" fill="#1A1A1A"/>
<path id="Vector_14" d="M142 31.3972H140.455L139.683 21.8944L136.593 31.3972H134.963L131.919 21.9254L131.147 31.3972H129.602L130.637 19.2302H132.545L135.82 29.6934L139.049 19.2302H140.957L142 31.3972Z" fill="#1A1A1A"/>
</g>
<defs>
<radialGradient id="paint0_radial_369_16962" cx="0" cy="0" r="1" gradientUnits="userSpaceOnUse" gradientTransform="translate(23.5059 21.3426) scale(7.34465 7.36346)">
<stop stop-color="#CECECE"/>
<stop offset="1" stop-color="#6F6F6F"/>
</radialGradient>
<linearGradient id="paint1_linear_369_16962" x1="20.2911" y1="9.54476" x2="23.8234" y2="-2.7077" gradientUnits="userSpaceOnUse">
<stop stop-color="#CACACA"/>
<stop offset="1" stop-color="#5A5A5A"/>
</linearGradient>
<linearGradient id="paint2_linear_369_16962" x1="4.47709" y1="38.2108" x2="18.6195" y2="28.7997" gradientUnits="userSpaceOnUse">
<stop stop-color="#CACACA"/>
<stop offset="1" stop-color="#5A5A5A"/>
</linearGradient>
<linearGradient id="paint3_linear_369_16962" x1="34.7885" y1="41.3522" x2="48.1236" y2="26.9853" gradientUnits="userSpaceOnUse">
<stop stop-color="#CACACA"/>
<stop offset="1" stop-color="#5A5A5A"/>
</linearGradient>
<linearGradient id="paint4_linear_369_16962" x1="9.17755" y1="18.5487" x2="19.0933" y2="3.36902" gradientUnits="userSpaceOnUse">
<stop stop-color="#CACACA"/>
<stop offset="1" stop-color="#5A5A5A"/>
</linearGradient>
<linearGradient id="paint5_linear_369_16962" x1="27.8721" y1="40.2184" x2="10.1501" y2="42.0215" gradientUnits="userSpaceOnUse">
<stop stop-color="#D7D7D7"/>
<stop offset="1" stop-color="#6A6A6A"/>
</linearGradient>
<linearGradient id="paint6_linear_369_16962" x1="36.1294" y1="27.5477" x2="48.4345" y2="14.6013" gradientUnits="userSpaceOnUse">
<stop stop-color="#CACACA"/>
<stop offset="1" stop-color="#5A5A5A"/>
</linearGradient>
<clipPath id="clip0_369_16962">
<rect width="142" height="50" fill="white"/>
</clipPath>
</defs>
</svg>
