<svg width="178" height="50" viewBox="0 0 178 50" fill="none" xmlns="http://www.w3.org/2000/svg">
<g id="Sberbank_Logo_2020" clip-path="url(#clip0_369_16944)">
<path id="Vector" d="M43.5824 9.07324C44.7382 10.5952 45.7166 12.2486 46.4978 14.0003L24.3355 30.64L15.0732 24.7263V17.6119L24.3355 23.5256L43.5824 9.07324Z" fill="#5F5F5F"/>
<path id="Vector_2" d="M5.62083 24.2245C5.62083 23.9053 5.62847 23.5881 5.64376 23.2728L0.0305704 22.9927C0.0114649 23.4013 6.78327e-06 23.8139 6.78327e-06 24.2303C-0.00238147 27.4836 0.625896 30.7053 1.84881 33.7106C3.07172 36.716 4.86519 39.4459 7.12634 41.7436L11.1079 37.6903C9.36736 35.9246 7.98657 33.826 7.04491 31.5151C6.10325 29.2042 5.61929 26.7265 5.62083 24.2245Z" fill="#5F5F5F"/>
<path id="Vector_3" d="M24.331 5.16757C24.6443 5.16757 24.9556 5.17925 25.2651 5.19481L25.546 -0.524261C25.1436 -0.54372 24.7385 -0.553448 24.331 -0.553448C21.1353 -0.557418 17.9705 0.0815713 15.018 1.32683C12.0656 2.57208 9.38374 4.39908 7.12646 6.70292L11.108 10.7582C12.8416 8.98486 14.9023 7.57799 17.1716 6.61855C19.4409 5.65911 21.8739 5.16599 24.331 5.16757Z" fill="#5F5F5F"/>
<path id="Vector_4" d="M24.3307 43.2796C24.0174 43.2796 23.706 43.2796 23.3946 43.2543L23.1138 48.9714C23.5175 48.9921 23.9232 49.0026 24.3307 49.0026C27.5251 49.0059 30.6884 48.3665 33.6392 47.1209C36.5901 45.8753 39.2702 44.048 41.5258 41.7443L37.5518 37.6909C35.8179 39.4633 33.7574 40.8694 31.4886 41.8285C29.2198 42.7876 26.7872 43.2808 24.3307 43.2796Z" fill="#5F5F5F"/>
<path id="Vector_5" d="M34.8767 8.49293L39.6072 4.94161C35.2835 1.37562 29.8863 -0.565563 24.3228 -0.555626V5.16734C28.0902 5.16258 31.7701 6.32219 34.8767 8.49293Z" fill="#5F5F5F"/>
<path id="Vector_6" d="M48.6598 24.2236C48.6628 22.7348 48.535 21.2486 48.2776 19.783L43.0409 23.7137C43.0409 23.8831 43.0409 24.0524 43.0409 24.2236C43.0423 26.8861 42.4942 29.5193 41.4326 31.9524C40.3708 34.3854 38.8188 36.564 36.8774 38.347L40.6546 42.599C43.1786 40.2783 45.1955 37.4433 46.5745 34.2778C47.9536 31.1122 48.664 27.6867 48.6598 24.2236Z" fill="#5F5F5F"/>
<path id="Vector_7" d="M24.3309 43.2805C21.7165 43.2814 19.1311 42.7231 16.7419 41.6417C14.3529 40.5604 12.2135 38.9799 10.4622 37.0029L6.28955 40.8481C8.5678 43.4191 11.3512 45.4737 14.4592 46.8787C17.5672 48.2835 20.9304 49.0075 24.3309 49.0034V43.2805Z" fill="#5F5F5F"/>
<path id="Vector_8" d="M11.7843 10.1005L8.00902 5.84863C5.48437 8.16891 3.46675 11.0038 2.087 14.1693C0.707274 17.3349 -0.00376162 20.7605 1.49656e-05 24.224H5.62084C5.61968 21.5615 6.16775 18.9284 7.22949 16.4953C8.29125 14.0624 9.84301 11.8837 11.7843 10.1005Z" fill="#5F5F5F"/>
<g id="Clip path group">
<mask id="mask0_369_16944" style="mask-type:luminance" maskUnits="userSpaceOnUse" x="61" y="8" width="255" height="33">
<g id="clip0">
<path id="Vector_9" d="M315.666 8.06421H61.7607V40.8228H315.666V8.06421Z" fill="white"/>
</g>
</mask>
<g mask="url(#mask0_369_16944)">
<g id="Group">
<path id="Vector_10" d="M140.405 13.6152L147.366 8.45068H124.068V39.4852H147.366V34.3207H130.716V26.3711H144.919V21.2066H130.716V13.6152H140.405Z" fill="#747474"/>
<path id="Vector_11" d="M108.391 20.5389H100.302V13.6114H113.212L120.169 8.43115H93.6582V39.4657H107.535C115.316 39.4657 119.781 35.9148 119.781 29.7221C119.781 23.7977 115.736 20.5389 108.391 20.5389ZM107.236 34.2995H100.302V25.7002H107.236C111.444 25.7002 113.417 27.1413 113.417 29.9999C113.417 32.8584 111.318 34.2995 107.236 34.2995Z" fill="#747474"/>
<path id="Vector_12" d="M164.493 8.44629H151.811V39.4807H158.458V30.6892H164.493C172.584 30.6892 177.589 26.4018 177.589 19.5512C177.589 12.7008 172.584 8.44629 164.493 8.44629ZM164.352 25.5207H158.458V13.6148H164.352C168.608 13.6148 170.957 15.7303 170.957 19.5701C170.957 23.41 168.608 25.5207 164.352 25.5207Z" fill="#747474"/>
<path id="Vector_13" d="M83.6829 32.1558C81.9657 33.0921 80.0419 33.577 78.0893 33.5655C72.2452 33.5655 68.0056 29.3641 68.0056 23.5788C68.0056 17.7934 72.2452 13.5829 78.0893 13.5829C80.1969 13.5468 82.2606 14.1904 83.9792 15.4196L88.629 11.9712L88.3145 11.7463C85.6021 9.34486 81.978 8.073 77.8296 8.073C73.3301 8.073 69.2502 9.59739 66.3371 12.3707C64.8642 13.7986 63.6994 15.517 62.915 17.4185C62.1307 19.32 61.7437 21.3638 61.7785 23.4226C61.7473 25.5023 62.1325 27.567 62.9111 29.4935C63.6896 31.42 64.8455 33.1687 66.3098 34.6353C69.2364 37.5188 73.3073 39.1075 77.7749 39.1075C82.4429 39.1075 86.523 37.4682 89.2856 34.4838L85.1235 31.3615L83.6829 32.1558Z" fill="#747474"/>
</g>
</g>
</g>
</g>
<defs>
<clipPath id="clip0_369_16944">
<rect width="178" height="50" fill="white"/>
</clipPath>
</defs>
</svg>
